<svg width="80" height="80" viewBox="0 0 80 80" fill="none" xmlns="http://www.w3.org/2000/svg">
<path d="M77.9506 61.1244H69.8448V53.3057C69.8448 52.5442 69.2295 51.9289 68.4697 51.9289H59.4066V44.1103C59.4066 43.3505 58.7913 42.7352 58.0307 42.7352H49.9649V34.914C49.9649 34.1542 49.3496 33.5389 48.5889 33.5389H29.7046C28.9449 33.5389 28.3287 34.1542 28.3287 34.914V42.7352H20.2629C19.5031 42.7352 18.887 43.3505 18.887 44.1103V51.9289H11.8176C11.0579 51.9289 10.4426 52.5442 10.4426 53.3057V61.1244H2.37505C1.61529 61.1244 1 61.7397 1 62.4994V71.6948C1 72.4546 1.61529 73.0699 2.37505 73.0699H21.2594H40.1419H59.0254C59.0324 73.0699 59.0376 73.0664 59.0437 73.0664C59.0524 73.0664 59.0576 73.0699 59.0637 73.0699H77.9489C78.7086 73.0699 79.3239 72.4546 79.3239 71.6948V62.4994C79.3257 61.7397 78.7104 61.1244 77.9506 61.1244ZM67.0929 61.1244H59.0654H59.0263H50.9605V54.6808H58.0307H67.0929V61.1244ZM40.1437 61.1244H32.077V54.6808H39.1463H48.2086V61.1244H40.1437ZM56.6556 51.9281H49.5854H49.5837H40.5231V45.4845H48.5898H56.6565V51.9281H56.6556ZM31.0805 36.2882H47.2139V42.7344H39.1463H31.0797L31.0805 36.2882ZM21.6388 45.4845H29.7055H37.7722V51.9281H30.7028H30.7011H21.6388V45.4845ZM13.1927 54.6799H20.2638H29.3252V61.1235H21.2594H13.1918L13.1927 54.6799ZM3.7501 63.8745H11.8176H19.8852V70.3198H3.7501V63.8745ZM22.6344 63.8745H30.7002H30.702H38.7678V70.3198H22.6344V63.8745ZM57.6512 70.3198H41.5187V63.8745H49.5845H49.5863H57.6521L57.6512 70.3198ZM76.5747 70.3198H60.4405V63.8745H68.4697H76.5747V70.3198Z" fill="#333333"/>
<path d="M34.8881 27.8337L42.7503 27.8171L42.9156 27.8145C45.0974 27.7649 46.925 26.812 47.9311 25.1932C48.945 23.5658 48.9911 21.4823 48.0582 19.4772L47.5438 18.3702L49.354 16.1527L49.3853 16.2189C49.6229 16.7297 50.1347 17.0265 50.6647 17.0143C50.8492 17.0091 51.0345 16.9682 51.2121 16.8864L59.7365 12.9248C61.5563 12.0807 62.3509 9.9119 61.5067 8.08953C60.6851 6.32111 58.4476 5.49521 56.6696 6.32285L48.1443 10.2818C47.8127 10.4367 47.556 10.7152 47.4307 11.0589C47.3054 11.4001 47.3219 11.7787 47.4768 12.1102L48.0686 13.3826L46.2558 15.5983L45.9399 14.9178C44.859 12.5889 42.873 11.2269 40.6294 11.2765C38.9715 11.3139 37.378 12.1381 36.1431 13.5976L31.0606 19.5956C28.8614 22.1925 29.4958 24.3499 29.8709 25.1576C30.2469 25.9617 31.4862 27.8398 34.8881 27.8337ZM57.8289 8.81708C58.2683 8.61257 58.8123 8.81883 59.0116 9.24788C59.2178 9.69346 59.0246 10.2235 58.5799 10.4306L51.3026 13.8117L50.5524 12.1981L57.8289 8.81708ZM33.1597 21.3727L38.2422 15.3747C38.9941 14.487 39.8609 14.0449 40.6921 14.0257C41.7791 14.0022 42.8069 14.7002 43.4456 16.0761L44.7128 18.8036C44.7154 18.8071 44.7154 18.8106 44.718 18.8141L45.5648 20.6364C46.6788 23.0341 45.4577 25.0061 42.8547 25.0662C42.8182 25.0662 42.7816 25.0662 42.7459 25.0662L34.8829 25.0827C32.2016 25.0862 31.4279 23.4187 33.1597 21.3727Z" fill="#333333"/>
</svg>
