<svg width="80" height="80" viewBox="0 0 80 80" fill="none" xmlns="http://www.w3.org/2000/svg">
<path fill-rule="evenodd" clip-rule="evenodd" d="M50.2667 58.6851C50.2631 58.5701 50.2827 58.4555 50.3242 58.3482C50.3658 58.2409 50.4285 58.143 50.5086 58.0604C50.5887 57.9777 50.6846 57.912 50.7905 57.8672C50.8965 57.8223 51.0104 57.7992 51.1255 57.7992C51.2406 57.7992 51.3545 57.8223 51.4605 57.8672C51.5664 57.912 51.6623 57.9777 51.7424 58.0604C51.8225 58.143 51.8852 58.2409 51.9268 58.3482C51.9683 58.4555 51.9879 58.5701 51.9843 58.6851V61.5452C51.9879 61.6603 51.9683 61.7748 51.9268 61.8822C51.8852 61.9895 51.8225 62.0874 51.7424 62.17C51.6623 62.2526 51.5664 62.3183 51.4605 62.3632C51.3545 62.4081 51.2406 62.4312 51.1255 62.4312C51.0104 62.4312 50.8965 62.4081 50.7905 62.3632C50.6846 62.3183 50.5887 62.2526 50.5086 62.17C50.4285 62.0874 50.3658 61.9895 50.3242 61.8822C50.2827 61.7748 50.2631 61.6603 50.2667 61.5452V58.6851ZM45.004 58.6851C45.0004 58.5701 45.02 58.4555 45.0616 58.3482C45.1031 58.2409 45.1658 58.143 45.2459 58.0604C45.326 57.9777 45.4219 57.912 45.5278 57.8672C45.6338 57.8223 45.7477 57.7992 45.8628 57.7992C45.9779 57.7992 46.0918 57.8223 46.1978 57.8672C46.3038 57.912 46.3996 57.9777 46.4797 58.0604C46.5598 58.143 46.6225 58.2409 46.6641 58.3482C46.7056 58.4555 46.7252 58.5701 46.7216 58.6851V61.5452C46.7252 61.6603 46.7056 61.7748 46.6641 61.8822C46.6225 61.9895 46.5598 62.0874 46.4797 62.17C46.3996 62.2526 46.3038 62.3183 46.1978 62.3632C46.0918 62.4081 45.9779 62.4312 45.8628 62.4312C45.7477 62.4312 45.6338 62.4081 45.5278 62.3632C45.4219 62.3183 45.326 62.2526 45.2459 62.17C45.1658 62.0874 45.1031 61.9895 45.0616 61.8822C45.02 61.7748 45.0004 61.6603 45.004 61.5452V58.6851ZM21.9949 50.0065H33.2586C33.4865 50.0065 33.705 50.097 33.8661 50.2581C34.0273 50.4193 34.1178 50.6378 34.1178 50.8657V64.7954C34.1179 64.9082 34.0958 65.02 34.0526 65.1243C34.0095 65.2286 33.9462 65.3233 33.8664 65.4031C33.7866 65.483 33.6918 65.5462 33.5875 65.5894C33.4832 65.6325 33.3715 65.6547 33.2586 65.6546H21.9949C21.767 65.6546 21.5485 65.564 21.3873 65.4029C21.2262 65.2418 21.1357 65.0232 21.1357 64.7954V50.8657C21.1359 50.6379 21.2265 50.4195 21.3876 50.2584C21.5486 50.0973 21.7671 50.0067 21.9949 50.0065ZM26.7675 56.9717V51.7215H22.8507V56.9717H26.7675ZM26.7675 63.937V58.6868H22.8507V63.937H26.7675ZM28.4859 58.6868V63.937H32.4027V58.6868H28.4859ZM28.4859 51.7215V56.9717H32.4027V51.7215H28.4859ZM58.1228 4.81318L54.3919 5.30153L54.5719 6.68575C54.6099 6.88867 54.5734 7.0985 54.4692 7.27669C54.3649 7.45489 54.1999 7.58949 54.0044 7.65578C52.449 8.18757 51.0113 9.01563 49.7709 10.0942C49.6217 10.2273 49.4306 10.304 49.2308 10.3112C49.031 10.3183 48.835 10.2554 48.6767 10.1334L47.5325 9.25334L45.2382 12.2368L46.3849 13.1193C46.5415 13.239 46.652 13.4092 46.6975 13.601C46.7431 13.7928 46.721 13.9945 46.6349 14.1719C45.911 15.6522 45.4793 17.2582 45.3632 18.902C45.3493 19.0997 45.2676 19.2864 45.1318 19.4307C44.9961 19.575 44.8146 19.6679 44.6182 19.6937L43.1873 19.8804L43.6756 23.6114L45.0599 23.4305C45.2627 23.3927 45.4723 23.4293 45.6503 23.5335C45.8283 23.6378 45.9628 23.8027 46.0291 23.998C46.5615 25.5533 47.3898 26.9909 48.4683 28.2315C48.6014 28.3807 48.6781 28.5718 48.6853 28.7716C48.6924 28.9714 48.6295 29.1674 48.5075 29.3257L47.6275 30.4699L50.6109 32.7625L51.4884 31.6158C51.6088 31.46 51.7793 31.3506 51.9711 31.306C52.1628 31.2613 52.3641 31.2842 52.541 31.3708C54.0217 32.0938 55.6275 32.5255 57.2711 32.6425C57.4687 32.6561 57.6556 32.7376 57.7999 32.8732C57.9442 33.0089 58.0371 33.1903 58.0628 33.3867L58.2495 34.8176L61.9805 34.3301L61.7996 32.9459C61.7618 32.743 61.7983 32.5332 61.9026 32.3551C62.0068 32.1769 62.1717 32.0423 62.3672 31.9758C63.9223 31.4435 65.3598 30.6155 66.6006 29.5374C66.7498 29.4042 66.9408 29.3274 67.1407 29.3202C67.3405 29.3131 67.5366 29.376 67.6948 29.4982L68.8391 30.3774L71.1316 27.394L69.9891 26.5123C69.8334 26.3917 69.724 26.221 69.6794 26.0292C69.6347 25.8373 69.6576 25.6359 69.7441 25.4589C70.467 23.9785 70.8987 22.3729 71.0158 20.7296C71.029 20.5319 71.1104 20.3449 71.2461 20.2005C71.3819 20.0561 71.5635 19.9633 71.76 19.9379L73.1909 19.7504L72.7034 16.0194L71.3183 16.2003C71.1155 16.2384 70.9057 16.202 70.7276 16.0977C70.5495 15.9934 70.4151 15.8283 70.3491 15.6327C69.8167 14.0776 68.9887 12.6401 67.9107 11.3993C67.7772 11.2503 67.7001 11.0592 67.693 10.8592C67.6858 10.6593 67.749 10.4632 67.8715 10.305L68.7499 9.16417L65.7664 6.87159L64.8839 8.0183C64.7636 8.17422 64.5932 8.28383 64.4014 8.32863C64.2096 8.37342 64.0083 8.35064 63.8314 8.26414C62.3513 7.53959 60.7457 7.1067 59.102 6.98909C58.9043 6.97553 58.7174 6.89389 58.573 6.75806C58.4287 6.62224 58.3359 6.44061 58.3103 6.24407L58.1228 4.81318ZM68.9174 32.43L72.8959 35.9435L71.0625 37.5644C70.5006 38.0271 69.7953 38.2801 69.0674 38.2801C68.3395 38.2801 67.6342 38.0271 67.0723 37.5644L63.753 34.6334L63.5864 33.3542C64.8832 32.8355 66.0992 32.1339 67.1973 31.2708L68.479 32.2558C68.6066 32.3549 68.7599 32.4154 68.9207 32.43H68.9174ZM50.8717 16.4978L62.3872 26.6648C60.9213 27.5629 59.206 27.9671 57.4933 27.818C55.7807 27.669 54.161 26.9745 52.8723 25.8367C51.5836 24.6989 50.6938 23.1777 50.3337 21.4968C49.9736 19.8158 50.1622 18.0636 50.8717 16.4978ZM65.1448 15.7961C66.0407 17.3498 66.3916 19.1584 66.1417 20.9344C65.8918 22.7104 65.0554 24.352 63.7655 25.5981L51.7576 14.9977C52.5557 13.936 53.6043 13.0885 54.8097 12.5309C56.0152 11.9732 57.34 11.7228 58.6658 11.802C59.9916 11.8811 61.2772 12.2874 62.4078 12.9845C63.5383 13.6816 64.4786 14.647 65.1448 15.7961ZM60.7096 10.4001C62.8892 10.9826 64.7993 12.303 66.1144 14.1362C67.4295 15.9694 68.0682 18.2019 67.9216 20.4532C67.775 22.7046 66.8522 24.8354 65.3105 26.4826C63.7688 28.1297 61.7036 29.1913 59.4669 29.4863C57.2302 29.7814 54.9604 29.2916 53.0443 28.1006C51.1282 26.9095 49.6845 25.0908 48.9591 22.9545C48.2338 20.8181 48.2717 18.4964 49.0665 16.3849C49.8613 14.2734 51.3637 12.5029 53.3177 11.3751C55.5552 10.0836 58.2137 9.73294 60.7096 10.4001ZM21.3907 29.3932L20.7673 28.3099C20.434 27.7615 20.824 27.524 20.779 26.9307C20.7555 26.6203 20.6273 26.3271 20.4153 26.0992C20.2033 25.8713 19.9201 25.7222 19.6123 25.6764C19.1464 25.6039 19.0114 25.2756 18.8006 24.9114L6.31013 35.9435L8.14353 37.5644C8.70543 38.0271 9.4107 38.2801 10.1386 38.2801C10.8665 38.2801 11.5718 38.0271 12.1337 37.5644L21.3882 29.3974L21.3907 29.3932ZM26.1408 18.4353L38.3813 7.62745C38.7185 7.32948 39.153 7.16502 39.603 7.16502C40.053 7.16502 40.4875 7.32948 40.8247 7.62745L44.279 10.6776L43.3623 11.8701C43.2935 11.9591 43.243 12.0607 43.2135 12.1692C43.1841 12.2777 43.1763 12.391 43.1906 12.5025C43.2049 12.614 43.241 12.7216 43.297 12.8192C43.3529 12.9167 43.4275 13.0023 43.5165 13.071L44.8024 14.0594C44.3819 15.0293 44.0697 16.0427 43.8715 17.0811L40.1697 13.8143C40.0131 13.675 39.8109 13.5981 39.6013 13.5981C39.3918 13.5981 39.1895 13.675 39.033 13.8143L28.6051 23.0238C28.5851 23.0155 28.3834 22.9572 28.3834 22.9563C28.0762 22.9109 27.7934 22.7624 27.5815 22.5354C27.3695 22.3083 27.2409 22.016 27.2167 21.7063C27.1717 21.1129 27.5617 20.8729 27.2284 20.3271L26.1383 18.4378L26.1408 18.4353ZM32.2144 40.332L32.1144 41.332L34.5778 44.1804L35.9112 43.4112L34.6778 39.8561L33.7611 39.4394L32.2144 40.332ZM34.3128 37.8102L35.7154 38.4419C35.8312 38.4943 35.9339 38.5716 36.0162 38.6685C36.0985 38.7653 36.1582 38.8792 36.1912 39.0019L37.7579 43.5188C37.8234 43.7086 37.82 43.9155 37.7482 44.1031C37.6764 44.2906 37.5409 44.447 37.3654 44.5446L34.8212 46.0155C34.6486 46.1147 34.4469 46.1507 34.2507 46.1172C34.0544 46.0838 33.876 45.983 33.7461 45.8322L30.5793 42.1712C30.5032 42.0834 30.4458 41.981 30.4105 41.8702C30.3753 41.7595 30.363 41.6427 30.3743 41.527L30.5285 39.997L25.0358 30.4874L23.9791 31.0916C23.7103 31.2207 23.4092 31.2671 23.114 31.225C22.8188 31.1829 22.5427 31.0541 22.3207 30.855L17.0705 35.4893V70.3431H39.4505V47.2047C39.4505 46.9768 39.541 46.7583 39.7021 46.5972C39.8633 46.436 40.0818 46.3455 40.3097 46.3455H56.6795C56.7922 46.3455 56.9039 46.3678 57.0081 46.4109C57.1123 46.4541 57.207 46.5174 57.2867 46.5972C57.3664 46.677 57.4296 46.7717 57.4727 46.876C57.5158 46.9802 57.5379 47.0919 57.5378 47.2047V70.3431H62.1346V36.0368L57.6262 36.626C57.5147 36.6406 57.4015 36.6332 57.293 36.604C57.1845 36.5748 57.0828 36.5246 56.9937 36.4561C56.9046 36.3876 56.8299 36.3022 56.7738 36.2048C56.7177 36.1074 56.6814 35.9999 56.667 35.8885L56.4569 34.2868C55.0697 34.1232 53.7137 33.7582 52.4318 33.2034L51.4434 34.4884C51.3747 34.5774 51.2892 34.652 51.1916 34.7079C51.0941 34.7639 50.9865 34.8 50.8749 34.8143C50.7634 34.8286 50.6502 34.8208 50.5417 34.7914C50.4332 34.7619 50.3315 34.7114 50.2426 34.6426L45.9024 31.3091C45.8133 31.2404 45.7386 31.1548 45.6826 31.0572C45.6266 30.9597 45.5904 30.852 45.576 30.7404C45.5616 30.6288 45.5693 30.5155 45.5987 30.4069C45.6281 30.2983 45.6787 30.1965 45.7474 30.1074L46.7333 28.8257C45.8697 27.7279 45.1681 26.5119 44.6498 25.2148L43.0473 25.4248C42.8222 25.4538 42.5948 25.3924 42.415 25.254C42.2351 25.1156 42.1176 24.9114 42.0881 24.6864L41.3781 19.2579C41.3634 19.1465 41.3709 19.0332 41.4001 18.9247C41.4292 18.8162 41.4795 18.7145 41.548 18.6254C41.6165 18.5363 41.7019 18.4616 41.7993 18.4055C41.8967 18.3495 42.0042 18.3132 42.1156 18.2987L42.5889 18.2362L39.6038 15.6002L29.6035 24.4339L30.3293 25.6906C30.4293 25.8628 30.4942 26.0531 30.5203 26.2505C30.5464 26.4479 30.5333 26.6485 30.4816 26.8408C30.43 27.0331 30.3408 27.2133 30.2193 27.371C30.0978 27.5287 29.9463 27.6609 29.7735 27.7598L28.8209 28.3007L34.3128 37.8102ZM26.5167 29.6324L27.3409 29.1566L32.5436 38.1652L31.7194 38.6411L26.5167 29.6324ZM17.2997 11.0017C17.9486 10.8444 18.631 10.9007 19.2454 11.1623C19.8598 11.4238 20.3734 11.8767 20.7098 12.4535L25.5825 20.8896C25.4018 21.6547 25.5211 22.4599 25.9158 23.1397C26.3094 23.8204 26.9464 24.3267 27.6984 24.5564L28.7459 26.3698L26.8167 27.484L20.1681 15.9711C20.1129 15.8716 20.0384 15.7841 19.949 15.7137C19.8595 15.6433 19.757 15.5914 19.6473 15.5611C19.5376 15.5307 19.4229 15.5226 19.3101 15.5371C19.1972 15.5515 19.0883 15.5884 18.9898 15.6454C18.8913 15.7024 18.8052 15.7785 18.7364 15.8692C18.6676 15.9599 18.6176 16.0634 18.5893 16.1736C18.561 16.2838 18.5549 16.3986 18.5714 16.5112C18.588 16.6238 18.6268 16.732 18.6856 16.8295L25.3317 28.3415L23.4041 29.4557L22.4157 27.7482C22.5962 27.0039 22.4878 26.2189 22.1124 25.5514C21.7203 24.846 21.0709 24.3193 20.2998 24.0814L15.3655 15.5369C15.0352 14.9568 14.9007 14.2858 14.9817 13.6232C15.0628 12.9606 15.3552 12.3418 15.8155 11.8584L17.3722 14.5544C17.4274 14.6539 17.5019 14.7414 17.5914 14.8118C17.6808 14.8822 17.7833 14.9341 17.893 14.9644C18.0027 14.9947 18.1174 15.0029 18.2303 14.9884C18.3432 14.9739 18.452 14.9371 18.5505 14.8801C18.649 14.823 18.7352 14.7469 18.8039 14.6563C18.8727 14.5656 18.9227 14.4621 18.951 14.3518C18.9793 14.2416 18.9854 14.1268 18.9689 14.0142C18.9524 13.9016 18.9136 13.7934 18.8548 13.696L17.2997 11.0017ZM47.6341 70.3431V48.0631H41.1681V70.3431H47.6341ZM49.3517 48.0631V70.3431H55.8219V48.0631H49.3517ZM74.5918 75.1882H4.71757V76.2824H74.5918V75.1882ZM13.197 73.4707H66.009V38.9094L63.8522 37.006V71.2023C63.852 71.43 63.7614 71.6483 63.6003 71.8093C63.4392 71.9702 63.2207 72.0606 62.993 72.0606H16.213C15.9853 72.0606 15.7668 71.9702 15.6057 71.8093C15.4446 71.6483 15.354 71.43 15.3538 71.2023V37.006L13.197 38.9094V73.4707ZM3.86338 73.4707C3.74988 73.47 3.63738 73.4919 3.53239 73.535C3.4274 73.5781 3.33199 73.6416 3.2517 73.7218C3.17141 73.802 3.10782 73.8973 3.06462 74.0023C3.02142 74.1072 2.99946 74.2197 3.00001 74.3332V77.1441C3.00067 77.3715 3.09151 77.5893 3.2526 77.7498C3.41368 77.9102 3.63184 78.0002 3.85921 78H75.4501C75.563 78.0001 75.6748 77.978 75.7791 77.9348C75.8833 77.8917 75.9781 77.8284 76.0579 77.7486C76.1377 77.6688 76.201 77.574 76.2441 77.4697C76.2873 77.3654 76.3094 77.2537 76.3093 77.1408V74.3332C76.3094 74.2203 76.2873 74.1086 76.2441 74.0043C76.201 73.9 76.1377 73.8052 76.0579 73.7254C75.9781 73.6456 75.8833 73.5823 75.7791 73.5392C75.6748 73.496 75.563 73.4739 75.4501 73.474H67.7273V39.8128C68.4938 40.0334 69.303 40.0605 70.0825 39.8918C70.862 39.7231 71.5875 39.3638 72.1942 38.8461L74.7484 36.591C74.8405 36.5111 74.9145 36.4124 74.9654 36.3016C75.0163 36.1908 75.043 36.0704 75.0437 35.9485C75.0444 35.8266 75.0191 35.7059 74.9695 35.5945C74.9199 35.4831 74.8471 35.3836 74.7559 35.3026L70.2641 31.3375L73.0142 27.7607C73.083 27.6717 73.1335 27.5701 73.163 27.4616C73.1925 27.3531 73.2003 27.2398 73.1859 27.1283C73.1716 27.0168 73.1355 26.9092 73.0795 26.8116C73.0236 26.7141 72.949 26.6285 72.86 26.5598L71.5725 25.5714C72.1273 24.2895 72.4923 22.9335 72.6559 21.5463L74.2576 21.3371C74.3691 21.3225 74.4766 21.2861 74.574 21.23C74.6714 21.1738 74.7567 21.099 74.8252 21.0099C74.8937 20.9207 74.944 20.819 74.9731 20.7104C75.0023 20.6018 75.0097 20.4885 74.9951 20.3771L74.2851 14.9485C74.2706 14.8371 74.2343 14.7296 74.1782 14.6322C74.1222 14.5348 74.0475 14.4494 73.9584 14.3809C73.8693 14.3125 73.7676 14.2622 73.659 14.233C73.5505 14.2039 73.4373 14.1964 73.3259 14.211L71.7233 14.4202C71.2046 13.1233 70.5031 11.9074 69.6399 10.8092L70.625 9.52752C70.6937 9.43856 70.7443 9.33692 70.7737 9.22841C70.8032 9.11991 70.811 9.00666 70.7967 8.89514C70.7824 8.78362 70.7462 8.67601 70.6903 8.57846C70.6344 8.48092 70.5598 8.39535 70.4708 8.32664L66.1298 4.99319C66.0408 4.92443 65.9392 4.87387 65.8307 4.8444C65.7222 4.81494 65.6089 4.80714 65.4974 4.82146C65.3859 4.83578 65.2783 4.87193 65.1807 4.92785C65.0832 4.98377 64.9976 5.05836 64.9289 5.14736L63.9439 6.42991C62.6619 5.87512 61.306 5.51016 59.9187 5.34653L59.7096 3.74481C59.695 3.63334 59.6586 3.52583 59.6024 3.42843C59.5463 3.33103 59.4715 3.24565 59.3823 3.17716C59.2932 3.10867 59.1914 3.05841 59.0828 3.02927C58.9742 3.00012 58.861 2.99265 58.7495 3.00728L53.3218 3.71481C53.2104 3.72929 53.1029 3.76561 53.0055 3.82167C52.9081 3.87773 52.8227 3.95244 52.7542 4.04152C52.6857 4.13061 52.6355 4.23233 52.6063 4.34085C52.5772 4.44938 52.5697 4.56259 52.5843 4.67401L52.7935 6.2774C51.4963 6.79544 50.2802 7.49707 49.1825 8.36081L47.9008 7.37494C47.721 7.23638 47.4935 7.17488 47.2683 7.20394C47.0431 7.233 46.8387 7.35026 46.6999 7.52995L45.3215 9.31751L41.9581 6.34574C41.31 5.76729 40.4717 5.44759 39.603 5.44759C38.7343 5.44759 37.896 5.76729 37.2479 6.34574L25.2666 16.9236L22.2324 11.6643C21.9221 11.1162 21.5068 10.6346 21.0104 10.247C20.514 9.85941 19.9461 9.57339 19.3391 9.40527C18.1133 9.06574 16.8028 9.22707 15.6959 9.85378C15.1478 10.1641 14.6662 10.5793 14.2786 11.0757C13.891 11.5722 13.605 12.1401 13.4369 12.7471C13.0974 13.9729 13.2587 15.2834 13.8854 16.3903L17.9297 23.398L4.45756 35.296C4.36591 35.3759 4.29232 35.4744 4.24165 35.585C4.19099 35.6955 4.16442 35.8156 4.16371 35.9372C4.163 36.0588 4.18817 36.1792 4.23754 36.2903C4.28691 36.4015 4.35935 36.5008 4.45006 36.5818L7.01182 38.8436C7.61837 39.3615 8.3439 39.7209 9.12345 39.8896C9.903 40.0584 10.7122 40.0311 11.4787 39.8103V73.4707H3.86338Z" fill="#333333"/>
</svg>
