<svg width="80" height="80" viewBox="0 0 80 80" fill="none" xmlns="http://www.w3.org/2000/svg">
<path d="M5.34311 73.283C4.69572 73.283 4.17137 73.8073 4.17137 74.4547V76.7982C4.17137 77.4456 4.69572 77.9699 5.34311 77.9699C5.99049 77.9699 6.51484 77.4456 6.51484 76.7982V74.4547C6.51484 74.1442 6.39181 73.8454 6.17211 73.6257C5.95241 73.406 5.65364 73.283 5.34311 73.283Z" fill="#333333"/>
<path d="M10.0301 73.283C9.38272 73.283 8.85837 73.8073 8.85837 74.4547V76.7982C8.85837 77.4456 9.38272 77.9699 10.0301 77.9699C10.6775 77.9699 11.2018 77.4456 11.2018 76.7982V74.4547C11.2018 74.1442 11.0788 73.8454 10.8591 73.6257C10.6394 73.406 10.3406 73.283 10.0301 73.283Z" fill="#333333"/>
<path d="M14.7171 73.283C14.0697 73.283 13.5454 73.8073 13.5454 74.4547V76.7982C13.5454 77.4456 14.0697 77.9699 14.7171 77.9699C15.3645 77.9699 15.8888 77.4456 15.8888 76.7982V74.4547C15.8888 74.1442 15.7658 73.8454 15.5461 73.6257C15.3264 73.406 15.0276 73.283 14.7171 73.283Z" fill="#333333"/>
<path d="M76.8194 63.7333L66.2741 57.6988V41.5292C67.314 41.2597 68.0376 40.3194 68.0318 39.2443V36.9594C68.0318 36.3384 67.7857 35.7408 67.3463 35.3014C66.9069 34.862 66.3093 34.616 65.6883 34.616H57.4858C56.191 34.616 55.1423 35.6646 55.1423 36.9594V39.3029C55.1365 40.378 55.86 41.3183 56.9 41.5878V52.3678L42.8391 44.283C41.0171 43.2548 38.782 43.2783 36.9805 44.3416L4.17186 63.7336C3.45711 64.1466 3.01475 64.9024 3.00013 65.7255V70.0609C2.99134 70.9045 3.43953 71.6896 4.17186 72.1114C4.89834 72.5303 5.78882 72.5303 6.51533 72.1114L38.1526 53.4221C39.2393 52.7952 40.581 52.7952 41.6678 53.4221L74.4764 72.1699C75.2058 72.5917 76.1022 72.5888 76.8286 72.1641C77.5551 71.7422 78.0004 70.9601 77.9916 70.1193V65.7839C78.0004 64.9403 77.5517 64.1551 76.8194 63.7333ZM57.4859 36.9592H65.6884V39.3027H57.4859V36.9592ZM59.2436 41.6461H63.9305V56.3511L59.2436 53.6561V41.6461ZM75.6479 70.1195L42.8393 51.3717C41.0172 50.3435 38.7821 50.367 36.9806 51.4303L5.34334 70.0611V65.7257L38.1519 46.3923C39.2387 45.7654 40.5804 45.7654 41.6671 46.3923L75.6471 65.7842L75.6479 70.1195Z" fill="#333333"/>
<path d="M19.404 73.283C18.7566 73.283 18.2322 73.8073 18.2322 74.4547V76.7982C18.2322 77.4456 18.7566 77.9699 19.404 77.9699C20.0513 77.9699 20.5757 77.4456 20.5757 76.7982V74.4547C20.5757 74.1442 20.4527 73.8454 20.233 73.6257C20.0133 73.406 19.7145 73.283 19.404 73.283Z" fill="#333333"/>
<path d="M24.0908 73.283C23.4435 73.283 22.9191 73.8073 22.9191 74.4547V76.7982C22.9191 77.4456 23.4435 77.9699 24.0908 77.9699C24.7382 77.9699 25.2626 77.4456 25.2626 76.7982V74.4547C25.2626 74.1442 25.1396 73.8454 24.9199 73.6257C24.7002 73.406 24.4014 73.283 24.0908 73.283Z" fill="#333333"/>
<path d="M28.7777 73.283C28.1304 73.283 27.606 73.8073 27.606 74.4547V76.7982C27.606 77.4456 28.1304 77.9699 28.7777 77.9699C29.4251 77.9699 29.9495 77.4456 29.9495 76.7982V74.4547C29.9495 74.1442 29.8264 73.8454 29.6067 73.6257C29.387 73.406 29.0883 73.283 28.7777 73.283Z" fill="#333333"/>
<path d="M33.4647 73.283C32.8174 73.283 32.293 73.8073 32.293 74.4547V76.7982C32.293 77.4456 32.8174 77.9699 33.4647 77.9699C34.1121 77.9699 34.6365 77.4456 34.6365 76.7982V74.4547C34.6365 74.1442 34.5135 73.8454 34.2938 73.6257C34.0741 73.406 33.7753 73.283 33.4647 73.283Z" fill="#333333"/>
<path d="M38.1517 73.283C37.5044 73.283 36.98 73.8073 36.98 74.4547V76.7982C36.98 77.4456 37.5044 77.9699 38.1517 77.9699C38.7991 77.9699 39.3235 77.4456 39.3235 76.7982V74.4547C39.3235 74.1442 39.2005 73.8454 38.9807 73.6257C38.761 73.406 38.4623 73.283 38.1517 73.283Z" fill="#333333"/>
<path d="M42.8387 73.283C42.1913 73.283 41.667 73.8073 41.667 74.4547V76.7982C41.667 77.4456 42.1913 77.9699 42.8387 77.9699C43.4861 77.9699 44.0105 77.4456 44.0105 76.7982V74.4547C44.0105 74.1442 43.8874 73.8454 43.6677 73.6257C43.448 73.406 43.1493 73.283 42.8387 73.283Z" fill="#333333"/>
<path d="M47.5257 73.283C46.8783 73.283 46.354 73.8073 46.354 74.4547V76.7982C46.354 77.4456 46.8783 77.9699 47.5257 77.9699C48.1731 77.9699 48.6974 77.4456 48.6974 76.7982V74.4547C48.6974 74.1442 48.5744 73.8454 48.3547 73.6257C48.135 73.406 47.8362 73.283 47.5257 73.283Z" fill="#333333"/>
<path d="M52.2124 73.283C51.565 73.283 51.0406 73.8073 51.0406 74.4547V76.7982C51.0406 77.4456 51.565 77.9699 52.2124 77.9699C52.8598 77.9699 53.3841 77.4456 53.3841 76.7982V74.4547C53.3841 74.1442 53.2611 73.8454 53.0414 73.6257C52.8217 73.406 52.5229 73.283 52.2124 73.283Z" fill="#333333"/>
<path d="M56.8995 73.283C56.2521 73.283 55.7277 73.8073 55.7277 74.4547V76.7982C55.7277 77.4456 56.2521 77.9699 56.8995 77.9699C57.5469 77.9699 58.0712 77.4456 58.0712 76.7982V74.4547C58.0712 74.1442 57.9482 73.8454 57.7285 73.6257C57.5088 73.406 57.21 73.283 56.8995 73.283Z" fill="#333333"/>
<path d="M61.5864 73.283C60.939 73.283 60.4146 73.8073 60.4146 74.4547V76.7982C60.4146 77.4456 60.939 77.9699 61.5864 77.9699C62.2337 77.9699 62.7581 77.4456 62.7581 76.7982V74.4547C62.7581 74.1442 62.6351 73.8454 62.4154 73.6257C62.1957 73.406 61.8969 73.283 61.5864 73.283Z" fill="#333333"/>
<path d="M66.2734 73.283C65.626 73.283 65.1016 73.8073 65.1016 74.4547V76.7982C65.1016 77.4456 65.626 77.9699 66.2734 77.9699C66.9207 77.9699 67.4451 77.4456 67.4451 76.7982V74.4547C67.4451 74.1442 67.3221 73.8454 67.1024 73.6257C66.8827 73.406 66.5839 73.283 66.2734 73.283Z" fill="#333333"/>
<path d="M70.9603 73.283C70.313 73.283 69.7886 73.8073 69.7886 74.4547V76.7982C69.7886 77.4456 70.313 77.9699 70.9603 77.9699C71.6077 77.9699 72.1321 77.4456 72.1321 76.7982V74.4547C72.1321 74.1442 72.009 73.8454 71.7893 73.6257C71.5696 73.406 71.2709 73.283 70.9603 73.283Z" fill="#333333"/>
<path d="M75.6475 73.2832C75.0001 73.2832 74.4757 73.8076 74.4757 74.455V76.7984C74.4757 77.4458 75.0001 77.9702 75.6475 77.9702C76.2948 77.9702 76.8192 77.4458 76.8192 76.7984V74.455C76.8192 74.1445 76.6962 73.8457 76.4765 73.6259C76.2568 73.4062 75.958 73.2832 75.6475 73.2832Z" fill="#333333"/>
<path d="M48.1114 71.5256V62.1517C48.1114 61.8412 47.9883 61.5424 47.7686 61.3227C47.5489 61.103 47.2501 60.98 46.9396 60.98H34.0501C33.4028 60.98 32.8784 61.5043 32.8784 62.1517V71.5256C32.8784 71.8361 33.0014 72.1349 33.2211 72.3546C33.4408 72.5744 33.7396 72.6974 34.0502 72.6974H46.9396C47.2501 72.6974 47.5489 72.5743 47.7686 72.3546C47.9884 72.1349 48.1114 71.8362 48.1114 71.5256ZM45.7679 65.7255H41.6668V63.3235H45.7679V65.7255ZM39.3233 63.3235V65.7255H35.2222V63.3235H39.3233ZM35.2222 68.069H39.3233V70.3539H35.2222V68.069ZM41.6668 70.3539V68.069H45.7679V70.3539H41.6668Z" fill="#333333"/>
<path d="M52.2712 16.3365L45.3579 8.72043C44.9361 8.24002 44.2037 8.18729 43.7174 8.60326L43.1316 9.07195C41.9598 7.19717 39.2062 3.85774 35.0468 3.1547C30.8873 2.45165 27.079 4.15065 22.8607 8.13456C22.4975 8.51831 22.436 9.09535 22.7084 9.54942C22.9808 10.0005 23.5257 10.2144 24.0325 10.0679C24.091 10.0679 30.477 7.90022 33.4063 11.8841L35.5155 14.8134L34.1094 16.3367C33.6993 16.7848 33.6993 17.4703 34.1094 17.9185L34.9296 18.7973L29.3639 24.4802L28.2507 23.3671C27.8113 22.9042 27.0819 22.8779 26.6103 23.3085L3.81972 43.8141C3.33932 44.2388 3.05226 44.8452 3.03172 45.4868C3.00828 46.1312 3.25142 46.7552 3.70253 47.2122L10.3814 53.891C11.269 54.764 12.6838 54.7903 13.6037 53.9496L36.4527 33.327C36.6929 33.1132 36.8365 32.8115 36.8482 32.4892C36.857 32.1699 36.7369 31.8565 36.5113 31.628L34.8709 29.9876L40.3194 24.539L41.374 25.6522C41.7372 26.0389 42.3114 26.1355 42.78 25.8866C42.78 25.8866 45.3579 24.5976 46.5296 25.828C47.7013 27.0583 46.3538 28.9331 46.3538 29.0503C46.0287 29.4926 46.0521 30.1019 46.4124 30.5149L49.7519 34.323C50.1649 34.8093 50.7566 35.1052 51.3923 35.1433H51.5095C52.0924 35.1521 52.6548 34.9412 53.0913 34.5574L60.7074 27.7614C61.1702 27.3366 61.4427 26.7448 61.4661 26.1151C61.4866 25.4882 61.2581 24.8789 60.8246 24.4219L56.9579 20.438C56.5419 19.9928 55.8535 19.943 55.376 20.3208C55.2003 20.4966 53.4427 21.7269 52.2709 20.438H52.2123C52.2123 20.438 51.5679 19.6764 52.4467 17.8016C52.7426 17.3329 52.6696 16.7232 52.2712 16.3365ZM12.0219 52.1913L5.40164 45.571L27.3718 25.7688L33.9921 32.3891L12.0219 52.1913ZM33.3479 28.1709L31.1802 26.0032L36.3944 20.789L38.5621 22.9567L33.3479 28.1709ZM55.9622 22.6051L59.1259 25.9446L51.5098 32.7406L48.7563 29.5769C49.4593 28.1708 49.8694 25.9445 48.2876 24.2455C46.7057 22.5465 43.8935 22.9565 42.5461 23.4839L36.6288 17.2151L37.9178 15.7504C38.2957 15.3491 38.3455 14.7397 38.035 14.2857L35.3986 10.5362C33.348 7.78259 30.4187 7.07955 27.8995 7.13819C30.2429 5.61497 32.5278 5.02906 34.637 5.43919C39.2068 6.25944 41.7845 11.3564 41.8432 11.3564C41.9955 11.6875 42.2943 11.9306 42.6487 12.0097C43.0061 12.0917 43.3781 12.0009 43.6594 11.7665L44.4796 11.1221L50.1625 17.3323C49.1666 20.0273 50.3383 21.5505 50.6898 21.9021C52.2717 23.7768 54.4979 23.3667 55.904 22.6051L55.9622 22.6051Z" fill="#333333"/>
</svg>
