<svg width="40" height="40" viewBox="0 0 40 40" fill="none" xmlns="http://www.w3.org/2000/svg">
<g clip-path="url(#clip0_47_1195)">
<path d="M34.3667 14.0834C32.6167 6.38341 25.9 2.91675 20 2.91675C20 2.91675 20 2.91675 19.9833 2.91675C14.1 2.91675 7.36667 6.36675 5.61667 14.0667C3.66667 22.6667 8.93334 29.9501 13.7 34.5334C15.4667 36.2334 17.7333 37.0834 20 37.0834C22.2667 37.0834 24.5333 36.2334 26.2833 34.5334C31.05 29.9501 36.3167 22.6834 34.3667 14.0834ZM20 22.4334C17.1 22.4334 14.75 20.0834 14.75 17.1834C14.75 14.2834 17.1 11.9334 20 11.9334C22.9 11.9334 25.25 14.2834 25.25 17.1834C25.25 20.0834 22.9 22.4334 20 22.4334Z" fill="white"/>
</g>
<defs>
<clipPath id="clip0_47_1195">
<rect width="40" height="40" fill="white"/>
</clipPath>
</defs>
</svg>
