<svg width="25" height="24" viewBox="0 0 25 24" fill="none" xmlns="http://www.w3.org/2000/svg">
<path opacity="0.4" d="M10.01 4.23013L18.57 8.51013C22.41 10.4301 22.41 13.5701 18.57 15.4901L10.01 19.7701C4.24999 22.6501 1.89999 20.2901 4.77999 14.5401L5.64999 12.8101C5.89999 12.3001 5.89999 11.7101 5.64999 11.2001L4.77999 9.46013C1.89999 3.71013 4.25999 1.35013 10.01 4.23013Z" fill="white"/>
<path d="M15.34 12.75H9.94C9.53 12.75 9.19 12.41 9.19 12C9.19 11.59 9.53 11.25 9.94 11.25H15.34C15.75 11.25 16.09 11.59 16.09 12C16.09 12.41 15.75 12.75 15.34 12.75Z" fill="white"/>
</svg>
