<svg width="200" height="200" viewBox="0 0 200 200" fill="none" xmlns="http://www.w3.org/2000/svg">
<g clip-path="url(#clip0_47_14715)">
<path d="M99.9999 42.6396C64.2776 42.6396 35.32 71.5973 35.32 107.32C35.32 143.042 64.2776 171.999 99.9999 171.999C135.722 171.999 164.68 143.042 164.68 107.32C164.68 71.5974 135.722 42.6396 99.9999 42.6396ZM99.9999 132.814C85.92 132.814 74.5058 121.399 74.5058 107.32C74.5058 93.2396 85.92 81.8254 99.9999 81.8254C114.08 81.8254 125.494 93.2397 125.494 107.32C125.494 121.399 114.08 132.814 99.9999 132.814Z" fill="#F7AC4B"/>
<g opacity="0.6">
<path d="M164.676 107.012C164.509 71.4317 135.619 42.6401 99.9997 42.6401C64.3818 42.6401 35.4922 71.4297 35.3238 107.008C35.328 107.666 35.3394 108.323 35.3628 108.975C36.628 74.3684 65.0827 45.2314 99.9997 45.2314C134.917 45.2314 163.371 74.3684 164.637 108.975C164.66 108.324 164.671 107.669 164.676 107.012Z" fill="white"/>
</g>
<g opacity="0.2">
<path d="M164.529 102.892C162.253 136.549 134.232 167.189 99.9997 167.189C65.7673 167.189 37.7464 136.549 35.4704 102.892C35.3701 104.354 35.3199 105.831 35.3199 107.32C35.3199 143.042 64.2782 172 99.9997 172C135.721 172 164.68 143.042 164.68 107.32C164.68 105.831 164.629 104.354 164.529 102.892Z" fill="#390075"/>
</g>
<path d="M99.9999 42.6396C64.2776 42.6396 35.32 71.5973 35.32 107.32C35.32 143.042 64.2776 171.999 99.9999 171.999C135.722 171.999 164.68 143.042 164.68 107.32C164.68 71.5974 135.722 42.6396 99.9999 42.6396ZM142.334 149.654C137.018 154.968 128.319 155.736 121.266 158.661C114.46 161.483 107.824 167.189 99.9998 167.189C92.1753 167.189 85.5401 161.483 78.7357 158.661C71.6808 155.736 62.9821 154.968 57.6656 149.654C52.3508 144.337 51.5828 135.638 48.6583 128.585C45.8367 121.779 40.1304 115.144 40.1304 107.32C40.1304 99.495 45.8367 92.8597 48.6583 86.0553C51.5828 79.0005 52.3508 70.3017 57.6656 64.9853C62.9821 59.6705 71.6808 58.9025 78.7357 55.978C85.5401 53.1564 92.1753 47.4501 99.9998 47.4501C107.824 47.4501 114.46 53.1563 121.266 55.978C128.319 58.9041 137.018 59.6705 142.334 64.987C147.649 70.3018 148.417 79.0005 151.341 86.0553C154.163 92.8597 159.869 99.495 159.869 107.32C159.869 115.144 154.163 121.779 151.341 128.585C148.417 135.639 147.649 144.337 142.334 149.654Z" stroke="#390075" stroke-width="1.43367" stroke-miterlimit="10" stroke-linecap="round" stroke-linejoin="round"/>
<path d="M151.341 86.0553C148.416 78.9998 147.649 70.3029 142.334 64.9875C137.017 59.6704 128.318 58.9052 121.266 55.9787C114.46 53.1562 107.824 47.4502 99.9998 47.4502C92.1755 47.4502 85.5395 53.1562 78.7349 55.9787C71.6812 58.9034 62.9825 59.6704 57.6653 64.9857C52.3501 70.3028 51.583 78.9998 48.6583 86.0552C45.8358 92.8598 40.1299 99.4959 40.1299 107.32C40.1299 115.144 45.8358 121.779 48.6583 128.585C51.583 135.639 52.3501 144.337 57.6653 149.654C62.9825 154.968 71.6812 155.737 78.7349 158.661C85.5395 161.482 92.1756 167.188 99.9998 167.188C107.824 167.188 114.46 161.482 121.266 158.661C128.318 155.737 137.017 154.968 142.334 149.654C147.649 144.337 148.416 135.639 151.341 128.585C154.164 121.779 159.87 115.144 159.87 107.32C159.87 99.4959 154.164 92.8598 151.341 86.0553ZM99.9997 132.814C85.9193 132.814 74.5055 121.399 74.5055 107.32C74.5055 93.2397 85.9193 81.8259 99.9997 81.8259C114.08 81.8259 125.494 93.2397 125.494 107.32C125.494 121.399 114.08 132.814 99.9997 132.814Z" fill="#FF7236"/>
<g opacity="0.4">
<path d="M151.341 86.0553C148.416 78.9998 147.649 70.3029 142.334 64.9875C137.017 59.6704 128.318 58.9052 121.266 55.9787C114.46 53.1562 107.824 47.4502 99.9998 47.4502C92.1755 47.4502 85.5395 53.1562 78.7349 55.9787C71.6812 58.9034 62.9825 59.6704 57.6653 64.9857C52.3501 70.3028 51.583 78.9998 48.6583 86.0552C45.8358 92.8598 40.1299 99.4959 40.1299 107.32C40.1299 107.723 40.1442 108.125 40.1747 108.523C40.7123 101.216 45.981 94.9135 48.6583 88.462C51.583 81.4047 52.3501 72.7078 57.6653 67.3925C62.9825 62.0754 71.6812 61.3101 78.7349 58.3855C85.5395 55.5612 92.1756 49.8552 99.9998 49.8552C107.824 49.8552 114.46 55.5612 121.266 58.3855C128.318 61.312 137.017 62.0754 142.334 67.3925C147.649 72.7078 148.416 81.4048 151.341 88.462C154.018 94.9135 159.287 101.216 159.825 108.523C159.855 108.125 159.87 107.723 159.87 107.32C159.87 99.4959 154.164 92.8598 151.341 86.0553Z" fill="white"/>
</g>
<g opacity="0.4">
<path d="M159.793 105.747C159.11 112.897 153.972 119.092 151.341 125.438C148.416 132.492 147.649 141.19 142.334 146.507C137.017 151.821 128.318 153.947 121.266 156.872C114.46 159.693 107.824 165.108 99.9998 165.108C92.1755 165.108 85.5395 159.693 78.7349 156.872C71.6812 153.947 62.9825 151.821 57.6653 146.507C52.3501 141.19 51.583 132.492 48.6583 125.438C46.0276 119.092 40.8897 112.897 40.2069 105.747C40.1567 106.266 40.1299 106.79 40.1299 107.32C40.1299 115.144 45.8358 121.779 48.6583 128.585C51.583 135.639 52.3501 144.337 57.6653 149.654C62.9825 154.968 71.6812 155.737 78.7349 158.661C85.5395 161.482 92.1756 167.188 99.9998 167.188C107.824 167.188 114.46 161.482 121.266 158.661C128.318 155.737 137.017 154.968 142.334 149.654C147.649 144.337 148.416 135.638 151.341 128.585C154.164 121.779 159.87 115.144 159.87 107.32C159.87 106.79 159.843 106.266 159.793 105.747Z" fill="white"/>
</g>
<path d="M99.9998 167.906C94.484 167.906 89.6054 165.202 84.8875 162.588C82.6787 161.364 80.5926 160.207 78.4611 159.323C76.2201 158.395 73.7492 157.669 71.3595 156.967C66.2118 155.454 60.8889 153.89 57.1587 150.161C53.4297 146.431 51.8659 141.109 50.3534 135.962C49.6513 133.572 48.9251 131.101 47.9961 128.86C47.112 126.728 45.9555 124.641 44.7311 122.431C42.1169 117.713 39.4136 112.835 39.4136 107.32C39.4136 101.804 42.1172 96.9255 44.7319 92.2077C45.956 89.999 47.1123 87.9126 47.9962 85.781C48.9251 83.5402 49.6511 81.0693 50.3532 78.6797C51.8657 73.532 53.4296 68.2092 57.1586 64.479C60.8892 60.7495 66.2123 59.1855 71.3603 57.6731C73.7497 56.9709 76.2204 56.2451 78.4611 55.3164C80.5924 54.4323 82.6784 53.2763 84.8869 52.0525C89.6051 49.4377 94.4838 46.7339 99.9998 46.7339C105.515 46.7339 110.394 49.4372 115.112 52.0515C117.321 53.2759 119.408 54.4324 121.54 55.3164C123.782 56.2464 126.254 56.9727 128.644 57.6753C133.79 59.1875 139.111 60.7513 142.841 64.4805C146.57 68.2098 148.134 73.5328 149.647 78.6805C150.349 81.0699 151.075 83.5406 152.003 85.7813L152.003 85.7811C152.887 87.9127 154.043 89.9991 155.268 92.2078C157.882 96.9256 160.586 101.804 160.586 107.32C160.586 112.835 157.883 117.713 155.268 122.431C154.044 124.641 152.888 126.728 152.004 128.86C151.074 131.101 150.348 133.572 149.646 135.961C148.134 141.108 146.57 146.431 142.841 150.161C139.111 153.89 133.789 155.454 128.641 156.966C126.252 157.668 123.781 158.395 121.54 159.323C119.408 160.208 117.321 161.364 115.111 162.588C110.393 165.203 105.515 167.906 99.9998 167.906ZM99.9998 48.1675C94.8545 48.1675 90.1405 50.78 85.5818 53.3064C83.4357 54.4958 81.2165 55.7258 79.0102 56.6406C76.6983 57.5989 74.1901 58.3359 71.7643 59.0486C66.789 60.5105 61.6442 62.022 58.1724 65.4927C54.702 68.9641 53.1905 74.1086 51.7287 79.0837C51.0159 81.5098 50.2788 84.0183 49.3205 86.3301C48.4054 88.5366 47.1755 90.7563 45.9859 92.9026C43.4595 97.4612 40.8472 102.175 40.8472 107.32C40.8472 112.464 43.4592 117.178 45.985 121.736C47.175 123.883 48.4053 126.104 49.3205 128.311C50.279 130.623 51.016 133.131 51.7289 135.557C53.1907 140.532 54.7022 145.676 58.1725 149.147C61.644 152.618 66.7885 154.129 71.7637 155.591C74.1896 156.304 76.6982 157.041 79.0102 157.999C81.2166 158.914 83.4361 160.144 85.5824 161.334C90.141 163.86 94.8548 166.472 99.9998 166.472C105.144 166.472 109.858 163.86 114.416 161.334C116.563 160.144 118.784 158.914 120.991 157.999C123.303 157.041 125.811 156.303 128.237 155.591C133.212 154.129 138.356 152.617 141.827 149.147C145.297 145.676 146.809 140.532 148.271 135.557C148.984 133.131 149.721 130.623 150.679 128.311C151.594 126.104 152.825 123.883 154.014 121.736C156.54 117.178 159.152 112.464 159.152 107.32C159.152 102.175 156.54 97.4611 154.014 92.9025C152.824 90.7563 151.594 88.5366 150.679 86.3303C150.679 86.3303 150.679 86.33 150.679 86.33C149.721 84.0185 148.984 81.5102 148.271 79.0844C146.809 74.1093 145.298 68.9648 141.827 65.4941C138.356 62.0234 133.214 60.5121 128.24 59.0507C125.813 58.3376 123.304 57.6 120.991 56.6406C118.784 55.7255 116.564 54.4953 114.417 53.3056C109.858 50.7795 105.144 48.1675 99.9998 48.1675ZM99.9998 133.531C85.547 133.531 73.7888 121.773 73.7888 107.32C73.7888 92.8671 85.547 81.1091 99.9998 81.1091C114.452 81.1091 126.211 92.8671 126.211 107.32C126.211 121.773 114.452 133.531 99.9998 133.531ZM99.9998 82.5427C86.3375 82.5427 75.2224 93.6577 75.2224 107.32C75.2224 120.982 86.3375 132.097 99.9998 132.097C113.662 132.097 124.777 120.982 124.777 107.32C124.777 93.6577 113.662 82.5427 99.9998 82.5427Z" fill="#390075"/>
<g opacity="0.2">
<path d="M145.226 76.7803C145.264 80.8053 143.748 85.2085 141.123 89.3554C137.958 94.3553 133.18 98.9842 127.566 102.128C127.834 103.792 127.972 105.525 127.972 107.321C127.972 123.713 116.394 137.002 99.9997 137.002C83.6057 137.002 71.7224 123.713 71.7224 107.321C71.7224 105.541 71.8622 103.823 72.1328 102.172C66.4859 99.0291 61.6795 94.3822 58.4986 89.3626V89.3608C55.8714 85.2103 54.3553 80.8072 54.393 76.7804C54.4324 72.5027 56.4127 69.5153 58.9574 67.8881C62.7674 65.449 67.8444 66.0602 69.5737 69.94C70.3891 71.7697 71.5468 75.103 73.1256 78.723C73.1256 78.7248 73.1256 78.7248 73.1256 78.7248C73.2332 78.9721 73.3443 79.2212 73.4554 79.4703C74.8478 82.5724 76.5485 85.8196 78.6094 88.4647C79.251 89.2891 79.9266 90.0525 80.6381 90.7353C77.5969 94.2818 75.5145 98.6724 74.7887 103.509C74.6024 104.753 74.5056 106.025 74.5056 107.321C74.5056 121.4 85.9194 132.815 99.9998 132.815C114.08 132.815 125.494 121.4 125.494 107.321C125.494 105.968 125.388 104.642 125.186 103.346C124.424 98.4824 122.288 94.0757 119.188 90.5345C119.86 89.8679 120.499 89.1295 121.107 88.3392C123.05 85.8142 124.668 82.7587 126.008 79.8107C126.162 79.472 126.315 79.1351 126.46 78.7981C128.055 75.1494 129.223 71.7839 130.046 69.9399C131.668 66.3002 136.241 65.5367 139.945 67.474C142.825 68.9758 145.182 72.1066 145.226 76.7803Z" fill="#390075"/>
</g>
<path d="M108.494 142.89C107.798 142.104 107.871 140.892 108.657 140.195L114.321 135.178C115.107 134.482 116.32 134.555 117.016 135.341C117.712 136.127 117.639 137.339 116.853 138.036L111.188 143.053C110.402 143.749 109.19 143.676 108.494 142.89Z" fill="#55DFFF"/>
<g opacity="0.3">
<path d="M117.494 136.606C117.494 137.134 117.277 137.659 116.853 138.036L111.188 143.054C110.403 143.749 109.19 143.676 108.494 142.891C107.941 142.265 107.873 141.371 108.265 140.681C108.328 140.794 108.405 140.901 108.494 141.004C109.19 141.79 110.403 141.864 111.188 141.167L116.853 136.149C117.014 136.005 117.147 135.842 117.245 135.663C117.412 135.955 117.494 136.281 117.494 136.606Z" fill="#390075"/>
</g>
<path d="M109.927 144.143C109.875 144.143 109.823 144.142 109.77 144.138C109.096 144.098 108.48 143.798 108.035 143.296C107.59 142.793 107.367 142.146 107.408 141.472C107.449 140.798 107.748 140.182 108.251 139.737L113.915 134.719C114.956 133.797 116.552 133.894 117.474 134.935C117.919 135.437 118.142 136.085 118.101 136.759C118.06 137.432 117.761 138.049 117.259 138.494L111.594 143.511C111.131 143.922 110.544 144.143 109.927 144.143ZM115.586 135.311C115.28 135.311 114.973 135.418 114.727 135.636L109.063 140.654C108.805 140.882 108.652 141.199 108.631 141.546C108.61 141.893 108.724 142.226 108.952 142.484C109.18 142.741 109.497 142.895 109.844 142.916C110.192 142.935 110.524 142.823 110.782 142.594L116.446 137.577C116.704 137.349 116.857 137.032 116.878 136.685C116.899 136.337 116.785 136.004 116.557 135.747C116.301 135.458 115.944 135.311 115.586 135.311Z" fill="#390075"/>
<path d="M109.618 151.919C109.477 150.879 110.212 149.912 111.253 149.771L118.751 148.754C119.792 148.613 120.758 149.349 120.899 150.389C121.04 151.43 120.305 152.396 119.264 152.537L111.766 153.554C110.725 153.695 109.759 152.959 109.618 151.919Z" fill="#FEF26B"/>
<g opacity="0.3">
<path d="M120.917 150.645C120.917 151.584 120.218 152.408 119.265 152.537L111.767 153.554C110.725 153.695 109.76 152.959 109.618 151.919C109.548 151.399 109.695 150.898 109.992 150.509C109.996 150.552 110 150.595 110.007 150.638C110.147 151.677 111.114 152.414 112.154 152.272L119.654 151.256C120.173 151.186 120.618 150.908 120.913 150.518C120.915 150.561 120.917 150.604 120.917 150.645Z" fill="#390075"/>
</g>
<path d="M111.507 154.184C110.266 154.184 109.182 153.265 109.011 152.002C108.921 151.336 109.096 150.674 109.505 150.137C109.914 149.6 110.505 149.254 111.17 149.164L118.669 148.147C119.334 148.058 119.996 148.232 120.533 148.641C121.07 149.05 121.416 149.642 121.506 150.307C121.596 150.972 121.421 151.634 121.012 152.171C120.603 152.709 120.012 153.054 119.346 153.144L111.848 154.161C111.734 154.177 111.62 154.184 111.507 154.184ZM119.009 149.349C118.951 149.349 118.892 149.353 118.833 149.361L111.335 150.378C110.994 150.424 110.69 150.602 110.479 150.879C110.269 151.156 110.178 151.496 110.225 151.837C110.321 152.545 110.974 153.042 111.683 152.947L119.182 151.93C119.523 151.884 119.827 151.706 120.037 151.429C120.248 151.153 120.338 150.812 120.292 150.471C120.204 149.822 119.647 149.349 119.009 149.349Z" fill="#390075"/>
<path d="M89.6887 154.622C89.5476 153.581 90.2834 152.615 91.3237 152.474L98.8222 151.457C99.8626 151.316 100.829 152.051 100.97 153.092C101.111 154.132 100.376 155.099 99.3353 155.24L91.8368 156.257C90.7964 156.398 89.8298 155.662 89.6887 154.622Z" fill="#55DFFF"/>
<g opacity="0.3">
<path d="M100.987 153.35C100.987 154.287 100.29 155.111 99.335 155.24L91.837 156.256C90.7958 156.398 89.8298 155.663 89.6883 154.622C89.6148 154.072 89.785 153.543 90.1166 153.145C90.2564 154.186 91.2241 154.921 92.2635 154.781L99.7633 153.764C100.253 153.697 100.676 153.448 100.969 153.093C100.982 153.179 100.987 153.263 100.987 153.35Z" fill="#390075"/>
</g>
<path d="M91.5783 156.887C90.3373 156.887 89.253 155.967 89.0816 154.704C88.8947 153.327 89.8636 152.054 91.2412 151.867L98.7398 150.85C99.4046 150.761 100.067 150.935 100.604 151.344C101.141 151.753 101.487 152.344 101.577 153.01C101.764 154.387 100.795 155.66 99.4174 155.847L91.9189 156.864C91.8044 156.879 91.6907 156.887 91.5783 156.887ZM99.0789 152.052C99.0209 152.052 98.9627 152.056 98.9043 152.064L91.4058 153.081C91.0648 153.127 90.761 153.305 90.5503 153.581C90.3398 153.858 90.2492 154.198 90.2954 154.539C90.3915 155.248 91.0451 155.747 91.7543 155.65L99.2528 154.633C99.9611 154.537 100.459 153.882 100.363 153.174C100.317 152.833 100.139 152.529 99.8623 152.319C99.6329 152.144 99.3599 152.052 99.0789 152.052Z" fill="#390075"/>
<path d="M86.9783 139.428C87.748 138.714 88.9619 138.76 89.6759 139.529L94.8221 145.077C95.5361 145.847 95.4905 147.061 94.7208 147.775C93.9511 148.489 92.7372 148.443 92.0232 147.673L86.877 142.126C86.163 141.356 86.2086 140.142 86.9783 139.428Z" fill="#F928C3"/>
<path d="M86.9783 139.428C87.748 138.714 88.9619 138.76 89.6759 139.529L94.8221 145.077C95.5361 145.847 95.4905 147.061 94.7208 147.775C93.9511 148.489 92.7372 148.443 92.0232 147.673L86.877 142.126C86.163 141.356 86.2086 140.142 86.9783 139.428Z" fill="#FFD2D2"/>
<g opacity="0.3">
<path d="M94.7202 147.774C94.3546 148.115 93.8887 148.281 93.4227 148.281C92.9102 148.281 92.3977 148.077 92.0231 147.674L86.8763 142.126C86.3422 141.548 86.2329 140.722 86.5358 140.045L91.0912 144.953C91.4658 145.358 91.9783 145.563 92.4908 145.563C92.9568 145.563 93.4227 145.394 93.7883 145.056C93.9819 144.876 94.1288 144.667 94.231 144.439L94.8224 145.077C95.5356 145.848 95.4908 147.061 94.7202 147.774Z" fill="#390075"/>
</g>
<path d="M93.4259 148.895C93.3934 148.895 93.3608 148.894 93.3282 148.893C92.6537 148.867 92.0309 148.582 91.5742 148.09L86.4281 142.542C85.9714 142.05 85.734 141.407 85.7593 140.733C85.7847 140.059 86.0697 139.436 86.5619 138.979C87.0541 138.523 87.6951 138.286 88.3711 138.31C89.0456 138.336 89.6684 138.621 90.1251 139.113L95.2712 144.661C95.7278 145.153 95.9652 145.795 95.9399 146.47C95.9147 147.144 95.6295 147.768 95.1373 148.224C94.669 148.658 94.0645 148.895 93.4259 148.895ZM88.2745 139.533C87.9456 139.533 87.6349 139.655 87.3948 139.877C87.1425 140.111 86.9964 140.432 86.9833 140.779C86.9703 141.126 87.092 141.457 87.3261 141.709L92.4722 147.257C92.7063 147.51 93.0266 147.656 93.374 147.669C93.7233 147.679 94.0518 147.56 94.3041 147.326C94.5565 147.092 94.7026 146.771 94.7157 146.424C94.7287 146.076 94.607 145.746 94.373 145.494L89.2268 139.946C88.9928 139.694 88.6725 139.548 88.3249 139.534C88.3082 139.534 88.2913 139.533 88.2745 139.533Z" fill="#390075"/>
<path d="M70.5611 130.895C71.0755 129.98 72.2452 129.652 73.1604 130.167L79.7569 133.875C80.6721 134.389 81 135.559 80.4856 136.474C79.9712 137.389 78.8015 137.717 77.8863 137.203L71.2898 133.495C70.3746 132.98 70.0467 131.811 70.5611 130.895Z" fill="#55DFFF"/>
<g opacity="0.3">
<path d="M80.4854 136.474C80.136 137.096 79.4837 137.447 78.8152 137.447C78.4998 137.447 78.179 137.368 77.8851 137.203L71.2885 133.496C70.4892 133.046 70.138 132.096 70.4068 131.252C70.4605 131.291 70.5161 131.327 70.5734 131.36L77.1701 135.067C77.464 135.232 77.783 135.311 78.0984 135.311C78.7668 135.311 79.4191 134.96 79.7686 134.338C79.8331 134.223 79.8851 134.105 79.9227 133.983C80.7094 134.537 80.9675 135.617 80.4854 136.474Z" fill="#390075"/>
</g>
<path d="M78.8171 138.06C78.3991 138.06 77.9756 137.956 77.586 137.737L70.9894 134.029C69.7775 133.348 69.3457 131.807 70.0269 130.595C70.7082 129.383 72.2484 128.952 73.4602 129.633L80.0567 133.341C81.2686 134.022 81.7004 135.562 81.0192 136.774C80.5571 137.596 79.6993 138.06 78.8171 138.06ZM71.0948 131.195C70.7446 131.819 70.9665 132.611 71.5896 132.961L78.1861 136.669C78.8095 137.018 79.601 136.797 79.9514 136.174C80.3016 135.551 80.0797 134.759 79.4566 134.409L72.8601 130.701C72.2367 130.351 71.445 130.573 71.0948 131.195Z" fill="#390075"/>
<path d="M63.6543 146.175C63.4232 145.151 64.0719 144.124 65.096 143.893L72.4774 142.226C73.5015 141.995 74.5285 142.644 74.7597 143.668C74.9909 144.692 74.3421 145.719 73.3181 145.95L65.9366 147.617C64.9125 147.848 63.8855 147.199 63.6543 146.175Z" fill="#FEF26B"/>
<g opacity="0.3">
<path d="M74.8067 144.09C74.8049 144.959 74.201 145.751 73.3175 145.95L65.9359 147.617C64.9127 147.848 63.8858 147.199 63.6546 146.176C63.47 145.359 63.8446 144.541 64.522 144.127C64.522 144.267 64.5363 144.409 64.5686 144.55C64.7998 145.574 65.8266 146.222 66.8499 145.991L74.2315 144.325C74.4411 144.278 74.6329 144.197 74.8067 144.09Z" fill="#390075"/>
</g>
<path d="M65.5148 148.276C65.0438 148.276 64.5805 148.143 64.1708 147.884C63.6003 147.524 63.2045 146.964 63.0568 146.31C62.909 145.655 63.0261 144.98 63.3864 144.409C63.747 143.838 64.3062 143.443 64.9611 143.295L72.3424 141.629C72.9972 141.482 73.6723 141.599 74.2429 141.959C74.8136 142.319 75.2092 142.878 75.357 143.533C75.6632 144.889 74.8089 146.242 73.4529 146.548L66.0714 148.214C65.8866 148.256 65.7002 148.276 65.5148 148.276ZM72.8966 142.792C72.8018 142.792 72.7065 142.803 72.6122 142.824L65.2308 144.49C64.895 144.566 64.6079 144.769 64.4222 145.063C64.2364 145.358 64.1759 145.704 64.2517 146.04C64.3275 146.376 64.5311 146.663 64.8252 146.849C65.1192 147.034 65.4658 147.095 65.8016 147.019L73.1831 145.353C73.8803 145.195 74.3195 144.5 74.1622 143.803C74.0864 143.467 73.8828 143.18 73.5887 142.994C73.3774 142.861 73.1387 142.792 72.8966 142.792Z" fill="#390075"/>
<path d="M59.5383 125.4C60.5239 125.762 61.0345 126.864 60.673 127.85L58.0671 134.954C57.7055 135.94 56.6033 136.45 55.6177 136.089C54.632 135.727 54.1214 134.625 54.483 133.639L57.0889 126.535C57.4504 125.549 58.5527 125.039 59.5383 125.4Z" fill="#55DFFF"/>
<g opacity="0.3">
<path d="M60.6726 127.85L58.0669 134.954C57.7049 135.939 56.6028 136.45 55.6172 136.088C54.8466 135.807 54.3663 135.072 54.3663 134.292C54.3663 134.075 54.4039 133.855 54.4828 133.64L54.877 132.565C55.0742 132.78 55.325 132.952 55.6172 133.059C56.6028 133.42 57.7049 132.909 58.0669 131.923L60.2784 125.895C60.7497 126.405 60.9271 127.156 60.6726 127.85Z" fill="#390075"/>
</g>
<path d="M56.2721 136.818C55.9844 136.818 55.6921 136.769 55.4067 136.664C54.7764 136.433 54.2729 135.968 53.9892 135.355C53.7055 134.743 53.6767 134.059 53.908 133.428L56.5137 126.324C56.7449 125.694 57.2096 125.19 57.822 124.907C58.4343 124.623 59.119 124.594 59.7491 124.825C61.0542 125.304 61.7265 126.756 61.2479 128.061L58.6421 135.165C58.268 136.185 57.3 136.818 56.2721 136.818ZM58.8844 125.897C58.6981 125.897 58.5119 125.937 58.3369 126.018C58.0213 126.164 57.7823 126.423 57.6638 126.746L55.058 133.85C54.9393 134.173 54.9545 134.525 55.1008 134.841C55.2469 135.156 55.5053 135.395 55.8284 135.514C56.4991 135.76 57.2458 135.414 57.492 134.743L60.0977 127.639C60.3439 126.968 59.9982 126.222 59.3272 125.975C59.1835 125.923 59.0338 125.897 58.8844 125.897Z" fill="#390075"/>
<path d="M64.5169 113.587C65.4909 113.195 66.6084 113.671 67.0002 114.645L69.8247 121.666C70.2166 122.64 69.7403 123.757 68.7663 124.149C67.7923 124.541 66.6748 124.065 66.2829 123.091L63.4584 116.07C63.0666 115.096 63.5429 113.979 64.5169 113.587Z" fill="#CC25F4"/>
<path d="M64.5169 113.587C65.4909 113.195 66.6084 113.671 67.0002 114.645L69.8247 121.666C70.2166 122.64 69.7403 123.757 68.7663 124.149C67.7923 124.541 66.6748 124.065 66.2829 123.091L63.4584 116.07C63.0666 115.096 63.5429 113.979 64.5169 113.587Z" fill="#FFD2D2"/>
<path d="M68.0579 124.9C67.722 124.9 67.3857 124.832 67.0665 124.696C66.4455 124.431 65.9655 123.942 65.7149 123.319L62.8905 116.299C62.6399 115.677 62.6476 114.991 62.9122 114.37C63.1769 113.75 63.6656 113.27 64.2884 113.019C64.9112 112.768 65.596 112.776 66.2173 113.041C66.8381 113.305 67.3181 113.794 67.5687 114.417L70.3932 121.437C70.912 122.727 70.2848 124.199 68.9951 124.717C68.6926 124.839 68.3753 124.9 68.0579 124.9ZM65.2252 114.062C65.0626 114.062 64.9002 114.093 64.7457 114.155C64.4263 114.284 64.1754 114.531 64.039 114.851C63.9028 115.171 63.8984 115.523 64.0269 115.842L66.8514 122.862C66.9798 123.182 67.2267 123.432 67.5466 123.569C67.8665 123.705 68.2183 123.709 68.5378 123.581C69.201 123.314 69.5235 122.558 69.2566 121.894L66.4322 114.874C66.3038 114.555 66.0568 114.304 65.7369 114.168C65.5719 114.097 65.3984 114.062 65.2252 114.062Z" fill="#390075"/>
<g opacity="0.3">
<path d="M68.767 124.149C68.5358 124.243 68.2957 124.287 68.0592 124.287C67.3011 124.287 66.5807 123.834 66.2832 123.09L63.4589 116.071C63.1632 115.338 63.3604 114.524 63.8908 113.999L66.2833 119.945C66.5808 120.687 67.3012 121.14 68.0592 121.14C68.2958 121.14 68.5359 121.096 68.7671 121.002C69.009 120.906 69.2187 120.764 69.3925 120.59L69.8244 121.666C70.2168 122.64 69.7402 123.757 68.767 124.149Z" fill="#390075"/>
</g>
<path d="M56.3038 109.049C56.9759 109.856 56.866 111.066 56.0595 111.738L50.2463 116.582C49.4398 117.254 48.23 117.144 47.5579 116.338C46.8858 115.531 46.9957 114.322 47.8023 113.65L53.6154 108.805C54.4219 108.133 55.6316 108.243 56.3038 109.049Z" fill="#FEF26B"/>
<path d="M56.3038 109.049C56.9759 109.856 56.866 111.066 56.0595 111.738L50.2463 116.582C49.4398 117.254 48.23 117.144 47.5579 116.338C46.8858 115.531 46.9957 114.322 47.8023 113.65L53.6154 108.805C54.4219 108.133 55.6316 108.243 56.3038 109.049Z" fill="#FEF26B"/>
<g opacity="0.3">
<path d="M56.0598 111.737L50.2463 116.583C49.4399 117.255 48.2302 117.144 47.5582 116.337C47.2625 115.982 47.1174 115.549 47.1174 115.117C47.1174 114.57 47.3504 114.026 47.802 113.649L48.1711 113.343C48.2339 113.475 48.3145 113.601 48.4131 113.719C49.0851 114.526 50.2948 114.637 51.1012 113.965L56.5455 109.425C56.929 110.198 56.748 111.164 56.0598 111.737Z" fill="#390075"/>
</g>
<path d="M49.0302 117.635C48.9526 117.635 48.8745 117.632 48.7961 117.624C48.1238 117.563 47.5169 117.246 47.0871 116.73C46.6574 116.214 46.4543 115.56 46.5154 114.888C46.5765 114.216 46.8942 113.609 47.41 113.179L53.2231 108.335C54.2908 107.444 55.8838 107.589 56.774 108.657H56.7741C57.664 109.725 57.5192 111.318 56.4513 112.208L50.6382 117.053C50.1827 117.432 49.619 117.635 49.0302 117.635ZM54.8363 108.976C54.5436 108.976 54.2492 109.074 54.0073 109.276L48.1942 114.12C47.9298 114.341 47.7668 114.653 47.7353 114.999C47.704 115.345 47.8078 115.681 48.0282 115.946C48.2486 116.21 48.5606 116.373 48.907 116.404C49.2535 116.438 49.5896 116.332 49.8541 116.112L55.6672 111.267C56.2162 110.81 56.2906 109.99 55.833 109.441C55.577 109.134 55.2079 108.976 54.8363 108.976Z" fill="#390075"/>
<path d="M60.7759 102.37C60.3821 103.343 59.2637 103.817 58.2905 103.423L51.2757 100.585C50.3024 100.192 49.8283 99.0732 50.222 98.1C50.6157 97.1267 51.7342 96.6526 52.7074 97.0463L59.7222 99.8842C60.6955 100.278 61.1696 101.396 60.7759 102.37Z" fill="#55DFFF"/>
<g opacity="0.2">
<path d="M60.7764 102.37C60.3822 103.343 59.2639 103.816 58.2908 103.424L51.2748 100.585C50.4469 100.252 49.9809 99.39 50.1028 98.5405L56.8912 101.288C57.8661 101.68 58.9844 101.207 59.3768 100.234C59.436 100.089 59.4754 99.9419 59.4969 99.7932L59.7227 99.8846C60.6958 100.279 61.1689 101.397 60.7764 102.37Z" fill="#390075"/>
</g>
<path d="M59.003 104.175C58.6888 104.175 58.3696 104.116 58.0609 103.991L51.0459 101.154C50.4236 100.902 49.9358 100.421 49.6723 99.7993C49.4088 99.1779 49.4024 98.4929 49.6543 97.8706C49.906 97.2483 50.3868 96.7602 51.0083 96.4968C51.6299 96.2333 52.3147 96.227 52.9372 96.4787L59.952 99.3166C60.5742 99.5683 61.0621 100.049 61.3256 100.671C61.589 101.292 61.5955 101.977 61.3436 102.6C60.9473 103.58 60.0006 104.175 59.003 104.175ZM51.9957 97.5202C51.8234 97.5202 51.6507 97.5549 51.4864 97.6247C51.1662 97.7605 50.9189 98.011 50.7898 98.33C50.6607 98.6491 50.6644 99.0009 50.8001 99.3212C50.9358 99.6413 51.1862 99.8889 51.5053 100.018L58.5202 102.856C59.1828 103.123 59.94 102.803 60.208 102.14C60.3371 101.821 60.3334 101.469 60.1976 101.149C60.0619 100.829 59.8116 100.581 59.4926 100.452L52.4775 97.6145C52.3223 97.5515 52.1592 97.5202 51.9957 97.5202Z" fill="#390075"/>
<path d="M124.485 136.792C124.913 135.834 126.048 135.4 127.007 135.828L133.915 138.916C134.874 139.344 135.308 140.479 134.879 141.437C134.451 142.396 133.316 142.829 132.358 142.401L125.449 139.314C124.491 138.885 124.057 137.751 124.485 136.792Z" fill="#CC25F4"/>
<path d="M124.485 136.792C124.913 135.834 126.048 135.4 127.006 135.828L133.915 138.916C134.873 139.344 135.307 140.479 134.879 141.437C134.45 142.396 133.316 142.829 132.357 142.401L125.449 139.314C124.49 138.885 124.056 137.751 124.485 136.792Z" fill="#FFD2D2"/>
<path d="M133.132 143.18C132.789 143.18 132.44 143.109 132.107 142.961L125.198 139.873C123.929 139.305 123.358 137.812 123.925 136.542C124.199 135.93 124.697 135.459 125.327 135.218C125.958 134.977 126.643 134.995 127.256 135.269L134.164 138.357C134.777 138.63 135.247 139.129 135.488 139.759C135.729 140.389 135.711 141.074 135.437 141.687C135.019 142.623 134.097 143.18 133.132 143.18ZM126.232 136.275C126.075 136.275 125.917 136.304 125.765 136.362C125.44 136.487 125.184 136.728 125.043 137.042C124.752 137.695 125.046 138.463 125.698 138.755L132.607 141.842C133.26 142.133 134.028 141.84 134.319 141.187C134.46 140.873 134.468 140.521 134.344 140.196C134.22 139.872 133.979 139.615 133.664 139.475L126.756 136.388C126.589 136.313 126.411 136.275 126.232 136.275Z" fill="#390075"/>
<g opacity="0.3">
<path d="M134.879 141.437C134.563 142.145 133.861 142.566 133.131 142.566C132.872 142.566 132.608 142.514 132.357 142.401L125.449 139.313C124.49 138.885 124.056 137.751 124.485 136.792C124.488 136.785 124.492 136.778 124.495 136.771C124.66 136.948 124.865 137.097 125.099 137.201L132.008 140.287C132.259 140.399 132.522 140.451 132.782 140.451C133.506 140.451 134.2 140.039 134.519 139.346C135.035 139.891 135.201 140.713 134.879 141.437Z" fill="#390075"/>
</g>
<path d="M128.197 124.15C127.541 123.33 127.676 122.123 128.496 121.467L134.409 116.744C135.229 116.089 136.436 116.224 137.091 117.044C137.747 117.864 137.612 119.071 136.791 119.727L130.879 124.45C130.059 125.105 128.852 124.97 128.197 124.15Z" fill="#FEF26B"/>
<g opacity="0.2">
<path d="M137.506 118.234C137.506 118.795 137.261 119.35 136.791 119.726L130.879 124.45C130.059 125.104 128.852 124.97 128.197 124.149C127.564 123.361 127.668 122.21 128.408 121.542C128.462 121.648 128.528 121.751 128.605 121.848C129.259 122.669 130.467 122.803 131.288 122.147L137.2 117.425C137.23 117.402 137.259 117.377 137.288 117.35C137.435 117.628 137.506 117.931 137.506 118.234Z" fill="#390075"/>
</g>
<path d="M129.69 125.478C128.95 125.478 128.215 125.155 127.718 124.532C127.299 124.008 127.109 123.349 127.184 122.678C127.259 122.008 127.589 121.407 128.114 120.988L134.026 116.265C135.112 115.398 136.702 115.575 137.57 116.661C137.989 117.186 138.178 117.844 138.103 118.515C138.028 119.185 137.698 119.786 137.174 120.205L131.262 124.928C130.798 125.299 130.242 125.478 129.69 125.478ZM128.675 123.768C129.121 124.326 129.939 124.417 130.497 123.971L136.409 119.248C136.678 119.033 136.847 118.724 136.886 118.379C136.924 118.033 136.827 117.695 136.613 117.426C136.166 116.867 135.349 116.776 134.791 117.222L128.879 121.946C128.61 122.16 128.44 122.469 128.402 122.815C128.363 123.16 128.46 123.499 128.675 123.768Z" fill="#390075"/>
<path d="M142.626 123.112C143.67 123.226 144.43 124.173 144.316 125.217L143.495 132.739C143.382 133.783 142.434 134.543 141.391 134.429C140.347 134.316 139.586 133.368 139.7 132.325L140.521 124.802C140.635 123.759 141.582 122.998 142.626 123.112Z" fill="#55DFFF"/>
<g opacity="0.2">
<path d="M143.544 132.293L143.496 132.739C143.381 133.782 142.435 134.544 141.392 134.429C140.417 134.323 139.689 133.49 139.689 132.531C139.689 132.463 139.693 132.395 139.7 132.325L140.521 124.802C140.612 123.978 141.221 123.329 141.988 123.151L141.216 130.227C141.209 130.296 141.205 130.366 141.205 130.434C141.205 131.395 141.933 132.225 142.906 132.332C143.125 132.355 143.34 132.341 143.544 132.293Z" fill="#390075"/>
</g>
<path d="M141.601 135.053C141.509 135.053 141.417 135.048 141.325 135.038C140.658 134.966 140.057 134.636 139.634 134.109C139.212 133.583 139.019 132.926 139.092 132.259L139.913 124.736C139.986 124.069 140.316 123.468 140.842 123.046C141.368 122.623 142.025 122.431 142.693 122.503C143.36 122.576 143.961 122.906 144.383 123.432C144.806 123.958 144.999 124.615 144.926 125.283L144.105 132.805C144.032 133.473 143.702 134.073 143.176 134.496C142.723 134.86 142.172 135.053 141.601 135.053ZM142.419 123.713C142.126 123.713 141.843 123.813 141.609 124.001C141.338 124.218 141.168 124.527 141.131 124.869L140.31 132.391C140.272 132.734 140.372 133.071 140.589 133.342C140.807 133.614 141.116 133.783 141.458 133.821C141.799 133.857 142.138 133.759 142.409 133.541C142.68 133.323 142.85 133.015 142.887 132.673L143.708 125.15C143.745 124.808 143.646 124.47 143.428 124.199C143.211 123.928 142.902 123.758 142.56 123.721H142.56C142.513 123.716 142.466 123.713 142.419 123.713Z" fill="#390075"/>
<path d="M141.601 135.053C141.509 135.053 141.417 135.048 141.325 135.038C140.658 134.966 140.057 134.636 139.634 134.109C139.212 133.583 139.019 132.926 139.092 132.259L139.913 124.736C139.986 124.069 140.316 123.468 140.842 123.046C141.368 122.623 142.025 122.431 142.693 122.503C143.36 122.576 143.961 122.906 144.383 123.432C144.806 123.958 144.999 124.615 144.926 125.283L144.105 132.805C144.032 133.473 143.702 134.073 143.176 134.496C142.723 134.86 142.172 135.053 141.601 135.053ZM142.419 123.713C142.126 123.713 141.843 123.813 141.609 124.001C141.338 124.218 141.168 124.527 141.131 124.869L140.31 132.391C140.272 132.734 140.372 133.071 140.589 133.342C140.807 133.614 141.116 133.783 141.458 133.821C141.799 133.857 142.138 133.759 142.409 133.541C142.68 133.323 142.85 133.015 142.887 132.673L143.708 125.15C143.745 124.808 143.646 124.47 143.428 124.199C143.211 123.928 142.902 123.758 142.56 123.721H142.56C142.513 123.716 142.466 123.713 142.419 123.713Z" fill="#390075"/>
<path d="M153.129 106.453C153.789 107.269 153.662 108.477 152.846 109.137L146.963 113.897C146.146 114.557 144.938 114.429 144.278 113.613C143.618 112.797 143.745 111.589 144.561 110.929L150.445 106.169C151.261 105.509 152.469 105.636 153.129 106.453Z" fill="#CC25F4"/>
<path d="M153.129 106.453C153.789 107.269 153.662 108.477 152.846 109.137L146.963 113.897C146.146 114.557 144.938 114.429 144.278 113.613C143.618 112.797 143.745 111.589 144.561 110.929L150.445 106.169C151.261 105.509 152.469 105.636 153.129 106.453Z" fill="#FFD2D2"/>
<path d="M145.764 114.933C145.029 114.933 144.299 114.614 143.802 113.999C143.379 113.477 143.186 112.82 143.257 112.148C143.328 111.477 143.654 110.875 144.176 110.453L150.059 105.693C151.14 104.819 152.731 104.987 153.605 106.068C153.605 106.068 153.605 106.068 153.605 106.068C154.48 107.149 154.312 108.739 153.231 109.614L147.348 114.373C146.882 114.75 146.321 114.933 145.764 114.933ZM151.644 106.358C151.357 106.358 151.069 106.452 150.83 106.646L144.947 111.405C144.679 111.622 144.511 111.931 144.475 112.277C144.438 112.623 144.538 112.961 144.754 113.228C145.204 113.784 146.022 113.871 146.577 113.421L152.46 108.661C153.016 108.212 153.102 107.394 152.653 106.838C152.397 106.522 152.022 106.358 151.644 106.358Z" fill="#390075"/>
<g opacity="0.2">
<path d="M152.845 109.137L146.963 113.896C146.146 114.558 144.938 114.429 144.279 113.613C143.994 113.26 143.856 112.837 143.856 112.414C143.856 111.857 144.098 111.303 144.562 110.929L144.918 110.64C144.969 110.73 145.028 110.818 145.094 110.9C145.754 111.717 146.961 111.844 147.779 111.183L153.305 106.712C153.757 107.509 153.58 108.544 152.845 109.137Z" fill="#390075"/>
</g>
<path d="M151.809 96.7298C152.124 97.7312 151.563 98.8086 150.562 99.1241L143.344 101.398C142.343 101.714 141.266 101.152 140.95 100.151C140.635 99.1498 141.196 98.0724 142.197 97.757L149.415 95.4829C150.416 95.1674 151.493 95.7285 151.809 96.7298Z" fill="#55DFFF"/>
<g opacity="0.2">
<path d="M150.562 99.1247L143.345 101.399C142.343 101.714 141.266 101.153 140.951 100.152C140.892 99.9616 140.863 99.7698 140.863 99.5816C140.863 98.8236 141.318 98.1157 142.038 97.8164C142.053 97.8953 142.071 97.9741 142.096 98.053C142.411 99.0548 143.488 99.6157 144.49 99.3003L151.709 97.0261C151.762 97.0082 151.814 96.9903 151.866 96.9688C152.033 97.8971 151.485 98.8343 150.562 99.1247Z" fill="#390075"/>
</g>
<path d="M142.772 102.099C142.372 102.099 141.974 102.003 141.607 101.812C141.009 101.5 140.568 100.975 140.366 100.335C139.948 99.0094 140.687 97.5907 142.013 97.1725L149.23 94.8985C150.558 94.4806 151.975 95.2201 152.393 96.5457H152.393C152.595 97.1861 152.534 97.8682 152.222 98.4669C151.911 99.0655 151.386 99.5064 150.746 99.7081L143.528 101.982C143.28 102.06 143.026 102.099 142.772 102.099ZM149.987 96.007C149.858 96.007 149.728 96.0263 149.599 96.067L142.381 98.341C141.699 98.5558 141.319 99.2853 141.534 99.967C141.638 100.295 141.865 100.565 142.173 100.725C142.482 100.886 142.832 100.917 143.16 100.814L150.378 98.5397C150.706 98.4364 150.975 98.2096 151.136 97.9013C151.296 97.5927 151.328 97.2421 151.224 96.914H151.225C151.05 96.3612 150.538 96.007 149.987 96.007Z" fill="#390075"/>
<path d="M93.2863 71.0041C93.9825 71.79 93.909 73.0026 93.1232 73.6987L87.4587 78.7162C86.6729 79.4124 85.4603 79.3389 84.7642 78.5531C84.0681 77.7672 84.1415 76.5546 84.9274 75.8585L90.5918 70.841C91.3777 70.1448 92.5902 70.2183 93.2863 71.0041Z" fill="#55DFFF"/>
<g opacity="0.2">
<path d="M93.1234 73.6977L87.4586 78.7155C86.6719 79.4109 85.4604 79.3392 84.7633 78.5524C84.4426 78.1904 84.2866 77.7389 84.2866 77.2891C84.2866 76.7604 84.5035 76.2335 84.9264 75.8572L85.636 75.2282C85.7149 75.4163 85.826 75.5938 85.9676 75.755C86.6647 76.5418 87.8761 76.6152 88.6629 75.9181L93.6162 71.5293C93.9227 72.2604 93.7488 73.1439 93.1234 73.6977Z" fill="#390075"/>
</g>
<path d="M86.1943 79.8076C85.4971 79.8076 84.8032 79.521 84.3056 78.9595C83.8603 78.4568 83.6377 77.8091 83.6784 77.1353C83.7193 76.4615 84.0185 75.8452 84.5211 75.4002L90.1855 70.3826C90.688 69.9375 91.3346 69.7139 92.0096 69.7554C92.6833 69.7961 93.2995 70.0955 93.7446 70.5981C94.1898 71.1006 94.4125 71.7483 94.3717 72.4221C94.331 73.0959 94.0318 73.7121 93.5292 74.1572L87.8647 79.1748C87.3857 79.5989 86.7889 79.8074 86.1943 79.8076ZM91.8543 70.9756C91.5368 70.9756 91.2353 71.0892 90.9978 71.2996L85.3333 76.3171C85.0756 76.5454 84.9222 76.8621 84.9012 77.2092C84.8802 77.5564 84.9942 77.8894 85.2225 78.1472C85.6964 78.6821 86.5176 78.7319 87.0524 78.2578L92.7169 73.2402C92.9746 73.012 93.128 72.6953 93.149 72.3481C93.17 72.0009 93.0559 71.6679 92.8276 71.4101C92.5995 71.1526 92.2827 70.9992 91.9355 70.978C91.9084 70.9766 91.8813 70.9756 91.8543 70.9756Z" fill="#390075"/>
<path d="M89.9268 62.4375C90.0679 63.4778 89.3322 64.4444 88.2919 64.5855L80.7933 65.6024C79.753 65.7435 78.7864 65.0078 78.6453 63.9674C78.5042 62.9271 79.2399 61.9605 80.2803 61.8194L87.7788 60.8025C88.8192 60.6614 89.7858 61.3972 89.9268 62.4375Z" fill="#FFD2D2"/>
<g opacity="0.2">
<path d="M89.9155 63.0195C89.7775 63.8152 89.1359 64.4711 88.2919 64.5858L80.7938 65.6019C79.7526 65.7435 78.7867 65.007 78.6451 63.9675C78.6326 63.8815 78.6272 63.7955 78.6272 63.7113C78.6272 62.7722 79.3261 61.9479 80.2813 61.8188L80.482 61.792C80.4623 61.8995 80.4533 62.007 80.4533 62.1181C80.4533 62.2023 80.4587 62.2884 80.4712 62.3744C80.6128 63.4156 81.5787 64.1503 82.6199 64.0106L89.9155 63.0195Z" fill="#390075"/>
</g>
<path d="M80.5343 66.2327C79.987 66.2327 79.4563 66.0543 79.0113 65.7154C78.4743 65.3067 78.1289 64.7151 78.0387 64.0498C77.8518 62.6721 78.8205 61.3992 80.1982 61.2124L87.6968 60.1956C89.0747 60.0081 90.3472 60.9776 90.5341 62.3552C90.6243 63.0205 90.4489 63.6826 90.0401 64.2197C89.6311 64.7568 89.0396 65.1023 88.3743 65.1924L80.8759 66.2095C80.7617 66.2249 80.6477 66.2327 80.5343 66.2327ZM88.0365 61.3975C87.9786 61.3975 87.9203 61.4014 87.8613 61.4094L80.3628 62.4263C79.6545 62.5222 79.1565 63.1768 79.2525 63.8853C79.2988 64.2263 79.4765 64.5301 79.7533 64.7407C80.03 64.9514 80.37 65.0415 80.7113 64.9956L88.2098 63.9785C88.5509 63.9324 88.8546 63.7544 89.0653 63.4778C89.2758 63.2012 89.3664 62.8608 89.3202 62.5198C89.232 61.8704 88.6745 61.3975 88.0365 61.3975Z" fill="#390075"/>
<path d="M111.953 57.6025C112.094 58.6429 111.359 59.6095 110.318 59.7506L102.82 60.7675C101.78 60.9086 100.813 60.1728 100.672 59.1325C100.531 58.0921 101.266 57.1255 102.307 56.9844L109.805 55.9675C110.846 55.8264 111.812 56.5622 111.953 57.6025Z" fill="#FEF26B"/>
<g opacity="0.2">
<path d="M111.966 57.9926C111.903 58.8743 111.225 59.627 110.319 59.7507L102.821 60.7686C101.779 60.9084 100.813 60.1736 100.672 59.1324C100.659 59.0464 100.654 58.9604 100.654 58.8762C100.654 57.9389 101.353 57.1146 102.306 56.9855L102.525 56.9551C102.521 56.9999 102.52 57.0447 102.52 57.0895C102.52 57.1737 102.525 57.2597 102.537 57.3457C102.677 58.3869 103.645 59.1217 104.684 58.9801L111.966 57.9926Z" fill="#390075"/>
</g>
<path d="M102.562 61.3973C101.321 61.3976 100.236 60.4779 100.065 59.2147C99.8779 57.8373 100.847 56.5646 102.224 56.3776L109.723 55.3607C110.387 55.2714 111.05 55.4459 111.587 55.8546C112.125 56.2633 112.47 56.8549 112.56 57.5201C112.747 58.8978 111.778 60.1708 110.401 60.3575L102.902 61.3744C102.788 61.39 102.674 61.3973 102.562 61.3973ZM110.062 56.5629C110.004 56.5629 109.946 56.5668 109.888 56.5746L102.389 57.5914C102.048 57.6376 101.744 57.8155 101.534 58.0922C101.323 58.369 101.232 58.7091 101.279 59.0502C101.375 59.7582 102.029 60.2555 102.738 60.1605L110.236 59.1437C110.944 59.0477 111.442 58.3932 111.346 57.6847C111.3 57.3436 111.122 57.0399 110.846 56.8295C110.616 56.6549 110.343 56.5629 110.062 56.5629Z" fill="#390075"/>
<path d="M114.663 72.7967C113.894 73.5107 112.68 73.4651 111.966 72.6954L106.82 67.1475C106.106 66.3778 106.151 65.164 106.921 64.45C107.691 63.736 108.905 63.7816 109.619 64.5513L114.765 70.0991C115.479 70.8688 115.433 72.0827 114.663 72.7967Z" fill="#CC25F4"/>
<path d="M114.663 72.7967C113.894 73.5107 112.68 73.4651 111.966 72.6954L106.82 67.1475C106.106 66.3778 106.151 65.164 106.921 64.45C107.691 63.736 108.905 63.7816 109.619 64.5513L114.765 70.0991C115.479 70.8688 115.433 72.0827 114.663 72.7967Z" fill="#FFD2D2"/>
<path d="M113.366 73.9174C112.688 73.9174 112.013 73.6469 111.517 73.112L106.371 67.5642C105.425 66.5449 105.485 64.9465 106.504 64.0012C106.997 63.5446 107.637 63.3083 108.314 63.3322C108.988 63.3576 109.611 63.6428 110.068 64.135L115.214 69.6828C116.159 70.7019 116.099 72.3003 115.08 73.2458C115.08 73.2458 115.08 73.2458 115.08 73.2458C114.595 73.6952 113.98 73.9174 113.366 73.9174ZM108.217 64.5554C107.888 64.5554 107.577 64.6765 107.337 64.8991C106.813 65.3852 106.783 66.207 107.269 66.7312L112.415 72.279C112.901 72.8032 113.723 72.834 114.247 72.3479C114.771 71.8615 114.802 71.0398 114.316 70.5158L109.169 64.968C108.935 64.7155 108.615 64.5695 108.267 64.5564C108.251 64.5558 108.234 64.5554 108.217 64.5554Z" fill="#390075"/>
<g opacity="0.2">
<path d="M114.663 72.797C113.894 73.5103 112.681 73.4655 111.965 72.6949L106.82 67.1484C106.213 66.4925 106.156 65.5176 106.625 64.8008L111.46 70.0157C112.175 70.7845 113.388 70.8293 114.159 70.1161C114.274 70.0086 114.372 69.8903 114.455 69.7648L114.765 70.0999C115.478 70.8687 115.433 72.082 114.663 72.797Z" fill="#390075"/>
</g>
<path d="M130.456 81.3293C129.942 82.2445 128.772 82.5724 127.857 82.058L121.26 78.3502C120.345 77.8358 120.017 76.6661 120.532 75.7509C121.046 74.8357 122.216 74.5078 123.131 75.0223L129.727 78.7301C130.643 79.2445 130.97 80.4142 130.456 81.3293Z" fill="#55DFFF"/>
<g opacity="0.2">
<path d="M130.456 81.3289C129.942 82.2447 128.772 82.5726 127.856 82.0583L121.261 78.3505C120.439 77.8882 120.089 76.8954 120.403 76.0352L126.924 79.7C127.84 80.2143 129.01 79.8863 129.524 78.9724C129.576 78.881 129.619 78.786 129.653 78.6892L129.727 78.7304C130.643 79.2447 130.971 80.4132 130.456 81.3289Z" fill="#390075"/>
</g>
<path d="M128.788 82.915C128.37 82.915 127.946 82.811 127.557 82.592L120.96 78.8843C119.748 78.2031 119.316 76.6628 119.997 75.4509C120.679 74.2388 122.22 73.8076 123.431 74.4883L130.027 78.1963C130.613 78.5251 131.035 79.0642 131.217 79.7141C131.4 80.364 131.319 81.0442 130.99 81.6294C130.528 82.4519 129.67 82.915 128.788 82.915ZM122.198 75.3901C121.744 75.3901 121.303 75.6282 121.065 76.051C120.715 76.6743 120.937 77.4661 121.56 77.8164L128.157 81.5242C128.78 81.8745 129.572 81.6528 129.922 81.0293C130.091 80.7293 130.132 80.3797 130.038 80.0449C129.944 79.71 129.727 79.4329 129.427 79.2642L122.831 75.5562C122.63 75.4436 122.413 75.3901 122.198 75.3901Z" fill="#390075"/>
<path d="M137.363 66.0495C137.594 67.0736 136.945 68.1006 135.921 68.3318L128.54 69.998C127.516 70.2291 126.489 69.5804 126.257 68.5563C126.026 67.5322 126.675 66.5052 127.699 66.274L135.081 64.6078C136.105 64.3766 137.132 65.0254 137.363 66.0495Z" fill="#55DFFF"/>
<g opacity="0.2">
<path d="M137.41 66.4618C137.411 67.3364 136.807 68.1303 135.92 68.331L128.541 69.9976C127.516 70.2288 126.489 69.5801 126.258 68.5568C126.225 68.417 126.211 68.2772 126.211 68.1374C126.211 67.2665 126.815 66.4726 127.698 66.2737L128.193 66.1626C128.193 66.2988 128.207 66.4368 128.24 66.5748C128.471 67.5998 129.498 68.2486 130.521 68.0174L137.41 66.4618Z" fill="#390075"/>
</g>
<path d="M128.118 70.6579C127.647 70.6579 127.184 70.5244 126.774 70.2656C126.203 69.9052 125.808 69.3459 125.66 68.6911C125.512 68.0363 125.629 67.3613 125.99 66.7907C126.35 66.2199 126.909 65.8244 127.564 65.6767L134.946 64.0105C135.6 63.8628 136.275 63.98 136.846 64.3401C137.417 64.7007 137.812 65.2598 137.96 65.9148C138.266 67.2707 137.412 68.623 136.056 68.9292L128.675 70.5954C128.49 70.6372 128.303 70.6579 128.118 70.6579ZM135.5 65.1736C135.405 65.1736 135.31 65.1841 135.215 65.2053L127.834 66.8716C127.498 66.9473 127.211 67.1509 127.025 67.4448C126.839 67.739 126.779 68.0857 126.855 68.4216C126.931 68.7573 127.134 69.0444 127.428 69.23C127.722 69.4158 128.069 69.4763 128.405 69.4006L135.786 67.7344C136.483 67.5769 136.923 66.8816 136.765 66.1843C136.69 65.8486 136.486 65.5615 136.192 65.3757C135.98 65.2424 135.742 65.1736 135.5 65.1736Z" fill="#390075"/>
<path d="M139.269 89.29C138.284 88.9284 137.773 87.8262 138.135 86.8406L140.741 79.7363C141.102 78.7506 142.204 78.24 143.19 78.6016C144.176 78.9631 144.686 80.0654 144.325 81.051L141.719 88.1553C141.357 89.1409 140.255 89.6515 139.269 89.29Z" fill="#FEF26B"/>
<g opacity="0.2">
<path d="M144.442 80.3988C144.442 80.6157 144.404 80.8361 144.325 81.0511L141.719 88.1549C141.357 89.1406 140.255 89.6513 139.27 89.2893C138.284 88.9273 137.773 87.8252 138.135 86.8395L138.607 85.5528C138.791 85.732 139.015 85.8754 139.27 85.9686C140.255 86.3288 141.357 85.8198 141.719 84.8342L143.852 79.0171C144.227 79.3738 144.442 79.8773 144.442 80.3988Z" fill="#390075"/>
</g>
<path d="M139.924 90.0189C139.636 90.0189 139.344 89.9694 139.059 89.8646H139.059C138.428 89.6334 137.925 89.1688 137.641 88.5565C137.357 87.944 137.328 87.2596 137.56 86.6293L140.165 79.525C140.397 78.8947 140.861 78.3912 141.474 78.1075C142.086 77.8238 142.77 77.795 143.401 78.0262C144.706 78.505 145.378 79.9564 144.9 81.2616L142.294 88.3658C141.92 89.3854 140.952 90.0189 139.924 90.0189ZM139.48 88.7147C140.151 88.9601 140.898 88.6146 141.144 87.944L143.75 80.8397C143.996 80.1686 143.65 79.4225 142.979 79.1762C142.656 79.058 142.304 79.0731 141.989 79.2191C141.673 79.3651 141.434 79.6237 141.315 79.9469L138.71 87.0512C138.464 87.7223 138.809 88.4684 139.48 88.7147Z" fill="#390075"/>
<path d="M134.769 102.754C133.795 103.146 132.677 102.67 132.285 101.696L129.461 94.6753C129.069 93.7013 129.545 92.5838 130.519 92.1919C131.493 91.8001 132.611 92.2763 133.002 93.2503L135.827 100.271C136.219 101.245 135.742 102.362 134.769 102.754Z" fill="#55DFFF"/>
<g opacity="0.2">
<path d="M134.768 102.755C133.795 103.146 132.677 102.671 132.286 101.696L129.462 94.6764C129.143 93.8861 129.397 93.0026 130.023 92.4883L132.519 98.6961C132.91 99.6692 134.028 100.146 135.001 99.7534C135.186 99.6781 135.354 99.5778 135.499 99.4577L135.827 100.271C136.22 101.244 135.743 102.363 134.768 102.755Z" fill="#390075"/>
</g>
<path d="M134.059 103.505C133.06 103.505 132.112 102.907 131.717 101.925L128.892 94.9047C128.374 93.6149 129.001 92.1435 130.29 91.6247C131.581 91.1056 133.052 91.7331 133.571 93.0226L136.395 100.043C136.646 100.666 136.638 101.35 136.373 101.971C136.109 102.592 135.62 103.072 134.997 103.323C134.69 103.447 134.372 103.505 134.059 103.505ZM131.23 92.6674C131.069 92.6674 130.906 92.6974 130.748 92.7609C130.085 93.0277 129.762 93.7843 130.029 94.4476L132.853 101.468C133.12 102.131 133.877 102.453 134.54 102.187C134.859 102.058 135.11 101.811 135.246 101.491C135.383 101.171 135.387 100.819 135.259 100.5L132.434 93.4796C132.231 92.9747 131.744 92.6674 131.23 92.6674Z" fill="#390075"/>
<path d="M73.2341 76.7253C72.8058 77.6838 71.6711 78.1176 70.7126 77.6892L63.804 74.6018C62.8455 74.1735 62.4117 73.0388 62.8401 72.0803C63.2684 71.1218 64.4031 70.688 65.3616 71.1164L72.2703 74.2038C73.2287 74.6321 73.6625 75.7668 73.2341 76.7253Z" fill="#FEF26B"/>
<g opacity="0.2">
<path d="M73.2332 76.7252C72.8049 77.6839 71.6705 78.1176 70.7118 77.6893L63.8033 74.6016C63.0613 74.27 62.633 73.512 62.6778 72.7432C62.694 72.7521 62.7101 72.7593 62.7262 72.7665L69.6347 75.8542C70.5935 76.2825 71.7279 75.8489 72.1562 74.8901C72.2529 74.675 72.3049 74.451 72.3175 74.227C73.2422 74.6697 73.6562 75.7825 73.2332 76.7252Z" fill="#390075"/>
</g>
<path d="M71.4859 78.4677C71.1372 78.4677 70.7896 78.3942 70.4625 78.248L63.5539 75.1606C62.941 74.8869 62.4707 74.3889 62.2297 73.7583C61.9888 73.1279 62.0068 72.4431 62.2808 71.83C62.848 70.561 64.3422 69.9904 65.6113 70.5568L72.52 73.6445C73.7892 74.2119 74.3604 75.7058 73.7932 76.975C73.5193 77.5878 73.0213 78.0583 72.3908 78.2992C72.0968 78.4116 71.7908 78.4677 71.4859 78.4677ZM64.5846 71.5627C64.0885 71.5627 63.6142 71.8486 63.3992 72.3301C63.2587 72.6443 63.2498 72.9961 63.3739 73.321C63.4981 73.6457 63.7395 73.9021 64.0537 74.0422L70.9624 77.1299C71.2768 77.2702 71.6286 77.2793 71.9534 77.155C72.2782 77.0308 72.5344 76.7896 72.6748 76.4751C72.9665 75.8227 72.6727 75.0544 72.0202 74.7627L65.1116 71.6753C64.9403 71.5989 64.7609 71.5627 64.5846 71.5627Z" fill="#390075"/>
<path d="M72.7175 86.9017C73.3728 87.722 73.2379 88.9292 72.4177 89.5845L66.5057 94.3079C65.6854 94.9632 64.4782 94.8282 63.8229 94.008C63.1676 93.1878 63.3025 91.9805 64.1227 91.3252L70.0347 86.6019C70.8549 85.9466 72.0622 86.0815 72.7175 86.9017Z" fill="#FFD2D2"/>
<g opacity="0.2">
<path d="M72.4179 89.5836L66.5058 94.3076C65.685 94.9635 64.4789 94.8291 63.823 94.0083C63.5435 93.6588 63.4073 93.2377 63.4073 92.8201C63.4073 92.2574 63.6528 91.7001 64.1223 91.3255L64.8517 90.7431C64.918 90.9814 65.0327 91.2108 65.1958 91.4151C65.8517 92.2359 67.0578 92.3703 67.8785 91.7144L73.0612 87.5747C73.2637 88.2915 73.0344 89.0926 72.4179 89.5836Z" fill="#390075"/>
</g>
<path d="M65.3165 95.3365C64.5758 95.3365 63.8415 95.0125 63.3442 94.3902C62.4764 93.3037 62.6541 91.7141 63.7402 90.8465L69.6523 86.1231C70.7383 85.2556 72.3279 85.4329 73.1959 86.5191C74.0637 87.6055 73.8859 89.1951 72.7999 90.0628L66.8878 94.7862C66.424 95.1565 65.8685 95.3365 65.3165 95.3365ZM71.2248 86.7971C70.941 86.7971 70.6554 86.8897 70.417 87.0801L64.5049 91.8035C63.9464 92.2495 63.8551 93.0669 64.3013 93.6255C64.7474 94.1841 65.5648 94.2751 66.1232 93.8291L72.0353 89.1057C72.5937 88.6596 72.6851 87.8422 72.2389 87.2837C71.9831 86.9637 71.6055 86.7971 71.2248 86.7971Z" fill="#390075"/>
<path d="M56.7907 87.8376C55.747 87.7237 54.9863 86.7766 55.1002 85.733L55.9212 78.2105C56.0351 77.1669 56.9822 76.4062 58.0259 76.5201C59.0695 76.634 59.8302 77.5811 59.7163 78.6247L58.8953 86.1472C58.7814 87.1908 57.8343 87.9515 56.7907 87.8376Z" fill="#55DFFF"/>
<g opacity="0.2">
<path d="M59.0992 84.2826L58.8949 86.1482C58.782 87.1912 57.834 87.951 56.791 87.8381C55.7462 87.7234 54.9864 86.7772 55.1011 85.7324L55.9218 78.2111C55.9953 77.5319 56.4218 76.9727 56.9989 76.6968L56.3824 82.3544C56.2677 83.3974 57.0294 84.3436 58.0724 84.4583C58.4361 84.4977 58.7892 84.4314 59.0992 84.2826Z" fill="#390075"/>
</g>
<path d="M57.0004 88.4618C56.9086 88.4618 56.8165 88.4566 56.7239 88.4466C56.0566 88.3739 55.4562 88.044 55.0336 87.5177C54.6109 86.9916 54.4183 86.3343 54.491 85.6669L55.3121 78.1444C55.385 77.4769 55.7148 76.8766 56.241 76.454C56.7673 76.0311 57.425 75.839 58.0921 75.9115C58.7593 75.9842 59.3597 76.3141 59.7824 76.8404C60.205 77.3665 60.3976 78.0238 60.3249 78.6913L59.504 86.2137C59.4311 86.8812 59.1011 87.4815 58.5749 87.9042C58.1217 88.2684 57.5709 88.4618 57.0004 88.4618ZM57.8179 77.1215C57.525 77.1215 57.2419 77.2213 57.0081 77.4091C56.737 77.6268 56.5672 77.9352 56.5299 78.2772L55.7088 85.7997C55.6715 86.142 55.7709 86.4796 55.9887 86.7506C56.2064 87.0218 56.5146 87.1915 56.8568 87.2289C56.8568 87.2289 56.8568 87.2289 56.8569 87.2289C57.1988 87.2662 57.5368 87.1669 57.8078 86.9491C58.0791 86.7313 58.2489 86.423 58.2862 86.0809L59.1072 78.5585C59.1445 78.2162 59.0451 77.8785 58.8273 77.6075C58.6097 77.3363 58.3013 77.1666 57.9592 77.1293C57.9121 77.1241 57.8648 77.1215 57.8179 77.1215Z" fill="#390075"/>
<path d="M99.9999 133.531C85.5471 133.531 73.7889 121.773 73.7889 107.32C73.7889 92.8674 85.5471 81.1094 99.9999 81.1094C114.453 81.1094 126.211 92.8674 126.211 107.32C126.211 121.773 114.453 133.531 99.9999 133.531ZM99.9999 82.543C86.3376 82.543 75.2225 93.658 75.2225 107.32C75.2225 120.982 86.3376 132.097 99.9999 132.097C113.662 132.097 124.777 120.982 124.777 107.32C124.777 93.658 113.662 82.543 99.9999 82.543Z" fill="#390075"/>
<path d="M74.5198 107.212C74.4941 107.212 74.4684 107.211 74.4425 107.208C74.0697 107.168 73.7907 106.848 73.8026 106.473C73.8894 103.731 74.3991 101.042 75.3173 98.4791C75.4437 98.1261 75.8208 97.9308 76.1818 98.0294C76.5431 98.1285 76.7671 98.4894 76.6958 98.8573C76.1593 101.626 75.6641 104.24 75.224 106.626C75.1608 106.969 74.8613 107.212 74.5198 107.212Z" fill="#390075"/>
<path d="M125.492 107.824C125.149 107.824 124.85 107.58 124.787 107.237C124.274 104.441 123.703 101.428 123.09 98.2819C123.019 97.9174 123.238 97.5588 123.595 97.456C123.951 97.3542 124.329 97.54 124.462 97.8871C125.596 100.828 126.184 103.928 126.209 107.102C126.212 107.474 125.93 107.786 125.56 107.821C125.537 107.823 125.514 107.824 125.492 107.824Z" fill="#390075"/>
<path d="M125.494 107.321C125.494 115.122 121.99 122.104 116.469 126.781C112.026 130.544 106.277 132.813 99.9998 132.813C93.7222 132.813 87.9731 130.544 83.5306 126.781C78.0092 122.104 74.5056 115.122 74.5056 107.321C74.5056 107.045 74.511 106.769 74.5182 106.495C74.9859 103.959 75.4841 101.34 75.9913 98.7205C77.502 90.95 79.1149 83.1795 80.3891 77.6187H119.507C120.75 83.0397 122.315 90.5665 123.793 98.1452C124.383 101.167 124.958 104.197 125.492 107.107C125.494 107.179 125.494 107.249 125.494 107.321Z" fill="white"/>
<path d="M116.892 123.003C116.892 124.302 116.745 125.566 116.469 126.781C112.027 130.544 106.278 132.813 99.9999 132.813C93.7222 132.813 87.9732 130.544 83.5306 126.781C83.2546 125.566 83.1077 124.302 83.1077 123.003C83.1077 113.675 90.6703 106.113 99.9999 106.113C109.329 106.113 116.892 113.675 116.892 123.003Z" fill="#FDC1E5"/>
<path d="M99.9999 133.531C85.5471 133.531 73.7889 121.773 73.7889 107.32C73.7889 107.037 73.7941 106.755 73.8025 106.474C73.8036 106.437 73.8075 106.401 73.8141 106.365C74.255 103.975 74.751 101.357 75.2883 98.5842C76.8372 90.6101 78.4418 82.9104 79.6908 77.459C79.7654 77.1333 80.0553 76.9023 80.3895 76.9023H119.507C119.842 76.9023 120.131 77.1333 120.206 77.459C121.416 82.74 122.98 90.2297 124.497 98.0078C125.111 101.159 125.683 104.177 126.197 106.978C126.204 107.015 126.208 107.053 126.209 107.091C126.211 107.167 126.211 107.243 126.211 107.32C126.211 121.773 114.453 133.531 99.9999 133.531ZM75.2339 106.571C75.2268 106.82 75.2225 107.07 75.2225 107.32C75.2225 120.982 86.3376 132.097 99.9999 132.097C113.662 132.097 124.777 120.982 124.777 107.32C124.777 107.273 124.777 107.226 124.776 107.179C124.266 104.4 123.699 101.407 123.09 98.2823C121.629 90.7884 120.124 83.5652 118.936 78.336H80.9612C79.735 83.7334 78.1896 91.1665 76.6958 98.8575C76.1633 101.605 75.6715 104.2 75.2339 106.571Z" fill="#390075"/>
<g opacity="0.2">
<path d="M125.494 107.321C125.494 115.122 121.99 122.104 116.469 126.781C112.026 130.544 106.277 132.813 99.9998 132.813C93.7222 132.813 87.9731 130.544 83.5306 126.781C78.0092 122.104 74.5056 115.122 74.5056 107.321C74.5056 107.045 74.511 106.769 74.5182 106.495C74.9859 103.959 75.4841 101.34 75.9913 98.7205C77.502 90.95 79.1149 83.1795 80.3891 77.6187H82.3173C81.2152 82.4967 79.8658 89.0271 78.5952 95.5556C78.1436 97.8907 77.6991 100.226 77.2816 102.486C77.2762 102.731 77.2708 102.977 77.2708 103.222C77.2708 110.177 80.3494 128.358 99.8105 128.358C119.272 128.358 122.729 110.177 122.729 103.222C122.729 103.158 122.729 103.097 122.727 103.032C122.252 100.437 121.738 97.7366 121.213 95.0413C119.973 88.6848 118.664 82.3677 117.589 77.6187H119.507C120.75 83.0397 122.315 90.5665 123.793 98.1452C124.383 101.167 124.958 104.197 125.492 107.107C125.494 107.179 125.494 107.249 125.494 107.321Z" fill="#390075"/>
</g>
<path d="M132.041 85.292C129.226 93.886 113.62 98.2122 108.578 83.7857C106.653 78.2779 107.365 70.3083 106.895 66.0943C105.911 57.2766 98.953 48.6556 98.953 48.6556L111.544 48.4639C111.544 48.4639 115.756 50.8635 117.413 58.987C118.43 63.9741 116.817 72.8763 117.336 78.9609C117.336 78.9609 117.679 73.1991 123.377 71.8299C129.523 70.3557 134.86 76.6838 132.041 85.292Z" fill="#FEF26B"/>
<g opacity="0.3">
<path d="M132.041 85.292C129.226 93.886 113.62 98.2122 108.578 83.7857C106.653 78.2779 107.365 70.3083 106.895 66.0943C105.993 58.0173 100.08 50.1069 99.0928 48.835C102.549 51.4154 107.017 55.8237 107.939 61.818C108.583 66.0095 107.71 75.0006 109.95 80.3874C115.274 93.1824 129.285 89.8604 132.76 81.8651C132.666 82.9529 132.432 84.1016 132.041 85.292Z" fill="#390075"/>
</g>
<g opacity="0.35">
<path d="M120.976 75.9037C121.497 75.0749 123.158 73.275 126.357 73.9137C129.25 74.4915 131.537 78.411 129.585 78.8882C128.233 79.2187 127.768 76.4477 125.74 76.1392C124.271 75.9159 122.335 77.7775 121.452 77.4261C120.55 77.0672 120.717 76.3156 120.976 75.9037Z" fill="white"/>
</g>
<path d="M122.379 85.6128C121.936 85.6913 121.475 85.723 121.008 85.6722C120.542 85.6239 120.07 85.4899 119.639 85.26C118.764 84.8036 118.129 83.9926 117.723 83.1551C117.301 82.3119 117.08 81.4168 116.909 80.5331C116.755 79.6454 116.661 78.7577 116.618 77.8737C116.451 74.336 116.81 70.8655 117.002 67.4137C117.101 65.689 117.178 63.9662 117.128 62.2637C117.103 61.4133 117.046 60.5677 116.923 59.7452C116.893 59.539 116.855 59.3364 116.817 59.134L116.682 58.5131C116.586 58.1004 116.486 57.6887 116.369 57.2823C115.91 55.6557 115.287 54.0752 114.439 52.6343C114.017 51.9141 113.539 51.2281 113.001 50.6022C112.732 50.2892 112.449 49.991 112.151 49.7142C112.001 49.5773 111.848 49.4442 111.692 49.3198C111.614 49.2583 111.535 49.1981 111.457 49.1415C111.383 49.0883 111.288 49.0253 111.24 48.9961L111.552 49.0763L98.9628 49.2674L99.4302 48.2703C100.086 49.1042 100.675 49.9395 101.253 50.8028C101.829 51.6626 102.376 52.5411 102.896 53.4355C103.936 55.2244 104.87 57.0807 105.644 59.0112C106.413 60.9412 107.036 62.9466 107.365 65.0247C107.533 66.0635 107.613 67.1201 107.649 68.1483C107.69 69.1806 107.705 70.2054 107.723 71.2268C107.758 73.2688 107.803 75.2999 107.973 77.3116C108.145 79.3188 108.431 81.3186 109.029 83.1986C109.642 85.0781 110.525 86.8842 111.742 88.4124C112.957 89.9372 114.532 91.1625 116.334 91.8632C118.133 92.5668 120.125 92.7493 122.048 92.4526C123.972 92.1573 125.833 91.4079 127.429 90.2896C129.022 89.1757 130.361 87.6766 131.14 85.9245C131.335 85.488 131.486 85.0389 131.625 84.5597C131.762 84.0869 131.877 83.6087 131.968 83.1269C132.149 82.1635 132.231 81.1847 132.191 80.2146C132.118 78.281 131.533 76.355 130.365 74.8572C129.786 74.109 129.065 73.4783 128.248 73.0265C127.432 72.5709 126.516 72.3088 125.586 72.2538C124.652 72.1973 123.717 72.3608 122.82 72.6724C122.373 72.8223 121.942 73.0121 121.54 73.2482C121.134 73.4763 120.753 73.7449 120.398 74.0466C119.688 74.652 119.102 75.4066 118.63 76.2467C118.156 77.0827 117.792 78.0184 117.54 78.9729L117.536 78.9883C117.507 79.0979 117.395 79.1633 117.285 79.1344C117.197 79.1113 117.138 79.0344 117.133 78.9486C117.099 78.4018 117.151 77.8783 117.248 77.3504C117.344 76.8239 117.5 76.3067 117.7 75.8032C118.105 74.7985 118.732 73.858 119.549 73.1011C120.363 72.3421 121.355 71.7737 122.402 71.4363C123.436 71.0821 124.56 70.9321 125.668 71.0093C126.778 71.0893 127.869 71.4179 128.841 71.9546C129.813 72.4917 130.661 73.237 131.332 74.1054C132.688 75.8471 133.334 78.0281 133.415 80.1646C133.459 81.2372 133.369 82.3081 133.172 83.3529C133.074 83.8755 132.949 84.392 132.801 84.9005C132.656 85.4027 132.481 85.9246 132.26 86.4216C131.372 88.4144 129.88 90.0695 128.131 91.2928C126.379 92.5198 124.35 93.3377 122.232 93.6634C120.119 93.9901 117.901 93.792 115.888 93.0041C113.871 92.2212 112.113 90.8462 110.785 89.1772C109.452 87.5006 108.516 85.5732 107.862 83.5725C107.221 81.5507 106.93 79.4749 106.752 77.4146C106.578 75.3519 106.534 73.2929 106.498 71.2484C106.48 70.2262 106.465 69.207 106.425 68.1969C106.389 67.1826 106.314 66.1975 106.155 65.2179C105.845 63.2547 105.249 61.3302 104.506 59.4664C103.759 57.602 102.852 55.7959 101.837 54.0516C101.33 53.1796 100.796 52.3219 100.234 51.4831C99.6762 50.6476 99.0848 49.8125 98.4768 49.0396L98.4721 49.0335C98.263 48.7677 98.3089 48.3826 98.5748 48.1735C98.6845 48.0872 98.8146 48.0444 98.9442 48.0424L111.534 47.8514L111.545 47.8511C111.654 47.8495 111.759 47.8798 111.846 47.9316C111.984 48.0136 112.068 48.0737 112.171 48.1462C112.268 48.2161 112.362 48.2879 112.454 48.3605C112.637 48.5065 112.811 48.6587 112.982 48.8143C113.319 49.1276 113.634 49.459 113.93 49.804C114.523 50.4937 115.04 51.2384 115.495 52.0137C116.408 53.5654 117.065 55.2411 117.548 56.9505C117.671 57.3778 117.776 57.8091 117.876 58.2411L118.018 58.8916C118.06 59.1154 118.102 59.339 118.134 59.5623C118.267 60.4557 118.327 61.3445 118.352 62.2274C118.4 63.9939 118.328 65.7412 118.244 67.4802C118.155 69.2189 118.053 70.9497 117.981 72.6743C117.898 74.3977 117.859 76.1173 117.913 77.8159C117.945 78.6648 118.001 79.5083 118.123 80.3336C118.241 81.1572 118.423 81.9659 118.717 82.7061C119.016 83.4425 119.444 84.1054 120.07 84.5432C120.693 84.9865 121.504 85.1764 122.347 85.2057L122.35 85.2058C122.464 85.2097 122.552 85.3047 122.548 85.4179C122.545 85.5165 122.472 85.5963 122.379 85.6128Z" fill="#390075"/>
<path d="M140.21 81.2645C138.834 90.2024 124.142 97.0145 116.815 83.6029C114.019 78.4824 113.422 70.5034 112.271 66.4224C109.864 57.8829 101.593 50.5115 101.593 50.5115L113.984 48.27C113.984 48.27 118.532 49.9509 121.49 57.6958C123.307 62.4502 123.166 71.4964 124.67 77.4151C124.67 77.4151 124.07 71.6743 129.467 69.3948C135.291 66.9384 141.589 72.3119 140.21 81.2645Z" fill="#FD6CCB"/>
<path d="M127.946 91.2422C123.428 91.2425 119.419 88.5586 116.736 83.6465C114.821 80.1399 113.922 75.2337 113.199 71.2915C112.865 69.4649 112.549 67.7395 112.184 66.447C109.811 58.0303 101.616 50.6526 101.533 50.5791C101.507 50.5562 101.497 50.5205 101.506 50.4873C101.516 50.4541 101.543 50.429 101.577 50.4229L113.968 48.1814C113.985 48.179 114.001 48.18 114.016 48.1856C114.062 48.2027 118.635 49.9698 121.574 57.6638C122.577 60.2881 122.977 64.1233 123.4 68.1838C123.702 71.0913 124.015 74.0881 124.57 76.6001C124.638 74.9114 125.268 71.0705 129.432 69.3117C131.962 68.2448 134.652 68.5988 136.811 70.2827C139.708 72.5407 141.012 76.6513 140.3 81.2783C139.58 85.9521 135.157 90.1569 130.011 91.0593C129.313 91.1819 128.624 91.2422 127.946 91.2422ZM101.788 50.5682C102.873 51.5733 110.14 58.5306 112.358 66.3982C112.725 67.6985 113.042 69.428 113.377 71.2588C114.097 75.1885 114.993 80.0786 116.894 83.5601C119.941 89.137 124.71 91.8052 129.98 90.8814C135.053 89.992 139.413 85.8516 140.121 81.251C140.823 76.6895 139.545 72.6426 136.701 70.4251C134.594 68.7827 131.97 68.437 129.503 69.4783C124.231 71.7046 124.754 77.3491 124.76 77.406C124.765 77.4529 124.733 77.4959 124.686 77.5042C124.639 77.5125 124.594 77.4832 124.583 77.4375C123.904 74.7656 123.556 71.4292 123.22 68.2027C122.798 64.1543 122.4 60.3304 121.406 57.7283C118.604 50.3924 114.321 48.5054 113.975 48.3638L101.788 50.5682Z" fill="#102770"/>
<g opacity="0.3">
<path d="M140.21 81.2643C138.834 90.2022 124.142 97.0143 116.815 83.6027C114.019 78.4822 113.422 70.5033 112.271 66.4223C110.065 58.6003 102.942 51.7595 101.76 50.6655C105.591 52.6481 110.718 56.2691 112.604 62.0331C113.923 66.0635 114.527 75.0767 117.616 80.0262C124.953 91.7824 138.236 86.221 140.361 77.7662C140.445 78.8547 140.402 80.0261 140.21 81.2643Z" fill="#390075"/>
</g>
<g opacity="0.35">
<path d="M127.762 73.8065C128.141 72.9038 129.486 70.8573 132.747 70.9661C135.696 71.0644 138.59 74.5589 136.742 75.3478C135.462 75.8942 134.552 73.2361 132.501 73.2624C131.015 73.2814 129.408 75.4337 128.48 75.231C127.532 75.0238 127.573 74.2551 127.762 73.8065Z" fill="white"/>
</g>
<path d="M130.73 83.1563C130.306 83.3059 129.856 83.4124 129.387 83.4384C128.919 83.4666 128.432 83.4113 127.969 83.2547C127.031 82.9471 126.273 82.2506 125.736 81.4903C125.182 80.7273 124.818 79.8802 124.505 79.0362C124.209 78.1853 123.971 77.3249 123.785 76.4597C123.043 72.9965 122.832 69.5139 122.458 66.0771C122.275 64.3592 122.07 62.6469 121.743 60.9753C121.58 60.1402 121.386 59.3154 121.13 58.5239C121.068 58.3253 120.997 58.1316 120.926 57.9382L120.692 57.3475C120.53 56.956 120.364 56.5662 120.183 56.1842C119.465 54.6543 118.593 53.1964 117.521 51.9131C116.987 51.2714 116.404 50.6722 115.771 50.1424C115.455 49.8775 115.126 49.6295 114.787 49.405C114.617 49.2944 114.445 49.1878 114.27 49.0905C114.183 49.0427 114.096 48.996 114.009 48.9531C113.928 48.9125 113.824 48.8658 113.771 48.8449L114.093 48.8731L101.703 51.1137L102.001 50.0539C102.784 50.7696 103.502 51.4978 104.213 52.2553C104.921 53.0098 105.604 53.7873 106.263 54.5849C107.581 56.1805 108.804 57.8597 109.882 59.6381C110.956 61.4172 111.898 63.294 112.561 65.2907C112.896 66.2883 113.147 67.3177 113.351 68.3261C113.559 69.3382 113.741 70.3469 113.925 71.3515C114.293 73.3604 114.668 75.3571 115.163 77.3143C115.661 79.2665 116.269 81.1928 117.165 82.9503C118.077 84.7047 119.242 86.343 120.691 87.6523C122.14 88.9586 123.892 89.9109 125.785 90.3086C127.674 90.7095 129.67 90.5647 131.518 89.9585C133.368 89.3536 135.082 88.3108 136.475 86.9474C137.865 85.5887 138.942 83.8912 139.425 82.0358C139.546 81.5734 139.622 81.1056 139.681 80.6101C139.739 80.1214 139.775 79.6308 139.786 79.1406C139.808 78.1606 139.729 77.1815 139.531 76.2308C139.144 74.335 138.252 72.5301 136.856 71.2428C136.163 70.5989 135.349 70.0941 134.469 69.7816C133.59 69.465 132.643 69.3557 131.716 69.4532C130.786 69.5495 129.89 69.8634 129.056 70.317C128.639 70.5377 128.245 70.7952 127.887 71.0936C127.524 71.3848 127.192 71.712 126.89 72.0676C126.288 72.7806 125.833 73.6207 125.505 74.5263C125.174 75.4284 124.967 76.4111 124.874 77.3938L124.872 77.4096C124.862 77.5225 124.761 77.6054 124.649 77.5948C124.558 77.5863 124.487 77.5201 124.468 77.4363C124.345 76.9025 124.312 76.3772 124.322 75.8406C124.33 75.3057 124.399 74.77 124.515 74.2405C124.75 73.1833 125.216 72.1532 125.898 71.2733C126.578 70.3917 127.464 69.6692 128.442 69.1658C129.405 68.6476 130.49 68.3163 131.595 68.2119C132.703 68.11 133.834 68.2564 134.879 68.6275C135.926 68.9989 136.884 69.5961 137.688 70.3435C139.309 71.8408 140.302 73.8875 140.731 75.982C140.949 77.0332 141.034 78.1047 141.01 79.1675C140.999 79.6991 140.96 80.2289 140.897 80.7548C140.836 81.2739 140.748 81.8173 140.61 82.3439C140.06 84.4548 138.857 86.3307 137.332 87.8228C135.802 89.319 133.934 90.4569 131.898 91.1232C129.866 91.7901 127.645 91.9561 125.531 91.5069C123.413 91.0633 121.455 89.9931 119.872 88.563C118.284 87.126 117.046 85.377 116.075 83.5096C115.113 81.6193 114.488 79.6188 113.976 77.6152C113.468 75.6082 113.089 73.5842 112.721 71.5726C112.536 70.5671 112.355 69.564 112.151 68.5739C111.95 67.5791 111.715 66.6195 111.399 65.6787C110.773 63.7924 109.872 61.9907 108.835 60.273C107.794 58.5553 106.604 56.9212 105.319 55.3656C104.676 54.5879 104.01 53.8288 103.319 53.0929C102.632 52.3594 101.912 51.6319 101.186 50.9685L101.181 50.9632C100.931 50.735 100.914 50.3476 101.142 50.098C101.236 49.9949 101.358 49.9315 101.485 49.9085L113.875 47.6678L113.886 47.6657C113.994 47.6463 114.102 47.6593 114.196 47.6961C114.345 47.7546 114.438 47.8 114.552 47.8548C114.659 47.908 114.763 47.9636 114.866 48.0202C115.071 48.1344 115.267 48.2562 115.461 48.3819C115.845 48.636 116.209 48.9116 116.558 49.2037C117.255 49.7876 117.887 50.438 118.462 51.1289C119.616 52.5108 120.538 54.0571 121.292 55.6649C121.483 56.0665 121.657 56.4749 121.827 56.8847L122.072 57.5036C122.151 57.7174 122.228 57.9312 122.296 58.1463C122.573 59.0061 122.776 59.8733 122.946 60.7403C123.28 62.4754 123.494 64.211 123.696 65.9404C123.89 67.6704 124.072 69.3947 124.282 71.108C124.482 72.8217 124.723 74.5247 125.054 76.1918C125.223 77.0242 125.416 77.8472 125.671 78.6417C125.922 79.435 126.233 80.2032 126.644 80.8854C127.058 81.5634 127.589 82.1476 128.278 82.4775C128.965 82.8133 129.796 82.8686 130.632 82.7601L130.636 82.7596C130.748 82.745 130.851 82.8243 130.866 82.9366C130.878 83.0343 130.82 83.1248 130.73 83.1563Z" fill="#390075"/>
<path d="M146.962 74.2127C147.12 83.2546 133.794 92.4575 124.301 80.4811C120.678 75.9085 118.737 68.146 116.912 64.3189C113.093 56.3108 103.693 50.4471 103.693 50.4471L115.525 46.1387C115.525 46.1387 120.292 47.0248 124.519 54.1565C127.115 58.5344 128.509 67.4736 130.994 73.0519C130.994 73.0519 129.43 67.4959 134.364 64.3347C139.687 60.9272 146.804 65.156 146.962 74.2127Z" fill="#39D5FF"/>
<g opacity="0.3">
<path d="M146.962 74.2132C147.119 83.2551 133.794 92.458 124.301 80.4816C120.677 75.9089 118.737 68.1465 116.912 64.3194C113.412 56.9842 105.233 51.4492 103.883 50.5713C107.994 51.8762 113.661 54.5761 116.496 59.9372C118.478 63.686 120.601 72.4664 124.484 76.8211C133.707 87.1642 145.855 79.4328 146.517 70.7401C146.785 71.7986 146.941 72.9604 146.962 74.2132Z" fill="#390075"/>
</g>
<g opacity="0.35">
<path d="M133.43 68.9714C133.651 68.0175 134.63 65.7727 137.862 65.3275C140.785 64.9248 144.23 67.8783 142.542 68.9689C141.373 69.7243 140.026 67.2588 138.008 67.6323C136.548 67.9027 135.329 70.2961 134.379 70.2536C133.41 70.2101 133.321 69.4455 133.43 68.9714Z" fill="white"/>
</g>
<path d="M137.939 77.6833C137.547 77.9026 137.121 78.0838 136.664 78.1889C136.207 78.2961 135.718 78.324 135.235 78.2481C134.259 78.1038 133.393 77.5459 132.735 76.8876C132.06 76.2293 131.558 75.4562 131.106 74.6775C130.67 73.8891 130.29 73.0813 129.96 72.2603C128.642 68.9728 127.844 65.5763 126.893 62.2525C126.421 60.5906 125.93 58.9377 125.324 57.3456C125.022 56.5502 124.691 55.7702 124.305 55.0335C124.209 54.8484 124.107 54.6693 124.005 54.4908L123.674 53.9484C123.448 53.5899 123.218 53.2338 122.975 52.8881C122.008 51.502 120.901 50.2131 119.628 49.1298C118.992 48.588 118.317 48.0961 117.603 47.6812C117.247 47.4737 116.881 47.285 116.508 47.1212C116.322 47.0411 116.134 46.9652 115.946 46.8988C115.852 46.8664 115.758 46.8352 115.665 46.8076C115.578 46.7816 115.468 46.753 115.412 46.7413L115.734 46.7147L103.903 51.0222L104.017 49.927C104.91 50.4997 105.741 51.0957 106.57 51.7219C107.395 52.3457 108.2 52.9962 108.985 53.6705C110.554 55.0197 112.044 56.4674 113.408 58.0374C114.768 59.6087 116.014 61.299 117.006 63.1545C117.505 64.0807 117.927 65.0528 118.298 66.0123C118.675 66.9743 119.025 67.9376 119.377 68.8964C120.08 70.814 120.788 72.7183 121.608 74.5632C122.429 76.403 123.355 78.1984 124.535 79.7788C125.731 81.3532 127.157 82.7705 128.807 83.8153C130.456 84.8573 132.345 85.4987 134.277 85.5702C136.207 85.645 138.149 85.1643 139.868 84.2536C141.589 83.3441 143.102 82.026 144.243 80.4464C145.383 78.8717 146.157 77.0163 146.318 75.1059C146.359 74.6296 146.355 74.1559 146.329 73.6576C146.303 73.1659 146.256 72.6763 146.183 72.1914C146.039 71.2219 145.795 70.2704 145.44 69.3668C144.737 67.5639 143.552 65.9364 141.958 64.9043C141.166 64.3869 140.278 64.0274 139.358 63.8686C138.438 63.7055 137.487 63.7582 136.59 64.0112C135.689 64.2638 134.859 64.7251 134.114 65.3133C133.74 65.6015 133.396 65.9221 133.094 66.2767C132.785 66.6255 132.513 67.0041 132.276 67.4056C131.804 68.2103 131.497 69.1153 131.327 70.0636C131.154 71.0088 131.116 72.0122 131.191 72.9964L131.192 73.0123C131.201 73.1253 131.116 73.2239 131.003 73.2326C130.913 73.2396 130.831 73.1864 130.798 73.1071C130.587 72.6018 130.465 72.0898 130.384 71.5592C130.301 71.0306 130.279 70.4909 130.303 69.9494C130.356 68.8676 130.64 67.7735 131.164 66.7909C131.684 65.8069 132.436 64.9446 133.314 64.2827C134.174 63.6091 135.188 63.0987 136.26 62.8084C137.334 62.5203 138.473 62.473 139.567 62.6616C140.661 62.8503 141.706 63.2766 142.625 63.877C144.477 65.0778 145.802 66.9267 146.58 68.9184C146.973 69.9174 147.238 70.9588 147.395 72.0105C147.473 72.5364 147.525 73.065 147.552 73.594C147.58 74.1159 147.586 74.6662 147.539 75.2086C147.354 77.3823 146.486 79.435 145.236 81.1639C143.982 82.8976 142.333 84.3355 140.44 85.3372C138.55 86.3387 136.39 86.8785 134.23 86.7941C132.067 86.7156 129.956 85.9926 128.154 84.8515C126.345 83.7044 124.829 82.1902 123.556 80.5144C122.287 78.8145 121.332 76.9489 120.488 75.0608C119.648 73.169 118.931 71.2383 118.227 69.3184C117.875 68.3587 117.527 67.4007 117.158 66.4595C116.791 65.5131 116.397 64.6071 115.926 63.7335C114.99 61.9805 113.796 60.3575 112.483 58.8405C111.166 57.324 109.717 55.9151 108.187 54.5996C107.421 53.9422 106.636 53.3069 105.83 52.6986C105.029 52.0922 104.197 51.4971 103.369 50.9662L103.362 50.9621C103.078 50.7795 102.995 50.4005 103.178 50.1159C103.253 49.9984 103.362 49.9153 103.484 49.871L115.315 45.5637L115.326 45.5596C115.428 45.5223 115.537 45.5168 115.636 45.5369C115.793 45.5694 115.892 45.5985 116.013 45.6332C116.128 45.6674 116.24 45.7045 116.351 45.743C116.572 45.8209 116.787 45.9075 116.999 45.9986C117.42 46.1839 117.826 46.3938 118.219 46.6226C119.006 47.0799 119.738 47.614 120.422 48.1973C121.793 49.3639 122.964 50.7316 123.98 52.1883C124.236 52.5518 124.477 52.9248 124.713 53.3001L125.06 53.8684C125.173 54.0657 125.286 54.2634 125.389 54.4639C125.808 55.2642 126.156 56.0844 126.469 56.9102C127.093 58.5635 127.598 60.2378 128.089 61.9081C128.574 63.58 129.046 65.2485 129.543 66.9015C130.03 68.5567 130.557 70.1942 131.165 71.7812C131.473 72.5729 131.802 73.3513 132.188 74.091C132.57 74.8303 133.007 75.5346 133.527 76.1374C134.05 76.7354 134.672 77.2213 135.408 77.4297C136.141 77.6442 136.97 77.558 137.775 77.3093L137.779 77.3082C137.887 77.2748 138.002 77.3354 138.035 77.4437C138.064 77.538 138.022 77.6371 137.939 77.6833Z" fill="#390075"/>
<path d="M147.055 72.9468C147.094 77.1331 145.517 81.7137 142.786 86.0272C137.928 93.7045 129.413 100.538 119.842 102.81C119.39 102.919 118.937 103.016 118.482 103.102H81.1382C80.4536 102.971 79.7726 102.819 79.097 102.642C69.8051 100.213 61.5812 93.5235 56.8358 86.0344V86.0326C54.1028 81.7154 52.5258 77.1349 52.5652 72.9468C52.6064 68.4952 54.6655 65.3878 57.3125 63.696C61.2766 61.1584 66.5578 61.7946 68.3571 65.8304C69.2047 67.7336 70.409 71.2013 72.0506 74.9665C72.0506 74.9683 72.0506 74.9683 72.0506 74.9683C72.1635 75.2263 72.2782 75.4844 72.3947 75.7442C75.5219 82.7136 80.149 90.3873 86.8012 90.9357H112.819C119.358 90.3981 123.939 82.9717 127.064 76.0991C127.223 75.746 127.381 75.3948 127.533 75.0453C129.193 71.2497 130.408 67.748 131.263 65.8304C132.951 62.0438 137.707 61.2499 141.562 63.2642C144.556 64.8269 147.008 68.0849 147.055 72.9468Z" fill="white"/>
<path d="M147.055 72.9471C147.094 77.1334 145.517 81.714 142.786 86.0275C133.763 86.8841 129.501 80.4039 127.533 75.0456C129.193 71.2499 130.408 67.7482 131.263 65.8307C134.263 59.1015 146.949 61.8254 147.055 72.9471Z" fill="#FEC2E6"/>
<path d="M72.0506 74.9668C72.0506 74.9686 72.0506 74.9686 72.0506 74.9686C70.099 80.3287 65.8571 86.8572 56.8358 86.0347V86.0329C54.1028 81.7157 52.5258 77.1352 52.5652 72.9471C52.6692 61.8254 65.3571 59.1014 68.3571 65.8307C69.2047 67.7339 70.409 71.2016 72.0506 74.9668Z" fill="#FEC2E6"/>
<path d="M118.805 102.902C122.843 101.84 126.649 100.145 130.141 97.9432C131.89 96.8475 133.544 95.6038 135.107 94.2574C136.675 92.9156 138.138 91.4522 139.485 89.8899C140.826 88.3235 142.045 86.652 143.104 84.887C144.158 83.1216 145.071 81.2658 145.708 79.3201L145.946 78.5908L146.146 77.8521C146.292 77.362 146.375 76.8593 146.487 76.3625C146.654 75.361 146.798 74.3514 146.794 73.3409C146.843 71.329 146.429 69.318 145.476 67.5866C144.533 65.8552 143.031 64.4417 141.245 63.6185C139.471 62.7839 137.393 62.5521 135.558 63.1148C134.648 63.4051 133.822 63.9086 133.172 64.5849C133.093 64.6712 133.022 64.7647 132.946 64.8538C132.873 64.9457 132.789 65.0284 132.73 65.1309C132.605 65.3303 132.458 65.5153 132.362 65.733L132.2 66.0482C132.147 66.1583 132.098 66.2815 132.047 66.3974C131.944 66.6309 131.847 66.873 131.748 67.1119C130.973 69.0404 130.238 71.0166 129.437 72.9641C128.636 74.9134 127.792 76.8514 126.838 78.7431C125.89 80.6369 124.836 82.4879 123.614 84.2419C122.994 85.1125 122.351 85.9717 121.624 86.7688C120.904 87.5698 120.134 88.3369 119.268 89.0041C118.407 89.6711 117.482 90.285 116.455 90.7145C115.436 91.153 114.345 91.4418 113.23 91.5469C113.215 91.5482 113.201 91.549 113.186 91.549H113.179H87.1628H87.1566C87.1419 91.549 87.1268 91.5482 87.1125 91.5469C85.9972 91.4418 84.9058 91.153 83.8867 90.7145C82.8599 90.285 81.9354 89.6711 81.0742 89.0041C80.2083 88.3369 79.4376 87.5698 78.7182 86.7688C77.991 85.9717 77.3478 85.1125 76.728 84.2419C75.5062 82.4879 74.4522 80.6369 73.5042 78.7431C72.5497 76.8514 71.7057 74.9134 70.905 72.9641C70.1042 71.0166 69.369 69.0404 68.5936 67.1119C68.4948 66.873 68.3986 66.631 68.2955 66.3974C68.2443 66.2815 68.1951 66.1583 68.1422 66.0482L67.9801 65.733C67.8839 65.5153 67.737 65.3303 67.6124 65.1309C67.5534 65.0284 67.4688 64.9457 67.3962 64.8538C67.3201 64.7647 67.2488 64.6712 67.1697 64.5849C66.5205 63.9087 65.6941 63.4051 64.784 63.1148C62.9488 62.5521 60.8708 62.7839 59.0975 63.6185C57.3113 64.4417 55.8095 65.8552 54.866 67.5866C53.9133 69.3181 53.4986 71.3291 53.5484 73.3409C53.5445 74.3514 53.6881 75.361 53.8546 76.3625C53.9668 76.8593 54.0496 77.362 54.1959 77.8521L54.3964 78.5908L54.6343 79.3201C55.274 81.2643 56.1746 83.1256 57.225 84.8949C58.2779 86.6645 59.4917 88.3415 60.8293 89.9138C63.5057 93.0618 66.7118 95.7505 70.2199 97.913C73.729 100.09 77.5266 101.729 81.5368 102.902C81.6456 102.933 81.7081 103.047 81.6764 103.156C81.6485 103.252 81.5565 103.312 81.4607 103.303C79.3468 103.108 77.263 102.583 75.2634 101.847C73.2635 101.106 71.3441 100.149 69.5317 99.0269C67.7154 97.9088 66.0096 96.6215 64.3998 95.2296C62.7926 93.8342 61.2825 92.3269 59.8976 90.7091C58.518 89.0872 57.2637 87.3555 56.172 85.5208C55.0829 83.6861 54.1449 81.7498 53.4724 79.7082L53.2229 78.9421L53.0111 78.1631C52.8579 77.6473 52.768 77.1134 52.6505 76.5874C52.4724 75.5232 52.3208 74.4477 52.3235 73.3584C52.2701 71.1865 52.7188 68.945 53.793 66.9955C54.8561 65.0444 56.558 63.4389 58.5833 62.5066C60.5957 61.5656 62.9595 61.2774 65.1525 61.9466C66.2398 62.2914 67.2607 62.906 68.0624 63.746C68.1603 63.8525 68.2499 63.9667 68.3436 64.0772C68.4337 64.1905 68.5353 64.2955 68.6098 64.4199C68.7656 64.6629 68.9417 64.8955 69.0617 65.1578L69.258 65.5425C69.3182 65.6687 69.3661 65.7895 69.4208 65.9131C69.5292 66.1595 69.6267 66.4046 69.7283 66.6502C70.5173 68.6129 71.2444 70.5686 72.0387 72.5002C72.8313 74.4299 73.6637 76.3401 74.5988 78.1933C75.5276 80.0491 76.5556 81.8512 77.7317 83.5396C78.3274 84.3761 78.9437 85.1994 79.631 85.9518C80.3113 86.7094 81.0342 87.4281 81.831 88.0408C82.6236 88.6544 83.4633 89.2121 84.3758 89.5912C85.2825 89.9805 86.238 90.2321 87.2131 90.326L87.1629 90.3239H113.179L113.129 90.326C114.104 90.2321 115.06 89.9805 115.966 89.5912C116.879 89.2121 117.719 88.6543 118.511 88.0408C119.308 87.4282 120.031 86.7094 120.711 85.9518C121.399 85.1994 122.015 84.3761 122.611 83.5396C123.787 81.8512 124.815 80.0491 125.743 78.1933C126.679 76.3401 127.511 74.4298 128.304 72.5002C129.098 70.5687 129.825 68.613 130.614 66.6502C130.716 66.4046 130.813 66.1595 130.922 65.9131C130.976 65.7895 131.024 65.6687 131.084 65.5425L131.281 65.1578C131.401 64.8954 131.577 64.6629 131.732 64.4199C131.807 64.2955 131.909 64.1905 131.999 64.0772C132.092 63.9668 132.182 63.8525 132.28 63.746C133.082 62.9061 134.102 62.2914 135.19 61.9466C137.383 61.2774 139.747 61.5656 141.759 62.5066C143.784 63.4389 145.486 65.0443 146.549 66.9955C147.623 68.945 148.072 71.1866 148.019 73.3584C148.021 74.4477 147.87 75.5232 147.692 76.5874C147.574 77.1134 147.484 77.6472 147.331 78.1631L147.119 78.9421L146.87 79.7082C146.194 81.7483 145.269 83.6901 144.184 85.5287C143.098 87.3678 141.848 89.1051 140.473 90.7331C139.094 92.3589 137.579 93.8659 135.965 95.2563C134.346 96.6408 132.61 97.8875 130.792 98.9968C128.972 100.103 127.048 101.042 125.052 101.781C123.057 102.521 120.982 103.042 118.882 103.303C118.769 103.317 118.667 103.237 118.653 103.125C118.64 103.022 118.708 102.927 118.805 102.902Z" fill="#390075"/>
<g opacity="0.2">
<path d="M125.788 82.0206C122.91 97.4038 106.746 101.133 95.038 100.151C76.2301 98.574 71.1405 86.6621 71.2086 75.8809C74.3358 82.8503 78.963 90.524 85.6152 91.0724H111.633C118.172 90.5348 122.752 83.1084 125.878 76.2357C126.048 78.0977 126.037 80.0331 125.788 82.0206Z" fill="#390075"/>
</g>
<path d="M127.184 78.255C126.243 94.1866 104.608 96.0127 95.2619 96.3407C80.393 97.0181 74.2713 89.8946 72.4864 81.3356C70.5187 71.911 73.8125 60.7481 76.4791 56.3468C61.164 48.562 77.4737 35.1464 85.6868 48.3828L105.769 45.5907C110.9 29.858 129.102 40.0819 116.801 50.743C116.801 50.743 124.976 58.8253 126.958 70.1244C127.408 72.6888 127.539 75.4163 127.184 78.255Z" fill="white"/>
<path d="M75.8561 55.9919C76.0162 55.7734 76.1731 55.5689 76.3348 55.3606C76.4962 55.1537 76.659 54.9484 76.826 54.7453C77.1603 54.3393 77.5029 53.9392 77.8858 53.558C78.0268 53.4176 78.255 53.4183 78.3954 53.5592C78.5155 53.68 78.5325 53.8645 78.4464 54.0032L78.4416 54.0107C78.1833 54.4274 77.9513 54.8756 77.7295 55.3281C77.6187 55.5546 77.5114 55.7837 77.4061 56.0134C77.3018 56.2421 77.1965 56.4768 77.1016 56.7019C76.9467 57.0694 76.5233 57.2416 76.1559 57.0867C75.7885 56.9318 75.6162 56.5083 75.7711 56.1409C75.793 56.0892 75.8201 56.0414 75.8516 55.9978L75.8561 55.9919Z" fill="#390075"/>
<path d="M111.824 42.1392C108.27 45.3553 111.799 49.3799 115.347 47.0744C119.605 43.916 115.532 39.2077 111.824 42.1392Z" fill="#F883A0"/>
<path d="M78.8398 46.7232C83.1363 48.8483 80.8388 53.6825 76.7962 52.4319C71.8384 50.5543 74.4734 44.9138 78.8398 46.7232Z" fill="#F883A0"/>
<path d="M127.184 78.2553C126.228 91.2266 112.933 94.1275 103.883 95.6373C95.7383 96.7316 78.4614 98.3265 74.0336 85.7479C87.3409 75.4517 113.405 72.6564 127.184 78.2553Z" fill="#FFEBF6"/>
<g opacity="0.2">
<path d="M127.184 78.2552C126.243 94.1868 104.608 96.0129 95.2619 96.3409C80.393 97.0183 74.2713 89.8948 72.4864 81.3358C75.0688 85.4504 78.8465 89.9521 84.4933 91.8894C95.1383 95.5416 107.957 93.6187 115.815 89.0668C125.837 83.2641 127.141 74.8735 126.958 70.1245C127.408 72.689 127.539 75.4165 127.184 78.2552Z" fill="#390075"/>
</g>
<path d="M123.359 76.2788C122.789 79.9421 115.303 79.1446 115.104 75.9136C115.17 71.9639 123.56 72.7504 123.359 76.2788Z" fill="#FDC1E5"/>
<path d="M85.4626 79.8907C86.2819 83.7071 78.6219 85.7432 77.2096 82.6415C75.7859 78.7339 84.331 76.3463 85.4626 79.8907Z" fill="#FDC1E5"/>
<path d="M102.502 78.6384C101.759 80.132 103.411 80.3312 103.705 78.4826C103.693 77.8062 103.099 77.7772 102.502 78.6384Z" fill="#390075"/>
<path d="M99.1198 79.1087C100.242 80.3432 98.707 80.9852 97.92 79.2868C97.7468 78.6328 98.3106 78.4429 99.1198 79.1087Z" fill="#390075"/>
<path d="M84.0774 68.7886L85.2808 69.724C85.5184 69.9087 85.5614 70.2511 85.3766 70.4887C85.1919 70.7264 84.8495 70.7694 84.6118 70.5847C84.5635 70.5471 84.5221 70.5011 84.4902 70.4527L83.6556 69.1773C83.5677 69.0429 83.6054 68.8627 83.7397 68.7749C83.8463 68.7052 83.9821 68.7147 84.0774 68.7886Z" fill="#390075"/>
<path d="M82.6322 70.521L84.028 71.1963C84.2981 71.3269 84.4112 71.652 84.2805 71.9221C84.1498 72.1923 83.8248 72.3053 83.5546 72.1747C83.5064 72.1512 83.4614 72.12 83.4236 72.0856L82.2818 71.0366C82.1537 70.9189 82.1452 70.7196 82.263 70.5916C82.3593 70.4867 82.5104 70.4623 82.6322 70.521Z" fill="#390075"/>
<path d="M81.6743 73.0522L83.0274 73.1266C83.3287 73.1432 83.5595 73.4009 83.5429 73.7022C83.5263 74.0034 83.2686 74.2343 82.9674 74.2177C82.9009 74.214 82.836 74.1977 82.7783 74.1726L81.5369 73.6292C81.3844 73.5624 81.3149 73.3847 81.3817 73.2322C81.4334 73.1139 81.5526 73.0457 81.6743 73.0522Z" fill="#390075"/>
<path d="M93.5816 73.6889C93.2851 73.0874 92.9697 72.5219 92.5756 72.0368C92.1853 71.5516 91.7303 71.1425 91.2173 70.8503C90.1997 70.2538 88.9736 70.0948 87.8119 70.3401C87.2323 70.4639 86.6683 70.6836 86.1599 70.996C86.0384 71.0815 85.9095 71.1587 85.7914 71.2495C85.6788 71.3462 85.5547 71.4321 85.4486 71.5364C85.227 71.7357 85.0188 71.953 84.841 72.1943C84.7543 72.3163 84.6591 72.4344 84.5894 72.5679C84.5106 72.6963 84.4272 72.8241 84.3683 72.9641C84.3016 73.1008 84.2331 73.2383 84.1884 73.3851C84.137 73.5297 84.0801 73.6741 84.0465 73.826C83.8814 74.4269 83.8319 75.0708 83.854 75.7333L83.8543 75.7397C83.8587 75.8725 83.7545 75.9839 83.6217 75.9884C83.5116 75.992 83.4162 75.9209 83.3842 75.8209C83.1682 75.1439 83.08 74.4079 83.152 73.6682C83.2266 72.9307 83.4612 72.1888 83.8601 71.5388C84.0551 71.211 84.2905 70.9078 84.5486 70.6252C84.6758 70.4817 84.8254 70.3623 84.9643 70.2302C85.1087 70.1051 85.2652 69.995 85.4164 69.8774C86.0397 69.4326 86.7543 69.1211 87.5018 68.9492C88.2493 68.7787 89.0353 68.7477 89.7989 68.8871C90.5622 69.0211 91.299 69.333 91.923 69.7886C92.5457 70.2477 93.051 70.8422 93.3994 71.4978C93.7479 72.1542 93.9599 72.8571 94.0422 73.562C94.0577 73.6946 93.9628 73.8147 93.8302 73.8301C93.726 73.8423 93.6296 73.7863 93.5855 73.6974L93.5816 73.6889Z" fill="#390075"/>
<path d="M114.432 64.5035L114.077 65.9858C114.007 66.2785 113.713 66.4589 113.42 66.3889C113.128 66.3188 112.947 66.0246 113.017 65.7319C113.031 65.6723 113.056 65.6157 113.087 65.5666L113.904 64.28C113.99 64.1444 114.17 64.1043 114.306 64.1904C114.413 64.2586 114.46 64.3861 114.432 64.5035Z" fill="#390075"/>
<path d="M116.353 65.7897L115.633 67.1625C115.493 67.4282 115.165 67.5306 114.899 67.391C114.633 67.2515 114.531 66.923 114.67 66.6572C114.695 66.6099 114.728 66.566 114.763 66.5293L115.849 65.4225C115.971 65.2984 116.171 65.2964 116.295 65.4184C116.396 65.518 116.416 65.6698 116.353 65.7897Z" fill="#390075"/>
<path d="M117.93 67.9785L116.945 68.9091C116.725 69.1163 116.379 69.1065 116.172 68.8872C115.965 68.6678 115.975 68.3221 116.194 68.1148C116.243 68.0692 116.299 68.0333 116.357 68.0086L117.606 67.4818C117.759 67.4171 117.936 67.4889 118 67.6423C118.051 67.7612 118.018 67.8946 117.93 67.9785Z" fill="#390075"/>
<path d="M106.136 72.137C105.976 71.4456 105.938 70.7123 106.044 69.9768C106.151 69.2421 106.426 68.5119 106.857 67.8696C107.291 67.2301 107.879 66.6877 108.552 66.304C109.224 65.9151 109.974 65.6789 110.736 65.5871C111.497 65.4966 112.275 65.5486 113.012 65.7569C113.194 65.8164 113.378 65.8672 113.556 65.9364C113.732 66.0137 113.913 66.0757 114.081 66.1679C114.419 66.3467 114.743 66.5526 115.038 66.7953C115.633 67.2726 116.104 67.8918 116.423 68.5607C116.741 69.2328 116.906 69.9554 116.931 70.6656C116.936 70.7984 116.832 70.91 116.699 70.9146C116.589 70.9185 116.493 70.8478 116.461 70.7479L116.459 70.7416C116.256 70.1105 115.993 69.521 115.634 69.0112C115.551 68.8795 115.449 68.7628 115.352 68.644C115.26 68.5209 115.149 68.4147 115.04 68.3086C114.938 68.1965 114.816 68.1045 114.699 68.0101C114.588 67.9081 114.458 67.829 114.336 67.7434C114.087 67.5763 113.818 67.4422 113.542 67.3294C113.407 67.2669 113.261 67.2279 113.122 67.175C112.98 67.1294 112.833 67.1003 112.69 67.0607C112.106 66.9383 111.501 66.9218 110.913 67.001C109.737 67.1623 108.636 67.7258 107.88 68.6308C107.496 69.079 107.205 69.6177 107.002 70.2062C106.795 70.7958 106.689 71.4346 106.613 72.1009L106.612 72.1098C106.596 72.2423 106.477 72.3376 106.344 72.3224C106.24 72.3105 106.159 72.2335 106.136 72.137Z" fill="#390075"/>
<path d="M94.3744 97.2136C90.9803 97.2136 87.9259 96.821 85.2389 96.0363C80.8761 94.7626 77.4491 92.4558 75.0533 89.1799C72.0374 85.0563 70.6927 79.3842 71.1646 72.777C71.5479 67.4101 73.0926 61.7131 75.5283 56.655C71.2733 54.3149 69.081 51.1845 69.4929 47.9946C69.8487 45.2387 72.1589 42.9384 75.2418 42.2702C79.3801 41.3728 83.5131 43.5168 86.2978 48.0048C86.5066 48.3413 86.403 48.7831 86.0666 48.9919C85.7298 49.2006 85.2882 49.0969 85.0796 48.7607C82.629 44.811 79.0642 42.9086 75.5455 43.6713C73.0541 44.2114 71.1931 46.0224 70.9148 48.1782C70.5654 50.8835 72.7118 53.6279 76.8034 55.7077C77.155 55.8864 77.2962 56.3154 77.1193 56.6679C72.4034 66.0698 70.1075 79.9892 76.2105 88.3335C80.9697 94.8406 89.913 97.1057 102.793 95.0654C102.806 95.0632 102.82 95.0615 102.833 95.0603C115.227 93.8144 122.923 89.3796 125.706 81.8784C129.299 72.1972 123.532 58.8657 116.281 51.237C116.147 51.0949 116.076 50.904 116.085 50.7085C116.095 50.5129 116.184 50.3298 116.332 50.2014C119.64 47.3337 120.956 44.1933 119.942 41.5854C119.131 39.5009 116.922 38.153 114.464 38.2148C110.967 38.312 107.971 41.1531 106.45 45.8147C106.327 46.1909 105.923 46.3967 105.546 46.2737C105.17 46.1509 104.964 45.7463 105.087 45.3699C106.804 40.1069 110.295 36.8965 114.424 36.7817C117.49 36.7058 120.248 38.4182 121.278 41.0659C122.463 44.1118 121.204 47.6255 117.822 50.7883C121.43 54.7468 124.519 59.9155 126.353 65.0837C128.628 71.4951 128.869 77.4751 127.05 82.3772C125.65 86.1506 123.054 89.2475 119.333 91.582C115.232 94.1558 109.736 95.8052 102.997 96.4846C99.9229 96.9706 97.0432 97.2133 94.3744 97.2136Z" fill="#390075"/>
<path d="M89.3517 44.3353C87.9311 34.1122 91.0311 25.2339 92.6786 25.005C94.326 24.776 99.7295 32.4726 101.15 42.6957" fill="#FDD800"/>
<g opacity="0.6">
<path d="M92.624 28.5962C91.7363 29.0837 89.9674 35.5119 91.7706 36.9531C94.097 36.0212 94.2321 28.3489 92.624 28.5962Z" fill="white"/>
</g>
<g opacity="0.3">
<path d="M101.15 42.6957L89.351 44.3354C89.1016 42.5404 88.9922 40.7872 88.9886 39.1155C100.258 38.5143 95.9522 30.7485 93.2211 25.1362C95.2824 26.2071 99.8597 33.4085 101.15 42.6957Z" fill="#390075"/>
</g>
<path d="M89.3507 45.0525C88.9986 45.0525 88.6914 44.7927 88.6416 44.4341C87.2643 34.5232 90.0937 24.6406 92.5797 24.2952C94.4424 24.0408 96.9141 28.2805 97.6283 29.5872C98.8422 31.8081 101.006 36.4517 101.86 42.5972C101.915 42.9893 101.641 43.3513 101.249 43.4058C100.856 43.4602 100.495 43.1865 100.44 42.7944C99.0274 32.6294 93.9641 25.9788 92.7782 25.7224C91.7071 26.2925 88.649 34.0715 90.0616 44.2368C90.1161 44.6289 89.8425 44.991 89.4502 45.0454C89.4168 45.05 89.3836 45.0525 89.3507 45.0525Z" fill="#390075"/>
<path d="M89.0479 41.9094C88.7276 41.9094 88.4358 41.6931 88.3535 41.3687C88.2562 40.9849 88.4884 40.595 88.8721 40.4976C95.7434 38.7549 98.4066 34.1553 98.4326 34.1089C98.6274 33.764 99.0647 33.6421 99.4092 33.837C99.754 34.0316 99.8758 34.4686 99.6814 34.8135C99.5625 35.0242 96.6843 39.9954 89.2245 41.8873C89.1654 41.9021 89.1061 41.9094 89.0479 41.9094Z" fill="#390075"/>
<path d="M89.2068 35.6387C88.8973 35.6387 88.6118 35.4368 88.5196 35.125C88.4074 34.7456 88.6239 34.3469 89.003 34.2344C89.0538 34.2192 94.1041 32.6777 95.9571 28.9087C96.1318 28.5535 96.5611 28.4067 96.9167 28.5815C97.2719 28.7563 97.4184 29.1858 97.2438 29.541C95.1102 33.8806 89.6421 35.5405 89.4103 35.6091C89.3425 35.6291 89.2741 35.6387 89.2068 35.6387Z" fill="#390075"/>
<g opacity="0.2">
<path d="M100.561 41.1094C99.6766 41.228 98.9974 41.567 98.4921 42.065C96.7516 41.1083 93.229 39.9317 89.0174 42.6625C88.3548 43.1065 87.8422 43.6561 87.4579 44.2806C87.4459 44.2813 87.4344 44.2817 87.4222 44.2824C72.9543 46.7101 78.2922 67.6606 96.0938 60.0975C100.441 60.4138 104.884 58.1415 106.155 57.4233C111.78 58.5308 115.657 53.1794 115.881 49.1322C107.521 48.4834 110.157 40.101 100.561 41.1094Z" fill="#390075"/>
</g>
<path d="M87.4223 42.2574C72.7661 44.7167 78.434 66.1853 96.7946 57.764C96.7946 57.764 88.4654 47.012 89.8342 42.3366C89.8342 42.3366 88.8496 42.1734 87.4223 42.2574Z" fill="#FEF26B"/>
<g opacity="0.6">
<path d="M88.9266 44.837C85.04 44.1557 80.9286 46.1443 79.3384 49.2569C80.343 44.0195 85.5039 41.6186 89.8339 42.3376C88.4649 47.0125 87.8982 48.3492 88.9266 44.837Z" fill="white"/>
</g>
<g opacity="0.2">
<path d="M96.7939 57.7646C81.644 63.9052 77.397 53.5352 79.8664 47.5347C80.6885 55.4932 87.6183 57.0289 94.6914 54.8118C95.871 56.5737 96.7939 57.7646 96.7939 57.7646Z" fill="#390075"/>
</g>
<path d="M88.8563 60.4196C86.0566 60.4196 83.5929 59.6 81.6736 57.9668C78.9243 55.6272 77.7573 51.9084 78.7004 48.4931C79.7121 44.8288 82.848 42.2983 87.3037 41.5505C87.3291 41.5463 87.3546 41.5434 87.3802 41.5419C88.8706 41.454 89.9079 41.6225 89.9515 41.6296C90.1539 41.6633 90.3321 41.7819 90.4413 41.9555C90.5504 42.1293 90.5798 42.3415 90.5222 42.5382C89.4844 46.0831 95.1073 54.4142 97.3615 57.3251C97.4954 57.4979 97.543 57.7225 97.4909 57.9349C97.4386 58.1473 97.2924 58.3243 97.0935 58.4156C94.1777 59.7531 91.3804 60.4196 88.8563 60.4196ZM87.5029 42.9709C83.6405 43.6303 80.9368 45.7804 80.0824 48.8747C79.2871 51.7548 80.2763 54.8949 82.6026 56.8749C85.6534 59.4706 90.3829 59.6767 95.6751 57.4716C93.8239 54.9741 88.5811 47.4575 88.991 42.9731C88.6094 42.9499 88.097 42.9374 87.5029 42.9709Z" fill="#390075"/>
<path d="M89.0174 40.6376C84.4169 43.7197 87.0123 51.8699 90.0553 55.14C95.8212 61.757 106.47 55.2306 106.514 55.1854C106.514 55.1854 99.554 44.0286 99.6619 40.8241C99.6619 40.8241 95.0446 36.7295 89.0174 40.6376Z" fill="#FD6CCB"/>
<path d="M96.9329 58.193C96.8227 58.193 96.7133 58.1915 96.6031 58.1883C93.8763 58.1134 91.6504 57.1078 89.9872 55.1991C87.9377 52.9967 86.0669 48.5497 86.4876 44.9242C86.713 42.9811 87.5473 41.5135 88.9671 40.5624C88.9674 40.5621 88.9678 40.5619 88.9683 40.5616C94.9834 36.6607 99.6751 40.7149 99.7218 40.7562C99.742 40.7741 99.7531 40.7999 99.7521 40.8268C99.6465 43.9676 106.521 55.026 106.591 55.1373C106.613 55.1727 106.608 55.2184 106.579 55.2482C106.549 55.2787 101.811 58.193 96.9329 58.193ZM89.0671 40.7128C87.6934 41.6332 86.886 43.0573 86.6671 44.9449C86.2524 48.5187 88.0978 52.9034 90.1216 55.0782C95.5594 61.3185 105.459 55.7128 106.39 55.1561C105.727 54.0882 99.5268 44.0079 99.5706 40.8649C99.1553 40.5219 94.7081 37.0558 89.0665 40.713L89.0671 40.7128Z" fill="#102770"/>
<g opacity="0.6">
<path d="M99.2352 42.8216C98.0943 41.3209 90.0879 38.7687 86.5776 45.0231C87.8867 36.2957 99.0143 39.3059 99.6621 40.8249C99.5537 44.0286 99.1503 45.3475 99.2352 42.8216Z" fill="white"/>
</g>
<g opacity="0.2">
<path d="M106.514 55.1859C88.814 65.1409 84.7197 46.9201 87.2564 42.5137C88.0647 54.006 96.4258 56.8012 105.026 52.7111C105.893 54.1916 106.514 55.1859 106.514 55.1859Z" fill="#390075"/>
</g>
<path d="M96.9286 58.8198C96.8142 58.8198 96.7002 58.8181 96.5857 58.8152C93.6768 58.7351 91.2978 57.6569 89.5149 55.6111C87.3821 53.3196 85.4236 48.6577 85.8653 44.8522C86.1093 42.7487 87.0613 41.0854 88.6183 40.0422C88.6214 40.0402 88.6244 40.038 88.6274 40.0361C95.038 35.8801 100.087 40.2431 100.138 40.2878C100.297 40.4294 100.386 40.6349 100.378 40.8483C100.296 43.2973 105.219 51.7541 107.122 54.8061C107.297 55.0862 107.258 55.449 107.028 55.6855C106.821 55.8984 101.909 58.8198 96.9286 58.8198ZM89.4122 41.236C88.2003 42.0497 87.486 43.322 87.2894 45.0175C86.8956 48.4114 88.6533 52.5813 90.5801 54.6519C92.3586 56.6924 94.6641 57.375 96.9511 57.3752C100.564 57.3757 104.133 55.6723 105.514 54.9304C104 52.4548 99.2411 44.4495 98.9573 41.1785C98.0025 40.4665 94.2274 38.1171 89.4122 41.236Z" fill="#390075"/>
<path d="M100.561 39.0846C95.0112 39.8283 97.5152 49.2227 100.672 52.4492C109.126 59.8365 115.59 52.3687 115.881 47.1074C107.521 46.4585 110.157 38.0761 100.561 39.0846Z" fill="#39D5FF"/>
<path d="M107.629 55.6408C105.709 55.6408 103.33 54.8918 100.613 52.517C98.2985 50.1525 96.404 44.703 97.515 41.4752C98.0115 40.0328 99.0324 39.1984 100.549 38.995C100.55 38.995 100.551 38.995 100.552 38.9948C105.73 38.4513 107.359 40.5854 109.082 42.8456C110.534 44.7497 112.036 46.7184 115.888 47.0173C115.937 47.0212 115.974 47.0634 115.971 47.1122C115.817 49.9074 113.83 53.6457 110.453 55.0683C109.678 55.3951 108.728 55.6408 107.629 55.6408ZM100.572 39.1742C99.1292 39.368 98.1582 40.162 97.6859 41.534C96.5948 44.7035 98.4629 50.0621 100.737 52.3858C104.935 56.0543 108.3 55.7796 110.383 54.9017C113.658 53.5225 115.598 49.9205 115.785 47.19C111.919 46.8619 110.404 44.8761 108.939 42.9552C107.247 40.7365 105.648 38.6422 100.572 39.1742Z" fill="#102770"/>
<g opacity="0.6">
<path d="M115.073 47.0489C107.725 47.6528 106.1 37.1184 97.3692 42.7903C97.3936 37.5903 104.668 38.6221 107.422 40.7873C111.126 45.6367 111.857 46.5443 115.073 47.0489Z" fill="white"/>
</g>
<g opacity="0.2">
<path d="M115.88 47.1074C113.84 61.37 95.123 55.916 97.6049 41.3589C98.6872 52.8105 111.51 55.3313 115.082 47.0494C115.575 47.1167 115.88 47.1074 115.88 47.1074Z" fill="#390075"/>
</g>
<path d="M107.621 56.2707C105.573 56.2707 103.053 55.4814 100.201 52.9887C100.187 52.9765 100.173 52.9636 100.16 52.9504C97.7281 50.4653 95.7419 44.7016 96.9227 41.2712C97.4945 39.6098 98.7198 38.6078 100.466 38.374C100.473 38.373 100.48 38.3723 100.486 38.3715C106.015 37.7902 107.828 40.1672 109.581 42.4655C111.012 44.3425 112.364 46.1152 115.936 46.3925C116.325 46.4226 116.618 46.7575 116.597 47.1467C116.428 50.206 114.347 54.1079 110.697 55.6455C109.851 56.0019 108.816 56.2707 107.621 56.2707ZM101.166 51.928C104.292 54.6519 107.395 55.4812 110.14 54.3242C112.951 53.1404 114.704 50.1895 115.092 47.7429C111.411 47.23 109.838 45.1675 108.441 43.335C106.791 41.1716 105.367 39.3027 100.647 39.7964C99.4464 39.96 98.6716 40.5952 98.2783 41.7378C97.2883 44.6135 99.0359 49.7319 101.166 51.928Z" fill="#390075"/>
<path d="M106.523 81.2773C106.523 81.2773 107.063 83.2484 106.389 84.9069C106.057 85.7281 105.425 86.4729 104.281 86.8606C103.282 87.1989 102.384 86.9836 101.627 86.5355C100.031 85.5962 99.0534 83.6341 99.0534 83.6341C99.0534 83.6341 99.4743 83.6252 100.064 83.584C100.362 83.5631 100.706 83.5346 101.06 83.4968C101.747 83.4185 102.479 83.3006 103.013 83.1195C103.563 82.9333 104.248 82.5925 104.867 82.2549C105.182 82.0812 105.481 81.9093 105.736 81.7599C106.205 81.4808 106.523 81.2773 106.523 81.2773Z" fill="#390075"/>
<path d="M106.389 84.9067C106.057 85.7279 105.425 86.4728 104.281 86.8604C103.282 87.1987 102.384 86.9835 101.627 86.5354C102.044 85.9414 102.729 85.3696 103.839 84.9764C104.86 84.6133 105.709 84.6692 106.389 84.9067Z" fill="#FF4F90"/>
<path d="M103.282 87.5317C100.472 87.5317 98.6899 84.0251 98.606 83.8566C98.5297 83.7033 98.5372 83.5217 98.6257 83.3752C98.7142 83.2287 98.8715 83.1376 99.0427 83.1337C99.0681 83.1332 101.595 83.0729 102.853 82.6464C104.128 82.2143 106.233 80.8698 106.254 80.8564C106.388 80.7707 106.554 80.7536 106.703 80.8105C106.852 80.8676 106.964 80.9919 107.006 81.1454C107.466 82.8298 107.523 86.2907 104.441 87.3346C104.038 87.4711 103.651 87.5317 103.282 87.5317ZM99.9098 84.0956C100.618 85.165 102.184 87.0431 104.121 86.3874C106.368 85.6261 106.339 83.258 106.173 82.0812C105.415 82.5365 104.121 83.2729 103.174 83.5937C102.253 83.9057 100.818 84.0397 99.9098 84.0956Z" fill="#390075"/>
<g opacity="0.2">
<path d="M79.097 102.642C69.8051 100.214 61.5812 93.5238 56.8358 86.0346V86.0328C54.1028 81.7157 52.5258 77.1351 52.5652 72.947C52.6064 68.4955 54.6655 65.388 57.3125 63.6963C54.9411 67.9588 54.8377 73.9148 58.7481 81.2373C65.0652 93.0669 78.2763 98.7602 79.097 102.642Z" fill="#390075"/>
</g>
<g opacity="0.2">
<path d="M147.055 72.9468C147.094 77.1331 145.517 81.7137 142.786 86.0272C137.927 93.7045 129.413 100.538 119.842 102.81C120.344 98.9445 134.849 93.8274 141.259 81.8258C145.381 74.1073 145.532 67.9586 141.562 63.2642C144.556 64.8269 147.008 68.0849 147.055 72.9468Z" fill="#390075"/>
</g>
<g opacity="0.5">
<path d="M131.345 73.1945C133.245 69.2972 133.712 66.2651 135.032 66.0005C136.352 65.7359 138.174 69.4889 135.809 73.2334C133.699 76.5742 129.624 75.9915 131.345 73.1945Z" fill="white"/>
</g>
<g opacity="0.5">
<path d="M68.8742 72.8146C66.974 68.9173 66.5065 65.8852 65.1864 65.6206C63.8663 65.356 62.0451 69.109 64.4101 72.8535C66.5202 76.1943 70.5943 75.6116 68.8742 72.8146Z" fill="white"/>
</g>
</g>
<defs>
<clipPath id="clip0_47_14715">
<rect width="200" height="200" fill="white"/>
</clipPath>
</defs>
</svg>
