<svg width="200" height="200" viewBox="0 0 200 200" fill="none" xmlns="http://www.w3.org/2000/svg">
<g clip-path="url(#clip0_47_15250)">
<path d="M101 39.9873C66.4817 39.9873 38.5 67.969 38.5 102.487C38.5 137.006 66.4817 164.987 101 164.987C135.518 164.987 163.5 137.006 163.5 102.487C163.5 67.969 135.518 39.9873 101 39.9873ZM101 127.122C87.3946 127.122 76.3652 116.093 76.3652 102.487C76.3652 88.8819 87.3946 77.8524 101 77.8524C114.605 77.8524 125.635 88.8819 125.635 102.487C125.635 116.093 114.605 127.122 101 127.122Z" fill="#F8AC4C"/>
<g opacity="0.6">
<path d="M101 39.9878C66.4823 39.9878 38.5 67.9683 38.5 102.488C38.5 103.265 38.5138 104.041 38.5415 104.812C39.7641 71.3711 67.2599 43.2161 101 43.2161C134.74 43.2161 162.236 71.3711 163.458 104.812C163.486 104.041 163.5 103.265 163.5 102.488C163.5 67.9683 135.518 39.9878 101 39.9878Z" fill="white"/>
</g>
<g opacity="0.2">
<path d="M101 163.487C135.317 163.487 163.169 135.829 163.492 101.589C163.476 100.454 163.431 99.3268 163.355 98.2085C161.155 130.731 134.079 160.339 101 160.339C67.9214 160.339 40.8447 130.731 38.6455 98.2085C38.5687 99.327 38.5236 100.455 38.5076 101.59C38.8316 135.83 66.6837 163.487 101 163.487Z" fill="#390075"/>
</g>
<path d="M101 39.9873C66.4817 39.9873 38.5 67.969 38.5 102.487C38.5 137.006 66.4817 164.987 101 164.987C135.518 164.987 163.5 137.006 163.5 102.487C163.5 67.969 135.518 39.9873 101 39.9873ZM141.907 143.395C136.77 148.53 128.365 149.273 121.549 152.098C114.972 154.825 108.561 160.339 101 160.339C93.4392 160.339 87.0276 154.825 80.4525 152.098C73.6354 149.273 65.2298 148.53 60.0925 143.395C54.9569 138.257 54.2147 129.852 51.3888 123.036C48.6623 116.46 43.1483 110.048 43.1483 102.487C43.1483 94.9264 48.6623 88.5149 51.3888 81.9398C54.2147 75.1227 54.9569 66.7172 60.0925 61.5799C65.2298 56.4442 73.6354 55.7021 80.4525 52.8762C87.0276 50.1497 93.4392 44.6357 101 44.6357C108.561 44.6357 114.972 50.1497 121.549 52.8762C128.365 55.7037 136.77 56.4442 141.907 61.5815C147.043 66.7172 147.785 75.1227 150.611 81.9398C153.338 88.5149 158.852 94.9265 158.852 102.487C158.852 110.048 153.338 116.46 150.611 123.036C147.785 129.852 147.043 138.257 141.907 143.395Z" stroke="#390075" stroke-width="1.38535" stroke-miterlimit="10" stroke-linecap="round" stroke-linejoin="round"/>
<path d="M150.611 81.9392C147.785 75.1216 147.044 66.7177 141.908 61.5815C136.77 56.4436 128.364 55.7042 121.55 52.8763C114.973 50.149 108.561 44.6353 101 44.6353C93.4394 44.6353 87.027 50.149 80.4518 52.8764C73.6359 55.7025 65.2303 56.4436 60.0924 61.5798C54.9562 66.7177 54.215 75.1216 51.3889 81.9392C48.6615 88.5144 43.1478 94.9268 43.1478 102.487C43.1478 110.048 48.6615 116.459 51.3889 123.036C54.215 129.851 54.9562 138.257 60.0924 143.395C65.2303 148.529 73.6359 149.272 80.4518 152.098C87.027 154.824 93.4394 160.338 101 160.338C108.561 160.338 114.973 154.824 121.55 152.098C128.364 149.272 136.77 148.529 141.908 143.395C147.044 138.257 147.785 129.851 150.611 123.036C153.338 116.459 158.852 110.048 158.852 102.487C158.852 94.9269 153.338 88.5144 150.611 81.9392ZM101 127.122C87.3941 127.122 76.365 116.091 76.365 102.487C76.365 88.8815 87.3941 77.8525 101 77.8525C114.606 77.8525 125.635 88.8815 125.635 102.487C125.635 116.091 114.606 127.122 101 127.122Z" fill="#FF7236"/>
<g opacity="0.2">
<path d="M150.611 81.9392C147.785 75.1216 147.044 66.7177 141.908 61.5815C136.77 56.4436 128.364 55.7042 121.55 52.8763C114.973 50.149 108.561 44.6353 101 44.6353C93.4394 44.6353 87.027 50.149 80.4518 52.8764C73.6359 55.7025 65.2303 56.4436 60.0924 61.5798C54.9562 66.7177 54.215 75.1216 51.3889 81.9392C48.6615 88.5144 43.1478 94.9269 43.1478 102.487C43.1478 102.877 43.1617 103.265 43.1911 103.649C43.7106 96.5893 48.8018 90.499 51.3889 84.2649C54.215 77.4455 54.9562 69.0416 60.0924 63.9055C65.2303 58.7676 73.6359 58.0281 80.4518 55.202C87.027 52.4729 93.4394 46.9592 101 46.9592C108.561 46.9592 114.973 52.4729 121.55 55.202C128.364 58.0299 136.77 58.7676 141.908 63.9055C147.044 69.0417 147.785 77.4455 150.611 84.2649C153.198 90.4989 158.289 96.5893 158.809 103.649C158.838 103.265 158.852 102.877 158.852 102.487C158.852 94.9269 153.338 88.5144 150.611 81.9392Z" fill="white"/>
</g>
<g opacity="0.2">
<path d="M158.778 100.967C158.118 107.877 153.153 113.863 150.611 119.995C147.785 126.811 147.044 135.217 141.908 140.354C136.77 145.489 128.364 147.544 121.55 150.37C114.973 153.095 108.561 158.328 101 158.328C93.4395 158.328 87.0271 153.095 80.4519 150.37C73.636 147.544 65.2304 145.489 60.0925 140.354C54.9563 135.217 54.2151 126.811 51.389 119.995C48.8469 113.863 43.8821 107.877 43.2224 100.967C43.1739 101.469 43.1479 101.975 43.1479 102.488C43.1479 110.048 48.6617 116.459 51.3891 123.036C54.2152 129.852 54.9563 138.257 60.0925 143.395C65.2304 148.53 73.636 149.273 80.4519 152.099C87.0271 154.824 93.4395 160.338 101 160.338C108.561 160.338 114.973 154.824 121.55 152.099C128.364 149.273 136.77 148.53 141.908 143.395C147.044 138.257 147.785 129.852 150.611 123.036C153.339 116.459 158.852 110.048 158.852 102.488C158.852 101.975 158.826 101.469 158.778 100.967Z" fill="white"/>
</g>
<path d="M101 161.031C95.6705 161.031 90.9564 158.419 86.3975 155.893C84.2632 154.71 82.2471 153.592 80.1871 152.738C78.0218 151.841 75.6343 151.139 73.3253 150.461C68.3509 148.999 63.2074 147.488 59.6029 143.884C55.9996 140.28 54.4884 135.137 53.0269 130.163C52.3485 127.854 51.6468 125.466 50.7491 123.301C49.8948 121.241 48.7774 119.224 47.5943 117.089C45.0681 112.53 42.4558 107.817 42.4558 102.487C42.4558 97.1572 45.0684 92.4428 47.595 87.884C48.7778 85.7497 49.895 83.7338 50.749 81.6743C51.6467 79.509 52.3481 77.1213 53.0266 74.8122C54.4881 69.8381 55.9993 64.6945 59.6028 61.0901C63.2073 57.4866 68.3508 55.9751 73.3252 54.5137C75.6343 53.8352 78.0217 53.1338 80.1872 52.2361C82.2468 51.3821 84.2627 50.2649 86.3969 49.082C90.956 46.5554 95.6701 43.9429 101 43.9429C106.329 43.9429 111.043 46.5552 115.602 49.0813C117.737 50.2644 119.754 51.3819 121.814 52.2361C123.981 53.1348 126.369 53.837 128.68 54.5159C133.652 55.9771 138.794 57.4881 142.397 61.0916C146.001 64.6952 147.512 69.8387 148.973 74.8128C149.652 77.1217 150.353 79.5094 151.251 81.6746V81.6744C152.105 83.7339 153.222 85.7498 154.405 87.8841C156.932 92.4429 159.544 97.1573 159.544 102.487C159.544 107.817 156.932 112.531 154.406 117.089C153.223 119.224 152.105 121.241 151.251 123.302C150.353 125.467 149.652 127.854 148.973 130.163C147.512 135.137 146 140.28 142.397 143.884C138.793 147.488 133.65 148.999 128.676 150.46C126.367 151.139 123.979 151.841 121.814 152.738C119.754 153.593 117.737 154.71 115.601 155.893C111.043 158.419 106.329 161.031 101 161.031ZM101 45.3281C96.0284 45.3281 91.4735 47.8525 87.0687 50.2937C84.9945 51.4431 82.8499 52.6316 80.7178 53.5158C78.4837 54.4419 76.0599 55.154 73.7156 55.8427C68.9083 57.2553 63.9368 58.716 60.5823 62.0695C57.2288 65.424 55.7684 70.3952 54.3558 75.2028C53.6671 77.5468 52.9549 79.9709 52.0289 82.2048C51.1448 84.3369 49.9561 86.4814 48.8067 88.5554C46.3656 92.9604 43.8411 97.5153 43.8411 102.487C43.8411 107.458 46.3651 112.013 48.806 116.418C49.9556 118.492 51.1446 120.638 52.0289 122.771C52.9551 125.005 53.6673 127.429 54.356 129.773C55.7684 134.58 57.2291 139.55 60.5823 142.905C63.9368 146.258 68.9083 147.719 73.7156 149.132C76.0599 149.82 78.4837 150.532 80.7178 151.458C82.8499 152.343 84.9949 153.531 87.0691 154.681C91.4739 157.122 96.0286 159.646 101 159.646C105.971 159.646 110.526 157.122 114.93 154.682C117.005 153.532 119.151 152.343 121.284 151.458C123.518 150.532 125.941 149.82 128.286 149.131C133.093 147.719 138.063 146.258 141.418 142.905C144.771 139.55 146.231 134.58 147.644 129.773C148.333 127.429 149.045 125.005 149.971 122.771C150.856 120.638 152.044 118.492 153.194 116.418C155.635 112.013 158.159 107.458 158.159 102.487C158.159 97.5153 155.635 92.9604 153.193 88.5554C152.044 86.4814 150.855 84.3369 149.971 82.205C149.971 82.205 149.971 82.205 149.971 82.2048C149.045 79.9709 148.333 77.5473 147.644 75.2033C146.232 70.3957 144.771 65.4248 141.418 62.071C138.064 58.7175 133.095 57.2571 128.289 55.845C125.944 55.1558 123.519 54.4431 121.284 53.5159C119.151 52.6316 117.005 51.4426 114.931 50.293C110.526 47.852 105.971 45.3281 101 45.3281ZM101 127.815C87.0345 127.815 75.6727 116.453 75.6727 102.487C75.6727 88.5214 87.0345 77.1596 101 77.1596C114.966 77.1596 126.327 88.5214 126.327 102.487C126.327 116.453 114.966 127.815 101 127.815ZM101 78.5448C87.7984 78.5448 77.0579 89.2853 77.0579 102.487C77.0579 115.689 87.7984 126.429 101 126.429C114.202 126.429 124.942 115.689 124.942 102.487C124.942 89.2853 114.202 78.5448 101 78.5448Z" fill="#390075"/>
<path d="M109.208 136.859C108.535 136.099 108.606 134.928 109.365 134.255L114.839 129.406C115.598 128.734 116.77 128.805 117.443 129.564C118.115 130.324 118.044 131.495 117.285 132.168L111.811 137.016C111.052 137.689 109.88 137.618 109.208 136.859Z" fill="#55DFFF"/>
<g opacity="0.3">
<path d="M117.905 130.786C117.905 131.297 117.695 131.805 117.285 132.168L111.811 137.017C111.053 137.689 109.88 137.618 109.208 136.859C108.673 136.255 108.608 135.391 108.987 134.724C109.047 134.833 109.122 134.937 109.208 135.036C109.88 135.796 111.053 135.867 111.811 135.193L117.285 130.345C117.441 130.206 117.569 130.049 117.664 129.875C117.825 130.158 117.905 130.473 117.905 130.786Z" fill="#390075"/>
</g>
<path d="M110.59 138.071C109.916 138.071 109.245 137.794 108.764 137.251C107.874 136.245 107.967 134.703 108.973 133.812L114.446 128.964C114.932 128.533 115.558 128.316 116.209 128.358C116.86 128.397 117.455 128.686 117.886 129.172C118.776 130.178 118.683 131.72 117.677 132.611L112.204 137.46C111.741 137.87 111.164 138.071 110.59 138.071ZM109.651 136.466C110.109 136.983 110.902 137.032 111.419 136.573L116.892 131.725C117.141 131.504 117.29 131.198 117.31 130.863C117.33 130.528 117.22 130.206 116.999 129.956C116.779 129.708 116.473 129.56 116.138 129.539C115.801 129.52 115.48 129.629 115.231 129.85L109.758 134.698C109.509 134.919 109.36 135.225 109.34 135.56C109.32 135.895 109.43 136.217 109.651 136.466Z" fill="#390075"/>
<path d="M110.294 145.583C110.158 144.578 110.868 143.644 111.874 143.508L119.12 142.525C120.125 142.389 121.059 143.1 121.195 144.105C121.332 145.11 120.621 146.044 119.615 146.181L112.37 147.163C111.364 147.3 110.43 146.589 110.294 145.583Z" fill="#FEF26B"/>
<g opacity="0.3">
<path d="M121.212 144.352C121.212 145.26 120.537 146.056 119.616 146.181L112.37 147.163C111.364 147.3 110.431 146.588 110.294 145.584C110.226 145.081 110.368 144.597 110.656 144.221C110.659 144.262 110.663 144.304 110.67 144.345C110.805 145.35 111.74 146.061 112.744 145.925L119.991 144.943C120.494 144.875 120.923 144.607 121.209 144.229C121.21 144.271 121.212 144.313 121.212 144.352Z" fill="#390075"/>
</g>
<path d="M112.119 147.772C111.59 147.772 111.077 147.6 110.648 147.272C110.128 146.877 109.794 146.306 109.707 145.663C109.527 144.332 110.463 143.102 111.794 142.921L119.04 141.939C120.375 141.759 121.601 142.694 121.782 144.026C121.869 144.668 121.699 145.308 121.304 145.827C120.909 146.346 120.338 146.68 119.695 146.767L112.449 147.75C112.339 147.765 112.228 147.772 112.119 147.772ZM110.88 145.504C110.925 145.833 111.097 146.127 111.364 146.33C111.632 146.534 111.96 146.621 112.29 146.577L119.536 145.594C119.865 145.55 120.159 145.378 120.362 145.11C120.566 144.843 120.653 144.514 120.609 144.185C120.516 143.5 119.882 143.02 119.199 143.111L111.954 144.094C111.269 144.187 110.787 144.82 110.88 145.504Z" fill="#390075"/>
<path d="M91.0365 148.195C90.9002 147.19 91.6111 146.256 92.6164 146.12L99.8622 145.137C100.867 145.001 101.802 145.711 101.938 146.717C102.074 147.722 101.363 148.656 100.358 148.792L93.1122 149.775C92.1069 149.911 91.1729 149.2 91.0365 148.195Z" fill="#55DFFF"/>
<g opacity="0.3">
<path d="M101.954 146.965C101.954 147.871 101.281 148.668 100.358 148.792L93.1124 149.774C92.1063 149.911 91.1729 149.201 91.0361 148.195C90.9651 147.663 91.1296 147.152 91.45 146.768C91.5851 147.774 92.5202 148.484 93.5245 148.349L100.772 147.365C101.244 147.301 101.653 147.061 101.937 146.718C101.949 146.801 101.954 146.882 101.954 146.965Z" fill="#390075"/>
</g>
<path d="M92.8616 150.384C92.3325 150.384 91.8198 150.211 91.3899 149.884C90.8708 149.489 90.5371 148.917 90.4499 148.275C90.3625 147.632 90.5322 146.992 90.9272 146.473C91.3222 145.954 91.8938 145.62 92.5366 145.533L99.7825 144.55C100.425 144.463 101.065 144.633 101.584 145.028C102.103 145.423 102.437 145.994 102.524 146.637C102.611 147.28 102.442 147.92 102.047 148.439C101.652 148.958 101.08 149.292 100.437 149.379L93.1914 150.362C93.0811 150.376 92.971 150.384 92.8616 150.384ZM100.11 145.712C100.054 145.712 99.9981 145.716 99.9417 145.723L92.6958 146.706C92.3662 146.751 92.0725 146.922 91.8692 147.19C91.6656 147.457 91.5782 147.786 91.6228 148.115C91.6675 148.445 91.8394 148.739 92.1067 148.942C92.3741 149.146 92.7032 149.233 93.0323 149.189L100.278 148.206C100.608 148.161 100.901 147.989 101.105 147.722C101.308 147.454 101.396 147.126 101.351 146.796C101.306 146.467 101.135 146.173 100.867 145.97C100.646 145.801 100.382 145.712 100.11 145.712Z" fill="#390075"/>
<path d="M88.4176 133.513C89.1613 132.824 90.3344 132.868 91.0243 133.611L95.997 138.972C96.6869 139.716 96.6428 140.889 95.8991 141.579C95.1553 142.269 93.9824 142.225 93.2925 141.481L88.3197 136.12C87.6298 135.376 87.6738 134.203 88.4176 133.513Z" fill="#F928C3"/>
<path d="M88.4176 133.513C89.1613 132.824 90.3344 132.868 91.0243 133.611L95.997 138.972C96.6869 139.716 96.6428 140.889 95.8991 141.579C95.1553 142.269 93.9824 142.225 93.2925 141.481L88.3197 136.12C87.6298 135.376 87.6738 134.203 88.4176 133.513Z" fill="#FFD2D2"/>
<g opacity="0.3">
<path d="M95.8984 141.578C95.5452 141.907 95.0949 142.068 94.6447 142.068C94.1494 142.068 93.6542 141.871 93.2922 141.481L88.3188 136.12C87.8028 135.562 87.6971 134.764 87.9898 134.109L92.3918 138.852C92.7537 139.244 93.249 139.441 93.7442 139.441C94.1945 139.441 94.6447 139.278 94.998 138.951C95.185 138.778 95.327 138.575 95.4257 138.355L95.9971 138.972C96.6864 139.717 96.6431 140.889 95.8984 141.578Z" fill="#390075"/>
</g>
<path d="M94.6456 142.662C93.9905 142.662 93.338 142.4 92.8587 141.883L87.8858 136.522C87.4447 136.047 87.2152 135.426 87.2396 134.774C87.264 134.122 87.5396 133.52 88.0152 133.08C88.4908 132.638 89.1124 132.406 89.7633 132.433C90.4151 132.458 91.0169 132.733 91.4581 133.209L96.431 138.57C97.3445 139.555 97.2864 141.099 96.3018 142.013C95.8336 142.447 95.2386 142.662 94.6456 142.662ZM89.6702 133.615C89.3524 133.615 89.0521 133.732 88.8199 133.947C88.5762 134.173 88.4351 134.483 88.4224 134.819C88.4097 135.155 88.5274 135.474 88.7535 135.717L93.7264 141.078C94.1961 141.585 94.99 141.615 95.4969 141.145C96.003 140.675 96.0328 139.881 95.5633 139.375L90.5904 134.014C90.3641 133.77 90.0547 133.629 89.7188 133.616C89.7027 133.615 89.6864 133.615 89.6702 133.615Z" fill="#390075"/>
<path d="M72.5531 125.268C73.0502 124.384 74.1805 124.067 75.0648 124.564L81.439 128.147C82.3234 128.644 82.6402 129.774 82.1431 130.658C81.646 131.543 80.5158 131.86 79.6314 131.363L73.2572 127.78C72.3729 127.283 72.056 126.152 72.5531 125.268Z" fill="#55DFFF"/>
<g opacity="0.3">
<path d="M82.1438 130.658C81.8061 131.259 81.1758 131.598 80.5298 131.598C80.2251 131.598 79.9151 131.522 79.6311 131.363L73.2567 127.78C72.4844 127.345 72.145 126.427 72.4047 125.612C72.4567 125.65 72.5104 125.685 72.5658 125.716L78.9401 129.299C79.2241 129.458 79.5324 129.534 79.8371 129.534C80.4831 129.534 81.1134 129.195 81.4511 128.594C81.5134 128.483 81.5636 128.369 81.6 128.251C82.3602 128.786 82.6096 129.83 82.1438 130.658Z" fill="#390075"/>
</g>
<path d="M80.5278 132.191C80.1157 132.191 79.7092 132.086 79.3415 131.879L72.9675 128.296C72.4021 127.978 71.9936 127.457 71.8176 126.829C71.6416 126.201 71.7197 125.544 72.0376 124.978C72.6958 123.807 74.1845 123.39 75.355 124.048L81.7292 127.631C82.2947 127.949 82.7031 128.47 82.8791 129.098C83.0551 129.726 82.977 130.383 82.6592 130.949C82.3413 131.514 81.8203 131.923 81.1924 132.099C80.9726 132.16 80.7495 132.191 80.5278 132.191ZM74.167 124.92C74.0527 124.92 73.9372 124.936 73.8237 124.968C73.5002 125.059 73.2324 125.268 73.0693 125.558C72.9065 125.848 72.8667 126.186 72.9573 126.51C73.0481 126.833 73.2576 127.101 73.5476 127.264L79.9216 130.847C80.2112 131.01 80.5493 131.049 80.8728 130.959C81.1965 130.868 81.4643 130.658 81.6274 130.369C81.7903 130.079 81.8301 129.741 81.7395 129.418C81.6487 129.094 81.4389 128.826 81.1491 128.663L74.7749 125.08C74.5869 124.974 74.3784 124.92 74.167 124.92Z" fill="#390075"/>
<path d="M65.8795 140.033C65.6561 139.043 66.283 138.051 67.2726 137.828L74.4053 136.218C75.3949 135.994 76.3873 136.621 76.6106 137.611C76.834 138.6 76.2071 139.593 75.2175 139.816L68.0849 141.426C67.0953 141.649 66.1029 141.023 65.8795 140.033Z" fill="#FEF26B"/>
<g opacity="0.3">
<path d="M76.6559 138.018C76.6541 138.858 76.0706 139.623 75.2168 139.816L68.084 141.426C67.0952 141.649 66.103 141.023 65.8796 140.034C65.7012 139.244 66.0631 138.454 66.7177 138.054C66.7177 138.19 66.7316 138.326 66.7627 138.463C66.9861 139.452 67.9784 140.079 68.9672 139.855L76.1 138.245C76.3026 138.2 76.4879 138.122 76.6559 138.018Z" fill="#390075"/>
</g>
<path d="M67.6773 142.064C67.2222 142.064 66.7744 141.935 66.3787 141.685C65.8274 141.337 65.4448 140.796 65.302 140.164C65.1592 139.531 65.2725 138.879 65.6209 138.327C65.969 137.776 66.5093 137.393 67.1421 137.25L74.2749 135.64C74.908 135.498 75.5598 135.611 76.1114 135.959C76.6626 136.307 77.0452 136.848 77.188 137.48C77.4837 138.791 76.6582 140.098 75.3479 140.394L68.2151 142.004C68.0364 142.044 67.8562 142.064 67.6773 142.064ZM74.8115 136.764C74.7205 136.764 74.6282 136.774 74.5356 136.795L67.4028 138.405C66.729 138.557 66.3047 139.229 66.4568 139.903C66.6089 140.577 67.2795 141.002 67.9543 140.849L75.0871 139.239C75.761 139.087 76.1853 138.415 76.0332 137.741C75.9021 137.16 75.3841 136.764 74.8115 136.764Z" fill="#390075"/>
<path d="M61.9023 119.958C62.8547 120.308 63.3481 121.373 62.9988 122.325L60.4807 129.19C60.1313 130.143 59.0662 130.636 58.1138 130.287C57.1614 129.937 56.668 128.872 57.0173 127.92L59.5354 121.055C59.8848 120.103 60.9499 119.609 61.9023 119.958Z" fill="#55DFFF"/>
<g opacity="0.3">
<path d="M62.9982 122.325L60.4804 129.19C60.1306 130.142 59.0656 130.636 58.1132 130.286C57.3685 130.014 56.9044 129.304 56.9044 128.551C56.9044 128.341 56.9408 128.128 57.017 127.92L57.398 126.881C57.5885 127.089 57.8309 127.255 58.1132 127.359C59.0656 127.707 60.1306 127.214 60.4804 126.261L62.6173 120.436C63.0727 120.93 63.2441 121.655 62.9982 122.325Z" fill="#390075"/>
</g>
<path d="M58.7461 130.992C58.4641 130.992 58.1819 130.942 57.9099 130.842C57.3008 130.619 56.8145 130.17 56.5403 129.578C56.2661 128.987 56.238 128.325 56.4614 127.716L58.9795 120.851C59.4421 119.59 60.8452 118.941 62.1059 119.403C63.3669 119.865 64.0168 121.268 63.5542 122.529L61.0361 129.394C60.8127 130.003 60.3638 130.489 59.772 130.764C59.4446 130.915 59.0957 130.992 58.7461 130.992ZM61.2681 120.437C60.7573 120.437 60.2766 120.752 60.0908 121.259L57.5728 128.124C57.4583 128.436 57.4729 128.776 57.6143 129.081C57.7554 129.385 58.0051 129.616 58.3176 129.731C58.9653 129.969 59.687 129.634 59.9248 128.986L62.4429 122.122C62.6807 121.473 62.3467 120.752 61.6982 120.514C61.5564 120.462 61.4112 120.437 61.2681 120.437Z" fill="#390075"/>
<path d="M66.7133 108.543C67.6545 108.165 68.7343 108.625 69.113 109.566L71.8423 116.35C72.2209 117.291 71.7607 118.371 70.8196 118.749C69.8784 119.128 68.7986 118.668 68.4199 117.727L65.6906 110.943C65.3119 110.002 65.7722 108.922 66.7133 108.543Z" fill="#CC25F4"/>
<path d="M66.7133 108.543C67.6545 108.165 68.7343 108.625 69.113 109.566L71.8423 116.35C72.2209 117.291 71.7607 118.371 70.8196 118.749C69.8784 119.128 68.7986 118.668 68.4199 117.727L65.6906 110.943C65.3119 110.002 65.7722 108.922 66.7133 108.543Z" fill="#FFD2D2"/>
<path d="M70.1347 119.475C69.81 119.475 69.485 119.409 69.1764 119.277C68.5766 119.022 68.1127 118.549 67.8705 117.948L65.1413 111.164C64.8991 110.562 64.9067 109.9 65.1623 109.3C65.4181 108.7 65.8903 108.236 66.4921 107.994C67.0939 107.752 67.756 107.76 68.3559 108.015C68.9557 108.271 69.4196 108.743 69.6618 109.345L72.3913 116.129C72.6335 116.731 72.6259 117.393 72.37 117.993C72.1144 118.593 71.642 119.056 71.0402 119.298C70.748 119.416 70.4413 119.475 70.1347 119.475ZM67.3974 109.002C67.2401 109.002 67.0834 109.032 66.934 109.092C66.6254 109.216 66.3829 109.455 66.2511 109.764C66.1195 110.073 66.1154 110.413 66.2394 110.722L68.9687 117.506C69.0927 117.814 69.3315 118.057 69.6406 118.189C69.9499 118.32 70.29 118.324 70.5983 118.2C70.9069 118.076 71.1494 117.837 71.2812 117.528C71.413 117.219 71.4172 116.879 71.2931 116.571L68.5636 109.787C68.4396 109.478 68.2008 109.236 67.8917 109.104C67.7323 109.036 67.5646 109.002 67.3974 109.002Z" fill="#390075"/>
<g opacity="0.3">
<path d="M70.8201 118.749C70.5967 118.839 70.3647 118.882 70.1361 118.882C69.4036 118.882 68.7074 118.444 68.42 117.726L65.6908 110.943C65.4051 110.234 65.5956 109.448 66.1082 108.941L68.42 114.687C68.7074 115.404 69.4036 115.842 70.1361 115.842C70.3647 115.842 70.5967 115.798 70.8201 115.708C71.0539 115.615 71.2565 115.478 71.4244 115.31L71.8418 116.349C72.221 117.291 71.7604 118.37 70.8201 118.749Z" fill="#390075"/>
</g>
<path d="M58.7767 104.158C59.4262 104.937 59.3199 106.106 58.5406 106.756L52.9234 111.437C52.1441 112.087 50.975 111.98 50.3256 111.201C49.6761 110.422 49.7823 109.253 50.5617 108.603L56.1789 103.922C56.9582 103.273 58.1272 103.379 58.7767 104.158Z" fill="#FEF26B"/>
<path d="M58.7767 104.158C59.4262 104.937 59.3199 106.106 58.5406 106.756L52.9234 111.437C52.1441 112.087 50.975 111.98 50.3256 111.201C49.6761 110.422 49.7823 109.253 50.5617 108.603L56.1789 103.922C56.9582 103.273 58.1272 103.379 58.7767 104.158Z" fill="#FEF26B"/>
<g opacity="0.3">
<path d="M58.5411 106.756L52.9235 111.438C52.1442 112.088 50.9753 111.98 50.3259 111.201C50.0402 110.858 49.8999 110.439 49.8999 110.022C49.8999 109.494 50.1251 108.967 50.5614 108.604L50.9181 108.307C50.9787 108.436 51.0567 108.557 51.1519 108.671C51.8013 109.45 52.9702 109.558 53.7494 108.908L59.0103 104.522C59.381 105.268 59.2061 106.202 58.5411 106.756Z" fill="#390075"/>
</g>
<path d="M51.7486 112.455C51.6734 112.455 51.5979 112.451 51.5223 112.445C50.8726 112.385 50.2862 112.079 49.8709 111.58C49.4556 111.082 49.2593 110.45 49.3184 109.8C49.3775 109.151 49.6844 108.564 50.1827 108.149L55.7999 103.468C56.2982 103.052 56.9293 102.856 57.5801 102.915C58.2295 102.974 58.816 103.281 59.2312 103.779C59.6465 104.278 59.8428 104.91 59.7837 105.56C59.7247 106.209 59.4178 106.795 58.9195 107.211L53.3023 111.892C52.8621 112.259 52.3172 112.455 51.7486 112.455ZM57.3557 104.089C57.0628 104.089 56.7832 104.189 56.5576 104.377L50.9404 109.058C50.6851 109.271 50.5276 109.572 50.4971 109.907C50.4668 110.242 50.5671 110.567 50.78 110.822C50.9929 111.078 51.2944 111.235 51.6291 111.266C51.9656 111.295 52.2888 111.196 52.5444 110.983L58.1616 106.301C58.417 106.089 58.5745 105.787 58.605 105.452C58.6352 105.118 58.5349 104.793 58.322 104.537C58.1091 104.282 57.8074 104.124 57.4727 104.094C57.4336 104.09 57.3946 104.089 57.3557 104.089Z" fill="#390075"/>
<path d="M63.098 97.704C62.7176 98.6445 61.6368 99.1026 60.6964 98.7222L53.918 95.98C52.9775 95.5995 52.5194 94.5188 52.8998 93.5784C53.2803 92.6379 54.361 92.1798 55.3014 92.5602L62.0799 95.3024C63.0203 95.6829 63.4785 96.7636 63.098 97.704Z" fill="#55DFFF"/>
<g opacity="0.2">
<path d="M63.0985 97.704C62.7175 98.6443 61.6369 99.1015 60.6966 98.7223L53.9171 95.9793C53.117 95.6572 52.6668 94.8242 52.7846 94.0034L59.3442 96.6581C60.2863 97.0373 61.3668 96.5802 61.7461 95.6398C61.8032 95.4996 61.8413 95.3576 61.8621 95.2138L62.0803 95.3021C63.0206 95.6832 63.4777 96.7637 63.0985 97.704Z" fill="#390075"/>
</g>
<path d="M61.3853 99.4487C61.0816 99.4487 60.773 99.3916 60.4746 99.2708L53.6961 96.5283C53.0948 96.2852 52.6233 95.8206 52.3687 95.22C52.1143 94.6194 52.1079 93.9575 52.3513 93.3562C52.855 92.1113 54.2788 91.5073 55.5234 92.0114L62.302 94.7536C63.5471 95.2575 64.1504 96.6806 63.6467 97.9257C63.2637 98.8728 62.3491 99.4487 61.3853 99.4487ZM54.6114 93.0174C54.1158 93.0174 53.6456 93.3132 53.4485 93.8C53.1895 94.4404 53.4998 95.1721 54.1399 95.4312L60.9185 98.1736C61.5581 98.4322 62.2905 98.1226 62.5496 97.482C62.8084 96.8416 62.4983 96.1099 61.8582 95.8508L55.0796 93.1086C54.9263 93.0466 54.7674 93.0174 54.6114 93.0174Z" fill="#390075"/>
<path d="M124.66 130.967C125.074 130.041 126.171 129.622 127.097 130.036L133.773 133.019C134.699 133.433 135.118 134.529 134.704 135.456C134.29 136.382 133.194 136.801 132.267 136.387L125.592 133.404C124.666 132.99 124.246 131.893 124.66 130.967Z" fill="#CC25F4"/>
<path d="M124.66 130.968C125.074 130.041 126.171 129.622 127.097 130.036L133.773 133.019C134.699 133.433 135.118 134.53 134.704 135.456C134.29 136.382 133.194 136.801 132.268 136.387L125.592 133.404C124.666 132.99 124.247 131.894 124.66 130.968Z" fill="#FFD2D2"/>
<path d="M133.017 137.139C132.685 137.139 132.348 137.071 132.026 136.928L125.351 133.944C124.758 133.68 124.304 133.198 124.071 132.589C123.838 131.98 123.855 131.318 124.12 130.726C124.12 130.726 124.12 130.726 124.12 130.726C124.668 129.5 126.111 128.948 127.339 129.496L134.014 132.479C135.241 133.027 135.793 134.471 135.245 135.697C134.84 136.602 133.949 137.139 133.017 137.139ZM125.201 131.209C124.919 131.839 125.203 132.582 125.833 132.864L132.509 135.847C133.14 136.129 133.882 135.845 134.164 135.214C134.446 134.584 134.162 133.841 133.532 133.56L126.856 130.576C126.225 130.295 125.483 130.578 125.201 131.209Z" fill="#390075"/>
<g opacity="0.3">
<path d="M134.704 135.455C134.399 136.139 133.72 136.546 133.016 136.546C132.765 136.546 132.51 136.496 132.268 136.387L125.592 133.403C124.665 132.989 124.246 131.893 124.66 130.967C124.664 130.96 124.667 130.953 124.671 130.946C124.83 131.117 125.027 131.261 125.254 131.361L131.93 134.343C132.172 134.452 132.427 134.503 132.678 134.503C133.378 134.503 134.048 134.104 134.356 133.434C134.855 133.961 135.016 134.756 134.704 135.455Z" fill="#390075"/>
</g>
<path d="M128.247 118.75C127.613 117.958 127.744 116.791 128.536 116.158L134.249 111.594C135.042 110.961 136.208 111.091 136.842 111.883C137.475 112.676 137.344 113.843 136.552 114.476L130.839 119.04C130.047 119.673 128.88 119.543 128.247 118.75Z" fill="#FEF26B"/>
<g opacity="0.2">
<path d="M137.243 113.033C137.243 113.575 137.005 114.112 136.552 114.475L130.839 119.04C130.046 119.672 128.88 119.542 128.247 118.749C127.635 117.987 127.736 116.876 128.451 116.23C128.503 116.332 128.567 116.432 128.641 116.526C129.273 117.319 130.441 117.449 131.234 116.815L136.947 112.252C136.976 112.229 137.004 112.205 137.031 112.179C137.173 112.448 137.243 112.74 137.243 113.033Z" fill="#390075"/>
</g>
<path d="M129.69 120.034C128.974 120.034 128.264 119.721 127.784 119.119C126.946 118.07 127.117 116.534 128.167 115.695L133.88 111.131C134.929 110.293 136.465 110.465 137.304 111.514C137.709 112.021 137.892 112.657 137.819 113.305C137.747 113.953 137.428 114.533 136.921 114.938L131.208 119.502C130.76 119.86 130.223 120.034 129.69 120.034ZM128.709 118.381C128.916 118.64 129.215 118.804 129.549 118.842C129.883 118.879 130.21 118.785 130.47 118.577L136.182 114.013C136.442 113.806 136.606 113.508 136.643 113.174C136.68 112.84 136.586 112.513 136.379 112.253C135.948 111.713 135.159 111.625 134.618 112.056L128.906 116.62C128.366 117.051 128.278 117.841 128.709 118.381Z" fill="#390075"/>
<path d="M142.19 117.747C143.198 117.857 143.933 118.772 143.823 119.781L143.03 127.049C142.92 128.058 142.005 128.793 140.996 128.683C139.988 128.573 139.253 127.658 139.363 126.649L140.156 119.38C140.266 118.372 141.181 117.637 142.19 117.747Z" fill="#55DFFF"/>
<g opacity="0.2">
<path d="M143.077 126.618L143.03 127.049C142.919 128.057 142.005 128.793 140.997 128.682C140.055 128.58 139.352 127.775 139.352 126.848C139.352 126.783 139.355 126.717 139.362 126.649L140.155 119.38C140.244 118.583 140.833 117.956 141.574 117.785L140.827 124.621C140.82 124.689 140.817 124.756 140.817 124.822C140.817 125.75 141.52 126.552 142.46 126.656C142.672 126.679 142.879 126.665 143.077 126.618Z" fill="#390075"/>
</g>
<path d="M141.198 129.286C141.11 129.286 141.021 129.281 140.932 129.271C139.596 129.125 138.628 127.92 138.774 126.585L139.567 119.316C139.713 117.981 140.912 117.011 142.254 117.158C142.899 117.229 143.479 117.547 143.887 118.056C144.296 118.564 144.482 119.2 144.411 119.845L143.618 127.113C143.482 128.359 142.424 129.286 141.198 129.286ZM141.988 118.328C141.358 118.328 140.814 118.804 140.744 119.444L139.951 126.713C139.876 127.4 140.374 128.019 141.06 128.094C141.746 128.17 142.367 127.672 142.441 126.985L143.235 119.716C143.271 119.386 143.175 119.059 142.964 118.797C142.754 118.535 142.456 118.371 142.125 118.335C142.079 118.33 142.034 118.328 141.988 118.328Z" fill="#390075"/>
<path d="M141.198 129.286C141.11 129.286 141.021 129.281 140.932 129.271C139.596 129.125 138.628 127.92 138.774 126.585L139.567 119.316C139.713 117.981 140.912 117.011 142.254 117.158C142.899 117.229 143.479 117.547 143.887 118.056C144.296 118.564 144.482 119.2 144.411 119.845L143.618 127.113C143.482 128.359 142.424 129.286 141.198 129.286ZM141.988 118.328C141.358 118.328 140.814 118.804 140.744 119.444L139.951 126.713C139.876 127.4 140.374 128.019 141.06 128.094C141.746 128.17 142.367 127.672 142.441 126.985L143.235 119.716C143.271 119.386 143.175 119.059 142.964 118.797C142.754 118.535 142.456 118.371 142.125 118.335C142.079 118.33 142.034 118.328 141.988 118.328Z" fill="#390075"/>
<path d="M152.339 101.65C152.977 102.438 152.854 103.606 152.065 104.244L146.38 108.843C145.592 109.481 144.424 109.357 143.786 108.569C143.148 107.78 143.271 106.613 144.06 105.975L149.745 101.376C150.533 100.738 151.701 100.861 152.339 101.65Z" fill="#CC25F4"/>
<path d="M152.339 101.65C152.977 102.438 152.854 103.606 152.065 104.244L146.38 108.843C145.592 109.481 144.424 109.357 143.786 108.569C143.148 107.78 143.272 106.613 144.06 105.975L149.745 101.376C150.534 100.738 151.701 100.861 152.339 101.65Z" fill="#FFD2D2"/>
<path d="M145.223 109.844C144.512 109.844 143.807 109.536 143.326 108.941C142.918 108.437 142.731 107.802 142.8 107.153C142.868 106.504 143.184 105.923 143.688 105.515L149.373 100.916C149.877 100.508 150.514 100.321 151.161 100.389C151.809 100.458 152.391 100.773 152.799 101.277C153.644 102.322 153.482 103.859 152.437 104.704L146.753 109.303C146.302 109.667 145.761 109.844 145.223 109.844ZM150.901 101.559C150.615 101.559 150.341 101.655 150.117 101.836L144.433 106.435C144.174 106.644 144.012 106.943 143.977 107.277C143.942 107.612 144.037 107.938 144.247 108.197C144.681 108.734 145.471 108.817 146.008 108.383L151.693 103.784C152.23 103.349 152.313 102.559 151.879 102.022C151.67 101.764 151.371 101.602 151.036 101.567C150.991 101.562 150.946 101.559 150.901 101.559Z" fill="#390075"/>
<g opacity="0.2">
<path d="M152.064 104.243L146.381 108.843C145.591 109.482 144.424 109.357 143.787 108.569C143.511 108.228 143.378 107.819 143.378 107.411C143.378 106.872 143.612 106.337 144.06 105.975L144.405 105.696C144.453 105.783 144.511 105.868 144.575 105.947C145.212 106.737 146.379 106.86 147.169 106.221L152.509 101.9C152.946 102.671 152.774 103.67 152.064 104.243Z" fill="#390075"/>
</g>
<path d="M151.063 92.2542C151.368 93.2218 150.826 94.2629 149.858 94.5678L142.884 96.7652C141.916 97.07 140.875 96.5278 140.57 95.5602C140.266 94.5926 140.808 93.5516 141.775 93.2467L148.749 91.0493C149.717 90.7444 150.758 91.2866 151.063 92.2542Z" fill="#55DFFF"/>
<g opacity="0.2">
<path d="M149.858 94.5681L142.884 96.7656C141.916 97.0703 140.876 96.5283 140.571 95.5603C140.514 95.3768 140.486 95.1915 140.486 95.0096C140.486 94.2771 140.926 93.5931 141.622 93.3039C141.636 93.3801 141.653 93.4563 141.677 93.5325C141.982 94.5005 143.023 95.0426 143.991 94.7378L150.966 92.5403C151.018 92.523 151.068 92.5056 151.119 92.4849C151.28 93.3819 150.75 94.2875 149.858 94.5681Z" fill="#390075"/>
</g>
<path d="M142.331 97.4427C141.944 97.4427 141.559 97.3495 141.205 97.1649C140.627 96.8636 140.201 96.357 140.006 95.7384C139.811 95.1195 139.869 94.4603 140.171 93.8817C140.472 93.3031 140.978 92.8773 141.597 92.6825L148.571 90.485C149.19 90.2897 149.85 90.348 150.428 90.6498C151.007 90.951 151.432 91.4579 151.627 92.0765C151.627 92.0768 151.627 92.0768 151.627 92.0768C152.031 93.3578 151.317 94.7286 150.036 95.1324L143.062 97.3297C142.822 97.4053 142.576 97.4427 142.331 97.4427ZM149.301 91.556C149.176 91.556 149.05 91.5753 148.927 91.6138L141.953 93.8113C141.636 93.9112 141.376 94.1304 141.22 94.4285C141.065 94.7264 141.035 95.0652 141.135 95.3824C141.342 96.0408 142.047 96.4085 142.706 96.2007L149.68 94.0035C150.339 93.796 150.706 93.0911 150.499 92.4324C150.398 92.115 150.179 91.8548 149.881 91.6995C149.698 91.6043 149.5 91.556 149.301 91.556Z" fill="#390075"/>
<path d="M94.513 67.3957C95.1857 68.1551 95.1147 69.3268 94.3554 69.9994L88.8819 74.8479C88.1225 75.5205 86.9508 75.4496 86.2781 74.6902C85.6055 73.9308 85.6764 72.7591 86.4358 72.0864L91.9093 67.238C92.6687 66.5653 93.8403 66.6363 94.513 67.3957Z" fill="#55DFFF"/>
<g opacity="0.2">
<path d="M94.3558 69.9992L88.882 74.8479C88.1218 75.5198 86.9511 75.4505 86.2775 74.6903C85.9676 74.3405 85.8169 73.9041 85.8169 73.4695C85.8169 72.9586 86.0264 72.4495 86.4351 72.0859L87.1208 71.4781C87.197 71.6599 87.3044 71.8313 87.4412 71.9872C88.1148 72.7474 89.2854 72.8184 90.0456 72.1447L94.832 67.9038C95.1282 68.6104 94.9602 69.4641 94.3558 69.9992Z" fill="#390075"/>
</g>
<path d="M87.6599 75.9023C86.9863 75.9023 86.3157 75.6252 85.8347 75.0825C84.9441 74.0767 85.0376 72.5339 86.0432 71.6433L91.5166 66.7949C92.0022 66.3647 92.6299 66.1482 93.2791 66.189C93.9302 66.2283 94.5257 66.5176 94.9558 67.0032C95.8465 68.009 95.7529 69.5518 94.7473 70.4424L89.2739 75.291C88.8111 75.7009 88.2344 75.9023 87.6599 75.9023ZM93.1292 67.3681C92.8223 67.3681 92.531 67.4777 92.3013 67.6811L86.8279 72.5295C86.5789 72.75 86.4307 73.0561 86.4104 73.3913C86.3901 73.7268 86.5005 74.0488 86.7209 74.2978C87.1789 74.8147 87.9724 74.863 88.4892 74.4048L93.9626 69.5561C94.2116 69.3357 94.3598 69.0295 94.3801 68.6943C94.4004 68.3589 94.29 68.0369 94.0696 67.7878C93.8491 67.539 93.543 67.3909 93.2078 67.3703C93.1814 67.3689 93.1553 67.3681 93.1292 67.3681Z" fill="#390075"/>
<path d="M91.2669 59.1177C91.4032 60.1229 90.6923 61.057 89.687 61.1933L82.4412 62.176C81.4359 62.3123 80.5019 61.6014 80.3655 60.5961C80.2292 59.5908 80.9401 58.6568 81.9454 58.5204L89.1912 57.5378C90.1965 57.4014 91.1305 58.1124 91.2669 59.1177Z" fill="#FFD2D2"/>
<g opacity="0.2">
<path d="M91.256 59.6799C91.1227 60.4487 90.5027 61.0825 89.6871 61.1934L82.4418 62.1752C81.4357 62.312 80.5023 61.6003 80.3655 60.5959C80.3533 60.5128 80.3481 60.4296 80.3481 60.3482C80.3481 59.4408 81.0235 58.6443 81.9465 58.5196L82.1404 58.4937C82.1214 58.5976 82.1127 58.7015 82.1127 58.8088C82.1127 58.8902 82.1179 58.9733 82.13 59.0565C82.2668 60.0626 83.2002 60.7726 84.2063 60.6375L91.256 59.6799Z" fill="#390075"/>
</g>
<path d="M82.1919 62.7843C80.9927 62.7843 79.9449 61.8961 79.7791 60.6754C79.5987 59.3438 80.5347 58.1141 81.8657 57.9337L89.1116 56.951C89.7546 56.8626 90.3943 57.0331 90.9133 57.4283C91.4324 57.8233 91.7661 58.3949 91.8533 59.0377C92.0337 60.3688 91.0977 61.5988 89.7666 61.7794L82.5208 62.7621C82.4104 62.777 82.3003 62.7843 82.1919 62.7843ZM89.4395 58.1124C89.3836 58.1124 89.3272 58.1163 89.2708 58.1239L82.0249 59.1065C81.6953 59.1512 81.4019 59.3231 81.1983 59.5904C80.9949 59.8578 80.9073 60.1866 80.9519 60.516C81.0447 61.2005 81.6785 61.6798 82.3618 61.5892L89.6074 60.6066C90.2918 60.5136 90.7732 59.8812 90.6804 59.1969C90.6357 58.8673 90.4639 58.5736 90.1965 58.3703C89.9749 58.2015 89.711 58.1124 89.4395 58.1124Z" fill="#390075"/>
<path d="M112.551 54.4458C112.687 55.451 111.976 56.3851 110.971 56.5214L103.725 57.5041C102.72 57.6404 101.786 56.9295 101.649 55.9242C101.513 54.9189 102.224 53.9849 103.229 53.8485L110.475 52.8659C111.48 52.7296 112.414 53.4405 112.551 54.4458Z" fill="#FEF26B"/>
<g opacity="0.2">
<path d="M112.563 54.8225C112.502 55.6745 111.848 56.4018 110.972 56.5213L103.726 57.5049C102.72 57.64 101.787 56.93 101.65 55.9239C101.638 55.8408 101.633 55.7576 101.633 55.6762C101.633 54.7706 102.308 53.974 103.229 53.8493L103.44 53.8198C103.437 53.8631 103.435 53.9064 103.435 53.9497C103.435 54.0311 103.44 54.1142 103.453 54.1973C103.588 55.2034 104.523 55.9134 105.527 55.7766L112.563 54.8225Z" fill="#390075"/>
</g>
<path d="M103.476 58.1128C102.276 58.1128 101.228 57.2243 101.063 56.0036C100.883 54.6726 101.819 53.4426 103.15 53.2619L110.396 52.2795C111.726 52.0972 112.957 53.0349 113.137 54.3662C113.318 55.6972 112.382 56.9272 111.051 57.1079L103.805 58.0905C103.694 58.1054 103.584 58.1128 103.476 58.1128ZM110.723 53.4409C110.668 53.4409 110.611 53.4448 110.555 53.4523L103.309 54.4347C102.625 54.5277 102.143 55.1601 102.236 55.8444C102.329 56.5289 102.961 57.0082 103.646 56.9176L110.891 55.935C111.576 55.842 112.057 55.2096 111.964 54.5253C111.92 54.1957 111.748 53.902 111.48 53.6987C111.259 53.53 110.995 53.4409 110.723 53.4409Z" fill="#390075"/>
<path d="M115.169 69.1277C114.426 69.8175 113.253 69.7735 112.563 69.0297L107.59 63.6689C106.9 62.9251 106.944 61.7522 107.688 61.0623C108.432 60.3724 109.605 60.4164 110.295 61.1602L115.267 66.521C115.957 67.2647 115.913 68.4377 115.169 69.1277Z" fill="#CC25F4"/>
<path d="M115.169 69.1277C114.426 69.8175 113.253 69.7735 112.563 69.0297L107.59 63.6689C106.9 62.9251 106.944 61.7522 107.688 61.0623C108.432 60.3724 109.605 60.4164 110.295 61.1602L115.267 66.521C115.957 67.2647 115.913 68.4377 115.169 69.1277Z" fill="#FFD2D2"/>
<path d="M113.916 70.2105C113.261 70.2105 112.608 69.9488 112.129 69.4322L107.156 64.0713C106.715 63.5955 106.485 62.9746 106.51 62.323C106.534 61.6712 106.81 61.0694 107.286 60.6282C107.761 60.1871 108.381 59.9559 109.034 59.982C109.686 60.0064 110.287 60.2818 110.728 60.7576L115.701 66.1182C116.142 66.5938 116.372 67.2147 116.347 67.8665C116.323 68.5184 116.048 69.1202 115.572 69.5613C115.104 69.9956 114.509 70.2105 113.916 70.2105ZM108.94 61.1638C108.623 61.1638 108.323 61.2808 108.091 61.4959C107.584 61.9656 107.554 62.7598 108.024 63.2664L112.997 68.627C113.467 69.1338 114.26 69.1634 114.767 68.6936C114.767 68.6936 114.767 68.6936 114.767 68.6936C115.011 68.4673 115.152 68.158 115.165 67.822C115.177 67.4863 115.06 67.167 114.833 66.9233L109.861 61.5625C109.635 61.3186 109.325 61.1772 108.989 61.1648C108.973 61.1641 108.957 61.1638 108.94 61.1638Z" fill="#390075"/>
<g opacity="0.2">
<path d="M115.169 69.1281C114.426 69.8173 113.253 69.774 112.562 69.0294L107.591 63.6699C107.004 63.0361 106.948 62.094 107.402 61.4014L112.074 66.4406C112.765 67.1835 113.937 67.2268 114.682 66.5375C114.793 66.4336 114.888 66.3193 114.968 66.1981L115.267 66.522C115.956 67.2648 115.913 68.4372 115.169 69.1281Z" fill="#390075"/>
</g>
<path d="M130.43 77.3728C129.933 78.2571 128.803 78.574 127.918 78.0769L121.544 74.494C120.66 73.9969 120.343 72.8667 120.84 71.9823C121.337 71.098 122.467 70.7811 123.352 71.2782L129.726 74.8611C130.61 75.3582 130.927 76.4884 130.43 77.3728Z" fill="#55DFFF"/>
<g opacity="0.2">
<path d="M130.43 77.3727C129.933 78.2576 128.803 78.5745 127.918 78.0775L121.545 74.4947C120.75 74.0479 120.412 73.0885 120.716 72.2573L127.017 75.7986C127.902 76.2956 129.033 75.9787 129.53 75.0956C129.58 75.0073 129.622 74.9155 129.654 74.822L129.725 74.8618C130.61 75.3588 130.927 76.4878 130.43 77.3727Z" fill="#390075"/>
</g>
<path d="M128.815 78.9045C128.403 78.9045 127.996 78.7993 127.629 78.5925L121.254 75.0098C120.689 74.692 120.28 74.171 120.104 73.543C119.928 72.9151 120.007 72.2576 120.324 71.6922C120.642 71.1267 121.163 70.7183 121.791 70.5423C122.419 70.3662 123.077 70.4444 123.642 70.7622L130.016 74.345C130.582 74.6628 130.99 75.1838 131.166 75.8118C131.342 76.4397 131.264 77.0969 130.946 77.6626C130.628 78.228 130.108 78.6365 129.479 78.8125C129.26 78.874 129.037 78.9045 128.815 78.9045ZM122.454 71.6343C122.34 71.6343 122.224 71.6501 122.111 71.6819C121.787 71.7727 121.519 71.9824 121.356 72.2722C121.193 72.562 121.154 72.9 121.244 73.2234C121.335 73.5472 121.545 73.815 121.834 73.9781L128.209 77.5608C128.499 77.7236 128.836 77.7635 129.16 77.6729C129.484 77.5821 129.751 77.3726 129.915 77.0825C130.077 76.7927 130.117 76.4548 130.027 76.1313C129.936 75.8076 129.726 75.5398 129.436 75.3767L123.062 71.794C122.874 71.6883 122.666 71.6343 122.454 71.6343Z" fill="#390075"/>
<path d="M137.104 62.6082C137.327 63.5978 136.701 64.5902 135.711 64.8135L128.578 66.4236C127.589 66.647 126.596 66.0201 126.373 65.0305C126.15 64.0409 126.776 63.0485 127.766 62.8252L134.899 61.2151C135.888 60.9917 136.881 61.6187 137.104 62.6082Z" fill="#55DFFF"/>
<g opacity="0.2">
<path d="M137.149 63.0065C137.151 63.8515 136.567 64.6187 135.71 64.8126L128.579 66.4231C127.588 66.6465 126.596 66.0196 126.373 65.0308C126.342 64.8957 126.328 64.7607 126.328 64.6256C126.328 63.784 126.911 63.0169 127.765 62.8247L128.243 62.7173C128.243 62.8489 128.257 62.9822 128.288 63.1156C128.511 64.1061 129.504 64.733 130.493 64.5096L137.149 63.0065Z" fill="#390075"/>
</g>
<path d="M128.17 67.0607C127.715 67.0607 127.268 66.9321 126.872 66.6818C126.321 66.3337 125.938 65.7934 125.795 65.1606C125.652 64.5278 125.766 63.8757 126.114 63.3241C126.462 62.7729 127.002 62.3903 127.635 62.2475L134.768 60.6374C135.401 60.4946 136.053 60.6076 136.605 60.9562C137.156 61.3044 137.538 61.8447 137.681 62.4775C137.977 63.788 137.151 65.0947 135.841 65.3906L128.708 67.0007C128.53 67.0409 128.349 67.0607 128.17 67.0607ZM135.305 61.7612C135.214 61.7612 135.121 61.7712 135.029 61.7922L127.896 63.4023C127.222 63.5544 126.798 64.2262 126.95 64.8998C127.102 65.5737 127.773 65.9987 128.448 65.8459L135.58 64.2358C136.254 64.0837 136.678 63.4118 136.526 62.7382C136.395 62.1569 135.877 61.7612 135.305 61.7612Z" fill="#390075"/>
<path d="M138.946 85.0655C137.994 84.7161 137.5 83.651 137.85 82.6986L140.368 75.8338C140.717 74.8814 141.782 74.3879 142.735 74.7373C143.687 75.0866 144.181 76.1517 143.831 77.1041L141.313 83.969C140.964 84.9214 139.899 85.4148 138.946 85.0655Z" fill="#FEF26B"/>
<g opacity="0.2">
<path d="M143.944 76.4743C143.944 76.6838 143.908 76.8968 143.832 77.1046L141.314 83.969C140.964 84.9214 139.899 85.415 138.947 85.0652C137.994 84.7154 137.501 83.6504 137.851 82.698L138.306 81.4546C138.484 81.6278 138.701 81.7663 138.947 81.8564C139.899 82.2044 140.964 81.7126 141.314 80.7602L143.375 75.1392C143.737 75.4838 143.944 75.9704 143.944 76.4743Z" fill="#390075"/>
</g>
<path d="M139.579 85.7707C139.297 85.7707 139.015 85.7209 138.743 85.6213C137.481 85.1587 136.832 83.7561 137.294 82.4949L139.812 75.6301C140.036 75.021 140.485 74.5347 141.077 74.2605C141.668 73.9861 142.33 73.9582 142.939 74.1816C144.2 74.6443 144.85 76.0469 144.387 77.3081L141.869 84.1728C141.646 84.782 141.197 85.2683 140.605 85.5425C140.278 85.6943 139.928 85.7707 139.579 85.7707ZM139.15 84.51C139.798 84.7483 140.52 84.4136 140.758 83.7652L143.276 76.9004C143.514 76.252 143.18 75.5308 142.531 75.293C142.218 75.178 141.879 75.1932 141.574 75.3345C141.269 75.4756 141.038 75.7256 140.924 76.0379L138.406 82.9026C138.291 83.2149 138.306 83.5547 138.447 83.8597C138.588 84.1645 138.838 84.3955 139.15 84.51Z" fill="#390075"/>
<path d="M134.597 98.0759C133.656 98.4546 132.576 97.9944 132.197 97.0532L129.468 90.2696C129.089 89.3284 129.55 88.2486 130.491 87.8699C131.432 87.4913 132.512 87.9515 132.89 88.8926L135.62 95.6763C135.998 96.6174 135.538 97.6973 134.597 98.0759Z" fill="#55DFFF"/>
<g opacity="0.2">
<path d="M134.596 98.0766C133.656 98.4541 132.575 97.9952 132.198 97.0532L129.469 90.2702C129.16 89.5065 129.406 88.6528 130.011 88.1558L132.423 94.1543C132.8 95.0946 133.881 95.5553 134.821 95.176C135 95.1033 135.162 95.0063 135.303 94.8903L135.62 95.6765C135.999 96.6167 135.538 97.6973 134.596 98.0766Z" fill="#390075"/>
</g>
<path d="M133.912 98.8013C133.588 98.8013 133.263 98.7357 132.954 98.6041C132.354 98.3482 131.89 97.876 131.648 97.2742L128.919 90.4905C128.677 89.8887 128.684 89.2269 128.94 88.6268C129.196 88.0269 129.668 87.5631 130.27 87.3209C130.872 87.0787 131.534 87.0863 132.134 87.3419C132.733 87.5977 133.197 88.0699 133.44 88.6717L136.169 95.4554C136.411 96.0572 136.403 96.7191 136.148 97.3192C135.892 97.919 135.42 98.3829 134.818 98.6251C134.526 98.7428 134.219 98.8013 133.912 98.8013ZM131.175 88.3289C131.018 88.3289 130.861 88.359 130.712 88.419C130.403 88.543 130.161 88.7818 130.029 89.0909C129.897 89.4 129.893 89.7401 130.017 90.0487L132.746 96.8324C132.87 97.141 133.109 97.3834 133.418 97.5152C133.727 97.6468 134.067 97.6507 134.376 97.5269C134.685 97.4029 134.927 97.1641 135.059 96.855C135.191 96.5459 135.195 96.2059 135.071 95.8973L132.341 89.1136C132.217 88.805 131.979 88.5625 131.669 88.4307C131.51 88.3629 131.342 88.3289 131.175 88.3289Z" fill="#390075"/>
<path d="M75.1364 72.9238C74.7225 73.85 73.6261 74.2691 72.6999 73.8552L66.0241 70.8719C65.0979 70.458 64.6787 69.3615 65.0926 68.4353C65.5065 67.5091 66.603 67.09 67.5292 67.5039L74.205 70.4872C75.1312 70.9012 75.5503 71.9976 75.1364 72.9238Z" fill="#FEF26B"/>
<g opacity="0.2">
<path d="M75.1356 72.924C74.7218 73.8504 73.6256 74.2695 72.6991 73.8556L66.0235 70.8719C65.3066 70.5516 64.8927 69.8191 64.936 69.0762C64.9516 69.0848 64.9671 69.0918 64.9827 69.0987L71.6584 72.0824C72.5848 72.4963 73.681 72.0772 74.0949 71.1507C74.1884 70.9429 74.2386 70.7265 74.2507 70.51C75.1442 70.9377 75.5443 72.0131 75.1356 72.924Z" fill="#390075"/>
</g>
<path d="M73.4487 74.6072C73.1172 74.6072 72.7803 74.5391 72.4585 74.3953L65.7825 71.4119C64.5562 70.8641 64.0042 69.4202 64.5523 68.1937C65.1004 66.9674 66.544 66.4151 67.7705 66.9635L74.4466 69.9469C75.6728 70.4947 76.2249 71.9386 75.6768 73.1651C75.6768 73.1651 75.6768 73.1651 75.6768 73.1654C75.2725 74.0696 74.3808 74.6072 73.4487 74.6072ZM66.7783 67.9351C66.2991 67.9351 65.8408 68.2115 65.6328 68.6766C65.351 69.3072 65.6347 70.0496 66.2653 70.3314L72.9414 73.3148C73.5725 73.597 74.3142 73.3128 74.5962 72.6822C74.8779 72.0516 74.5942 71.3092 73.9636 71.0274L67.2876 68.044C67.122 67.97 66.949 67.9351 66.7783 67.9351Z" fill="#390075"/>
<path d="M74.6373 82.757C75.2706 83.5496 75.1402 84.7162 74.3476 85.3494L68.6348 89.9135C67.8422 90.5467 66.6757 90.4164 66.0425 89.6238C65.4093 88.8312 65.5396 87.6646 66.3322 87.0314L72.045 82.4673C72.8376 81.8341 74.0041 81.9645 74.6373 82.757Z" fill="#FFD2D2"/>
<g opacity="0.2">
<path d="M74.3479 85.3489L68.6351 89.9136C67.842 90.5474 66.6765 90.4175 66.0427 89.6244C65.7726 89.2868 65.641 88.8798 65.641 88.4763C65.641 87.9326 65.8782 87.394 66.3319 87.0321L67.0367 86.4693C67.1008 86.6996 67.2116 86.9213 67.3692 87.1187C68.003 87.9118 69.1684 88.0417 69.9616 87.4079L74.9696 83.4077C75.1653 84.1003 74.9436 84.8744 74.3479 85.3489Z" fill="#390075"/>
</g>
<path d="M67.4859 90.9079C66.7701 90.9079 66.0603 90.5946 65.5799 89.9931C64.7415 88.9438 64.9131 87.4076 65.9627 86.569L71.6753 82.0048C72.7251 81.1667 74.2613 81.3381 75.0996 82.3876C75.5047 82.8945 75.6878 83.5307 75.6153 84.1789C75.5428 84.8268 75.2237 85.4069 74.7168 85.8117L69.0042 90.3759C68.5562 90.7338 68.0191 90.9079 67.4859 90.9079ZM73.1948 82.6562C72.9204 82.6562 72.6445 82.7455 72.4141 82.9296L66.7014 87.4938C66.1619 87.925 66.0737 88.7148 66.5046 89.2543C66.7121 89.5141 67.0105 89.6779 67.3445 89.7153C67.6787 89.7534 68.0056 89.6586 68.2654 89.4511L73.978 84.8869C74.2378 84.6794 74.4014 84.3813 74.4387 84.0473C74.4761 83.7133 74.3823 83.3862 74.1748 83.1264C73.9278 82.8173 73.5628 82.6562 73.1948 82.6562Z" fill="#390075"/>
<path d="M59.2468 83.6619C58.2383 83.5519 57.5033 82.6367 57.6133 81.6282L58.4066 74.3593C58.5167 73.3508 59.4319 72.6157 60.4403 72.7258C61.4488 72.8358 62.1839 73.751 62.0738 74.7595L61.2805 82.0284C61.1705 83.0369 60.2553 83.772 59.2468 83.6619Z" fill="#55DFFF"/>
<g opacity="0.2">
<path d="M61.4776 80.2262L61.2802 82.0289C61.1711 83.0367 60.255 83.771 59.2472 83.6619C58.2376 83.551 57.5034 82.6367 57.6142 81.6271L58.4073 74.3593C58.4783 73.703 58.8905 73.1627 59.4481 72.896L58.8524 78.3629C58.7415 79.3708 59.4775 80.2851 60.4854 80.3959C60.8369 80.4339 61.178 80.3699 61.4776 80.2262Z" fill="#390075"/>
</g>
<path d="M59.45 84.2649C59.3614 84.2649 59.2722 84.26 59.1829 84.2502C58.5379 84.1797 57.9578 83.8611 57.5493 83.3525C57.1409 82.844 56.9548 82.2087 57.0252 81.564L57.8184 74.2949C57.9641 72.9595 59.168 71.9907 60.5049 72.1372C61.8403 72.283 62.8081 73.4883 62.6623 74.8237L61.8691 82.0925C61.7986 82.7375 61.48 83.3176 60.9714 83.7261C60.5332 84.0779 60.0012 84.2646 59.45 84.2649ZM60.2398 73.3064C59.6094 73.3064 59.065 73.7827 58.9951 74.4233L58.2019 81.6924C58.1658 82.0229 58.2617 82.3491 58.4722 82.6113C58.6826 82.8733 58.9807 83.0374 59.3113 83.0735C59.6443 83.1111 59.9683 83.0137 60.2302 82.8032C60.4922 82.5928 60.6563 82.2947 60.6924 81.9641L61.4856 74.6953C61.5605 74.0086 61.063 73.3889 60.3764 73.314C60.3306 73.3088 60.2849 73.3064 60.2398 73.3064Z" fill="#390075"/>
<path d="M101 127.815C87.0342 127.815 75.6724 116.453 75.6724 102.488C75.6724 88.522 87.0342 77.1602 101 77.1602C114.965 77.1602 126.327 88.522 126.327 102.488C126.327 116.453 114.965 127.815 101 127.815ZM101 78.5454C87.7981 78.5454 77.0576 89.2859 77.0576 102.488C77.0576 115.689 87.7981 126.43 101 126.43C114.201 126.43 124.942 115.689 124.942 102.488C124.942 89.2859 114.201 78.5454 101 78.5454Z" fill="#390075"/>
<path d="M76.3786 102.383C76.354 102.383 76.3291 102.382 76.3039 102.379C75.9436 102.341 75.674 102.031 75.6855 101.669C75.7695 99.0198 76.2619 96.4209 77.1491 93.9444C77.2714 93.6038 77.6362 93.4146 77.9846 93.51C78.3337 93.6057 78.5502 93.9544 78.4812 94.3098C77.966 96.969 77.4875 99.4946 77.0591 101.816C76.998 102.148 76.7087 102.383 76.3786 102.383Z" fill="#390075"/>
<path d="M125.632 102.975C125.302 102.975 125.013 102.739 124.952 102.407C124.458 99.7141 123.906 96.803 123.312 93.7539C123.243 93.4016 123.455 93.0551 123.8 92.9558C124.146 92.8567 124.509 93.0373 124.638 93.3723C125.734 96.2136 126.302 99.2094 126.326 102.277C126.329 102.636 126.056 102.937 125.699 102.971C125.677 102.974 125.654 102.975 125.632 102.975Z" fill="#390075"/>
<path d="M124.215 72.4106C126.518 80.8401 116.234 92.6346 104.489 83.6825C100.006 80.2643 96.3385 73.4578 93.7168 70.3091C88.2311 63.7206 78.0309 60.4705 78.0309 60.4705L88.084 53.6152C88.084 53.6152 92.7586 53.3087 98.4177 58.9793C101.892 62.46 105.329 70.4986 108.986 75.13C108.986 75.13 106.196 70.3001 110.063 66.1637C114.235 61.704 121.908 63.9674 124.215 72.4106Z" fill="#FEF26B"/>
<g opacity="0.3">
<path d="M124.215 72.4108C126.518 80.8404 116.234 92.6348 104.489 83.6827C100.006 80.2646 96.3386 73.4581 93.7169 70.3094C88.6914 64.2747 79.7125 61.0414 78.2393 60.541C82.4001 60.783 88.35 61.9605 92.2833 66.3048C95.0332 69.3428 99.1142 77.059 103.788 80.2113C114.891 87.6982 124.423 77.5623 122.971 69.2643C123.474 70.1919 123.897 71.2427 124.215 72.4108Z" fill="#390075"/>
</g>
<g opacity="0.35">
<path d="M110.294 70.7283C110.274 69.7823 110.655 67.4469 113.575 66.2597C116.217 65.1857 120.146 67.1303 118.826 68.5539C117.912 69.5398 116.062 67.5523 114.262 68.383C112.959 68.9844 112.388 71.5163 111.489 71.7028C110.57 71.8932 110.305 71.1985 110.294 70.7283Z" fill="white"/>
</g>
<path d="M116.593 77.8116C115.972 78.4073 115.147 78.8995 114.195 78.985C113.247 79.0827 112.303 78.7668 111.53 78.307C109.965 77.3659 108.857 75.9915 107.832 74.6325C105.806 71.8741 104.255 68.8794 102.571 65.9949C101.733 64.5512 100.878 63.1203 99.9318 61.774C99.4595 61.1011 98.9631 60.4498 98.4261 59.8517C98.2925 59.7012 98.1542 59.5579 98.0154 59.4152L97.5763 58.9861C97.2793 58.7043 96.9793 58.4257 96.6689 58.16C95.433 57.0925 94.0897 56.1491 92.6387 55.4384C91.9146 55.0823 91.1647 54.783 90.3975 54.5645C90.0142 54.4553 89.6267 54.3657 89.2388 54.3011C89.045 54.2704 88.8511 54.2442 88.6591 54.2269C88.5633 54.2189 88.468 54.2121 88.3745 54.2084C88.2867 54.2048 88.1768 54.2043 88.1222 54.2066L88.4169 54.105L78.3646 60.9589L78.2109 59.9061C79.1836 60.2296 80.1036 60.5897 81.0289 60.9785C81.9507 61.3658 82.8592 61.7832 83.7551 62.2275C85.5461 63.1169 87.2867 64.1172 88.9384 65.2624C90.586 66.4097 92.1559 67.6954 93.527 69.1965C94.2156 69.9448 94.842 70.7546 95.4185 71.5645C96.0006 72.3757 96.558 73.1942 97.1165 74.0081C98.2317 75.6363 99.3485 77.2508 100.556 78.783C101.763 80.3101 103.058 81.7707 104.541 82.9691C106.036 84.1584 107.709 85.1457 109.503 85.7307C111.296 86.3134 113.217 86.4638 115.044 86.07C116.869 85.6801 118.573 84.7669 119.966 83.5044C121.361 82.2424 122.463 80.6474 123.155 78.8963C123.847 77.1499 124.129 75.228 123.825 73.4006C123.75 72.9449 123.633 72.5023 123.49 72.0417C123.349 71.5873 123.187 71.1403 123.004 70.7034C122.638 69.83 122.183 68.997 121.634 68.2357C120.546 66.715 119.049 65.4732 117.31 64.8869C116.445 64.5911 115.528 64.4661 114.628 64.5368C113.728 64.6036 112.85 64.8795 112.07 65.3304C111.287 65.7815 110.62 66.4114 110.062 67.1399C109.781 67.4988 109.535 67.8811 109.336 68.2851C109.13 68.6854 108.966 69.1048 108.84 69.5372C108.589 70.4034 108.518 71.324 108.585 72.2524C108.648 73.1789 108.852 74.1274 109.157 75.0312L109.162 75.0458C109.197 75.1497 109.141 75.2623 109.037 75.2972C108.954 75.3253 108.865 75.2949 108.815 75.2286C108.496 74.8058 108.26 74.3553 108.058 73.8779C107.855 73.4027 107.705 72.9026 107.599 72.3895C107.39 71.3641 107.396 70.2717 107.652 69.2267C107.904 68.1813 108.402 67.1946 109.067 66.3656C109.713 65.5295 110.54 64.81 111.474 64.2827C112.412 63.7567 113.467 63.4408 114.536 63.3568C115.606 63.2725 116.686 63.4227 117.69 63.766C119.71 64.449 121.392 65.8644 122.595 67.5441C123.201 68.386 123.698 69.2979 124.095 70.2452C124.294 70.719 124.468 71.2019 124.62 71.6907C124.77 72.1729 124.907 72.6868 124.992 73.2058C125.337 75.2854 125.014 77.4144 124.255 79.3316C123.495 81.2539 122.293 82.9936 120.759 84.3828C119.228 85.7713 117.334 86.7916 115.291 87.2277C113.247 87.6696 111.098 87.4957 109.139 86.8568C107.171 86.2139 105.391 85.1572 103.799 83.8916C102.206 82.6021 100.866 81.0828 99.6261 79.516C98.3882 77.9446 97.2567 76.3077 96.1399 74.6775C95.5811 73.8628 95.0266 73.0489 94.4571 72.2554C93.8881 71.4565 93.3031 70.7021 92.6541 69.9961C91.3593 68.5778 89.8545 67.3427 88.2633 66.2349C86.6682 65.1289 84.9752 64.155 83.229 63.288C82.3555 62.8546 81.4684 62.4472 80.5692 62.0695C79.6743 61.6925 78.7528 61.3338 77.8512 61.034L77.8443 61.0317C77.5341 60.9285 77.3662 60.5934 77.4694 60.2834C77.512 60.1554 77.5941 60.0516 77.6975 59.9811L87.7498 53.1271L87.7591 53.1208C87.8462 53.0614 87.9465 53.0303 88.0446 53.0256C88.1991 53.0185 88.2991 53.022 88.4207 53.0258C88.5365 53.0305 88.6502 53.0385 88.7632 53.0479C88.9886 53.0682 89.2102 53.0982 89.4303 53.1331C89.8693 53.2061 90.2996 53.306 90.7221 53.4265C91.5674 53.6673 92.3804 53.9928 93.1602 54.3761C94.7221 55.1417 96.1443 56.1433 97.4433 57.2651C97.7696 57.5445 98.084 57.8364 98.3949 58.1315L98.8549 58.5811C99.0084 58.7387 99.1609 58.897 99.3057 59.0601C99.8887 59.7096 100.409 60.3949 100.9 61.0935C101.878 62.4929 102.75 63.9404 103.609 65.3875C104.461 66.8375 105.301 68.2876 106.16 69.7169C107.009 71.1517 107.897 72.5564 108.838 73.903C109.312 74.5736 109.812 75.2194 110.35 75.8194C110.885 76.4198 111.462 76.9757 112.093 77.4159C112.725 77.8513 113.423 78.158 114.162 78.1778C114.9 78.2038 115.655 77.9256 116.35 77.5007L116.352 77.4995C116.446 77.4423 116.568 77.4718 116.625 77.5653C116.675 77.6459 116.659 77.7485 116.593 77.8116Z" fill="#390075"/>
<path d="M128.66 64.815C132.307 72.7564 124.082 86.0695 111.035 79.1515C106.055 76.5098 101.327 70.3922 98.2274 67.7129C91.7411 62.1066 81.1476 60.5626 81.1476 60.5626L89.9488 52.1604C89.9488 52.1604 94.511 51.0961 101.019 55.7684C105.014 58.6362 109.715 66.0072 114.078 69.9805C114.078 69.9805 110.538 65.6698 113.679 60.9586C117.069 55.8783 125.008 56.8609 128.66 64.815Z" fill="#FD6CCB"/>
<path d="M118.091 81.1613C115.836 81.1613 113.431 80.52 110.995 79.2285C107.584 77.4194 104.248 73.9409 101.568 71.146C100.325 69.8506 99.152 68.6274 98.1703 67.7788C91.7782 62.2541 81.2406 60.6645 81.1349 60.6491C81.102 60.6442 81.0746 60.621 81.0646 60.5893C81.0544 60.5573 81.0632 60.5227 81.0873 60.4995L89.8886 52.0971C89.8998 52.0864 89.914 52.0788 89.9291 52.0754C89.9745 52.0646 94.6047 51.0556 101.07 55.6974C103.275 57.2802 105.638 60.161 108.14 63.2109C109.932 65.3947 111.779 67.6457 113.563 69.3764C112.719 67.9782 111.183 64.5451 113.606 60.9101C115.079 58.7033 117.433 57.5588 120.075 57.7661C123.612 58.0461 126.852 60.6674 128.74 64.7785C130.646 68.9311 129.317 74.6765 125.647 78.1425C123.522 80.1491 120.925 81.1613 118.091 81.1613ZM81.3351 60.5043C82.7448 60.7377 92.3088 62.4819 98.2846 67.6469C99.2724 68.5007 100.448 69.7268 101.693 71.0251C104.365 73.811 107.691 77.2782 111.076 79.0741C116.502 81.9508 121.769 81.5651 125.527 78.0155C129.145 74.5985 130.458 68.9391 128.581 64.8512C126.72 60.7985 123.535 58.215 120.061 57.9401C117.491 57.7355 115.188 58.8544 113.751 61.0067C110.684 65.6083 114.11 69.8825 114.145 69.9249C114.174 69.9603 114.171 70.0121 114.138 70.0436C114.105 70.0753 114.053 70.0758 114.019 70.0448C112.049 68.2511 109.994 65.745 108.005 63.3214C105.511 60.2806 103.155 57.4085 100.968 55.839C94.8037 51.4132 90.3459 52.171 89.9912 52.2406L81.3351 60.5043Z" fill="#102770"/>
<g opacity="0.3">
<path d="M128.66 64.8148C132.307 72.7562 124.082 86.0694 111.036 79.1514C106.055 76.5097 101.327 70.392 98.2275 67.7127C92.2856 62.5779 82.8997 60.8515 81.3646 60.5979C85.5092 60.1584 91.5715 60.3503 96.1604 63.9954C99.3687 66.5445 104.653 73.4923 109.778 75.8406C121.952 81.4176 129.706 69.8635 126.92 61.9132C127.568 62.7464 128.156 63.7141 128.66 64.8148Z" fill="#390075"/>
</g>
<g opacity="0.35">
<path d="M114.652 65.4241C114.477 64.4941 114.473 62.1277 117.16 60.4804C119.591 58.9902 123.785 60.2682 122.715 61.888C121.973 63.0098 119.824 61.3503 118.184 62.4633C116.996 63.2692 116.845 65.8603 115.989 66.1908C115.114 66.5284 114.738 65.8862 114.652 65.4241Z" fill="white"/>
</g>
<path d="M122.021 71.3858C121.505 72.075 120.771 72.695 119.847 72.9344C118.927 73.1855 117.944 73.0276 117.107 72.6999C115.409 72.0265 114.091 70.8512 112.859 69.6773C110.411 67.286 108.392 64.5841 106.26 62.0128C105.198 60.725 104.122 59.4525 102.968 58.2786C102.393 57.6915 101.797 57.1299 101.169 56.6275C101.013 56.5008 100.853 56.3819 100.693 56.2637L100.19 55.9119C99.8512 55.6823 99.5096 55.4562 99.16 55.2448C97.7667 54.3929 96.2875 53.6812 94.7402 53.2165C93.9677 52.9832 93.179 52.8102 92.3865 52.7197C91.9905 52.6743 91.5936 52.649 91.2004 52.6485C91.0042 52.65 90.8087 52.6556 90.6164 52.6699C90.5205 52.6777 90.4253 52.6865 90.3324 52.6981C90.2451 52.7088 90.1367 52.7262 90.0832 52.7374L90.3573 52.5891L81.5568 60.9899L81.2335 59.9763C82.2459 60.1368 83.2124 60.3421 84.1887 60.5749C85.1612 60.8067 86.1257 61.0704 87.082 61.3628C88.994 61.9483 90.8743 62.6517 92.6905 63.5123C94.5031 64.3757 96.2616 65.3883 97.8591 66.6459C98.6605 67.272 99.4106 67.9688 100.111 68.674C100.818 69.3793 101.501 70.0961 102.185 70.8081C103.55 72.2328 104.916 73.6436 106.357 74.9585C107.797 76.2683 109.313 77.4983 110.97 78.4391C112.639 79.3688 114.451 80.0701 116.317 80.3548C118.18 80.6376 120.101 80.4728 121.838 79.7865C123.576 79.1043 125.108 77.9256 126.277 76.4528C127.447 74.9804 128.274 73.2272 128.672 71.3866C129.07 69.5507 129.035 67.6084 128.437 65.8551C128.288 65.4179 128.101 65.0001 127.885 64.5691C127.672 64.1438 127.44 63.729 127.188 63.3279C126.684 62.5259 126.099 61.7782 125.434 61.1165C124.113 59.7934 122.433 58.8123 120.621 58.5174C119.72 58.3664 118.795 58.3926 117.919 58.6089C117.041 58.8216 116.22 59.237 115.524 59.8089C114.825 60.3816 114.269 61.1119 113.838 61.9215C113.619 62.3213 113.438 62.7387 113.309 63.1698C113.17 63.5983 113.076 64.0388 113.023 64.486C112.917 65.3814 112.997 66.3013 113.214 67.2064C113.427 68.1102 113.783 69.0129 114.231 69.855L114.238 69.8684C114.289 69.9652 114.253 70.0853 114.156 70.1369C114.079 70.1781 113.986 70.1626 113.926 70.1054C113.543 69.74 113.236 69.3341 112.959 68.896C112.681 68.4604 112.452 67.9914 112.263 67.5025C111.89 66.5247 111.718 65.4461 111.8 64.3732C111.879 63.3007 112.209 62.246 112.73 61.3198C113.23 60.3896 113.929 59.545 114.766 58.8724C115.605 58.2006 116.594 57.717 117.635 57.4598C118.677 57.2023 119.767 57.1744 120.814 57.3494C122.918 57.6939 124.808 58.8162 126.269 60.2774C127.004 61.0092 127.643 61.8281 128.19 62.698C128.463 63.1329 128.714 63.581 128.943 64.0384C129.17 64.4897 129.388 64.9746 129.557 65.4726C130.237 67.4682 130.265 69.6216 129.829 71.6367C129.391 73.6573 128.49 75.5694 127.203 77.1903C125.918 78.8097 124.216 80.1251 122.271 80.8883C120.327 81.6574 118.178 81.8363 116.141 81.5254C114.095 81.2117 112.166 80.4593 110.389 79.4702C108.607 78.4575 107.038 77.1768 105.559 75.8331C104.081 74.4846 102.698 73.0539 101.331 71.6276C100.646 70.915 99.9667 70.2022 99.2754 69.5121C98.5838 68.8167 97.8837 68.1676 97.1283 67.5771C95.6197 66.3887 93.9337 65.4153 92.1832 64.5818C90.4292 63.7505 88.6001 63.0657 86.7358 62.4948C85.8035 62.2097 84.8618 61.9523 83.9131 61.7262C82.9686 61.5003 82.0011 61.2964 81.0626 61.1476L81.0553 61.1464C80.7326 61.0953 80.5124 60.7921 80.5635 60.4692C80.5846 60.3361 80.6489 60.2203 80.7394 60.1338L89.5401 51.7329L89.5481 51.7252C89.6244 51.6523 89.7183 51.6054 89.8142 51.5847C89.9656 51.5525 90.0648 51.5397 90.1853 51.5236C90.3004 51.5093 90.4138 51.4988 90.527 51.4896C90.7526 51.4729 90.9762 51.4664 91.199 51.4648C91.6439 51.4653 92.0847 51.4938 92.5214 51.5437C93.3945 51.6435 94.2498 51.8321 95.0816 52.0832C96.7475 52.584 98.3139 53.3404 99.7784 54.2354C100.146 54.458 100.504 54.6947 100.858 54.935L101.386 55.3037C101.563 55.4342 101.739 55.5655 101.908 55.7028C102.59 56.2486 103.215 56.8399 103.813 57.4492C105.006 58.6705 106.103 59.9565 107.185 61.2442C108.263 62.5359 109.327 63.8298 110.408 65.0999C111.48 66.377 112.585 67.6182 113.733 68.7934C114.309 69.3779 114.909 69.9334 115.537 70.4377C116.163 70.9429 116.822 71.3976 117.517 71.7289C118.212 72.0554 118.95 72.2441 119.682 72.1433C120.415 72.0486 121.114 71.6511 121.731 71.1184L121.733 71.117C121.816 71.0454 121.941 71.0546 122.013 71.1375C122.075 71.2092 122.076 71.3129 122.021 71.3858Z" fill="#390075"/>
<path d="M130.353 55.5345C135.293 62.7433 129.443 77.2574 115.412 72.6498C110.056 70.8902 104.36 65.662 100.852 63.5467C93.5091 59.1204 82.8071 59.3936 82.8071 59.3936L90.0576 49.6217C90.0576 49.6217 94.3735 47.7997 101.579 51.3019C106.002 53.4513 111.884 59.9193 116.857 63.096C116.857 63.096 112.638 59.4474 114.935 54.2721C117.415 48.6909 125.406 48.3142 130.353 55.5345Z" fill="#39D5FF"/>
<g opacity="0.3">
<path d="M130.353 55.5345C135.293 62.7433 129.443 77.2574 115.412 72.6499C110.056 70.8902 104.36 65.662 100.852 63.5467C94.1255 59.4929 84.5828 59.3816 83.027 59.3918C87.0372 58.2565 93.0443 57.4184 98.1844 60.2333C101.778 62.202 108.163 68.1541 113.612 69.6002C126.555 73.0338 132.239 60.3331 128.147 52.9697C128.926 53.6811 129.67 54.5352 130.353 55.5345Z" fill="#390075"/>
</g>
<g opacity="0.35">
<path d="M116.65 58.5081C116.321 57.6211 115.916 55.2897 118.285 53.2109C120.429 51.3303 124.779 51.8793 123.998 53.657C123.457 54.8883 121.058 53.6169 119.63 54.9917C118.596 55.9872 118.886 58.5664 118.098 59.0372C117.293 59.5181 116.814 58.9489 116.65 58.5081Z" fill="white"/>
</g>
<path d="M124.923 63.1353C124.531 63.9019 123.913 64.6372 123.043 65.0298C122.178 65.4331 121.183 65.4441 120.302 65.263C118.515 64.8869 117.018 63.9518 115.604 63.0037C112.786 61.0618 110.339 58.741 107.802 56.5681C106.537 55.4789 105.261 54.4071 103.925 53.4456C103.258 52.9646 102.576 52.512 101.873 52.1231C101.697 52.0247 101.519 51.9346 101.342 51.8452L100.786 51.5838C100.413 51.415 100.038 51.25 99.6579 51.1009C98.1404 50.4974 96.562 50.0466 94.9583 49.8508C94.1576 49.7518 93.3509 49.7147 92.5545 49.7598C92.1565 49.7822 91.7611 49.8245 91.3734 49.8907C91.1803 49.9253 90.9885 49.964 90.8015 50.0107C90.7084 50.0346 90.6161 50.0594 90.5265 50.0866C90.4423 50.1119 90.3384 50.1474 90.2875 50.1676L90.5326 49.9751L83.2825 59.7455L82.7923 58.8011C83.8172 58.7879 84.8044 58.8265 85.8061 58.8906C86.8039 58.9542 87.7991 59.0507 88.7911 59.1769C90.7746 59.43 92.747 59.8046 94.6827 60.345C96.6154 60.8888 98.5201 61.5887 100.307 62.5575C101.203 63.0388 102.061 63.5984 102.871 64.1747C103.687 64.7501 104.482 65.3407 105.276 65.9266C106.863 67.0994 108.448 68.2584 110.091 69.3103C111.732 70.3572 113.434 71.3125 115.227 71.9588C117.03 72.5922 118.934 72.9765 120.821 72.9409C122.705 72.904 124.57 72.4161 126.166 71.4454C127.763 70.4787 129.074 69.0572 129.976 67.4079C130.88 65.7585 131.398 63.8904 131.478 62.0091C131.56 60.1322 131.196 58.2239 130.31 56.5973C130.089 56.1916 129.833 55.8117 129.547 55.4235C129.265 55.0404 128.966 54.6709 128.65 54.3184C128.017 53.6133 127.314 52.9756 126.547 52.4359C125.02 51.356 123.199 50.6736 121.363 50.6898C120.45 50.6937 119.542 50.8762 118.715 51.238C117.887 51.5963 117.147 52.1448 116.559 52.8264C115.967 53.5093 115.543 54.3231 115.255 55.1941C115.107 55.6253 115 56.0672 114.945 56.5139C114.881 56.9597 114.863 57.4099 114.886 57.8596C114.933 58.76 115.168 59.6531 115.535 60.5083C115.898 61.3631 116.402 62.1923 116.986 62.9463L116.996 62.9584C117.063 63.0451 117.047 63.1697 116.96 63.2369C116.891 63.2906 116.797 63.291 116.728 63.2447C116.289 62.9496 115.918 62.6015 115.57 62.2167C115.222 61.8345 114.917 61.4111 114.649 60.9612C114.115 60.0607 113.763 59.0269 113.662 57.9557C113.558 56.8853 113.705 55.7898 114.061 54.7887C114.397 53.7873 114.942 52.8365 115.652 52.0318C116.366 51.2276 117.259 50.5833 118.242 50.1534C119.225 49.7232 120.295 49.5109 121.355 49.5062C123.488 49.4891 125.541 50.2751 127.228 51.4677C128.076 52.0643 128.845 52.763 129.531 53.5277C129.874 53.9101 130.197 54.3092 130.5 54.7213C130.8 55.1275 131.098 55.5683 131.349 56.0306C132.356 57.8822 132.749 59.9996 132.66 62.0596C132.572 64.125 132.007 66.1622 131.013 67.9778C130.022 69.7914 128.567 71.3762 126.78 72.4579C124.994 73.5453 122.907 74.0856 120.846 74.1244C118.776 74.1619 116.748 73.7472 114.829 73.0735C112.901 72.3773 111.138 71.381 109.453 70.3072C107.768 69.2286 106.162 68.053 104.573 66.879C103.778 66.2926 102.987 65.7053 102.189 65.1423C101.39 64.5741 100.59 64.0531 99.7451 63.599C98.057 62.6833 96.2305 62.0099 94.364 61.4848C92.4945 60.9629 90.5759 60.5977 88.6419 60.351C87.6747 60.228 86.703 60.1337 85.7298 60.0717C84.7607 60.009 83.7725 59.9721 82.8224 59.9844L82.815 59.9845C82.4882 59.9887 82.2199 59.7272 82.2156 59.4003C82.2139 59.2655 82.2575 59.1405 82.3321 59.04L89.5822 49.2695L89.5889 49.2605C89.6516 49.1759 89.7362 49.1136 89.8273 49.077C89.9711 49.0197 90.0665 48.9902 90.1827 48.9539C90.2936 48.9203 90.4037 48.8906 90.5135 48.8626C90.7331 48.8079 90.9524 48.7636 91.1717 48.7244C91.6103 48.6494 92.0495 48.6027 92.4883 48.578C93.3658 48.5285 94.2406 48.5695 95.1029 48.6759C96.8294 48.8872 98.5014 49.3673 100.096 50.0014C100.496 50.1584 100.889 50.331 101.279 50.5078L101.861 50.7818C102.058 50.8804 102.254 50.98 102.444 51.0866C103.208 51.5091 103.925 51.9859 104.617 52.485C106 53.4864 107.298 54.5682 108.584 55.6538C109.865 56.7442 111.133 57.839 112.413 58.9077C113.686 59.9848 114.985 61.0208 116.315 61.9845C116.983 62.4629 117.667 62.909 118.373 63.2993C119.074 63.6912 119.801 64.0276 120.542 64.2365C121.282 64.4405 122.042 64.5014 122.746 64.278C123.452 64.0606 124.074 63.5502 124.592 62.9208L124.594 62.9189C124.663 62.8343 124.788 62.8222 124.873 62.8917C124.946 62.9521 124.965 63.0541 124.923 63.1353Z" fill="#390075"/>
<g opacity="0.2">
<path d="M127.62 105.841C127.62 116.492 121.352 125.678 112.306 129.914C108.889 131.514 105.075 132.409 101.052 132.409C92.3347 132.409 84.5976 128.211 79.7532 121.725C76.4439 117.295 74.4849 111.797 74.4849 105.841C74.4849 105.556 74.4849 97.413 76.3343 78.1939L116.967 74.8906C120.417 80.2897 124.951 87.1734 126.733 96.2813C127.349 99.43 127.62 102.151 127.618 105.621C127.62 105.696 127.62 105.767 127.62 105.841Z" fill="#390075"/>
</g>
<path d="M125.635 102.487C125.635 112.363 119.823 120.881 111.435 124.808C108.266 126.292 104.73 127.122 101 127.122C92.9161 127.122 85.7418 123.229 81.2498 117.215C78.1812 113.107 76.3647 108.009 76.3647 102.487C76.3647 102.222 74.8495 96.4293 75.0382 76.8423L115.757 73.7876C118.955 78.7939 123.16 85.1769 124.812 93.6223C125.384 96.542 125.635 99.065 125.633 102.282C125.635 102.352 125.635 102.417 125.635 102.487Z" fill="white"/>
<path d="M112.058 120.436C112.058 121.955 111.84 123.421 111.435 124.808C108.266 126.293 104.73 127.122 101 127.122C92.9161 127.122 85.7418 123.229 81.2498 117.215C82.7338 110.16 88.9921 104.865 96.4868 104.865C105.086 104.865 112.058 111.836 112.058 120.436Z" fill="#FDC1E5"/>
<path d="M101 127.815C87.0481 127.815 75.6948 116.474 75.6726 102.527C75.6662 102.489 75.6552 102.431 75.6403 102.351C74.6955 97.2826 74.2358 88.221 74.3459 76.8355C74.3493 76.4757 74.6279 76.1783 74.9867 76.1514L115.705 73.0967C115.956 73.0748 116.203 73.1998 116.341 73.4144L116.642 73.8853C119.861 78.9163 123.866 85.1773 125.492 93.4886C126.086 96.524 126.328 99.0716 126.326 102.283C126.327 102.341 126.327 102.413 126.327 102.487C126.327 116.453 114.966 127.815 101 127.815ZM75.7256 77.4852C75.6391 88.484 76.0911 97.2081 77.0022 102.097C77.0439 102.321 77.0578 102.396 77.0578 102.487C77.0578 115.689 87.7983 126.43 101 126.43C114.202 126.43 124.942 115.689 124.942 102.487C124.942 102.423 124.942 102.361 124.941 102.297C124.942 99.1666 124.708 96.6961 124.133 93.7547C122.557 85.702 118.63 79.5641 115.475 74.6319L115.397 74.5091L75.7256 77.4852ZM75.6726 102.487C75.6726 102.49 75.6726 102.494 75.6726 102.498C75.6726 102.495 75.6726 102.491 75.6726 102.487Z" fill="#390075"/>
<path d="M135.967 57.5787C133.414 60.4002 130.177 63.5466 127.013 66.4648C121.382 71.6603 115.977 76.1408 115.051 76.8368L121.388 88.4769C121.388 88.4769 130.535 85.1787 138.608 79.2035C142.766 76.1292 146.638 72.3428 148.833 67.9334C153.677 58.1962 142.807 50.0118 135.967 57.5787Z" fill="white"/>
<path d="M135.967 57.5787C133.414 60.4002 130.177 63.5466 127.013 66.4648C127.384 73.8968 134.39 77.625 138.608 79.2035C142.766 76.1292 146.638 72.3428 148.833 67.9334C153.677 58.1962 142.807 50.0118 135.967 57.5787Z" fill="#FDC1E5"/>
<path d="M121.389 89.17C121.105 89.17 120.839 88.9944 120.737 88.7122C120.607 88.3524 120.794 87.9554 121.153 87.8256C121.361 87.7509 141.955 80.1983 148.212 67.6241C150.654 62.7179 148.76 58.4337 145.967 56.5296C143.65 54.9498 139.775 54.3983 136.48 58.0431C129.433 65.838 116.964 76.2682 115.466 77.3915C115.16 77.6215 114.725 77.5588 114.496 77.2529C114.267 76.9467 114.329 76.5126 114.635 76.2831C116.118 75.1708 128.468 64.8397 135.453 57.1139C139.096 53.0838 143.751 53.3417 146.748 55.3852C150.021 57.6169 152.264 62.5919 149.453 68.2413C142.946 81.3155 122.491 88.8158 121.624 89.1288C121.546 89.1568 121.467 89.17 121.389 89.17Z" fill="#390075"/>
<g opacity="0.2">
<path d="M118.195 82.78C119.26 97.8652 105.057 105.298 93.8714 107.238C75.9019 110.356 68.2354 100.461 65.667 90.3645C70.2922 96.1171 76.4918 102.162 82.8451 101.051L107.17 94.6989C113.153 92.5998 115.622 84.5382 116.867 77.3496C117.48 79.0489 117.943 80.8611 118.195 82.78Z" fill="#390075"/>
</g>
<path d="M118.581 78.919C121.591 94.0439 101.808 101.033 93.1506 103.622C79.4143 107.885 71.9517 102.719 68.1934 95.1528C64.0528 86.8217 64.4071 75.5809 65.8257 70.8148C49.6063 67.2754 61.5799 50.7508 72.4902 61.121L90.5843 53.6078C91.5404 37.646 111.054 42.7609 102.157 55.7316C102.157 55.7316 111.773 61.2922 116.385 71.3724C117.432 73.6601 118.22 76.1783 118.581 78.919Z" fill="white"/>
<path d="M65.1566 70.6348C65.2528 70.3915 65.3497 70.162 65.4501 69.9278C65.5504 69.695 65.6526 69.4632 65.759 69.2326C65.9724 68.7714 66.1951 68.3136 66.4601 67.8638C66.5577 67.6982 66.7711 67.643 66.9368 67.7407C67.0786 67.8242 67.1394 67.9925 67.0929 68.1431L67.0902 68.1514C66.9505 68.6041 66.843 69.0798 66.7461 69.5569C66.6977 69.7957 66.6534 70.0362 66.611 70.2767C66.5692 70.5159 66.5282 70.7611 66.4944 70.9947C66.4392 71.376 66.0854 71.6404 65.7041 71.5853C65.3227 71.5301 65.0583 71.1763 65.1135 70.795C65.1213 70.7413 65.135 70.69 65.1538 70.6415L65.1566 70.6348Z" fill="#390075"/>
<path d="M95.4032 48.9021C92.8654 52.7768 97.147 55.6781 99.9016 52.6563C103.112 48.6638 98.1539 45.2562 95.4032 48.9021Z" fill="#F883A0"/>
<path d="M65.6833 61.2406C70.2191 62.1786 69.2513 67.2593 65.1664 67.0769C60.0727 66.5318 61.1592 60.6149 65.6833 61.2406Z" fill="#F883A0"/>
<path d="M118.581 78.919C120.854 91.2799 109.131 97.238 101.039 100.859C93.6915 103.87 77.9278 109.579 70.7172 98.9001C80.6452 86.0249 104.331 77.0482 118.581 78.919Z" fill="#FFEBF6"/>
<g opacity="0.2">
<path d="M118.581 78.9187C121.591 94.0436 101.808 101.033 93.1504 103.621C79.4141 107.885 71.9515 102.719 68.1931 95.1525C71.612 98.369 76.243 101.656 81.9955 102.088C92.8397 102.904 104.355 97.9768 110.591 91.8026C118.544 83.9307 117.715 75.7675 116.385 71.3721C117.431 73.6598 118.22 76.178 118.581 78.9187Z" fill="#390075"/>
</g>
<path d="M114.143 75.6366C115.555 80.0387 106.765 83.3338 104.738 79.8434C102.603 75.4044 112.395 71.5915 114.143 75.6366Z" fill="#FDC1E5"/>
<path d="M81.1358 89.3397C82.5475 93.7418 73.7578 97.0369 71.7308 93.5465C69.5961 89.1075 79.3879 85.2947 81.1358 89.3397Z" fill="#FDC1E5"/>
<path d="M95.8667 85.4269C95.5867 87.0143 97.1719 86.7472 96.9389 84.9534C96.743 84.3298 96.1844 84.4655 95.8667 85.4269Z" fill="#390075"/>
<path d="M92.8609 86.7874C94.2383 87.6247 92.9916 88.6394 91.7976 87.2806C91.4583 86.7218 91.9289 86.3917 92.8609 86.7874Z" fill="#390075"/>
<path d="M92.7086 90.8695C93.4577 90.9323 94.197 90.8955 94.9113 90.7567C95.2681 90.6853 95.6166 90.59 95.9559 90.4758C96.2921 90.352 96.6184 90.2114 96.9277 90.0438C97.5377 89.696 98.0858 89.2642 98.5095 88.7222C98.945 88.1865 99.2453 87.5461 99.4736 86.8248L99.477 86.8139C99.5304 86.645 99.7107 86.5514 99.8797 86.6049C100.008 86.6456 100.093 86.7604 100.103 86.887C100.166 87.7342 99.9346 88.6286 99.465 89.3863C98.9904 90.1421 98.2979 90.7522 97.52 91.1473C97.3299 91.256 97.1248 91.3295 96.9277 91.421C96.7285 91.5076 96.5169 91.5562 96.3124 91.6241C96.1065 91.6872 95.8937 91.7212 95.6847 91.7671C95.4743 91.8071 95.2594 91.817 95.0483 91.8423C94.1996 91.8996 93.3366 91.7988 92.5534 91.4825C92.3901 91.4165 92.3111 91.2306 92.377 91.0672C92.4307 90.9344 92.5635 90.8574 92.6992 90.8686L92.7086 90.8695Z" fill="#390075"/>
<path d="M75.9671 80.5919L77.3205 81.1727C77.5879 81.2873 77.7115 81.597 77.5969 81.8643C77.4821 82.1317 77.1724 82.2553 76.9052 82.1407C76.8509 82.1174 76.801 82.0844 76.7592 82.047L75.6677 81.0583C75.5527 80.9541 75.5439 80.7765 75.648 80.6614C75.7307 80.5703 75.8599 80.5462 75.9671 80.5919Z" fill="#390075"/>
<path d="M75.0388 82.5643L76.5085 82.8548C76.7931 82.9111 76.9781 83.1873 76.9219 83.4718C76.8656 83.7563 76.5895 83.9414 76.3049 83.8852C76.2541 83.8752 76.2043 83.8568 76.1608 83.8339L74.8372 83.132C74.6886 83.0531 74.6321 82.8689 74.7108 82.7204C74.7752 82.5988 74.9105 82.539 75.0388 82.5643Z" fill="#390075"/>
<path d="M74.7612 85.1648L76.0444 84.9042C76.3302 84.8461 76.6089 85.0307 76.6669 85.3165C76.725 85.6022 76.5404 85.8808 76.2546 85.9389C76.1916 85.9517 76.1269 85.9522 76.0669 85.943L74.7735 85.7379C74.6146 85.7127 74.5063 85.5636 74.5315 85.4047C74.551 85.2814 74.6458 85.1885 74.7612 85.1648Z" fill="#390075"/>
<path d="M86.0495 82.8533C85.6254 82.3632 85.1925 81.9115 84.7056 81.5542C84.2222 81.1959 83.697 80.9245 83.1459 80.7765C82.049 80.4672 80.8638 80.618 79.8376 81.1309C79.3259 81.388 78.8522 81.7311 78.4531 82.1474C78.3604 82.257 78.2587 82.3606 78.1706 82.4744C78.0888 82.5923 77.9937 82.7029 77.92 82.8264C77.7616 83.0669 77.6199 83.3208 77.5127 83.5897C77.296 84.1265 77.1699 84.7076 77.1682 85.3093C77.1605 85.9113 77.2714 86.5255 77.4538 87.1395L77.4557 87.1455C77.4923 87.2686 77.4221 87.398 77.2989 87.4347C77.1969 87.4651 77.0903 87.4219 77.0361 87.3362C76.6687 86.756 76.4066 86.0895 76.2934 85.3801C76.1831 84.6725 76.2213 83.9216 76.4355 83.2164C76.5378 82.8624 76.6839 82.5215 76.8563 82.1942C76.9402 82.0289 77.0509 81.8807 77.1486 81.7234C77.2531 81.571 77.3723 81.43 77.4851 81.2832C77.9592 80.7152 78.5513 80.2494 79.2083 79.9062C79.8655 79.5642 80.5928 79.3434 81.3407 79.2872C82.0871 79.2262 82.8521 79.338 83.5468 79.6117C84.241 79.8888 84.8585 80.3213 85.3444 80.8491C85.8303 81.3778 86.2002 81.9833 86.4494 82.6222C86.4963 82.7424 86.4368 82.8778 86.3166 82.9245C86.2222 82.9614 86.1183 82.9326 86.0555 82.8602L86.0495 82.8533Z" fill="#390075"/>
<path d="M103.769 69.053L103.799 70.5256C103.805 70.8163 103.574 71.0569 103.283 71.0628C102.992 71.0688 102.752 70.8378 102.746 70.547C102.745 70.4879 102.754 70.4288 102.771 70.3755L103.22 68.973C103.268 68.8253 103.426 68.7439 103.574 68.7914C103.691 68.8288 103.766 68.9366 103.769 69.053Z" fill="#390075"/>
<path d="M105.879 69.7869L105.54 71.2463C105.474 71.5288 105.192 71.7047 104.91 71.6391C104.627 71.5736 104.451 71.2913 104.517 71.0089C104.529 70.9585 104.549 70.9094 104.573 70.8664L105.318 69.5666C105.402 69.4208 105.588 69.3703 105.734 69.454C105.853 69.5223 105.908 69.6594 105.879 69.7869Z" fill="#390075"/>
<path d="M107.887 71.4485L107.193 72.5591C107.039 72.8064 106.713 72.8816 106.466 72.727C106.219 72.5726 106.143 72.2469 106.298 71.9996C106.332 71.9451 106.376 71.8978 106.424 71.8606L107.463 71.0632C107.59 70.9652 107.773 70.9893 107.871 71.1168C107.947 71.2158 107.949 71.3485 107.887 71.4485Z" fill="#390075"/>
<path d="M97.8752 78.2155C97.5565 77.6083 97.3421 76.9319 97.2622 76.2183C97.1826 75.5053 97.2613 74.7555 97.5077 74.0497C97.7569 73.3459 98.1744 72.6953 98.7103 72.172C99.2433 71.6444 99.8872 71.2405 100.576 70.9688C101.266 70.6982 102.006 70.557 102.746 70.5719C102.931 70.5831 103.116 70.5855 103.299 70.6067C103.482 70.6362 103.667 70.6499 103.846 70.6951C104.206 70.7797 104.559 70.8932 104.894 71.0482C105.567 71.3491 106.158 71.813 106.62 72.3606C107.081 72.9114 107.412 73.5465 107.609 74.2044C107.646 74.3274 107.576 74.4571 107.453 74.4939C107.351 74.5244 107.244 74.4817 107.19 74.3961L107.186 74.3906C106.843 73.8501 106.452 73.3635 105.992 72.9744C105.537 72.5808 105.016 72.2947 104.469 72.1061C104.195 72.0105 103.911 71.9508 103.625 71.9126C103.484 71.8873 103.338 71.8865 103.195 71.8707C103.052 71.8628 102.907 71.8715 102.763 71.8695C102.187 71.8976 101.618 72.0299 101.088 72.2473C100.027 72.6853 99.1359 73.4808 98.6496 74.5116C98.3999 75.0246 98.2601 75.599 98.2133 76.199C98.1635 76.801 98.2204 77.4239 98.312 78.0655L98.3132 78.074C98.3314 78.2017 98.2426 78.3199 98.1149 78.3382C98.0146 78.3524 97.92 78.3003 97.8752 78.2155Z" fill="#390075"/>
<path d="M84.3777 105.817C79.7121 105.817 75.7451 104.498 72.5085 101.86C68.6821 98.7406 66.04 93.766 64.8681 87.4733C63.9165 82.3619 63.9697 76.6583 65.0122 71.3346C60.4626 70.1857 57.6486 67.7943 57.2551 64.7111C56.9147 62.048 58.5131 59.3331 61.2321 57.9557C64.8823 56.1061 69.27 57.1015 72.9692 60.6181C73.2463 60.8815 73.2575 61.32 72.9938 61.5973C72.7306 61.8742 72.2919 61.8857 72.0146 61.622C68.7592 58.5277 64.9628 57.6193 61.8583 59.1916C59.6608 60.3049 58.363 62.4523 58.6291 64.5358C58.9631 67.1503 61.6398 69.1921 65.9731 70.1376C66.3454 70.2189 66.5822 70.5856 66.5029 70.9584C64.3891 80.8998 65.6406 94.4743 73.3837 100.786C79.4221 105.708 88.3369 105.642 99.8806 100.591C99.8925 100.585 99.9047 100.58 99.917 100.576C111.2 96.3852 117.312 90.36 118.084 82.6672C119.079 72.7387 110.432 61.6823 101.791 56.32C101.631 56.2202 101.518 56.059 101.479 55.8737C101.44 55.6887 101.478 55.4956 101.585 55.3395C103.979 51.8508 104.443 48.5932 102.858 46.4028C101.591 44.652 99.2021 43.923 96.9128 44.5888C93.667 45.5334 91.5598 48.9211 91.2759 53.6506C91.2532 54.0327 90.918 54.3286 90.543 54.3005C90.1611 54.2775 89.8701 53.9494 89.8931 53.5676C90.2136 48.2277 92.6931 44.374 96.5256 43.2587C99.3767 42.4299 102.371 43.3671 103.98 45.5905C105.831 48.1491 105.512 51.7417 103.123 55.5244C107.462 58.3444 111.612 62.4228 114.588 66.8071C118.281 72.246 119.966 77.778 119.462 82.8054C119.074 86.6752 117.403 90.2045 114.495 93.2954C111.288 96.7031 106.552 99.5871 100.418 101.868C94.396 104.501 89.0386 105.817 84.3777 105.817Z" fill="#390075"/>
<path d="M74.9286 56.4415C71.1045 47.2303 71.8354 38.1727 73.3198 37.5564C74.8042 36.9402 81.7352 42.8169 85.5592 52.0281" fill="#FDD800"/>
<g opacity="0.6">
<path d="M74.1455 40.9273C73.4345 41.5999 73.3501 48.0418 75.3878 48.949C77.3353 47.5098 75.5886 40.3036 74.1455 40.9273Z" fill="white"/>
</g>
<g opacity="0.3">
<path d="M85.5593 52.0283L74.9279 56.4419C74.2564 54.8246 73.7262 53.2122 73.3147 51.6501C83.7044 48.3367 77.7826 42.1273 73.859 37.5469C76.0477 38.0448 82.0853 43.6603 85.5593 52.0283Z" fill="#390075"/>
</g>
<path d="M74.9287 57.1345C74.6572 57.1345 74.3994 56.9736 74.2888 56.7072C71.99 51.1701 71.5178 46.2424 71.4409 43.7978C71.3958 42.3593 71.3787 37.6125 73.054 36.9169C75.2952 35.9855 82.4912 42.8327 86.1988 51.7626C86.3455 52.1159 86.178 52.5214 85.8248 52.6679C85.471 52.8144 85.0662 52.6471 84.9195 52.2939C81.1358 43.1806 74.8226 38.2023 73.6058 38.2023C73.5997 38.2023 73.5939 38.2026 73.588 38.2028C72.7257 38.9973 71.7658 47.017 75.5682 56.176C75.715 56.5292 75.5475 56.9348 75.1942 57.0812C75.1072 57.1174 75.0174 57.1345 74.9287 57.1345Z" fill="#390075"/>
<path d="M73.8782 54.2702C73.6338 54.2702 73.397 54.1408 73.2708 53.9118C73.0863 53.5766 73.2081 53.1555 73.543 52.9707C79.5108 49.6811 80.9092 44.7119 80.9227 44.6621C81.0223 44.2934 81.4012 44.0747 81.7703 44.1721C82.1392 44.2705 82.3592 44.6481 82.2615 45.0175C82.202 45.2434 80.7244 50.5942 74.212 54.184C74.1057 54.2424 73.9912 54.2702 73.8782 54.2702Z" fill="#390075"/>
<path d="M72.4957 48.3685C72.2609 48.3685 72.0321 48.2491 71.902 48.0336C71.7045 47.7062 71.8094 47.2807 72.1366 47.0829C72.1803 47.0565 76.5257 44.3822 77.338 40.4056C77.4146 40.0311 77.7786 39.7894 78.1554 39.8656C78.5301 39.9422 78.7718 40.3082 78.6954 40.683C77.7601 45.2613 73.0528 48.1481 72.8529 48.2687C72.7409 48.3363 72.6176 48.3685 72.4957 48.3685Z" fill="#390075"/>
<g opacity="0.2">
<path d="M84.6218 50.6889C83.8237 51.0157 83.2715 51.4985 82.9206 52.0875C81.0598 51.618 77.479 51.3779 74.2081 54.9592C73.6969 55.5361 73.3519 56.1751 73.1451 56.8528C73.134 56.8564 73.1233 56.8595 73.1121 56.8631C60.1781 62.665 70.2834 80.9495 85.0806 69.5325C89.2224 68.7668 92.8219 65.5576 93.8344 64.5759C99.3639 64.2381 101.683 58.2883 100.904 54.4497C92.9286 55.8842 93.3469 47.4035 84.6218 50.6889Z" fill="#390075"/>
</g>
<path d="M72.6176 54.9699C59.5152 60.8473 70.0556 79.5355 85.1659 67.1796C85.1659 67.1796 74.7536 59.1604 74.892 54.4551C74.892 54.4551 73.9315 54.5429 72.6176 54.9699Z" fill="#FEF26B"/>
<g opacity="0.6">
<path d="M74.6537 57.0143C70.8536 57.3262 67.4952 60.1892 66.7683 63.4876C66.4289 58.3456 70.6679 54.841 74.8917 54.4561C74.7532 59.1611 74.5497 60.5492 74.6537 57.0143Z" fill="white"/>
</g>
<g opacity="0.2">
<path d="M85.1653 67.1804C72.5001 76.6201 65.9976 67.9616 66.8415 61.7485C69.553 68.9886 76.4069 68.7327 82.4787 64.933C84.0117 66.2922 85.1653 67.1804 85.1653 67.1804Z" fill="#390075"/>
</g>
<path d="M75.329 72.0104C73.828 72.0104 72.3968 71.6972 71.0778 71.0605C67.9362 69.5441 65.9371 66.3525 65.9852 62.9289C66.0367 59.256 68.3507 56.1247 72.3341 54.3378C72.3568 54.3278 72.3798 54.3188 72.4035 54.3112C73.7755 53.8652 74.7868 53.7692 74.829 53.7656C75.0265 53.7475 75.2221 53.8149 75.3664 53.9506C75.5109 54.0864 75.5903 54.2775 75.5844 54.4755C75.4794 58.0456 82.7704 64.4604 85.5885 66.6308C85.756 66.7597 85.8554 66.9582 85.8585 67.1696C85.8617 67.3808 85.7679 67.5819 85.6044 67.7157C82.1439 70.5453 78.5739 72.0104 75.329 72.0104ZM72.8671 55.6171C69.4169 57.1765 67.4139 59.8469 67.3705 62.9484C67.3299 65.8354 69.0216 68.5297 71.6798 69.8129C75.1662 71.4953 79.6381 70.5331 84.0477 67.1796C81.7074 65.2963 74.9706 59.5488 74.2589 55.256C73.8964 55.3276 73.4144 55.4411 72.8671 55.6171Z" fill="#390075"/>
<path d="M73.7133 53.0662C70.1646 57.0709 74.5808 64.0574 78.2243 66.3718C85.2305 71.1507 93.5933 62.4492 93.6235 62.3961C93.6235 62.3961 84.3923 53.6643 83.7109 50.6419C83.7109 50.6419 78.3943 47.9409 73.7133 53.0662Z" fill="#FD6CCB"/>
<path d="M82.8424 67.8919C81.1518 67.8919 79.5888 67.408 78.1754 66.4439C75.7211 64.885 72.8864 61.1841 72.3947 57.6914C72.1312 55.8198 72.5529 54.2444 73.6483 53.0083C73.6486 53.0081 73.6488 53.0076 73.6491 53.0073C78.3207 47.8921 83.6972 50.5366 83.7506 50.564C83.7738 50.5759 83.7904 50.5974 83.7963 50.6226C84.464 53.5845 93.5914 62.2454 93.6837 62.3325C93.7128 62.3604 93.7194 62.4043 93.6994 62.4392C93.6784 62.4761 89.7709 66.5447 85.0746 67.6272C84.3085 67.8037 83.5636 67.8919 82.8424 67.8919ZM73.7785 53.1245C72.7189 54.3203 72.3114 55.8486 72.5675 57.6672C73.0521 61.1096 75.8483 64.759 78.2714 66.2981C79.755 67.3103 81.3053 67.7082 82.8236 67.7085C88.0602 67.7092 92.9303 62.979 93.5004 62.3991C92.62 61.5625 84.3619 53.6516 83.6356 50.7026C83.1635 50.4832 78.1588 48.3294 73.7785 53.1245Z" fill="#102770"/>
<g opacity="0.6">
<path d="M83.7994 52.6128C82.3664 51.4883 74.2577 51.0568 72.5026 57.7613C71.5959 49.2821 82.7345 49.3798 83.711 50.6418C84.3919 53.6635 84.3367 54.9952 83.7994 52.6128Z" fill="white"/>
</g>
<g opacity="0.2">
<path d="M93.6233 62.3966C79.5053 76.0251 71.229 59.9891 72.525 55.25C76.0864 65.7975 84.586 66.3695 91.6284 60.4458C92.8004 61.6183 93.6233 62.3966 93.6233 62.3966Z" fill="#390075"/>
</g>
<path d="M82.8356 68.4983C81.0267 68.4983 79.3519 67.9787 77.8344 66.9438C75.2809 65.3222 72.3117 61.4414 71.7953 57.7756C71.5102 55.7495 71.9943 53.9619 73.1955 52.6064C73.1977 52.604 73.1999 52.6013 73.2023 52.5989C78.1816 47.1472 83.9675 49.9949 84.0251 50.0239C84.2089 50.1174 84.3417 50.2881 84.3871 50.4893C84.9079 52.7988 91.5749 59.5039 94.1 61.8926C94.332 62.1121 94.384 62.4619 94.2253 62.7395C94.0788 62.9958 90.0048 67.112 85.2109 68.2168C84.3961 68.4045 83.6039 68.4983 82.8356 68.4983ZM74.2289 53.529C73.2943 54.5857 72.9374 55.9494 73.1671 57.5825C73.6276 60.8518 76.289 64.3212 78.5961 65.7868C79.9747 66.727 81.4198 67.0979 82.8402 67.0981C87.1613 67.0986 91.2616 63.6679 92.6268 62.4011C90.6068 60.4563 84.2028 54.1335 83.139 51.1448C82.0726 50.7124 77.9694 49.4377 74.2289 53.529Z" fill="#390075"/>
<path d="M84.127 48.7959C79.1194 50.8462 83.754 59.0182 87.4936 61.264C97.2004 66.1071 101.421 57.5468 100.409 52.5567C92.4338 53.9911 92.8521 45.5105 84.127 48.7959Z" fill="#39D5FF"/>
<path d="M92.8422 62.7909C91.3522 62.7909 89.5673 62.3959 87.4547 61.3419C84.7135 59.6959 81.612 55.0634 81.8627 51.7745C81.9747 50.3048 82.7255 49.2753 84.0941 48.715C84.0949 48.7147 84.0955 48.7145 84.0963 48.7142C88.805 46.9408 90.8485 48.5397 93.0121 50.2318C94.8348 51.6574 96.7186 53.1322 100.393 52.4706C100.439 52.4623 100.485 52.4928 100.494 52.5392C101.032 55.1901 100.088 59.17 97.2777 61.3246C96.2682 62.0988 94.8134 62.7909 92.8422 62.7909ZM84.159 48.8771C82.8573 49.4103 82.1434 50.3898 82.0368 51.7877C81.7904 55.0172 84.8454 59.5714 87.5387 61.1891C92.3585 63.5939 95.4381 62.5152 97.1718 61.1861C99.8961 59.097 100.831 55.2559 100.34 52.6573C96.6456 53.2948 94.7433 51.8077 92.9047 50.3692C90.7809 48.7079 88.7745 47.1388 84.159 48.8771Z" fill="#102770"/>
<g opacity="0.6">
<path d="M99.6393 52.6992C92.9173 55.0576 88.8263 45.6052 82.0477 53.0398C80.8011 48.172 87.8539 47.3608 90.9577 48.7128C95.6047 52.3424 96.51 53.0124 99.6393 52.6992Z" fill="white"/>
</g>
<g opacity="0.2">
<path d="M100.408 52.557C101.983 66.39 83.1518 65.8601 81.9183 51.644C85.7259 62.0865 98.3299 61.3129 99.6473 52.6977C100.125 52.6402 100.408 52.557 100.408 52.557Z" fill="#390075"/>
</g>
<path d="M92.8472 63.4005C91.2711 63.4005 89.3929 62.9857 87.1844 61.8839C87.1683 61.8758 87.1526 61.867 87.137 61.8578C84.2567 60.128 80.9925 55.224 81.2591 51.7286C81.388 50.0358 82.2891 48.8002 83.8645 48.1549C83.8706 48.1524 83.8767 48.15 83.8828 48.1478C88.9109 46.2542 91.1853 48.0342 93.385 49.7552C95.1817 51.1607 96.8801 52.4881 100.286 51.8751C100.655 51.807 101.012 52.0496 101.088 52.419C101.676 55.3206 100.683 59.4764 97.646 61.8053C96.5496 62.6461 94.973 63.4005 92.8472 63.4005ZM87.8277 60.6566C91.4161 62.4395 94.5191 62.4574 96.8033 60.7059C99.1419 58.9127 100.061 55.7259 99.8265 53.3436C96.2599 53.7623 94.2858 52.2183 92.5316 50.8463C90.4613 49.2266 88.6727 47.8275 84.3807 49.4408C83.2984 49.8868 82.7291 50.6698 82.6405 51.8341C82.4168 54.7642 85.3004 59.1231 87.8277 60.6566Z" fill="#390075"/>
<path d="M79.5425 81.61C76.6177 83.1892 73.5439 85.7331 71.5854 88.6856C69.3393 92.0693 68.5567 95.9899 71.1403 99.6108C70.9689 99.552 59.964 95.7076 58.5025 85.4231C58.0193 82.0255 58.7778 78.6159 60.5043 75.6443C63.8274 69.9176 70.7472 65.8135 79.3173 66.5529C89.3836 67.4205 91.2105 75.3101 79.5425 81.61Z" fill="white"/>
<path d="M79.5424 81.61C76.6176 83.1892 73.5439 85.7331 71.5853 88.6856C62.2896 87.7055 60.6394 80.1796 60.5043 75.6443C63.8274 69.9176 70.7472 65.8135 79.3173 66.5529C89.3836 67.4205 91.2105 75.3101 79.5424 81.61Z" fill="#FDC1E5"/>
<path d="M71.1419 100.305C71.0669 100.305 70.9912 100.293 70.9175 100.267C70.4451 100.106 59.3331 96.1839 57.8174 85.521C57.1331 80.7068 58.8062 75.7625 62.408 71.9561C66.6092 67.5161 72.7899 65.2947 79.3773 65.8621C84.2596 66.283 87.5516 68.3523 88.1834 71.398C88.9234 74.9639 85.8157 79.0093 79.8707 82.2195C75.9097 84.3584 71.4554 88.492 70.4324 92.9056C69.9075 95.171 70.3358 97.2918 71.7057 99.2095C71.8805 99.4544 71.8773 99.7845 71.6973 100.026C71.564 100.205 71.3562 100.305 71.1419 100.305ZM77.3628 67.1604C71.9246 67.1604 66.9197 69.2034 63.4141 72.9082C60.1043 76.4063 58.5645 80.9324 59.189 85.3262C60.2244 92.6099 66.3748 96.571 69.5191 98.1436C68.7779 96.4036 68.6306 94.5442 69.0828 92.5925C70.2798 87.4275 75.2876 83.1199 79.2125 81.0007C84.5891 78.0972 87.4356 74.6125 86.8269 71.6792C86.3264 69.2663 83.4968 67.6076 79.2581 67.2424C78.6221 67.1875 77.9893 67.1604 77.3628 67.1604Z" fill="#390075"/>
<g opacity="0.2">
<path d="M86.644 75.5747C85.4595 77.5679 83.1443 79.665 79.5424 81.6097C76.6176 83.1889 73.5438 85.7328 71.5853 88.6853C69.3392 92.069 68.5566 95.9896 71.1402 99.6105C71.0675 99.5863 69.038 98.878 66.6153 97.2814C64.1702 93.186 65.3045 89.1425 67.1712 86.19C68.5912 83.9457 73.4053 80.8493 77.0896 79.9403C83.8021 78.2842 84.6404 77.2164 86.644 75.5747Z" fill="#390075"/>
</g>
<g opacity="0.6">
<path d="M66.8453 72.6172C67.5264 71.2605 68.728 70.0543 73.1441 68.9713C76.3822 68.1772 79.4997 68.356 79.8164 69.1323C80.2293 70.1444 77.2638 71.3276 73.7254 72.2465C70.4915 73.0863 66.1643 73.9739 66.8453 72.6172Z" fill="white"/>
</g>
<g opacity="0.6">
<path d="M133.145 65.2807C132.938 64.3047 132.607 63.478 135.995 60.4454C138.479 58.2217 140.199 56.9082 140.843 57.4443C141.684 58.1433 140.739 60.5874 138.048 63.0623C135.589 65.3245 133.29 65.9602 133.145 65.2807Z" fill="white"/>
</g>
<g opacity="0.2">
<path d="M148.832 67.9331C146.638 72.3437 142.766 76.1292 138.608 79.2029C130.535 85.179 121.388 88.4778 121.388 88.4778L121.328 88.367C124.235 85.7487 130.898 80.9717 136.73 76.6546C140.888 73.5809 145.816 68.8424 146.922 65.095C147.938 61.6499 147.831 58.5803 146.713 56.2148C149.726 58.5162 151.274 63.0273 148.832 67.9331Z" fill="#390075"/>
</g>
<g opacity="0.2">
<path d="M80.9998 115.464C85.4918 121.478 92.6661 125.371 100.75 125.371C104.48 125.371 108.016 124.542 111.185 123.058C119.573 119.13 125.385 110.612 125.385 100.736C125.385 100.667 125.385 100.601 125.383 100.532C125.384 98.5499 125.289 96.8317 125.082 95.1216C125.001 94.6298 124.912 94.1321 124.812 93.6218C124.407 91.5491 123.844 89.6036 123.183 87.7686C122.932 87.8725 122.704 87.9652 122.501 88.0464C122.504 88.0452 122.508 88.0439 122.511 88.0426C122.521 88.1248 122.53 88.2074 122.54 88.2896C122.527 88.2083 122.515 88.1281 122.501 88.0464C122.91 90.4601 123.094 92.7017 123.092 95.4488C123.094 95.5181 123.094 95.5839 123.094 95.6531C123.094 105.529 117.283 114.047 108.894 117.975C105.725 119.458 102.189 120.288 98.4593 120.288C90.3758 120.288 83.2013 116.395 78.7094 110.381C78.1979 109.696 77.7216 108.983 77.2821 108.246C78.1214 110.871 79.3863 113.304 80.9998 115.464Z" fill="#390075"/>
</g>
</g>
<defs>
<clipPath id="clip0_47_15250">
<rect width="200" height="200" fill="white"/>
</clipPath>
</defs>
</svg>
