<svg width="180" height="180" viewBox="0 0 180 180" fill="none" xmlns="http://www.w3.org/2000/svg">
<path d="M88.9914 155.75C131.146 155.75 165.319 121.577 165.319 79.422C165.319 37.2674 131.146 3.09424 88.9914 3.09424C46.8367 3.09424 12.6636 37.2674 12.6636 79.422C12.6636 121.577 46.8367 155.75 88.9914 155.75Z" fill="#FFA33E"/>
<g opacity="0.3">
<path d="M165.319 79.4219C165.319 80.0628 165.313 80.7097 165.295 81.3506C164.275 40.083 130.502 6.93961 88.9914 6.93961C86.5227 6.93961 84.0836 7.0583 81.6802 7.28381C81.704 9.97801 78.9801 12.6307 75.1821 13.4199C71.307 14.227 67.6811 12.8206 66.7078 10.2391C36.0094 19.5976 13.5181 47.7799 12.6873 81.3387C12.6695 80.6978 12.6636 80.0569 12.6636 79.4101C12.6636 44.7771 35.7304 15.5326 67.3369 6.19782C71.2654 5.03468 75.3245 4.18013 79.4964 3.66978C82.606 3.27811 85.7809 3.08228 88.9973 3.08228C131.149 3.09414 165.319 37.2642 165.319 79.4219Z" fill="white"/>
</g>
<path d="M165.319 79.4222C165.319 121.58 131.149 155.75 88.9914 155.75C46.8336 155.75 12.6636 121.58 12.6636 79.4222C12.6636 77.0899 12.7704 74.7815 12.9722 72.5027C16.4734 111.414 49.1718 141.911 88.9973 141.911C128.823 141.911 161.521 111.414 165.017 72.5027C165.212 74.7815 165.319 77.0899 165.319 79.4222Z" fill="#F28920"/>
<path d="M88.9914 156.699C68.3517 156.699 48.9463 148.658 34.3478 134.066C19.7492 119.467 11.7141 100.062 11.7141 79.4221C11.7141 58.7823 19.7552 39.377 34.3478 24.7784C48.9463 10.1799 68.3517 2.14478 88.9914 2.14478C109.631 2.14478 129.036 10.1858 143.635 24.7784C158.234 39.377 166.269 58.7823 166.269 79.4221C166.269 100.062 158.228 119.467 143.635 134.066C129.036 148.658 109.631 156.699 88.9914 156.699ZM88.9914 4.04377C47.4271 4.04377 13.6131 37.8578 13.6131 79.4221C13.6131 120.986 47.4271 154.8 88.9914 154.8C130.556 154.8 164.37 120.986 164.37 79.4221C164.37 37.8578 130.556 4.04377 88.9914 4.04377Z" fill="#D17019"/>
<path d="M159.319 92.62C159.165 93.5754 158.975 94.5902 158.762 95.6702C156.708 105.871 149.563 111.378 142.982 123.841C138.935 131.508 127.66 137.626 123.055 140.469C120.58 142 117.096 142.848 113.927 145.679C105.702 153.032 115.227 177.428 102.605 176.882C91.638 176.407 100.13 148.415 90.3206 149.4C83.4308 150.094 86.7718 164.07 77.9118 163.571C73.3246 163.316 72.6421 157.922 70.9508 153.085C69.8945 150.059 68.4465 147.252 65.4081 146.047C63.2777 145.204 61.2363 144.439 59.2839 143.697C50.8393 140.469 44.2343 137.691 40.5135 131.205C32.87 117.871 26.6211 115.538 23.2148 106.138C19.577 96.1034 21.6897 89.1009 20.0874 76.8524C18.0519 61.2746 21.1497 53.2395 29.1017 44.7831C38.027 35.2999 39.8785 27.1877 48.1925 21.4254C55.5571 16.3218 66.5772 12.3874 76.808 11.064C86.7303 9.78217 94.7298 5.94264 110.284 10.0433C120.705 12.7909 128.128 23.3778 138.733 29.5199C149.338 35.656 155.254 46.9432 156.928 60.5447C157.503 65.2091 158.085 68.8766 158.589 71.9743C159.907 80.0688 160.678 84.3534 159.319 92.62Z" fill="#FF7033"/>
<path d="M160.002 83.1369C159.978 82.6265 159.954 82.1102 159.913 81.5999C159.699 78.698 159.201 75.7545 158.595 71.9922C152.085 75.5884 141.724 79.5407 128.538 78.6564C128.579 77.8731 128.603 77.0838 128.597 76.2827C128.532 53.2692 109.862 34.6294 86.8312 34.6294C63.7881 34.6294 45.0295 53.4176 45.0651 76.4607C45.0889 92.2402 53.8658 105.972 66.8027 113.058L60.6785 138.042C51.5692 134.576 44.442 131.864 40.5254 125.022C32.8819 111.687 26.633 109.355 23.2267 99.9549C19.5889 89.9199 21.7016 82.9233 20.0993 70.6688C19.856 68.8054 19.6839 67.0488 19.5889 65.3872C19.3634 68.7342 19.5296 72.4966 20.0993 76.8524C21.7016 89.1009 19.5889 96.0975 23.2267 106.138C26.633 115.539 32.8819 117.865 40.5254 131.205C44.2462 137.692 50.8452 140.469 59.2957 143.697C59.456 143.756 59.6162 143.822 59.7824 143.881C60.1088 144.006 60.4411 144.13 60.7734 144.261C61.1057 144.391 61.444 144.516 61.7763 144.647C62.0196 144.742 62.2689 144.836 62.5122 144.931C62.7792 145.032 63.0463 145.133 63.3133 145.24C64.0017 145.507 64.7079 145.78 65.42 146.059C65.515 146.095 65.6158 146.136 65.7108 146.184C65.7642 146.207 65.8176 146.231 65.8651 146.255C65.9482 146.29 66.0312 146.332 66.1084 146.373C66.1203 146.379 66.1321 146.385 66.144 146.391C66.2211 146.433 66.2983 146.474 66.3754 146.522C66.601 146.652 66.8205 146.789 67.0282 146.937C67.0638 146.961 67.0994 146.985 67.135 147.014C67.2181 147.074 67.3012 147.139 67.3784 147.204C67.4496 147.264 67.5208 147.323 67.5861 147.376C67.6988 147.471 67.8116 147.578 67.9124 147.679C67.9837 147.75 68.0489 147.816 68.1142 147.887C68.1558 147.928 68.1973 147.97 68.2329 148.017C68.4347 148.237 68.6246 148.468 68.8026 148.706C68.8501 148.765 68.8975 148.83 68.9391 148.896C68.9925 148.973 69.0459 149.05 69.0993 149.127C69.2061 149.287 69.307 149.447 69.4079 149.614C69.4554 149.691 69.5029 149.774 69.5503 149.857C69.6453 150.023 69.7402 150.195 69.8292 150.373C69.8767 150.456 69.9183 150.545 69.9598 150.634C70.0013 150.717 70.0429 150.812 70.0844 150.895C70.126 150.984 70.1675 151.073 70.209 151.162C70.2506 151.252 70.2921 151.341 70.3277 151.435C70.4049 151.614 70.482 151.797 70.5532 151.981C70.5888 152.076 70.6304 152.165 70.6601 152.26C70.7669 152.539 70.8737 152.818 70.9686 153.103C72.6599 157.94 73.3424 163.334 77.9296 163.589C86.7956 164.088 83.4545 150.112 90.3384 149.418C100.148 148.433 91.6558 176.425 102.623 176.9C115.239 177.446 105.72 153.05 113.945 145.697C117.114 142.86 120.598 142.012 123.072 140.487C127.677 137.638 138.953 131.52 143 123.858C149.581 111.396 156.726 105.889 158.779 95.6881C158.993 94.608 159.183 93.5932 159.337 92.6378C159.373 92.436 159.403 92.2283 159.432 92.0325C159.486 91.7002 159.533 91.3678 159.581 91.0474C159.634 90.6617 159.681 90.2878 159.723 89.9199C159.741 89.7715 159.759 89.6231 159.77 89.4807C159.812 89.095 159.854 88.7211 159.883 88.3532C159.895 88.2108 159.907 88.0683 159.919 87.9259C159.931 87.7835 159.943 87.647 159.949 87.5105C159.972 87.1307 159.996 86.7687 160.008 86.4008C160.02 86.1456 160.026 85.8904 160.032 85.6353C160.038 85.5166 160.038 85.4038 160.038 85.2911C160.038 85.1902 160.038 85.0952 160.038 84.9943C160.038 84.3594 160.026 83.7422 160.002 83.1369ZM142.982 117.663C138.935 125.324 127.66 131.443 123.055 134.291C120.58 135.822 115.975 136.724 112.842 139.596C104.219 147.507 112.925 170.716 102.605 170.704C91.6262 170.692 102.712 139.769 90.3206 143.222C83.6563 145.08 86.7719 157.892 77.9118 157.394C77.8228 157.388 77.7338 157.382 77.6448 157.37C74.0842 157.002 72.654 152.575 75.2117 150.071C77.1404 148.178 78.8376 145.448 78.5824 141.81C78.1552 135.858 76.2146 129.704 76.4639 123.758C76.6063 120.292 79.6684 117.693 83.1222 118.001C84.3447 118.108 85.585 118.167 86.8371 118.167C102.379 118.167 115.951 109.652 123.144 97.047C131.113 97.8482 146.43 98.495 157.664 93.433C154.774 101.32 148.667 106.892 142.982 117.663Z" fill="#FF7033"/>
<path d="M160.002 83.1371C159.978 82.6267 159.955 82.1105 159.913 81.6001C159.955 82.1105 159.984 82.6208 160.002 83.1371Z" fill="#FF7033"/>
<g opacity="0.5">
<path d="M159.996 86.3712C159.788 80.4962 158.328 75.0721 156.922 63.6782C155.248 50.0707 149.332 38.7894 138.727 32.6533C128.122 26.5112 120.693 15.9243 110.278 13.1767C94.7239 9.07608 86.7243 12.9156 76.8021 14.1974C66.5712 15.5208 55.5511 19.4553 48.1866 24.5588C39.8785 30.3152 38.021 38.4274 29.1017 47.9165C23.0842 54.3137 19.8441 60.4677 19.5117 69.8262C19.1972 58.6636 22.4552 51.8747 29.1076 44.795C38.0329 35.3119 39.8844 27.1996 48.1985 21.4374C55.563 16.3338 66.5831 12.3993 76.814 11.076C86.7362 9.79414 94.7357 5.9546 110.29 10.0552C120.71 12.8029 128.134 23.3898 138.739 29.5318C149.344 35.668 155.26 46.9551 156.934 60.5567C158.578 73.9209 160.305 79.066 159.996 86.3712Z" fill="white"/>
</g>
<g opacity="0.5">
<path d="M149.196 81.4813C151.961 83.7779 151.801 94.2698 145.807 93.7238C140.11 93.2076 146.679 79.3924 149.196 81.4813Z" fill="white"/>
</g>
<g opacity="0.5">
<path d="M129.042 33.3418C138.703 38.7124 151.462 60.2601 149.931 72.7222C148.193 86.8876 147.059 63.8148 133.547 46.6466C127.571 39.0507 122.259 29.5675 129.042 33.3418Z" fill="white"/>
</g>
<g opacity="0.5">
<path d="M36.6918 58.9189C40.4245 41.2226 57.5452 28.4282 71.0637 27.1404C81.8227 26.1138 62.0672 31.8404 48.6733 50.3794C43.0179 58.2127 35.0896 66.5149 36.6918 58.9189Z" fill="white"/>
</g>
<path d="M103.008 177.843C102.86 177.843 102.717 177.837 102.563 177.831C96.0947 177.553 95.5369 169.357 95.0443 162.129C94.7239 157.399 94.3915 152.51 92.4807 150.901C91.9407 150.444 91.2641 150.26 90.4155 150.349C88.024 150.593 87.1576 152.806 86.0182 156.426C84.8728 160.052 83.4545 164.538 78.3688 164.538C78.2026 164.538 78.0305 164.533 77.8584 164.527C73.4254 164.277 72.1258 160.046 70.8737 155.951C69.7224 152.195 68.5355 148.314 65.0639 146.937C63.4438 146.296 61.8712 145.697 60.3461 145.121C51.0944 141.602 43.7892 138.825 39.7004 131.686C36.1161 125.431 32.87 121.663 30.0096 118.339C26.8822 114.708 24.1821 111.568 22.3306 106.471C20.0577 100.192 19.9806 95.1361 19.8915 89.2848C19.8322 85.558 19.7729 81.7007 19.1616 76.9888C17.2151 62.0876 19.6364 53.4947 28.4252 44.148C32.2528 40.083 34.8105 36.1901 37.0715 32.7541C40.1574 28.0659 42.816 24.0187 47.6644 20.6598C55.0645 15.5266 66.1915 11.4972 76.7012 10.1382C79.0215 9.83556 81.1995 9.40236 83.502 8.94541C90.8606 7.47369 98.4685 5.95449 110.539 9.14124C116.918 10.8266 122.087 15.2418 127.553 19.9121C131.202 23.0277 134.971 26.25 139.22 28.7128C149.611 34.7302 156.067 45.7029 157.877 60.4438C158.489 65.4109 159.1 69.1555 159.634 72.4668C161.052 81.1844 161.758 85.558 159.693 95.8601C158.411 102.24 155.183 106.856 151.445 112.197C149.071 115.592 146.382 119.437 143.819 124.286C140.098 131.336 130.834 136.896 125.298 140.219C124.645 140.611 124.057 140.967 123.547 141.276C122.633 141.84 121.618 142.302 120.538 142.795C118.651 143.655 116.509 144.635 114.551 146.385C111.21 149.376 111.061 155.744 110.919 161.898C110.782 167.808 110.652 173.393 107.702 176.158C106.515 177.28 104.937 177.843 103.008 177.843ZM90.8191 148.433C91.9347 148.433 92.908 148.777 93.7091 149.453C96.2312 151.584 96.5754 156.646 96.9433 162.005C97.4003 168.752 97.875 175.731 102.652 175.938C104.272 176.01 105.507 175.63 106.415 174.775C108.788 172.556 108.907 167.357 109.032 161.856C109.186 155.299 109.34 148.516 113.298 144.973C115.47 143.032 117.749 141.988 119.761 141.068C120.782 140.599 121.749 140.16 122.562 139.656C123.078 139.335 123.672 138.979 124.33 138.582C129.345 135.573 138.674 129.965 142.151 123.39C144.768 118.434 147.492 114.536 149.896 111.1C153.658 105.717 156.631 101.468 157.836 95.4744C159.836 85.5106 159.147 81.2497 157.765 72.7576C157.248 69.5946 156.613 65.6601 155.996 60.6634C154.257 46.5337 148.127 36.0476 138.27 30.3388C133.867 27.7929 130.033 24.5112 126.318 21.3364C121.019 16.8084 116.01 12.5298 110.052 10.9572C98.4032 7.88316 91.0149 9.36082 83.8699 10.7851C81.6386 11.2301 79.3301 11.693 76.9445 12.0016C66.7077 13.3428 55.9072 17.2476 48.7385 22.2206C44.1987 25.3717 41.6291 29.2765 38.6501 33.7985C36.3475 37.2939 33.7423 41.258 29.8019 45.4477C22.651 53.0496 18.9302 60.604 21.0369 76.7396C21.6659 81.5642 21.7312 85.647 21.7846 89.2551C21.8736 94.9403 21.9448 99.842 24.1109 105.824C25.8378 110.595 28.3124 113.467 31.4398 117.099C34.3595 120.488 37.665 124.327 41.3383 130.742C45.0948 137.288 52.1211 139.964 61.0167 143.347C62.5418 143.928 64.1204 144.528 65.7582 145.175C70.0785 146.884 71.4612 151.406 72.6836 155.4C74.0307 159.791 75.0574 162.473 77.9593 162.634C81.7217 162.841 82.8255 160.212 84.2022 155.856C85.2408 152.569 86.4158 148.848 90.2197 148.462C90.4274 148.444 90.6232 148.433 90.8191 148.433Z" fill="#EC5F22"/>
<path d="M92.2171 22.8545C95.9991 22.1462 98.8908 20.6422 98.676 19.4954C98.4612 18.3486 95.2212 17.9931 91.4392 18.7015C87.6573 19.4099 84.7656 20.9138 84.9804 22.0606C85.1952 23.2075 88.4352 23.5629 92.2171 22.8545Z" fill="white"/>
<path d="M84.9738 22.0307C85.2765 23.633 88.4276 23.5262 92.2137 22.82C95.9939 22.1138 99.062 21.5381 98.6763 19.4671C98.5457 18.7846 98.1303 18.387 97.4894 18.1912C97.4775 19.9774 94.5519 20.5234 90.9972 21.188C88.5226 21.6509 86.3209 21.8586 85.0035 21.4966C84.9441 21.6687 84.9382 21.8467 84.9738 22.0307Z" fill="#D8D8D8"/>
<path d="M87.929 23.829C87.6917 23.829 87.4721 23.823 87.2585 23.8052C85.6206 23.6984 84.6948 23.1406 84.5108 22.1555C84.3269 21.1704 84.9856 20.3158 86.4751 19.6215C87.5967 19.0993 89.1931 18.6483 91.3472 18.2447C93.2225 17.8946 94.9969 17.5563 96.338 17.5919C97.9759 17.6275 98.9195 18.2388 99.1391 19.4197C99.3586 20.5947 98.6999 21.5086 97.1867 22.1377C95.9523 22.648 94.1779 22.9803 92.2967 23.3305C90.5164 23.6628 89.0744 23.829 87.929 23.829ZM96.1778 18.5355C94.9494 18.5355 93.2878 18.85 91.5253 19.1764C89.4779 19.5621 87.9112 20.0013 86.8787 20.482C85.8342 20.9686 85.3476 21.473 85.4425 21.9774C85.5375 22.4819 86.1665 22.7786 87.3178 22.8557C88.4572 22.9329 90.0773 22.7726 92.1246 22.3928C93.9524 22.0486 95.6793 21.7282 96.8247 21.2534C98.2074 20.6837 98.3023 20.0903 98.2074 19.5918C98.1124 19.0874 97.8157 18.5711 96.3202 18.5414C96.2728 18.5414 96.2253 18.5355 96.1778 18.5355Z" fill="#FF7236"/>
<path d="M152.842 59.7246C153.652 58.8852 152.065 56.0381 149.297 53.3655C146.529 50.6929 143.628 49.2067 142.818 50.0461C142.007 50.8855 143.594 53.7325 146.362 56.4052C149.13 59.0778 152.031 60.5639 152.842 59.7246Z" fill="white"/>
<path d="M142.846 50.0173C141.712 51.1924 143.629 53.7026 146.394 56.3731C149.16 59.0435 151.409 61.2155 152.875 59.6963C153.361 59.1978 153.439 58.6222 153.225 57.9872C151.759 59.0079 149.623 56.9428 147.018 54.4325C145.208 52.6878 143.766 51.0084 143.297 49.7266C143.131 49.7859 142.976 49.8809 142.846 50.0173Z" fill="#D8D8D8"/>
<path d="M151.741 60.7109C150.145 60.7109 148.204 58.8357 146.038 56.7408C144.46 55.2157 143.374 53.9635 142.727 52.9072C141.867 51.5067 141.783 50.4326 142.478 49.7145C143.172 48.9905 144.252 49.038 145.682 49.851C146.762 50.4623 148.05 51.5008 149.629 53.0259C152.501 55.7973 154.981 58.1947 153.189 60.0522C152.744 60.5151 152.264 60.7109 151.741 60.7109ZM143.736 50.1596C143.493 50.1596 143.303 50.2308 143.16 50.3792C142.804 50.7471 142.929 51.4355 143.534 52.4206C144.133 53.3938 145.196 54.6223 146.697 56.0702C149.605 58.8772 151.445 60.5032 152.507 59.4054C153.569 58.3075 151.878 56.5272 148.97 53.7202C147.469 52.2723 146.205 51.2515 145.214 50.6878C144.602 50.3317 144.11 50.1596 143.736 50.1596Z" fill="#FF7236"/>
<path d="M126.954 121.087C130.673 120.099 133.444 118.383 133.144 117.256C132.845 116.128 129.587 116.015 125.869 117.004C122.15 117.992 119.379 119.708 119.679 120.835C119.978 121.963 123.236 122.076 126.954 121.087Z" fill="white"/>
<path d="M119.672 120.808C120.093 122.387 123.233 122.043 126.948 121.058C130.668 120.066 133.683 119.265 133.143 117.23C132.965 116.559 132.514 116.197 131.861 116.043C131.98 117.823 129.102 118.589 125.612 119.515C123.179 120.161 121.001 120.529 119.66 120.268C119.619 120.446 119.625 120.624 119.672 120.808Z" fill="#D8D8D8"/>
<path d="M122.004 122.411C120.384 122.411 119.476 121.93 119.221 120.968C118.77 119.265 120.841 117.865 125.749 116.559C129.606 115.533 132.941 114.648 133.606 117.147C133.915 118.304 133.327 119.265 131.861 120.001C130.668 120.601 128.924 121.063 127.078 121.556C124.942 122.12 123.256 122.411 122.004 122.411ZM120.141 120.725C120.265 121.2 121.173 122.143 126.835 120.636C128.633 120.155 130.33 119.704 131.44 119.153C132.775 118.482 132.823 117.883 132.692 117.39C132.3 115.918 129.903 116.441 125.998 117.479C120.331 118.98 120.01 120.25 120.141 120.725Z" fill="#FF7236"/>
<path d="M113.707 111.505C116.543 108.904 118.203 106.099 117.414 105.239C116.625 104.379 113.687 105.79 110.851 108.391C108.016 110.992 106.356 113.797 107.145 114.657C107.933 115.517 110.872 114.106 113.707 111.505Z" fill="white"/>
<path d="M107.115 114.636C108.219 115.841 110.842 114.079 113.678 111.479C116.515 108.88 118.812 106.768 117.387 105.219C116.919 104.708 116.349 104.59 115.702 104.762C116.634 106.287 114.438 108.293 111.773 110.738C109.922 112.435 108.159 113.776 106.848 114.168C106.901 114.34 106.99 114.494 107.115 114.636Z" fill="#D8D8D8"/>
<path d="M108.064 115.533C107.548 115.533 107.127 115.349 106.789 114.981C106.112 114.239 106.219 113.171 107.121 111.794C107.797 110.756 108.913 109.527 110.527 108.05C111.934 106.756 113.263 105.539 114.414 104.857C115.827 104.02 116.948 104.044 117.755 104.928C118.562 105.812 118.491 106.934 117.536 108.263C116.758 109.349 115.488 110.512 114.017 111.859C111.334 114.328 109.388 115.533 108.064 115.533ZM107.489 114.346C107.821 114.708 109.061 115.123 113.382 111.159C114.752 109.901 116.046 108.714 116.77 107.705C117.643 106.489 117.405 105.937 117.061 105.563C116.717 105.189 116.189 104.904 114.901 105.67C113.833 106.305 112.539 107.492 111.168 108.75C109.631 110.156 108.539 111.361 107.91 112.316C107.287 113.284 107.145 113.966 107.489 114.346Z" fill="#FF7236"/>
<path d="M48.2771 84.0133C50.1317 80.6419 50.8088 77.4543 49.7893 76.8935C48.7699 76.3327 46.44 78.6111 44.5854 81.9825C42.7308 85.3539 42.0537 88.5415 43.0732 89.1023C44.0926 89.6631 46.4225 87.3847 48.2771 84.0133Z" fill="white"/>
<path d="M43.0357 89.0833C44.4658 89.8667 46.3886 87.3624 48.2401 83.9916C50.0916 80.6209 51.599 77.8852 49.7534 76.8704C49.1421 76.5322 48.5724 76.6093 48.0146 76.9772C49.3854 78.1226 47.9493 80.7277 46.2046 83.8967C44.994 86.0983 43.7537 87.9321 42.6381 88.7213C42.7389 88.8756 42.8695 88.9943 43.0357 89.0833Z" fill="#D8D8D8"/>
<path d="M43.641 89.73C43.3621 89.73 43.101 89.6588 42.8399 89.5164C41.9616 89.0357 41.7242 87.9794 42.1337 86.3889C42.4423 85.1902 43.1069 83.671 44.1632 81.7483C46.086 78.247 47.7476 75.2264 50.0145 76.4726C52.2755 77.7188 50.6139 80.7394 48.6912 84.2407C46.6557 87.9497 45.0237 89.73 43.641 89.73ZM49.0235 77.161C47.8663 77.161 46.6853 79.1431 45 82.2112C43.9971 84.0389 43.3443 85.5225 43.0594 86.6323C42.7746 87.7479 42.8577 88.4422 43.3087 88.6915C43.736 88.9288 45.0474 88.9229 47.8722 83.7897C49.8187 80.2469 50.9047 78.0452 49.5694 77.3094C49.3795 77.2085 49.2015 77.161 49.0235 77.161Z" fill="#FF7236"/>
<path d="M83.2426 138.893C83.7818 137.862 81.4549 135.581 78.0455 133.797C74.636 132.014 71.435 131.405 70.8958 132.436C70.3566 133.467 72.6835 135.748 76.093 137.531C79.5024 139.314 82.7035 139.924 83.2426 138.893Z" fill="white"/>
<path d="M70.9212 132.404C70.1675 133.852 72.7074 135.715 76.1197 137.501C79.5319 139.282 82.2974 140.73 83.2706 138.86C83.5911 138.243 83.508 137.674 83.1282 137.122C82.0125 138.516 79.3777 137.134 76.1731 135.46C73.9418 134.297 72.0843 133.092 71.2772 131.994C71.123 132.101 71.0043 132.232 70.9212 132.404Z" fill="#D8D8D8"/>
<path d="M81.7752 140.243C80.2619 140.243 78.173 139.151 75.8823 137.953C73.9359 136.938 72.5413 136.036 71.6215 135.211C70.399 134.113 70.0192 133.104 70.4821 132.214C71.301 130.653 73.7757 131.021 78.2739 133.371C79.9652 134.255 81.5675 135.092 82.6001 135.941C83.8641 136.979 84.2261 138.047 83.6742 139.11C83.2528 139.923 82.5941 140.243 81.7752 140.243ZM72.3395 132.232C71.6749 132.232 71.4197 132.469 71.3248 132.653C71.0874 133.11 71.4019 133.733 72.2565 134.505C73.1051 135.27 74.4759 136.148 76.3215 137.11C79.8999 138.985 82.1253 140.024 82.8315 138.671C83.0689 138.22 83.1519 137.626 81.9947 136.677C81.0393 135.887 79.4786 135.074 77.8348 134.214C74.8616 132.659 73.2297 132.232 72.3395 132.232Z" fill="#FF7236"/>
<path d="M61.1581 27.2633C64.2348 24.9523 66.1608 22.3226 65.4601 21.3897C64.7593 20.4567 61.6971 21.5738 58.6205 23.8847C55.5438 26.1957 53.6178 28.8254 54.3185 29.7584C55.0193 30.6913 58.0815 29.5742 61.1581 27.2633Z" fill="white"/>
<path d="M54.2931 29.7278C55.2723 31.0333 58.0555 29.5379 61.1295 27.2294C64.2035 24.9209 66.7019 23.0457 65.4378 21.3603C65.0224 20.8025 64.4705 20.6363 63.8059 20.7432C64.5833 22.3514 62.2036 24.1376 59.3136 26.3096C57.3018 27.8229 55.4147 28.9801 54.0795 29.2412C54.1032 29.4133 54.1744 29.5735 54.2931 29.7278Z" fill="#D8D8D8"/>
<path d="M55.391 30.7188C54.7619 30.7188 54.2753 30.4933 53.937 30.0423C53.3317 29.2411 53.5513 28.1848 54.578 26.903C55.3554 25.9357 56.5838 24.826 58.3344 23.5085C61.5271 21.111 64.2866 19.0399 65.8354 21.1051C66.5535 22.0605 66.3695 23.1703 65.2895 24.4046C64.4053 25.4075 63.0285 26.446 61.4381 27.6388C59.6815 28.9563 58.2751 29.8286 57.1297 30.3034C56.4651 30.5764 55.8835 30.7188 55.391 30.7188ZM64.1679 21.2238C63.0582 21.2238 61.3194 22.4522 58.9041 24.2681C57.2366 25.5203 56.0319 26.6063 55.3138 27.4964C54.5898 28.3984 54.3821 29.0631 54.6907 29.4726C54.9993 29.882 55.6996 29.8702 56.7618 29.4251C57.8181 28.9859 59.1949 28.1314 60.8624 26.8792C62.352 25.7636 63.7525 24.7073 64.5714 23.7756C65.5565 22.648 65.3785 22.0783 65.0699 21.6689C64.8444 21.3603 64.5418 21.2238 64.1679 21.2238Z" fill="#FF7236"/>
<path d="M133.44 33.8958C133.934 32.8386 131.508 30.6621 128.021 29.0345C124.535 27.4069 121.308 26.9446 120.815 28.0018C120.321 29.059 122.747 31.2354 126.234 32.863C129.72 34.4906 132.947 34.953 133.44 33.8958Z" fill="#35DCFF"/>
<path d="M133.463 33.8641C132.775 35.3417 129.743 34.4516 126.259 32.8255C122.776 31.1995 119.945 29.8762 120.835 27.9653C121.132 27.3363 121.636 27.0573 122.301 27.0217C121.868 28.7546 124.568 30.0126 127.844 31.5437C130.122 32.606 132.205 33.3537 133.57 33.3359C133.576 33.5139 133.541 33.692 133.463 33.8641Z" fill="#1EABF9"/>
<path d="M131.903 35.1221C131.576 35.1221 131.208 35.0864 130.805 35.0093C129.588 34.7779 128.028 34.22 126.04 33.2883C124.307 32.4813 122.675 31.7157 121.601 30.9146C120.289 29.9295 119.88 28.885 120.384 27.799C120.889 26.7131 121.957 26.3511 123.553 26.7309C124.853 27.0394 126.491 27.799 128.223 28.6061C130.211 29.5319 131.642 30.3686 132.603 31.152C133.873 32.1964 134.3 33.1815 133.873 34.0954C133.558 34.7779 132.894 35.1221 131.903 35.1221ZM122.42 27.5261C121.684 27.5261 121.411 27.8525 121.251 28.1967C121.037 28.6595 120.978 29.253 122.176 30.155C123.167 30.8968 124.758 31.6386 126.443 32.4278C128.33 33.3121 129.861 33.864 130.983 34.0776C132.116 34.2912 132.805 34.1607 133.018 33.6978C133.238 33.229 132.894 32.6237 132.004 31.8938C131.119 31.1698 129.713 30.3508 127.826 29.4725C126.14 28.6833 124.55 27.9415 123.339 27.6566C122.971 27.5676 122.669 27.5261 122.42 27.5261Z" fill="#FF7236"/>
<path d="M110.288 38.8611C110.78 37.8069 108.353 35.6328 104.866 34.0052C101.38 32.3776 98.1545 31.9129 97.6624 32.9671C97.1702 34.0213 99.5976 36.1954 103.084 37.823C106.57 39.4506 109.796 39.9154 110.288 38.8611Z" fill="#35DCFF"/>
<path d="M110.314 38.8252C109.625 40.3029 106.593 39.4127 103.109 37.7867C99.6257 36.1607 96.795 34.8373 97.6852 32.9265C97.9819 32.2974 98.4863 32.0185 99.151 31.9829C98.7178 33.7157 101.418 34.9738 104.694 36.5049C106.972 37.5671 109.055 38.3149 110.42 38.2971C110.432 38.481 110.397 38.6531 110.314 38.8252Z" fill="#1EABF9"/>
<path d="M108.753 40.0892C108.426 40.0892 108.058 40.0536 107.655 39.9764C106.438 39.745 104.878 39.1872 102.89 38.2555C99.2697 36.5642 96.1482 35.1103 97.2401 32.7662C98.3321 30.4281 101.459 31.882 105.074 33.5733C107.062 34.499 108.492 35.3358 109.453 36.125C110.723 37.1695 111.15 38.1546 110.723 39.0685C110.408 39.745 109.744 40.0892 108.753 40.0892ZM99.2875 32.4991C98.7119 32.4991 98.3143 32.7009 98.1006 33.1638C97.4538 34.5465 99.6317 35.6859 103.293 37.395C105.18 38.2792 106.711 38.8311 107.833 39.0447C108.966 39.2584 109.655 39.1278 109.868 38.6649C110.088 38.1961 109.744 37.5908 108.854 36.8609C107.969 36.1369 106.563 35.318 104.676 34.4397C102.243 33.2943 100.421 32.4991 99.2875 32.4991Z" fill="#FF7236"/>
<path d="M154.263 96.3678C154.295 92.5201 153.378 89.3929 152.215 89.383C151.051 89.3732 150.082 92.4844 150.049 96.3321C150.017 100.18 150.933 103.307 152.097 103.317C153.26 103.327 154.23 100.216 154.263 96.3678Z" fill="#35DCFF"/>
<path d="M152.169 89.386C153.801 89.3979 154.252 92.5253 154.216 96.3707C154.186 100.216 154.157 103.338 152.05 103.32C151.356 103.314 150.893 102.97 150.584 102.376C152.341 102.05 152.365 99.0709 152.394 95.4568C152.418 92.9407 152.228 90.7331 151.646 89.5047C151.807 89.4275 151.979 89.386 152.169 89.386Z" fill="#1EABF9"/>
<path d="M152.109 103.801C152.103 103.801 152.091 103.801 152.086 103.801C149.504 103.777 149.534 100.329 149.563 96.3351C149.581 94.1394 149.747 92.4896 150.062 91.2968C150.483 89.7123 151.189 88.9053 152.21 88.9171C153.973 88.9349 154.774 91.3027 154.732 96.3826C154.714 98.2934 154.703 100.097 154.418 101.403C154.068 102.993 153.296 103.801 152.109 103.801ZM152.198 89.8666C151.688 89.8666 151.278 90.4304 150.982 91.5401C150.691 92.6439 150.531 94.264 150.513 96.3469C150.477 100.388 150.566 102.839 152.091 102.857C152.602 102.851 153.166 102.667 153.486 101.207C153.747 99.9966 153.765 98.24 153.783 96.3766C153.83 90.5135 152.697 89.8726 152.204 89.8666H152.198Z" fill="#FF7236"/>
<path d="M30.6841 82.4381C32.7246 79.176 33.5768 76.0299 32.5876 75.4112C31.5984 74.7924 29.1424 76.9353 27.1019 80.1974C25.0615 83.4595 24.2092 86.6056 25.1984 87.2243C26.1876 87.8431 28.6436 85.7002 30.6841 82.4381Z" fill="#35DCFF"/>
<path d="M32.5555 75.3867C33.9382 76.2531 32.6861 79.1491 30.6447 82.413C28.6032 85.6769 26.9476 88.3236 25.1613 87.202C24.5738 86.8341 24.3542 86.3 24.4077 85.6294C26.0752 86.2703 27.6537 83.7423 29.5705 80.6801C30.9058 78.5497 31.9028 76.5676 32.0452 75.2146C32.2232 75.2265 32.3953 75.2858 32.5555 75.3867Z" fill="#1EABF9"/>
<path d="M26.0336 87.9557C25.6657 87.9557 25.2978 87.8429 24.9476 87.6233C23.9329 86.9883 23.7074 85.8846 24.2711 84.3476C24.734 83.0895 25.6894 81.5643 26.7042 79.9443C29.3984 75.6418 31.3449 74.0692 32.8404 75.0069C34.3358 75.9445 33.778 78.3835 31.0838 82.6859C30.0275 84.3772 29.1136 85.8371 28.1878 86.7984C27.446 87.5699 26.728 87.9557 26.0336 87.9557ZM31.9799 75.7131C31.339 75.7131 30.0037 76.4489 27.5054 80.4487C26.5203 82.0272 25.5886 83.5167 25.1613 84.6799C24.645 86.0863 25.0189 86.5492 25.4521 86.8222C25.8853 87.0952 26.4668 87.2257 27.5054 86.1457C28.3658 85.2496 29.2975 83.76 30.2826 82.1874C33.3923 77.2204 32.7573 76.075 32.3419 75.8139C32.2529 75.7546 32.1401 75.7131 31.9799 75.7131Z" fill="#FF7236"/>
<path d="M44.8687 109.698C45.4428 108.686 43.1951 106.327 39.8483 104.428C36.5016 102.53 33.3231 101.811 32.749 102.823C32.175 103.835 34.4227 106.195 37.7694 108.093C41.1162 109.991 44.2947 110.71 44.8687 109.698Z" fill="#35DCFF"/>
<path d="M44.8931 109.658C44.086 111.076 41.1366 109.949 37.7897 108.055C34.4427 106.156 31.7307 104.619 32.7692 102.786C33.1134 102.18 33.6356 101.943 34.3062 101.961C33.7424 103.652 36.3298 105.124 39.475 106.904C41.6648 108.144 43.6825 109.058 45.0414 109.141C45.0355 109.319 44.9821 109.492 44.8931 109.658Z" fill="#1EABF9"/>
<path d="M43.5401 110.803C43.1366 110.803 42.6678 110.732 42.1515 110.589C40.9527 110.263 39.4454 109.58 37.5346 108.5C34.063 106.53 31.0602 104.827 32.3361 102.578C33.6119 100.329 36.6088 102.032 40.0863 104.002C44.5015 106.506 46.1572 108.388 45.2848 109.925C44.9525 110.512 44.3709 110.803 43.5401 110.803ZM34.2291 102.471C33.7484 102.471 33.3924 102.649 33.1669 103.047C32.4132 104.376 34.4962 105.682 38.0093 107.675C39.8252 108.702 41.3029 109.379 42.4067 109.675C43.5223 109.978 44.2107 109.907 44.4659 109.456C44.7092 109.029 44.7211 107.723 39.6234 104.827C37.1607 103.438 35.3507 102.471 34.2291 102.471Z" fill="#FF7236"/>
<path d="M71.5263 120.233C75.2894 119.43 78.143 117.856 77.9001 116.718C77.6572 115.58 74.4096 115.309 70.6466 116.113C66.8835 116.916 64.0298 118.49 64.2728 119.628C64.5157 120.766 67.7632 121.037 71.5263 120.233Z" fill="#35DCFF"/>
<path d="M77.8823 116.678C78.2205 118.274 75.2712 119.39 71.5088 120.191C67.7464 120.992 64.6961 121.645 64.251 119.586C64.1086 118.903 64.3401 118.381 64.8564 117.948C65.5566 119.592 68.4644 118.968 72.0013 118.215C74.4581 117.693 76.5767 117.028 77.6508 116.191C77.7636 116.334 77.8407 116.494 77.8823 116.678Z" fill="#1EABF9"/>
<path d="M66.6129 121.479C64.9928 121.479 64.0433 120.891 63.7941 119.722C63.5448 118.553 64.1798 117.621 65.6753 116.957C66.8978 116.417 68.6662 116.037 70.5296 115.639C72.6778 115.182 74.3217 114.987 75.5619 115.034C77.2058 115.099 78.1434 115.633 78.3511 116.613C78.5588 117.592 77.9238 118.464 76.4521 119.194C75.3424 119.746 73.7579 120.238 71.6156 120.695C69.7463 121.093 67.9838 121.473 66.6426 121.479C66.6367 121.479 66.6248 121.479 66.6129 121.479ZM75.1881 115.978C74.0724 115.978 72.577 116.173 70.7373 116.571C68.9154 116.957 67.2004 117.325 66.0669 117.829C64.6961 118.434 64.619 119.028 64.7258 119.526C64.8326 120.025 65.1412 120.529 66.6129 120.529C66.6248 120.529 66.6307 120.529 66.6426 120.529C67.8829 120.523 69.5979 120.155 71.4198 119.77C73.4612 119.336 75.01 118.856 76.0367 118.345C77.0693 117.829 77.5381 117.319 77.4313 116.814C77.3244 116.31 76.6835 116.031 75.5323 115.984C75.4195 115.984 75.3008 115.978 75.1881 115.978Z" fill="#FF7236"/>
<path d="M133.041 63.5103C136.327 61.508 138.5 59.0793 137.894 58.0858C137.289 57.0923 134.134 57.9101 130.849 59.9125C127.563 61.9149 125.391 64.3435 125.996 65.337C126.601 66.3305 129.756 65.5127 133.041 63.5103Z" fill="#35DCFF"/>
<path d="M137.879 58.0642C138.727 59.4588 136.312 61.4883 133.024 63.4882C129.737 65.4881 127.072 67.1141 125.974 65.316C125.612 64.7226 125.66 64.1469 126.004 63.5713C127.209 64.8887 129.749 63.3399 132.834 61.4587C134.983 60.1472 136.757 58.8297 137.493 57.6785C137.653 57.7734 137.778 57.898 137.879 58.0642Z" fill="#1EABF9"/>
<path d="M127.41 66.5978C126.609 66.5978 125.998 66.2655 125.594 65.5949C124.971 64.5742 125.262 63.4823 126.455 62.3666C127.428 61.4527 128.971 60.5151 130.603 59.5181C132.478 58.3787 133.962 57.6429 135.149 57.2809C136.721 56.8002 137.778 56.9901 138.3 57.8506C139.22 59.3579 137.623 61.2866 133.291 63.9333C131.588 64.9718 130.116 65.8679 128.858 66.313C128.324 66.5029 127.838 66.5978 127.41 66.5978ZM136.632 57.9693C136.312 57.9693 135.908 58.0405 135.428 58.1888C134.336 58.5212 132.876 59.2392 131.096 60.3252C129.505 61.2925 128.01 62.2064 127.102 63.055C126.01 64.0817 126.135 64.6632 126.402 65.1024C126.669 65.5415 127.131 65.9213 128.538 65.4169C129.707 65.0015 131.208 64.0876 132.793 63.1203C137.796 60.07 137.742 58.7645 137.487 58.3431C137.339 58.0939 137.054 57.9693 136.632 57.9693Z" fill="#FF7236"/>
<path d="M76.3442 36.503C76.4527 35.3446 73.4615 34.1173 69.6634 33.7617C65.8652 33.4061 62.6982 34.0569 62.5898 35.2153C62.4813 36.3737 65.4725 37.601 69.2706 37.9566C73.0688 38.3122 76.2358 37.6614 76.3442 36.503Z" fill="#FFFC35"/>
<path d="M76.3453 36.4988C76.191 38.1248 73.0695 38.3088 69.2715 37.9528C65.4735 37.5967 62.3936 37.3118 62.5894 35.2111C62.6547 34.5168 63.0345 34.0835 63.6457 33.8284C63.8178 35.6027 66.7553 35.8757 70.3219 36.214C72.8025 36.4454 74.9982 36.4454 76.2622 35.9647C76.3393 36.1309 76.3631 36.3089 76.3453 36.4988Z" fill="#FFC136"/>
<path d="M72.1437 38.5818C71.3011 38.5818 70.3338 38.5283 69.23 38.4275C65.2895 38.0595 61.8832 37.7391 62.1206 35.1636C62.3639 32.588 65.7643 32.9085 69.7106 33.2764C72.8677 33.5732 77.0337 34.2319 76.82 36.5344C76.7251 37.5314 75.8646 38.1723 74.2564 38.4275C73.657 38.5283 72.9567 38.5818 72.1437 38.5818ZM65.9067 33.9826C64.168 33.9826 63.1591 34.2912 63.0701 35.2526C62.9277 36.7718 65.337 37.11 69.319 37.478C71.3723 37.6679 72.9864 37.6797 74.1021 37.4958C75.2296 37.3118 75.829 36.9617 75.8764 36.4454C75.9239 35.9588 75.4076 34.76 69.6276 34.22C68.1618 34.0894 66.9096 33.9826 65.9067 33.9826Z" fill="#FF7236"/>
<path d="M147.781 84.3011C148.679 83.5613 147.441 80.5744 145.015 77.6297C142.589 74.6849 139.895 72.8974 138.997 73.6371C138.099 74.3769 139.337 77.3638 141.763 80.3085C144.188 83.2533 146.883 85.0408 147.781 84.3011Z" fill="#FFFC35"/>
<path d="M147.771 84.2942C146.513 85.3327 144.175 83.2497 141.754 80.3063C139.327 77.3628 137.362 74.9772 138.988 73.636C139.528 73.191 140.098 73.1554 140.715 73.4105C139.582 74.7873 141.451 77.0602 143.73 79.8256C145.314 81.7483 146.863 83.3091 148.092 83.8669C148.026 84.033 147.92 84.1755 147.771 84.2942Z" fill="#FFC136"/>
<path d="M147.012 85.0419C145.273 85.0419 143.036 82.6088 141.386 80.603C140.181 79.1432 139.042 77.7604 138.431 76.5854C137.677 75.1434 137.766 74.0277 138.686 73.2622C140.68 71.6184 142.852 74.2592 145.374 77.3154C146.756 78.9948 147.682 80.3538 148.199 81.4694C148.887 82.9471 148.845 84.0212 148.068 84.6562C147.753 84.9232 147.391 85.0419 147.012 85.0419ZM139.991 73.7369C139.742 73.7369 139.511 73.82 139.291 73.9981C138.893 74.3245 138.585 74.8348 139.273 76.1463C139.843 77.2323 140.947 78.5794 142.122 80.0036C145.813 84.4841 147.095 84.2408 147.475 83.9263C147.872 83.5999 147.831 82.9055 147.35 81.873C146.869 80.8463 145.961 79.517 144.65 77.9266C142.567 75.4045 141.101 73.7369 139.991 73.7369Z" fill="#FF7236"/>
<path d="M41.197 56.3613C44.5934 54.6243 46.9174 52.3765 46.3876 51.3407C45.8579 50.3048 42.6751 50.8731 39.2786 52.6101C35.8822 54.347 33.5582 56.5949 34.088 57.6307C34.6177 58.6666 37.8005 58.0982 41.197 56.3613Z" fill="#FFFC35"/>
<path d="M46.3944 51.3408C47.1362 52.7947 44.6023 54.6284 41.2078 56.3613C37.8134 58.1 35.0598 59.5065 34.0985 57.6312C33.7839 57.014 33.867 56.4443 34.2527 55.8984C35.3506 57.3048 37.9795 55.9577 41.1663 54.3317C43.3857 53.1982 45.2373 52.0232 46.0503 50.9373C46.1927 51.0381 46.3054 51.1746 46.3944 51.3408Z" fill="#FFC136"/>
<path d="M35.594 58.9961C34.7572 58.9961 34.0926 58.6697 33.6712 57.8448C32.4962 55.5423 35.5406 53.9875 39.0656 52.1835C41.0061 51.1924 42.5313 50.5812 43.73 50.3141C45.3204 49.9581 46.3589 50.2311 46.8159 51.1271C47.2728 52.0173 46.8871 53.0202 45.6646 54.1003C44.7448 54.9192 43.3561 55.7975 41.4215 56.7826C39.1546 57.9398 37.0954 58.9961 35.594 58.9961ZM44.9465 51.1093C44.6617 51.1093 44.3234 51.1509 43.9318 51.2399C42.828 51.4891 41.3325 52.0885 39.4929 53.0261C35.9322 54.848 33.8196 56.0527 34.5139 57.4116C35.2082 58.7706 37.4218 57.7618 40.9824 55.9399C42.822 55.0023 44.181 54.1418 45.0296 53.3881C45.8842 52.6285 46.1987 52.0114 45.9613 51.5544C45.8189 51.2577 45.4747 51.1093 44.9465 51.1093Z" fill="#FF7236"/>
<path d="M94.5783 129.315C95.5282 128.643 94.5125 125.574 92.3097 122.459C90.107 119.345 87.5513 117.364 86.6014 118.036C85.6515 118.708 86.6672 121.778 88.8699 124.892C91.0727 128.007 93.6284 129.987 94.5783 129.315Z" fill="#FFFC35"/>
<path d="M94.5873 129.318C93.258 130.261 91.0801 128.012 88.8785 124.897C86.6768 121.781 84.8906 119.259 86.6116 118.043C87.1813 117.639 87.7569 117.645 88.3503 117.948C87.116 119.235 88.8191 121.645 90.8902 124.57C92.3323 126.606 93.7565 128.273 94.9493 128.92C94.8603 129.075 94.7416 129.211 94.5873 129.318Z" fill="#FFC136"/>
<path d="M93.905 130.012C92.1424 130.012 90.0239 127.342 88.4869 125.17C86.2021 121.936 84.226 119.146 86.3327 117.651C88.4394 116.161 90.4156 118.951 92.7062 122.185C93.9643 123.959 94.7832 125.383 95.2224 126.535C95.798 128.06 95.6793 129.128 94.8604 129.704C94.5577 129.917 94.2373 130.012 93.905 130.012ZM87.5196 118.215C87.3 118.215 87.0864 118.286 86.8846 118.428C85.6384 119.307 86.9499 121.354 89.2643 124.624C92.6172 129.365 93.9109 129.217 94.3144 128.932C94.7358 128.635 94.7417 127.941 94.3382 126.873C93.9346 125.817 93.1276 124.422 91.9347 122.737C90.0001 120.007 88.6412 118.215 87.5196 118.215Z" fill="#FF7236"/>
<path d="M119.022 134.412C119.327 133.289 116.59 131.568 112.908 130.567C109.227 129.566 105.995 129.665 105.69 130.788C105.385 131.911 108.122 133.632 111.803 134.633C115.485 135.634 118.716 135.535 119.022 134.412Z" fill="#35DCFF"/>
<path d="M119.019 134.422C118.592 135.994 115.482 135.644 111.803 134.641C108.124 133.638 105.139 132.831 105.691 130.796C105.875 130.125 106.32 129.763 106.967 129.615C106.836 131.395 109.679 132.167 113.138 133.11C115.542 133.763 117.708 134.143 119.037 133.882C119.073 134.06 119.067 134.238 119.019 134.422Z" fill="#1EABF9"/>
<path d="M116.717 135.976C116.687 135.976 116.651 135.976 116.622 135.976C115.393 135.959 113.773 135.674 111.672 135.104C107.851 134.066 104.551 133.169 105.228 130.677C105.904 128.185 109.204 129.081 113.025 130.119C116.088 130.95 120.081 132.315 119.47 134.552C119.215 135.496 118.289 135.976 116.717 135.976ZM107.774 130.018C106.877 130.018 106.326 130.279 106.148 130.926C105.75 132.398 108.064 133.14 111.922 134.19C113.916 134.73 115.5 135.015 116.634 135.027C117.767 135.033 118.426 134.796 118.556 134.297C118.687 133.822 118.378 132.552 112.776 131.033C110.616 130.44 108.913 130.018 107.774 130.018Z" fill="#FF7236"/>
<path d="M132.556 98.2736C136.193 97.1226 138.857 95.2903 138.506 94.1811C138.155 93.0718 134.922 93.1056 131.284 94.2566C127.647 95.4075 124.983 97.2398 125.334 98.3491C125.685 99.4584 128.918 99.4246 132.556 98.2736Z" fill="#FFFC35"/>
<path d="M138.508 94.1809C139 95.7357 136.193 97.1243 132.561 98.2756C128.924 99.4269 125.974 100.359 125.339 98.3468C125.132 97.6822 125.31 97.1362 125.779 96.6615C126.633 98.2281 129.44 97.338 132.858 96.2579C135.232 95.5043 137.256 94.6497 138.235 93.718C138.359 93.8486 138.448 93.9969 138.508 94.1809Z" fill="#FFC136"/>
<path d="M127.25 99.9966C126.081 99.9966 125.233 99.593 124.882 98.4892C124.52 97.3498 125.055 96.3647 126.473 95.5636C127.63 94.9108 129.256 94.3945 131.137 93.8011C133.208 93.1424 134.817 92.7922 136.045 92.727C137.671 92.6379 138.65 93.083 138.953 94.0385C139.255 94.9939 138.71 95.9197 137.327 96.7861C136.282 97.4389 134.769 98.0738 132.698 98.7325C130.621 99.3853 128.692 99.9966 127.25 99.9966ZM136.454 93.6646C136.342 93.6646 136.223 93.6705 136.098 93.6765C134.965 93.7358 133.398 94.0859 131.428 94.709C129.672 95.2669 128.01 95.7891 126.942 96.3944C125.654 97.1243 125.636 97.7178 125.79 98.2103C126.253 99.6642 128.597 99.0352 132.413 97.8305C134.383 97.2074 135.867 96.5843 136.828 95.9849C137.796 95.3796 138.211 94.8218 138.051 94.3292C137.914 93.8842 137.38 93.6646 136.454 93.6646Z" fill="#FF7236"/>
<g opacity="0.5">
<path d="M103.222 154.48C101.816 154.48 99.5665 168.153 104.029 167.541C107.352 167.084 104.629 154.48 103.222 154.48Z" fill="white"/>
</g>
<g opacity="0.5">
<path d="M77.9179 147.507C76.5114 147.507 73.9715 158.307 78.4401 157.69C81.7574 157.233 79.3243 147.507 77.9179 147.507Z" fill="white"/>
</g>
<g opacity="0.5">
<path d="M103.192 147.507C101.602 147.507 99.8156 152.782 103.453 152.545C106.159 152.367 104.344 147.507 103.192 147.507Z" fill="white"/>
</g>
<path d="M74.7428 115.794C71.4077 125.496 73.5738 135.282 74.0604 138.991C74.3512 141.217 74.0248 143.911 73.0219 146.314C72.375 147.875 71.4374 149.317 70.209 150.427C66.7908 153.507 54.4948 153.145 51.4267 149.222C48.964 146.077 52.3762 143.596 51.5157 142.344C48.4299 137.875 47.2727 132.386 47.5635 126.701C48.0026 118.31 51.5988 109.491 56.8507 102.863C59.8832 99.035 63.4676 95.9373 67.319 94.0798L81.4961 104.916C78.1432 108.293 76.0306 112.037 74.7428 115.794Z" fill="white"/>
<path d="M73.0219 146.314C72.375 147.875 71.4374 149.317 70.209 150.427C66.7908 153.507 54.4948 153.145 51.4267 149.222C48.964 146.077 52.3762 143.596 51.5157 142.344C48.4299 137.876 47.2727 132.386 47.5635 126.701C48.3824 130.689 50.1746 137.976 52.4 138.214C53.9904 138.38 55.563 136.707 55.7054 136.962C55.8538 137.211 53.0943 139.608 54.0735 140.309C55.0348 140.997 56.8804 140.623 56.8507 141.062C56.8151 141.501 54.6194 141.395 53.6818 143.994C52.8094 146.427 55.5392 149.519 63.8236 149.311C68.0608 149.198 71.0695 148.065 73.0219 146.314Z" fill="#DDDDDD"/>
<path d="M81.4962 104.916C78.1433 108.293 76.0366 112.037 74.7429 115.788C65.9838 112.488 60.0673 106.732 56.8508 102.857C59.8833 99.0292 63.4676 95.9314 67.3191 94.074L81.4962 104.916Z" fill="#DDDDDD"/>
<path d="M61.984 153.435C61.177 153.435 60.3936 153.4 59.6696 153.334C57.6579 153.162 52.7502 152.468 50.6731 149.809C48.792 147.4 49.7593 145.193 50.3349 143.875C50.4832 143.543 50.7028 143.038 50.7028 142.848C46.4182 136.611 45.4153 128.048 47.8781 118.731C50.8868 107.361 58.3522 97.3497 66.8977 93.2253C67.3724 92.9998 67.9362 93.1956 68.1617 93.6704C68.3872 94.1451 68.1914 94.7089 67.7166 94.9344C59.7705 98.768 52.5365 108.524 49.7058 119.212C47.3796 128.001 48.2935 136.024 52.2814 141.804C52.9045 142.712 52.4594 143.733 52.0618 144.635C51.498 145.917 50.9699 147.127 52.1567 148.64C53.2665 150.059 56.204 151.133 59.8239 151.447C63.9602 151.809 68.0549 151.085 69.5563 149.726C72.5888 146.991 73.5205 142.308 73.105 139.116C73.0457 138.683 72.9686 138.166 72.8736 137.573C71.8588 131.015 69.4851 115.657 80.8019 104.251C81.1698 103.877 81.7692 103.877 82.1431 104.245C82.5169 104.613 82.5169 105.213 82.149 105.587C71.5028 116.31 73.7756 131.003 74.7489 137.282C74.8438 137.893 74.9269 138.421 74.9862 138.872C75.4669 142.54 74.3691 147.946 70.8262 151.139C68.9391 152.848 65.2598 153.435 61.984 153.435Z" fill="#371A45"/>
<path d="M161.195 60.355C155.664 76.0929 137.202 93.807 111.233 94.3233L105.002 71.6659C112.331 71.1733 119.221 69.0547 125.191 66.2537C129.244 64.3547 132.882 62.1412 135.944 59.9218C141.332 56.0051 145.908 50.3259 147 47.9818C150.056 41.4421 159.604 40.5401 163.42 44.1304C164.275 44.9375 165.022 45.7802 165.622 46.6525C168.524 50.8719 168.102 55.7558 161.195 60.355Z" fill="white"/>
<path d="M161.195 60.355C155.664 76.0929 137.202 93.807 111.233 94.3233L105.002 71.6659C112.331 71.1733 119.221 69.0547 125.191 66.2537C126.651 73.9565 123.779 83.9975 129.802 83.9975C140.336 83.9975 152.181 66.0935 150.05 52.3554C150.05 52.3554 152.293 55.2099 157.925 56.0407C162.055 56.6519 166.88 52.4801 165.616 46.6584C168.524 50.8718 168.102 55.7558 161.195 60.355Z" fill="#DDDDDD"/>
<path d="M111.227 95.2728C110.711 95.2728 110.29 94.8634 110.278 94.3411C110.266 93.8189 110.681 93.3857 111.21 93.3739C135.914 92.8813 154.602 76.2295 160.299 60.0405L160.406 59.7438L160.667 59.5658C164.215 57.198 166.132 54.6818 166.346 52.0766C166.595 49.0976 164.536 46.4805 162.767 44.813C161.106 43.2463 158.05 42.6113 154.993 43.1988C151.7 43.8279 149.101 45.715 147.86 48.3736C146.691 50.8838 141.967 56.7054 136.502 60.6814C130.941 64.7227 119.458 71.6422 105.068 72.6095C104.545 72.6451 104.094 72.2475 104.059 71.7253C104.023 71.2031 104.421 70.7521 104.943 70.7165C118.859 69.7848 129.992 63.0671 135.392 59.1445C140.781 55.2278 145.19 49.6139 146.145 47.5724C147.647 44.356 150.744 42.0891 154.643 41.3414C158.334 40.6352 161.948 41.4363 164.073 43.4362C167.052 46.2372 168.494 49.2815 168.245 52.2369C167.984 55.3761 165.877 58.3136 161.99 60.9663C155.955 77.6775 136.674 94.7625 111.257 95.2669C111.245 95.2728 111.239 95.2728 111.227 95.2728Z" fill="#371A45"/>
<path d="M142.341 85.1131C142.235 85.1131 142.128 85.0953 142.027 85.0596C130.111 80.8462 130.651 63.4942 130.68 62.7583C130.698 62.2361 131.149 61.8385 131.665 61.8504C132.188 61.8682 132.597 62.3132 132.579 62.8355C132.573 63.0016 132.069 79.5288 142.662 83.2734C143.154 83.4455 143.415 83.9915 143.237 84.484C143.101 84.8697 142.733 85.1131 142.341 85.1131Z" fill="#371A45"/>
<path d="M149.878 55.7321C150.727 51.4772 148.632 47.97 148.632 47.97C149.237 43.6616 147.095 40.4986 144.567 42.1958C142.561 43.5429 141.623 47.9937 141.677 51.1983C141.724 54.1773 141.107 55.7796 138.965 57.6252C138.294 58.2067 137 59.1681 136.063 59.7972" fill="white"/>
<path d="M149.415 55.637C149.445 53.2811 148.905 50.9964 147.979 48.8422C147.92 48.7057 147.783 48.3734 147.736 48.2309C147.688 48.1004 147.676 47.9639 147.694 47.8333C147.848 46.7177 147.819 45.5724 147.528 44.5516C147.267 43.6081 146.573 42.3322 145.504 42.7654C143.226 43.8217 142.638 48.6523 142.626 50.9667C142.792 55.0317 141.422 57.1384 138.14 59.4766C137.635 59.8564 137.125 60.2184 136.597 60.5804C136.164 60.8771 135.576 60.7584 135.279 60.3252C134.983 59.892 135.101 59.2985 135.535 59.0078C136.027 58.6754 136.526 58.3194 137.006 57.9574C139.837 55.9041 140.864 54.5036 140.727 50.9726C140.769 47.8333 141.511 42.3619 144.828 40.997C147.059 40.1127 148.851 42.0414 149.35 44.0353C149.736 45.4003 149.747 46.777 149.569 48.1063L149.445 47.4892C149.569 47.6791 149.658 47.8215 149.747 47.9876C150.341 49.1033 150.703 50.3436 150.828 51.5957C150.988 53.014 150.839 54.4917 150.341 55.8269C150.252 56.0762 149.973 56.2067 149.73 56.1118C149.528 56.0346 149.409 55.8447 149.415 55.637Z" fill="#371A45"/>
<path d="M124.141 70.7754L122.918 71.2442C122.598 71.3688 122.236 71.2086 122.111 70.8881L114.39 50.8478C114.266 50.5273 114.426 50.1653 114.747 50.0407L115.969 49.5719C119.34 48.2723 123.132 49.9517 124.431 53.3283L127.897 62.3189C129.191 65.6896 127.511 69.4757 124.141 70.7754Z" fill="white"/>
<path d="M122.693 71.4579C122.586 71.4579 122.473 71.4342 122.372 71.3867C122.176 71.2977 122.028 71.1434 121.951 70.9476L114.23 50.9072C114.07 50.4977 114.278 50.0408 114.687 49.8806L115.91 49.4118C119.363 48.0825 123.262 49.8094 124.592 53.2632L128.057 62.2537C128.704 63.9272 128.657 65.755 127.927 67.3929C127.197 69.0308 125.879 70.2889 124.2 70.9357L122.977 71.4045C122.888 71.4401 122.788 71.4579 122.693 71.4579ZM118.313 49.299C117.553 49.299 116.782 49.4355 116.028 49.7263L114.806 50.1951C114.574 50.2841 114.456 50.5452 114.545 50.7826L122.265 70.8229C122.307 70.9357 122.396 71.0247 122.503 71.0722C122.615 71.1197 122.734 71.1256 122.847 71.0781L124.069 70.6093C125.66 69.9981 126.912 68.8053 127.606 67.2445C128.295 65.6897 128.342 63.9569 127.731 62.3665L124.265 53.3759C123.298 50.8538 120.877 49.299 118.313 49.299Z" fill="#371A45"/>
<path d="M126.858 58.3491L128.081 61.5181C129.618 65.506 127.63 69.9864 123.642 71.5234C123.262 71.6718 122.835 71.4759 122.687 71.0961L120.651 65.8264C120.853 66.0282 121.156 66.0994 121.434 65.9926L121.903 65.8086C125.06 64.598 126.959 61.5477 126.858 58.3491Z" fill="#E8E8E8"/>
<path d="M123.31 72.556C123.09 72.556 122.876 72.5085 122.675 72.4195C122.289 72.2474 121.998 71.9388 121.844 71.5471L114.123 51.5068C113.809 50.6997 114.218 49.7858 115.025 49.4713L116.248 49.0025C118.117 48.2844 120.153 48.3319 121.98 49.1449C123.808 49.9579 125.215 51.4355 125.933 53.2989L129.398 62.2895C130.882 66.1468 128.953 70.4908 125.102 71.9744L123.879 72.4432C123.689 72.5203 123.5 72.556 123.31 72.556ZM116.004 51.127L123.494 70.562L124.413 70.2059C127.292 69.0962 128.734 65.8501 127.624 62.972L124.158 53.9814C123.618 52.5868 122.574 51.483 121.203 50.8777C119.838 50.2724 118.313 50.2309 116.918 50.7709L116.004 51.127Z" fill="#371A45"/>
<path d="M48.8988 75.9623L50.1213 75.4935C50.4417 75.3688 50.8037 75.5291 50.9284 75.8495L58.649 95.8899C58.7736 96.2103 58.6134 96.5723 58.2929 96.697L57.0704 97.1658C53.6997 98.4654 49.9076 96.786 48.608 93.4093L45.1424 84.4187C43.8487 81.048 45.5281 77.2619 48.8988 75.9623Z" fill="white"/>
<path d="M54.7264 97.777C52.0262 97.777 49.4804 96.1391 48.4538 93.4746L44.9881 84.4841C44.3412 82.8106 44.3887 80.9828 45.1186 79.3449C45.8486 77.707 47.1719 76.4489 48.8454 75.8021L50.0679 75.3333C50.4774 75.179 50.9403 75.3807 51.0945 75.7902L58.8152 95.8306C58.9754 96.24 58.7677 96.697 58.3582 96.8572L57.1357 97.326C56.3405 97.6346 55.5275 97.777 54.7264 97.777ZM50.3468 75.624C50.2934 75.624 50.24 75.6359 50.1866 75.6537L48.9641 76.1225C47.3737 76.7338 46.1215 77.9266 45.4272 79.4873C44.7388 81.0421 44.6914 82.775 45.3026 84.3654L48.7683 93.3559C50.0323 96.6376 53.7294 98.2755 57.0111 97.0115L58.2336 96.5427C58.465 96.4537 58.5837 96.1926 58.4947 95.9552L50.7741 75.9148C50.7029 75.7309 50.5248 75.624 50.3468 75.624Z" fill="#371A45"/>
<path d="M56.4888 90.2817L58.6074 95.7829C58.7557 96.1627 58.5599 96.59 58.1801 96.7383C56.0853 97.5454 53.854 97.3792 51.9846 96.4653C50.2993 95.6405 48.9047 94.1925 48.1748 92.2994L47.0769 89.4509C49.1717 91.5161 52.3644 92.2816 55.2901 91.16L56.0141 90.8811C56.287 90.7802 56.4532 90.5429 56.4888 90.2817Z" fill="#DDDDDD"/>
<path d="M54.7263 98.5542C51.7176 98.5542 48.8691 96.7264 47.7237 93.7533L44.2581 84.7627C43.54 82.8934 43.5875 80.8579 44.4005 79.0301C45.2135 77.2024 46.6912 75.7959 48.5546 75.0779L49.777 74.609C50.59 74.3005 51.498 74.704 51.8125 75.5111L59.5331 95.5514C59.8477 96.3585 59.4382 97.2724 58.6311 97.5869L57.4086 98.0557C56.5303 98.394 55.6224 98.5542 54.7263 98.5542ZM50.1628 76.4962L49.2429 76.8522C47.8484 77.3923 46.7446 78.4367 46.1393 79.8075C45.534 81.1724 45.4924 82.6976 46.0325 84.0922L49.4981 93.0827C50.6078 95.9609 53.8539 97.4029 56.7321 96.2932L57.6519 95.9371L50.1628 76.4962Z" fill="#371A45"/>
<path d="M112.437 99.1337C126.578 84.9924 126.578 62.0648 112.437 47.9234C98.2953 33.7821 75.3677 33.7821 61.2264 47.9234C47.085 62.0648 47.085 84.9924 61.2264 99.1337C75.3677 113.275 98.2953 113.275 112.437 99.1337Z" fill="white"/>
<path d="M86.8491 109.913C71.2714 109.913 56.8212 99.8183 52.0381 84.1635C49.1955 74.8703 50.145 65.0252 54.7026 56.4441C59.2662 47.863 66.8978 41.5726 76.191 38.73C85.4842 35.8874 95.3293 36.8369 103.91 41.3945C112.491 45.958 118.782 53.5896 121.624 62.8829C124.467 72.1761 123.518 82.0212 118.96 90.6023C114.396 99.1833 106.765 105.474 97.4716 108.316C93.9406 109.396 90.3682 109.913 86.8491 109.913ZM86.8788 37.466C83.3359 37.466 79.7753 37.9941 76.2918 39.0564C67.0876 41.8693 59.5273 48.1063 55.0053 56.6043C50.4833 65.1023 49.5457 74.8584 52.3645 84.0626C57.1061 99.5691 71.4197 109.568 86.8491 109.568C90.3326 109.568 93.8694 109.058 97.3707 107.99C106.575 105.177 114.135 98.94 118.657 90.442C123.179 81.944 124.117 72.1879 121.298 62.9837C118.479 53.7795 112.248 46.2192 103.75 41.6972C98.4686 38.8902 92.6944 37.466 86.8788 37.466Z" fill="#371A45"/>
<path d="M119.66 58.2422C120.36 59.7376 120.96 61.3043 121.458 62.9363C127.304 82.0627 116.539 102.305 97.4181 108.156C78.2916 114.001 58.0495 103.237 52.1982 84.116C52.0321 83.5641 51.8718 83.0122 51.7354 82.4603C59.2245 98.6018 77.6566 107.159 95.1571 101.806C113.732 96.1272 124.419 76.8702 119.66 58.2422Z" fill="#DDDDDD"/>
<path d="M86.849 110.69C70.939 110.69 56.1802 100.382 51.2903 84.3949C45.2966 64.7996 56.3642 43.9819 75.9595 37.9941C85.4544 35.0922 95.5073 36.0595 104.272 40.718C113.037 45.3765 119.464 53.1683 122.366 62.6633C125.268 72.1583 124.301 82.2111 119.642 90.9761C114.984 99.7412 107.186 106.168 97.697 109.07C94.0889 110.168 90.4393 110.69 86.849 110.69ZM86.8787 38.2434C83.413 38.2434 79.9296 38.7597 76.5232 39.8041C67.5149 42.5577 60.1206 48.6582 55.6995 56.9722C51.2784 65.2922 50.3586 74.8287 53.1122 83.8371C57.7528 99.0053 71.7579 108.791 86.855 108.791C90.2613 108.791 93.721 108.293 97.1451 107.248C106.154 104.495 113.548 98.3941 117.969 90.08C122.39 81.7601 123.31 72.2235 120.556 63.2152C117.803 54.2068 111.702 46.8126 103.388 42.3915C98.2133 39.6439 92.5698 38.2434 86.8787 38.2434Z" fill="#371A45"/>
<path d="M121.624 63.8619C123.796 70.6034 123.63 77.5763 121.553 83.9616C119.998 88.7507 110.652 99.2664 96.4449 103.99C83.2706 108.37 68.9807 105.201 64.9216 102.222C59.5094 98.2456 55.302 92.6911 53.1241 85.9496C47.3677 68.0991 60.3165 55.7615 79.2353 49.661C98.154 43.5605 115.868 46.0114 121.624 63.8619Z" fill="#371A45"/>
<g opacity="0.5">
<path d="M110.55 71.3792C113.094 71.04 114.777 67.9207 114.309 64.4122C113.841 60.9037 111.4 58.3345 108.856 58.6738C106.312 59.0131 104.629 62.1323 105.097 65.6408C105.565 69.1493 108.007 71.7185 110.55 71.3792Z" fill="white"/>
</g>
<g opacity="0.5">
<path d="M110.714 78.8656C110.723 77.24 109.602 75.9154 108.209 75.907C106.816 75.8987 105.679 77.2097 105.669 78.8354C105.66 80.461 106.781 81.7856 108.174 81.7939C109.567 81.8023 110.704 80.4912 110.714 78.8656Z" fill="white"/>
</g>
<g opacity="0.35">
<path d="M109.595 49.3584C115.073 52.0051 119.31 56.6933 121.624 63.862C123.796 70.6094 123.624 77.5763 121.553 83.9617C119.998 88.7507 110.646 99.2664 96.439 103.99C91.4244 105.658 86.2437 106.233 81.5319 106.132C98.8721 99.9548 110.236 87.0772 112.165 81.1428C114.8 73.0365 115.014 64.1943 112.254 55.6369C111.518 53.3463 110.622 51.2574 109.595 49.3584Z" fill="#111A28"/>
</g>
<path d="M50.7919 70.8409C50.685 70.8409 50.5723 70.8231 50.4655 70.7815C49.9788 70.6035 49.7296 70.0753 49.8898 69.5887C53.0766 58.7526 63.1709 49.8748 77.5855 45.2222C91.9111 40.6053 105.246 41.7506 114.165 48.3734C114.509 48.6167 114.663 49.0736 114.509 49.489C114.325 49.9816 113.779 50.2249 113.287 50.0409L113.162 49.9935L113.049 49.9104C104.628 43.6496 91.9111 42.5933 78.1671 47.0263C64.3459 51.483 54.6967 59.9098 51.6998 70.1466L51.6583 70.2534C51.5158 70.6213 51.1657 70.8409 50.7919 70.8409Z" fill="#371A45"/>
<g opacity="0.5">
<path d="M64.2331 94.0799C64.2331 94.0799 53.029 78.253 60.2571 68.1823C67.4851 58.1117 81.146 53.7322 81.1104 54.7113C81.1104 54.7113 67.1765 63.245 65.1173 77.0958C63.521 87.7835 64.2331 94.0799 64.2331 94.0799Z" fill="white"/>
</g>
<path d="M82.4754 107.112C74.1495 107.112 67.1113 105.011 64.3519 102.981C58.5777 98.7443 54.3821 92.9523 52.2161 86.2346C49.3913 77.4755 50.7266 69.5947 56.1862 62.7998C60.9455 56.8773 68.8145 52.0171 78.9445 48.7532C89.0744 45.4893 98.2964 44.8365 105.619 46.8661C114.017 49.1923 119.702 54.8122 122.526 63.5713C124.692 70.289 124.669 77.4399 122.455 84.2526C120.918 88.9763 111.803 99.8837 96.7416 104.886C91.9289 106.489 87.0093 107.112 82.4754 107.112ZM96.6111 47.6197C89.9824 47.6197 83.5911 49.2457 79.5201 50.5632C69.7462 53.7143 62.1858 58.3609 57.6638 63.9926C52.6315 70.2593 51.409 77.5467 54.0201 85.659C56.0616 91.9969 60.0257 97.4565 65.4735 101.462C69.3427 104.305 83.2884 107.367 96.1363 103.094C110.379 98.3585 119.257 87.9437 120.645 83.671C122.734 77.2381 122.758 70.4908 120.716 64.1529C116.515 51.1032 106.308 47.6197 96.6111 47.6197Z" fill="#371A45"/>
<path d="M73.4493 121.859C73.1466 121.859 72.844 121.71 72.66 121.437C66.9037 112.874 50.9818 114.221 50.8216 114.233C50.2993 114.286 49.8365 113.895 49.789 113.373C49.7415 112.85 50.1272 112.387 50.6495 112.34C51.3497 112.275 67.8472 110.874 74.2386 120.375C74.5293 120.808 74.4166 121.402 73.9834 121.693C73.8172 121.805 73.6332 121.859 73.4493 121.859Z" fill="#371A45"/>
<path d="M162.257 48.035C162.892 47.2992 163.539 46.1241 163.017 45.1925C162.886 44.9135 162.595 44.6702 162.334 44.4388C161.937 44.0887 161.901 43.4834 162.251 43.0917C162.601 42.7 163.207 42.6585 163.598 43.0086C165.432 44.9313 164.821 47.2279 162.868 48.7531C162.399 49.1091 161.836 48.4504 162.257 48.035Z" fill="#371A45"/>
</svg>
