<svg width="180" height="194" viewBox="0 0 180 194" fill="none" xmlns="http://www.w3.org/2000/svg">
<path d="M24.9415 33.7291C18.4545 37.1221 3.70599 58.0261 5.25299 73.9641C5.87699 80.4186 19.5335 86.3531 23.258 86.8211C26.2155 87.1981 67.978 32.2016 64.7345 31.7856C51.104 30.0371 32.904 29.5626 24.9415 33.7291Z" fill="white"/>
<g opacity="0.35">
<path d="M5.25299 73.964C5.877 80.4185 19.5335 86.353 23.258 86.8275C25.5265 87.1135 50.5775 54.8865 60.7045 39.6245C39.105 49.823 24.3045 63.473 22.5365 65.0135C17.2065 69.6545 9.8225 69.726 5.669 66.021C5.175 68.738 5.00599 71.416 5.25299 73.964Z" fill="#371A45"/>
</g>
<path d="M23.375 87.9131C24.116 87.9131 25.455 87.2046 31.695 79.8206C35.5625 75.2381 40.561 68.9526 45.7675 62.1211C49.0565 57.8051 65.495 36.0756 65.976 32.3121C66.093 31.3826 65.5145 30.8171 64.8775 30.7326C50.714 28.9126 32.6505 28.4901 24.4475 32.7801C17.7525 36.2836 2.57499 57.5061 4.18699 74.0681C4.90199 81.4196 19.3125 87.4061 23.128 87.8871C23.1995 87.9001 23.284 87.9131 23.375 87.9131ZM63.61 32.7346C62.31 35.6401 55.7385 45.4356 44.76 59.8981C32.8845 75.5306 24.896 84.7541 23.193 85.7356C19.5335 85.1181 6.85849 79.4241 6.319 73.8666C4.81749 58.4096 19.293 37.9021 25.442 34.6846C33.021 30.7131 50.4995 31.1291 63.61 32.7346Z" fill="#371A45"/>
<path d="M37.9545 48.7897C38.117 48.7897 38.2795 48.7507 38.4355 48.6792C38.9685 48.4127 39.183 47.7692 38.9165 47.2427C38.5785 46.5667 30.5835 30.7782 22.647 34.0347C22.101 34.2622 21.8345 34.8862 22.062 35.4322C22.2895 35.9782 22.9135 36.2447 23.4595 36.0172C28.5295 33.9372 34.9515 44.1032 36.999 48.1982C37.181 48.5687 37.558 48.7897 37.9545 48.7897Z" fill="#371A45"/>
<path d="M20.242 65.0527C20.398 61.6207 10.661 55.7642 8.17148 57.2462C5.68848 58.7282 3.08198 67.1847 4.08948 70.3762C5.09698 73.5677 10.401 77.7927 12.728 77.0582C16.602 75.8492 20.1055 67.8867 20.242 65.0527Z" fill="white"/>
<g opacity="0.35">
<path d="M4.08951 70.3761C5.09051 73.5741 10.401 77.7926 12.728 77.0646C16.4655 75.8881 19.8585 68.4521 20.2095 65.3776C19.033 69.5766 16.394 71.7476 15.0485 71.2146C14.2295 70.8896 14.0865 68.1986 14.0865 68.1986C14.0865 68.1986 9.03601 71.7931 6.137 68.4196C5.25951 67.3991 4.499 65.9431 6.111 59.9111C4.499 63.0961 3.36801 68.0881 4.08951 70.3761Z" fill="#371A45"/>
</g>
<path d="M12.182 78.0852C12.4745 78.0852 12.754 78.0462 13.0075 77.9682C17.3755 76.5967 21.048 68.1272 21.1845 65.0982C21.295 62.7192 18.2205 60.0087 15.302 58.2602C14.054 57.5127 9.80303 55.1597 7.67753 56.4272C4.85003 58.1107 2.02903 67.0222 3.17303 70.6622C4.19353 73.8667 9.08803 78.0852 12.182 78.0852ZM19.2865 65.0072C19.1695 67.5617 15.809 75.0952 12.4355 76.1547C10.7845 76.6682 5.90954 73.0152 4.98654 70.0902C4.10904 67.3017 6.54002 59.3132 8.64602 58.0587C9.17252 57.7402 11.3435 58.1042 14.3205 59.8917C17.616 61.8612 19.3385 63.9997 19.2865 65.0072Z" fill="#371A45"/>
<path d="M10.362 62.082C11.0315 62.4005 11.6685 62.7775 12.2665 63.2065C12.8645 63.629 13.4235 64.1165 13.8265 64.682L13.976 64.8965C14.0215 64.968 14.054 65.046 14.093 65.1175C14.184 65.2605 14.21 65.423 14.262 65.5725C14.288 65.6505 14.2815 65.7285 14.2945 65.8C14.301 65.878 14.3205 65.9495 14.3075 66.021C14.301 66.1575 14.262 66.3265 14.2165 66.489C14.028 67.1455 13.716 67.8085 13.391 68.452C12.7215 69.739 11.935 70.974 11.077 72.131C10.648 72.7095 10.193 73.262 9.7185 73.7625C9.478 74.0095 9.23751 74.25 8.99701 74.445C8.76301 74.64 8.49651 74.796 8.37301 74.8285C7.78801 74.9585 7.41751 75.537 7.54751 76.122C7.67751 76.707 8.256 77.0775 8.841 76.9475C8.9255 76.928 9.00351 76.902 9.07501 76.8695L9.18551 76.8175C9.74451 76.5445 10.063 76.2325 10.3685 75.9205C10.6675 75.6085 10.921 75.2965 11.1615 74.978C11.636 74.341 12.0455 73.6845 12.429 73.0215C13.1895 71.689 13.8395 70.324 14.3725 68.894C14.6325 68.179 14.8795 67.451 15.003 66.658C15.029 66.4565 15.055 66.255 15.042 66.021C15.042 65.904 15.0095 65.8 14.9835 65.696C14.9575 65.592 14.9445 65.4815 14.899 65.384C14.808 65.189 14.7365 64.9875 14.613 64.8315C14.5545 64.747 14.5025 64.6625 14.4375 64.578L14.2425 64.357C13.7095 63.772 13.066 63.3495 12.4095 62.992C11.753 62.6215 11.0705 62.3225 10.362 62.082Z" fill="#371A45"/>
<path d="M54.2565 174.831H126.029V176.976H54.2565V174.831Z" fill="#6B184E"/>
<path d="M89.7985 191.64C41.0878 191.64 1.59999 162.501 1.59999 126.556C1.59999 90.6105 41.0878 61.4712 89.7985 61.4712C138.509 61.4712 177.997 90.6105 177.997 126.556C177.997 162.501 138.509 191.64 89.7985 191.64Z" fill="#FFAA2E"/>
<g opacity="0.3">
<path d="M2.27599 121.271C5.51949 154.538 37.2135 180.642 90.2015 180.642C143.183 180.642 174.883 154.544 178.127 121.271C178.283 122.857 178.367 124.462 178.393 126.081C178.393 125.931 178.393 125.789 178.387 125.639C177.698 161.051 145.581 189.56 90.2015 189.56C34.8215 189.56 2.70499 161.045 2.01598 125.639C2.00298 126.094 1.99649 126.555 1.99649 127.01C1.99649 125.08 2.08748 123.162 2.27599 121.271Z" fill="#371A45"/>
</g>
<path d="M90.2015 193.486C117.092 193.486 139.829 186.817 155.956 174.194C171.12 162.325 179.473 145.685 179.473 127.329C179.473 118.964 177.789 110.969 174.461 103.559L172.479 104.371C174.422 109.61 176.086 117.293 172.999 124.138C170.327 130.066 166.83 129.039 162.774 127.849C159.368 126.848 155.13 125.607 152.563 130.514C151.061 133.387 150.327 137.274 149.547 141.389C147.837 150.456 146.069 159.829 136.033 159.894C129.559 159.946 125.854 157.554 122.877 155.643C118.503 152.835 115.565 151.477 110.417 158.77C106.322 164.574 100.875 167.98 95.083 168.37C88.5375 168.812 81.7515 165.478 75.4725 158.731C68.1015 150.814 60.152 152.913 53.7625 154.597C47.321 156.293 42.6735 157.522 39.196 150.671C37.818 147.954 36.6285 145.471 35.582 143.274C30.564 132.783 28.0485 127.511 19.54 128.051L19.332 128.064C14.9575 128.343 9.99803 128.662 6.93002 125.951C5.07753 124.313 4.07004 121.733 3.84903 118.054C3.81654 117.488 3.36803 117.04 2.80254 117.014C2.24353 116.988 1.74953 117.384 1.66502 117.943C1.17754 120.992 0.930527 124.144 0.930527 127.31C0.930527 145.666 9.28304 162.312 24.4475 174.175C40.574 186.817 63.311 193.486 90.2015 193.486ZM176.684 118.691C177.113 121.518 177.328 124.398 177.328 127.329C177.328 145.009 169.268 161.058 154.636 172.504C138.887 184.828 116.611 191.341 90.2015 191.341C63.792 191.341 41.5165 184.828 25.767 172.504C11.1355 161.051 3.07553 145.009 3.07553 127.329C3.07553 126.361 3.10153 125.392 3.14703 124.424C3.74504 125.665 4.53154 126.712 5.50653 127.57C9.24403 130.872 14.912 130.508 19.4685 130.215L19.6765 130.202C26.742 129.754 28.7635 133.985 33.6515 144.21C34.7045 146.413 35.9005 148.909 37.285 151.652C41.5425 160.05 48.036 158.341 54.3085 156.683C60.75 154.987 67.4125 153.232 73.906 160.206C80.64 167.441 88.0175 171.009 95.2325 170.522C101.681 170.086 107.7 166.355 112.178 160.018C114.232 157.112 115.844 155.689 117.255 155.539C118.542 155.403 119.946 156.313 121.733 157.457C124.782 159.413 128.961 162.091 136.066 162.052C141.363 162.02 145.172 159.784 147.72 155.227C149.865 151.386 150.782 146.511 151.672 141.798C152.42 137.84 153.122 134.109 154.48 131.515C156.151 128.324 158.387 128.798 162.189 129.91C166.349 131.132 171.53 132.646 174.968 125.022C175.891 122.948 176.437 120.81 176.684 118.691Z" fill="#371A45"/>
<g opacity="0.2">
<path d="M2.75703 122.48C3.38103 134.889 12.5655 134.174 19.605 133.725C29.069 133.127 30.4145 140.329 38.2405 155.76C46.0665 171.191 60.9905 149.351 74.6925 164.067C88.3945 178.783 102.812 176.014 111.301 163.989C119.796 151.958 120.362 165.679 136.053 165.569C151.744 165.465 148.832 144.574 153.525 135.61C158.218 126.64 168.325 141.727 173.987 129.175C177.211 122.032 175.534 114.102 173.493 108.596C162.553 84.1757 133.661 66.8467 90.208 66.8467C38.884 66.8402 7.87903 91.0137 2.75703 122.48Z" fill="#371A45"/>
</g>
<path d="M2.75699 117.891C3.38098 130.299 12.572 129.584 19.605 129.136C29.069 128.538 30.4145 135.733 38.2405 151.164C46.0665 166.595 60.9905 144.755 74.686 159.471C88.388 174.187 102.805 171.418 111.294 159.4C119.789 147.368 120.355 161.083 136.046 160.979C151.737 160.875 148.825 139.984 153.511 131.021C158.204 122.051 168.312 137.137 173.973 124.586C177.197 117.449 175.527 109.512 173.479 104C164.561 84.104 143.722 68.9005 112.789 63.967C112.73 63.954 112.665 63.9475 112.607 63.941C111.638 63.785 110.657 63.642 109.669 63.512C109.285 63.46 108.895 63.408 108.512 63.3625C106.718 63.135 104.885 62.9465 103.026 62.7905C102.61 62.7515 102.187 62.719 101.765 62.6865C98.034 62.4005 94.1795 62.251 90.195 62.251C79.8925 62.251 70.4155 63.226 61.7965 65.0395C61.465 65.111 61.14 65.176 60.815 65.254C60.295 65.3645 59.788 65.475 59.281 65.5985C57.201 66.086 55.173 66.619 53.197 67.204C50.272 68.0685 47.464 69.037 44.7795 70.103C44.019 70.402 43.265 70.714 42.5175 71.0325C40.444 71.923 38.4485 72.872 36.531 73.873C32.046 76.226 27.9705 78.8845 24.324 81.816C22.4585 83.3175 20.7035 84.897 19.059 86.535C18.8315 86.7625 18.6105 86.99 18.3895 87.2175C18.3895 87.2175 18.3895 87.2175 18.383 87.224C17.2585 88.381 16.186 89.5705 15.1785 90.7925C8.56798 98.742 4.37549 107.952 2.75699 117.891Z" fill="#FF7236"/>
<g opacity="0.2">
<path d="M105.99 97.8907C105.353 97.0002 105.093 95.9147 105.275 94.8357C105.451 93.7567 106.042 92.8142 106.933 92.1707C107.823 91.5337 108.909 91.2737 109.988 91.4557L122.442 93.5097C123.521 93.6852 124.463 94.2767 125.107 95.1672C125.744 96.0577 125.997 97.1432 125.822 98.2222C125.49 100.231 123.748 101.654 121.779 101.654C121.558 101.654 121.337 101.635 121.109 101.602L108.655 99.5482C107.576 99.3662 106.627 98.7812 105.99 97.8907Z" fill="#371A45"/>
<path d="M42.7125 132.107L54.341 127.199C56.4275 126.322 58.8325 127.303 59.71 129.383C60.1325 130.391 60.139 131.502 59.7295 132.523C59.3135 133.537 58.5335 134.336 57.526 134.759L45.8975 139.666C45.3905 139.881 44.851 139.991 44.3115 139.991C43.785 139.991 43.265 139.887 42.758 139.686C41.744 139.27 40.9445 138.49 40.522 137.482C40.0995 136.475 40.093 135.363 40.5025 134.343C40.925 133.322 41.7115 132.529 42.7125 132.107Z" fill="#371A45"/>
<path d="M125.12 133.348C126.862 131.905 129.449 132.146 130.892 133.888L138.945 143.605C140.388 145.347 140.148 147.934 138.406 149.377C137.639 150.008 136.716 150.32 135.793 150.32C134.616 150.32 133.44 149.813 132.634 148.838L124.58 139.12C123.885 138.282 123.56 137.216 123.657 136.124C123.755 135.032 124.281 134.044 125.12 133.348Z" fill="#371A45"/>
<path d="M154.343 101.524L142.552 106.022C142.078 106.204 141.59 106.289 141.096 106.289C140.524 106.289 139.952 106.165 139.413 105.925C138.412 105.476 137.645 104.67 137.255 103.65C136.865 102.629 136.897 101.518 137.346 100.517C137.794 99.5157 138.6 98.7487 139.621 98.3587L151.412 93.8607C153.524 93.0547 155.897 94.1207 156.703 96.2332C157.093 97.2537 157.06 98.3652 156.612 99.3662C156.163 100.367 155.364 101.134 154.343 101.524Z" fill="#371A45"/>
<path d="M33.0925 112.048C34.1325 111.697 35.244 111.775 36.219 112.262L47.5225 117.878C48.4975 118.366 49.232 119.204 49.583 120.244C49.934 121.284 49.856 122.396 49.3685 123.371C48.881 124.346 48.0425 125.08 47.0025 125.431C46.5735 125.574 46.125 125.646 45.6895 125.646C45.0655 125.646 44.448 125.503 43.876 125.217L32.5725 119.601C31.5975 119.113 30.863 118.275 30.512 117.235C30.161 116.195 30.239 115.083 30.7265 114.108C31.214 113.127 32.0525 112.399 33.0925 112.048Z" fill="#371A45"/>
<path d="M80.9975 101.7C80.3215 102.142 79.5415 102.376 78.755 102.376C78.4755 102.376 78.196 102.35 77.9165 102.291L65.56 99.7171C64.494 99.4961 63.571 98.8656 62.9665 97.9491C62.362 97.0326 62.154 95.9341 62.375 94.8681C62.596 93.8021 63.2265 92.8791 64.143 92.2746C65.0595 91.6701 66.158 91.4621 67.224 91.6831L79.5805 94.2571C80.6465 94.4781 81.5695 95.1086 82.174 96.0251C82.7785 96.9416 82.9865 98.0401 82.7655 99.1061C82.5445 100.179 81.9205 101.095 80.9975 101.7Z" fill="#371A45"/>
<path d="M60.633 141.259C61.517 139.179 63.9285 138.204 66.0085 139.081L77.6305 144.008C78.638 144.437 79.418 145.23 79.8275 146.244C80.237 147.265 80.2305 148.376 79.808 149.384C79.145 150.944 77.624 151.886 76.025 151.886C75.492 151.886 74.9525 151.782 74.4325 151.561L62.8105 146.641C61.803 146.212 61.023 145.419 60.6135 144.405C60.1975 143.378 60.2105 142.266 60.633 141.259Z" fill="#371A45"/>
<path d="M68.706 130.274C68.927 128.025 70.9355 126.374 73.1845 126.588L85.749 127.81C86.8345 127.914 87.816 128.441 88.518 129.286C89.2135 130.131 89.5385 131.197 89.4345 132.282C89.3305 133.368 88.804 134.349 87.959 135.051C87.218 135.662 86.308 135.987 85.359 135.987C85.229 135.987 85.0925 135.981 84.956 135.968L72.3915 134.746C70.1425 134.531 68.485 132.523 68.706 130.274Z" fill="#371A45"/>
<path d="M103 139.549C101.687 139.549 100.393 138.919 99.6005 137.749C98.9895 136.845 98.7685 135.753 98.97 134.674C99.178 133.595 99.789 132.666 100.693 132.055L111.145 124.976C113.017 123.709 115.571 124.203 116.839 126.075C117.449 126.978 117.67 128.07 117.469 129.149C117.261 130.228 116.65 131.158 115.746 131.769L105.295 138.847C104.593 139.322 103.793 139.549 103 139.549Z" fill="#371A45"/>
<path d="M139.861 90.8317C139.426 90.8317 138.984 90.7602 138.542 90.6107L126.595 86.5482C124.456 85.8202 123.306 83.4867 124.034 81.3482C124.762 79.2097 127.095 78.0592 129.234 78.7872L141.181 82.8497C142.214 83.2007 143.053 83.9352 143.534 84.9232C144.021 85.9047 144.093 87.0227 143.742 88.0562C143.164 89.7527 141.564 90.8317 139.861 90.8317Z" fill="#371A45"/>
<path d="M146.784 115.369C146.075 114.537 145.738 113.484 145.822 112.405C146.004 110.169 147.974 108.492 150.21 108.674L162.702 109.688C164.938 109.87 166.616 111.84 166.434 114.076C166.258 116.201 164.477 117.82 162.377 117.82C162.267 117.82 162.157 117.813 162.046 117.807L149.553 116.793C148.474 116.708 147.492 116.201 146.784 115.369Z" fill="#371A45"/>
<path d="M96.266 146.998L107.895 142.091C109.975 141.213 112.386 142.195 113.264 144.275C113.686 145.282 113.692 146.394 113.283 147.414C112.867 148.428 112.087 149.228 111.08 149.65L99.451 154.558C98.944 154.772 98.4045 154.883 97.865 154.883C97.3385 154.883 96.8185 154.779 96.3115 154.577C95.2975 154.161 94.498 153.381 94.0755 152.374C93.653 151.366 93.6465 150.255 94.056 149.234C94.4785 148.22 95.265 147.421 96.266 146.998Z" fill="#371A45"/>
<path d="M128.662 126.549C128.025 125.659 127.772 124.573 127.947 123.494C128.123 122.415 128.714 121.473 129.605 120.829C130.495 120.192 131.581 119.939 132.66 120.114L145.114 122.168C146.193 122.344 147.135 122.935 147.779 123.826C148.416 124.716 148.669 125.802 148.494 126.881C148.318 127.96 147.727 128.902 146.836 129.546C146.128 130.053 145.302 130.319 144.45 130.319C144.229 130.319 144.002 130.3 143.781 130.267L131.327 128.213C130.248 128.031 129.299 127.446 128.662 126.549Z" fill="#371A45"/>
<path d="M36.7455 101.654C36.2125 101.654 35.6665 101.55 35.14 101.323L23.531 96.3698C21.451 95.4793 20.4825 93.0678 21.373 90.9878C22.2635 88.9078 24.675 87.9393 26.755 88.8298L38.364 93.7828C39.365 94.2118 40.145 95.0113 40.5545 96.0253C40.964 97.0458 40.951 98.1573 40.522 99.1648C39.859 100.718 38.338 101.654 36.7455 101.654Z" fill="#371A45"/>
<path d="M10.1215 114.394C10.219 113.302 10.7325 112.314 11.5645 111.612L21.23 103.494C22.0685 102.792 23.128 102.46 24.22 102.551C25.312 102.649 26.3 103.162 27.002 103.994C27.704 104.833 28.0355 105.892 27.9445 106.984C27.847 108.076 27.3335 109.064 26.5015 109.766L16.836 117.885C16.095 118.509 15.172 118.84 14.21 118.84C14.0865 118.84 13.9695 118.834 13.846 118.827C12.754 118.73 11.766 118.216 11.064 117.384C10.362 116.546 10.024 115.486 10.1215 114.394Z" fill="#371A45"/>
</g>
<g opacity="0.3">
<path d="M19.5985 124.697C29.0625 124.099 30.408 131.294 38.234 146.725C46.06 162.156 60.984 140.316 74.6795 155.032C88.3815 169.748 102.799 166.979 111.288 154.961C119.783 142.929 120.349 156.644 136.04 156.54C151.731 156.436 148.819 135.545 153.505 126.582C158.198 117.612 168.305 132.698 173.967 120.147C174.994 117.865 175.527 115.499 175.702 113.159C175.956 116.689 175.559 120.413 173.967 123.949C168.305 136.507 158.198 121.421 153.505 130.384C148.819 139.348 151.731 160.239 136.04 160.343C120.349 160.453 119.783 146.732 111.288 158.763C102.799 170.788 88.3815 173.557 74.6795 158.835C60.9775 144.119 46.06 165.959 38.234 150.528C30.408 135.097 29.0625 127.895 19.5985 128.499C12.5655 128.948 3.37453 129.656 2.75052 117.254C2.82852 116.786 2.91304 116.318 3.00403 115.85C4.64853 125.763 13.0595 125.119 19.5985 124.697Z" fill="#371A45"/>
</g>
<g opacity="0.5">
<path d="M110.533 152.14C110.644 152.497 107.251 154.675 103.338 159.862C99.321 165.185 90.3315 164.548 90.2665 161.584C90.1885 158.172 93.588 159.628 96.253 159.595C99.6395 159.556 101.29 158.185 103.91 156.033C107.394 153.167 110.423 151.789 110.533 152.14Z" fill="white"/>
</g>
<g opacity="0.5">
<path d="M145.679 140.914C145.783 141.259 146.075 144.951 143.111 151.418C140.056 158.074 131.347 155.513 131.067 153.108C130.755 150.398 133.44 150.989 136.007 150.937C138.776 150.879 139.881 150.547 141.486 149.137C144.756 146.27 145.575 140.57 145.679 140.914Z" fill="white"/>
</g>
<g opacity="0.5">
<path d="M168.734 104.358C169.079 104.475 172.036 107.218 172.706 113.478C173.499 120.862 169.586 123.936 167.148 123.631C163.606 123.189 164.126 120.27 165.341 119.373C166.433 118.567 170.353 117.605 170.684 112.685C171.081 106.854 168.39 104.235 168.734 104.358Z" fill="white"/>
</g>
<g opacity="0.3">
<path d="M91.5275 120.147C112.165 120.147 127.791 110.936 125.789 109.831C120.023 106.646 106.854 104.423 91.5275 104.423C74.426 104.423 60.009 107.192 55.5695 110.975C54.653 111.762 70.89 120.147 91.5275 120.147Z" fill="#371A45"/>
</g>
<g opacity="0.4">
<path d="M46.2875 101.921C46.2875 104.729 47.3795 107.407 49.362 109.87C52.6835 113.991 58.5205 117.495 65.937 119.913C72.892 122.181 81.238 123.507 90.2145 123.507C90.793 123.507 91.3715 123.501 91.9435 123.488C99.113 123.351 105.84 122.376 111.723 120.745C125.106 117.046 134.148 110 134.148 101.921C134.148 99.3335 130.995 106.146 124.684 110.813C121.161 113.413 116.747 115.733 111.879 117.436C105.801 119.568 99.074 119.594 92.431 119.198C92.301 119.191 91.6315 119.211 91.5015 119.198C83.162 118.619 76.8375 118.541 71.2605 117.007C61.712 114.368 55.81 110.748 52.1635 107.608C46.463 102.675 46.2875 98.911 46.2875 101.921Z" fill="white"/>
</g>
<g opacity="0.4">
<path d="M2.757 117.891C2.80901 118.911 2.91951 119.841 3.0755 120.686C9.06851 90.097 39.859 66.84 90.195 66.84C133.648 66.84 162.54 84.169 173.48 108.589C174.474 111.267 175.378 114.524 175.677 117.975C176.151 112.86 174.903 107.842 173.48 104C162.54 79.58 133.648 62.251 90.195 62.251C38.884 62.251 7.87901 86.4245 2.757 117.891Z" fill="white"/>
</g>
<path d="M93.9195 170.567C94.355 170.567 94.7905 170.554 95.226 170.522C101.674 170.086 107.693 166.355 112.172 160.018C114.226 157.112 115.838 155.689 117.248 155.539C118.535 155.403 119.939 156.313 121.727 157.457C124.775 159.413 128.961 162.098 136.059 162.052C141.357 162.02 145.166 159.784 147.714 155.227C149.859 151.386 150.775 146.511 151.666 141.798C152.413 137.84 153.115 134.109 154.474 131.515C156.144 128.324 158.38 128.798 162.183 129.91C166.343 131.132 171.523 132.646 174.962 125.022C178.348 117.514 176.58 109.246 174.494 103.63L174.468 103.565C168.8 90.9097 158.445 80.3472 144.535 73.0217C129.618 65.1632 111.333 61.1787 90.2015 61.1787C65.6055 61.1787 44.2855 66.7817 28.5555 77.3832C13.6445 87.4322 4.356 101.381 1.69751 117.722L1.67801 117.833L1.68451 117.95C1.9055 122.337 3.1405 125.477 5.4675 127.55C9.205 130.885 14.8925 130.521 19.462 130.222L19.67 130.209C26.7355 129.76 28.757 133.992 33.645 144.216C34.698 146.42 35.894 148.916 37.2785 151.659C41.536 160.057 48.0295 158.347 54.302 156.69C60.7435 154.993 67.406 153.238 73.8995 160.213C80.2305 167.005 87.127 170.567 93.9195 170.567ZM117.463 153.401C115.376 153.401 113.225 154.805 110.417 158.783C106.322 164.587 100.875 167.993 95.083 168.383C88.5375 168.825 81.7515 165.491 75.4725 158.744C68.1015 150.827 60.152 152.926 53.7625 154.61C47.321 156.306 42.6735 157.535 39.196 150.684C37.818 147.967 36.6285 145.484 35.582 143.287C30.564 132.796 28.0485 127.524 19.54 128.064L19.332 128.077C14.9445 128.356 9.96552 128.675 6.90401 125.945C5.05151 124.287 4.04401 121.674 3.8425 117.95C9.31551 84.7607 43.2 63.3237 90.208 63.3237C130.19 63.3237 160.954 78.6832 172.498 104.41C174.435 109.649 176.093 117.313 173.005 124.144C170.334 130.072 166.837 129.045 162.781 127.856C159.375 126.855 155.137 125.613 152.569 130.521C151.068 133.394 150.333 137.281 149.553 141.395C147.844 150.463 146.076 159.836 136.04 159.901C129.566 159.953 125.861 157.561 122.884 155.65C120.895 154.376 119.198 153.401 117.463 153.401Z" fill="#371A45"/>
<path d="M134.213 100.705C133.868 101.583 133.264 102.369 132.627 103.143C131.984 103.91 131.301 104.664 130.593 105.398C129.15 106.848 127.622 108.245 125.978 109.526C125.159 110.163 124.307 110.774 123.436 111.346L122.773 111.768L122.442 111.976C122.338 112.041 122.24 112.1 122.13 112.158C121.688 112.405 121.226 112.646 120.765 112.88C118.906 113.803 116.962 114.602 114.98 115.291C107.05 118.067 98.5735 119.217 90.1625 119.055C81.732 118.873 73.3535 117.339 65.313 114.771L62.31 113.757C61.3155 113.393 60.334 113.016 59.346 112.639L58.605 112.36L57.903 112.054L57.201 111.749C56.967 111.645 56.746 111.515 56.5185 111.404L55.8425 111.053C55.615 110.936 55.407 110.793 55.186 110.663L54.5295 110.267C54.315 110.13 54.1135 109.974 53.899 109.831C52.235 108.668 50.6815 107.296 49.4985 105.658C49.349 105.457 49.193 105.255 49.037 105.06C48.894 104.852 48.751 104.651 48.6015 104.449C48.3155 104.04 48.0165 103.637 47.7565 103.221C47.204 102.389 46.658 101.583 46.1965 100.692L46.164 100.627C46.073 100.445 45.852 100.374 45.67 100.471C45.579 100.517 45.514 100.601 45.4815 100.699C45.397 100.998 45.3385 101.329 45.345 101.628C45.332 101.94 45.371 102.233 45.4165 102.532C45.514 103.117 45.6895 103.682 45.917 104.209C46.385 105.255 46.983 106.243 47.7175 107.095C47.893 107.322 48.0815 107.524 48.2765 107.732L48.855 108.349L49.4595 108.934C49.661 109.129 49.856 109.331 50.0705 109.513C50.4865 109.883 50.896 110.267 51.3445 110.605L52.001 111.125C52.2285 111.287 52.456 111.443 52.6835 111.606C52.911 111.762 53.1385 111.931 53.3725 112.08L54.0875 112.516C54.328 112.659 54.562 112.815 54.809 112.938L55.55 113.322C55.797 113.445 56.044 113.588 56.2975 113.699L57.0645 114.037L57.8315 114.368L58.5855 114.654C59.593 115.031 60.6005 115.421 61.6145 115.792L64.6825 116.825C72.8985 119.445 81.485 121.024 90.143 121.206C98.788 121.369 107.504 120.199 115.714 117.319C117.768 116.604 119.783 115.779 121.746 114.804C122.24 114.557 122.728 114.303 123.215 114.03C123.339 113.959 123.469 113.887 123.592 113.809L123.937 113.588L124.625 113.153C125.542 112.561 126.446 111.944 127.33 111.307C129.104 110.026 130.801 108.596 132.25 106.913C132.972 106.068 133.661 105.171 134.187 104.157C134.317 103.897 134.434 103.637 134.551 103.37C134.655 103.091 134.752 102.818 134.83 102.538C134.973 101.96 135.078 101.349 134.948 100.718C134.909 100.523 134.714 100.4 134.519 100.439C134.395 100.465 134.298 100.549 134.259 100.66L134.213 100.705Z" fill="#371A45"/>
<path d="M70.669 66.3784C69.2195 67.3599 68.8295 69.3489 69.811 70.7984L76.87 81.2634C77.8515 82.7129 79.8405 83.1029 81.29 82.1214C82.7395 81.1399 83.1295 79.1509 82.148 77.7014L75.089 67.2429C74.1075 65.7869 72.1185 65.4034 70.669 66.3784Z" fill="#FEF26B"/>
<path d="M70.669 66.3784C69.2195 67.3599 68.8295 69.3489 69.811 70.7984L76.87 81.2634C77.8515 82.7129 79.8405 83.1029 81.29 82.1214C82.7395 81.1399 83.1295 79.1509 82.148 77.7014L75.089 67.2429C74.1075 65.7869 72.1185 65.4034 70.669 66.3784Z" fill="#FCDC18"/>
<g opacity="0.6">
<path d="M75.089 67.2365L82.148 77.695C83.071 79.06 82.785 80.8995 81.537 81.9265C81.823 81.0295 81.7125 80.0155 81.147 79.1835L74.088 68.725C73.1065 67.2755 71.1175 66.8855 69.668 67.867C69.5835 67.9255 69.499 67.9905 69.421 68.0555C69.629 67.3925 70.0515 66.7945 70.669 66.3785C72.1185 65.4035 74.1075 65.787 75.089 67.2365Z" fill="white"/>
</g>
<g opacity="0.35">
<path d="M69.811 70.7985L76.87 81.2635C77.8515 82.713 79.8405 83.0965 81.29 82.1215C81.927 81.6925 82.3625 81.062 82.564 80.373C82.8175 79.4955 82.7005 78.514 82.148 77.7015L81.6995 77.0385C81.537 77.2205 81.3485 77.383 81.134 77.526C79.6845 78.5075 77.6955 78.124 76.714 76.668L70.1035 66.866C69.135 67.932 68.9725 69.5635 69.811 70.7985Z" fill="#371A45"/>
</g>
<path d="M79.5155 83.5775C80.302 83.5775 81.1015 83.35 81.8035 82.8755C83.6755 81.608 84.176 79.06 82.9085 77.1815L75.8495 66.723C74.582 64.851 72.034 64.3505 70.1555 65.618C69.252 66.229 68.6345 67.1585 68.4265 68.2375C68.2185 69.3165 68.4395 70.4085 69.0505 71.312L76.1095 81.7705C76.9025 82.947 78.196 83.5775 79.5155 83.5775ZM72.4435 66.7555C73.1715 66.7555 73.8865 67.1065 74.3285 67.7565L81.3875 78.215C81.7255 78.7155 81.849 79.32 81.732 79.9115C81.615 80.5095 81.277 81.023 80.7765 81.361C79.743 82.063 78.326 81.7835 77.6305 80.75L70.5715 70.2915C69.8695 69.258 70.149 67.841 71.1825 67.1455C71.566 66.879 72.008 66.7555 72.4435 66.7555Z" fill="#371A45"/>
<path d="M106.809 93.399C106.523 95.128 107.706 96.7725 109.435 97.0585L121.889 99.1125C123.618 99.3985 125.263 98.2155 125.549 96.4865C125.835 94.7575 124.652 93.113 122.923 92.827L110.469 90.773C108.746 90.4935 107.095 91.67 106.809 93.399Z" fill="#FEF26B"/>
<path d="M106.809 93.399C106.523 95.128 107.706 96.7725 109.435 97.0585L121.889 99.1125C123.618 99.3985 125.263 98.2155 125.549 96.4865C125.835 94.7575 124.652 93.113 122.923 92.827L110.469 90.773C108.746 90.4935 107.095 91.67 106.809 93.399Z" fill="#FCDC18"/>
<g opacity="0.6">
<path d="M110.468 90.773L122.922 92.827C124.547 93.0935 125.685 94.569 125.581 96.1745C125.126 95.3555 124.313 94.738 123.319 94.5755L110.865 92.5215C109.136 92.2355 107.491 93.4185 107.205 95.1475C107.186 95.2515 107.179 95.3555 107.173 95.4595C106.835 94.855 106.692 94.1335 106.809 93.4055C107.095 91.67 108.746 90.4935 110.468 90.773Z" fill="white"/>
</g>
<g opacity="0.35">
<path d="M109.435 97.0585L121.889 99.1125C123.618 99.3985 125.263 98.2155 125.549 96.4865C125.672 95.726 125.516 94.9785 125.152 94.361C124.691 93.5745 123.898 92.9895 122.929 92.827L122.136 92.697C122.156 92.9375 122.149 93.191 122.104 93.4445C121.818 95.1735 120.173 96.3565 118.444 96.0705L106.783 94.1465C106.88 95.5765 107.96 96.8115 109.435 97.0585Z" fill="#371A45"/>
</g>
<path d="M122.409 100.075C124.378 100.075 126.121 98.6445 126.452 96.6425C126.823 94.413 125.302 92.3005 123.072 91.93L110.618 89.876C109.539 89.7005 108.453 89.954 107.563 90.591C106.673 91.228 106.081 92.177 105.906 93.256C105.535 95.4855 107.056 97.598 109.285 97.9685L121.74 100.023C121.961 100.055 122.188 100.075 122.409 100.075ZM109.955 91.6505C110.079 91.6505 110.202 91.6635 110.326 91.683L122.78 93.737C124.015 93.9385 124.853 95.1085 124.645 96.3435C124.444 97.5785 123.274 98.417 122.039 98.209L109.585 96.155C108.35 95.9535 107.511 94.7835 107.719 93.5485C107.817 92.957 108.142 92.4305 108.635 92.0795C109.025 91.7935 109.487 91.6505 109.955 91.6505Z" fill="#371A45"/>
<path d="M42.0105 135.539C42.693 137.151 44.565 137.918 46.1835 137.235L57.812 132.328C59.424 131.645 60.191 129.773 59.5085 128.155C58.826 126.543 56.954 125.776 55.3355 126.458L43.707 131.366C42.0885 132.048 41.328 133.92 42.0105 135.539Z" fill="#FEF26B"/>
<path d="M42.0105 135.539C42.693 137.151 44.565 137.918 46.1835 137.235L57.812 132.328C59.424 131.645 60.191 129.773 59.5085 128.155C58.826 126.543 56.954 125.776 55.3355 126.458L43.707 131.366C42.0885 132.048 41.328 133.92 42.0105 135.539Z" fill="#FCDC18"/>
<g opacity="0.6">
<path d="M43.707 131.366L55.3355 126.458C56.85 125.821 58.5985 126.458 59.372 127.875C58.5465 127.427 57.5325 127.336 56.603 127.726L44.9745 132.633C43.3625 133.316 42.5955 135.188 43.278 136.806C43.317 136.904 43.3625 136.995 43.4145 137.086C42.8035 136.754 42.303 136.221 42.0105 135.539C41.328 133.92 42.0885 132.048 43.707 131.366Z" fill="white"/>
</g>
<g opacity="0.35">
<path d="M46.177 137.235L57.8055 132.328C59.4175 131.645 60.178 129.767 59.502 128.155C59.203 127.446 58.67 126.9 58.033 126.569C57.2205 126.153 56.239 126.081 55.3355 126.458L54.601 126.77C54.7505 126.965 54.874 127.18 54.9715 127.414C55.654 129.026 54.8935 130.904 53.275 131.587L42.381 136.182C43.2325 137.339 44.799 137.814 46.177 137.235Z" fill="#371A45"/>
</g>
<path d="M44.9485 138.399C45.488 138.399 46.0275 138.288 46.5345 138.074L58.163 133.166C60.243 132.289 61.2245 129.877 60.347 127.797C59.9245 126.79 59.1315 126.01 58.111 125.594C57.097 125.178 55.979 125.184 54.9715 125.613L43.343 130.521C42.3355 130.943 41.5555 131.736 41.1395 132.757C40.7235 133.771 40.73 134.889 41.159 135.896C41.5815 136.904 42.3745 137.684 43.395 138.1C43.902 138.295 44.4285 138.399 44.9485 138.399ZM56.564 127.128C56.8565 127.128 57.1425 127.186 57.422 127.297C57.9875 127.524 58.423 127.96 58.657 128.512C59.1445 129.663 58.5985 130.995 57.448 131.483L45.8195 136.39C45.267 136.624 44.6495 136.624 44.084 136.397C43.5185 136.169 43.083 135.734 42.849 135.181C42.615 134.629 42.615 134.011 42.8425 133.446C43.07 132.88 43.5055 132.445 44.058 132.211L55.6865 127.303C55.9725 127.186 56.265 127.128 56.564 127.128Z" fill="#371A45"/>
<path d="M126.335 132.471C124.99 133.589 124.795 135.604 125.913 136.956L133.966 146.673C135.084 148.019 137.099 148.214 138.451 147.096C139.797 145.978 139.992 143.963 138.874 142.611L130.82 132.893C129.702 131.541 127.687 131.353 126.335 132.471Z" fill="#CC25F4"/>
<path d="M126.335 132.471C124.99 133.589 124.795 135.604 125.913 136.956L133.966 146.673C135.084 148.019 137.099 148.214 138.451 147.096C139.797 145.978 139.992 143.963 138.874 142.611L130.82 132.893C129.702 131.541 127.687 131.353 126.335 132.471Z" fill="#FFD2D2"/>
<path d="M136.429 148.734C137.385 148.734 138.295 148.409 139.036 147.791C139.874 147.096 140.394 146.108 140.498 145.016C140.602 143.924 140.271 142.858 139.575 142.019L131.522 132.302C130.826 131.463 129.838 130.943 128.746 130.839C127.654 130.735 126.588 131.067 125.75 131.762C124.008 133.205 123.767 135.792 125.21 137.534L133.264 147.252C133.959 148.09 134.947 148.61 136.039 148.714C136.169 148.734 136.299 148.734 136.429 148.734ZM128.363 132.659C128.434 132.659 128.506 132.666 128.584 132.672C129.188 132.731 129.734 133.017 130.118 133.478L138.165 143.196C138.548 143.657 138.73 144.249 138.672 144.853C138.613 145.458 138.327 146.004 137.866 146.387C137.404 146.771 136.813 146.953 136.208 146.894C135.604 146.836 135.058 146.55 134.674 146.088L126.621 136.371C125.821 135.409 125.958 133.979 126.92 133.179C127.329 132.841 127.836 132.659 128.363 132.659Z" fill="#371A45"/>
<g opacity="0.35">
<path d="M125.919 136.955L133.966 146.673C135.084 148.025 137.099 148.207 138.451 147.095C139.036 146.614 139.4 145.964 139.537 145.275C139.719 144.365 139.504 143.377 138.874 142.617L138.386 142.025C138.276 142.155 138.152 142.279 138.015 142.389C136.67 143.507 134.648 143.319 133.53 141.967L125.965 132.834C124.964 133.991 124.911 135.74 125.919 136.955Z" fill="#371A45"/>
</g>
<path d="M91.924 82.3621C92.717 83.9221 94.641 84.5591 96.201 83.7661L107.465 78.0721C109.025 77.2791 109.662 75.3551 108.869 73.7951C108.076 72.2351 106.152 71.5981 104.592 72.3911L93.328 78.0851C91.768 78.8781 91.131 80.8021 91.924 82.3621Z" fill="#55DFFF"/>
<g opacity="0.35">
<path d="M96.201 83.7662L107.465 78.0722C109.025 77.2792 109.662 75.3552 108.869 73.7952C108.505 73.0737 107.901 72.5537 107.205 72.2807C106.386 71.9557 105.437 71.9687 104.592 72.3912L103.182 73.1062C103.422 73.3467 103.63 73.6262 103.793 73.9447C104.586 75.5112 103.955 77.4352 102.389 78.2217L92.5415 83.2007C93.4775 84.1237 94.9595 84.3967 96.201 83.7662Z" fill="#371A45"/>
</g>
<path d="M94.7775 85.0272C95.408 85.0272 96.0385 84.8777 96.617 84.5852L107.882 78.8912C109.897 77.8707 110.709 75.4007 109.689 73.3792C109.195 72.4042 108.35 71.6827 107.31 71.3382C106.27 70.9937 105.158 71.0782 104.183 71.5722L92.9185 77.2662C90.9035 78.2867 90.091 80.7567 91.1115 82.7782C91.6055 83.7532 92.4505 84.4747 93.4905 84.8192C93.9065 84.9557 94.342 85.0272 94.7775 85.0272ZM106.016 72.9632C106.257 72.9632 106.497 73.0022 106.731 73.0802C107.31 73.2687 107.778 73.6717 108.051 74.2047C108.616 75.3227 108.168 76.6877 107.05 77.2532L95.785 82.9472C95.2455 83.2202 94.6345 83.2657 94.056 83.0772C93.4775 82.8887 93.0095 82.4857 92.7365 81.9527C92.171 80.8347 92.6195 79.4697 93.7375 78.9042L105.002 73.2102C105.321 73.0477 105.665 72.9632 106.016 72.9632Z" fill="#371A45"/>
<path d="M138.75 101.739C139.374 103.377 141.22 104.202 142.858 103.578L154.649 99.0801C156.287 98.4561 157.112 96.6101 156.488 94.9721C155.864 93.3341 154.018 92.5086 152.38 93.1326L140.589 97.6306C138.958 98.2546 138.126 100.101 138.75 101.739Z" fill="#FFD2D2"/>
<g opacity="0.35">
<path d="M139.231 102.584C140.069 103.637 141.532 104.085 142.858 103.578L154.649 99.0802C156.287 98.4562 157.112 96.6037 156.488 94.9722C156.436 94.8357 156.378 94.7057 156.313 94.5822C155.565 93.2042 153.882 92.5607 152.38 93.1327L152.062 93.2562C152.179 93.3992 152.276 93.5487 152.367 93.7112C152.432 93.8347 152.497 93.9647 152.543 94.1012C153.167 95.7392 152.341 97.5852 150.703 98.2092L139.231 102.584Z" fill="#371A45"/>
</g>
<path d="M141.733 104.703C142.227 104.703 142.715 104.612 143.189 104.436L154.98 99.9381C156.001 99.5481 156.807 98.7811 157.255 97.7801C157.704 96.7791 157.736 95.6676 157.346 94.6471C156.956 93.6266 156.189 92.8206 155.188 92.3721C154.187 91.9236 153.076 91.8911 152.055 92.2811L140.264 96.7791C138.152 97.5851 137.086 99.9576 137.892 102.07C138.282 103.091 139.049 103.897 140.05 104.345C140.589 104.586 141.161 104.703 141.733 104.703ZM153.511 93.8411C153.83 93.8411 154.142 93.9061 154.441 94.0426C154.993 94.2896 155.422 94.7381 155.637 95.3036C155.851 95.8691 155.832 96.4801 155.585 97.0391C155.338 97.5916 154.889 98.0206 154.33 98.2351L142.539 102.733C141.974 102.948 141.363 102.928 140.804 102.681C140.251 102.434 139.822 101.986 139.608 101.427C139.159 100.257 139.751 98.9436 140.921 98.5016L152.712 94.0036C152.972 93.8931 153.238 93.8411 153.511 93.8411Z" fill="#371A45"/>
<path d="M32.1825 112.925C31.4025 114.491 32.046 116.415 33.619 117.195L44.9225 122.811C46.489 123.591 48.413 122.948 49.193 121.375C49.973 119.808 49.3295 117.884 47.7565 117.104L36.453 111.488C34.88 110.715 32.9625 111.358 32.1825 112.925Z" fill="#FFD2D2"/>
<g opacity="0.35">
<path d="M31.89 113.854C31.682 115.187 32.345 116.565 33.619 117.195L44.9225 122.811C46.489 123.591 48.413 122.948 49.193 121.381C49.258 121.251 49.3165 121.121 49.3555 120.985C49.856 119.503 49.193 117.826 47.7565 117.111L47.451 116.961C47.425 117.143 47.3795 117.319 47.321 117.494C47.2755 117.624 47.2235 117.761 47.1585 117.891C46.3785 119.457 44.461 120.101 42.888 119.327L31.89 113.854Z" fill="#371A45"/>
</g>
<path d="M46.32 124.06C46.762 124.06 47.204 123.988 47.633 123.845C48.673 123.494 49.5115 122.766 49.999 121.785C50.4865 120.81 50.558 119.698 50.2135 118.658C49.8625 117.618 49.1345 116.78 48.153 116.292L36.8495 110.676C35.8745 110.189 34.763 110.117 33.723 110.462C32.683 110.813 31.8445 111.541 31.357 112.522C30.8695 113.497 30.798 114.609 31.149 115.649C31.5 116.689 32.228 117.527 33.2095 118.015L44.513 123.631C45.0785 123.917 45.696 124.06 46.32 124.06ZM35.0425 112.08C35.387 112.08 35.725 112.158 36.0435 112.314L47.347 117.93C47.8865 118.197 48.2895 118.665 48.4845 119.237C48.6795 119.815 48.634 120.426 48.3675 120.966C48.101 121.505 47.633 121.908 47.061 122.103C46.4825 122.298 45.8715 122.259 45.332 121.986L34.0285 116.37C32.9105 115.811 32.449 114.453 33.008 113.328C33.2745 112.789 33.7425 112.386 34.3145 112.191C34.5485 112.119 34.7955 112.08 35.0425 112.08Z" fill="#371A45"/>
<path d="M44.422 91.1761C45.3125 92.6841 47.269 93.1911 48.7835 92.3071L59.658 85.9046C61.166 85.0141 61.673 83.0576 60.789 81.5431C59.8985 80.0351 57.942 79.5281 56.4275 80.4121L45.553 86.8146C44.0385 87.7051 43.5315 89.6681 44.422 91.1761Z" fill="#FFD2D2"/>
<g opacity="0.35">
<path d="M45.0395 91.9301C46.0405 92.8336 47.5615 93.0286 48.7835 92.3071L59.658 85.9046C61.166 85.0141 61.673 83.0511 60.789 81.5431C60.7175 81.4196 60.633 81.2961 60.5485 81.1856C59.58 79.9571 57.812 79.5931 56.4275 80.4121L56.135 80.5811C56.2715 80.7046 56.395 80.8346 56.512 80.9776C56.5965 81.0881 56.681 81.2051 56.7525 81.3351C57.643 82.8431 57.136 84.8061 55.628 85.6966L45.0395 91.9301Z" fill="#371A45"/>
</g>
<path d="M47.1715 93.659C47.88 93.659 48.595 93.477 49.245 93.0935L60.1195 86.691C62.0695 85.547 62.7195 83.025 61.569 81.075C60.425 79.125 57.903 78.475 55.953 79.6255L45.0785 86.028C43.1285 87.172 42.4785 89.694 43.629 91.644C44.396 92.9375 45.7675 93.659 47.1715 93.659ZM58.033 80.893C58.813 80.893 59.567 81.2895 59.9895 82.011C60.6265 83.09 60.2625 84.481 59.1835 85.1115L48.309 91.514C47.23 92.151 45.839 91.787 45.2085 90.708C44.5715 89.629 44.9355 88.238 46.0145 87.6075L56.889 81.205C57.2465 80.9905 57.643 80.893 58.033 80.893Z" fill="#371A45"/>
<path d="M63.9155 93.4705C63.558 95.1865 64.6695 96.8765 66.3855 97.234L78.742 99.808C80.458 100.165 82.148 99.054 82.5055 97.338C82.863 95.622 81.7515 93.932 80.0355 93.5745L67.679 91.0005C65.9695 90.643 64.273 91.7545 63.9155 93.4705Z" fill="#FFD2D2"/>
<g opacity="0.35">
<path d="M63.87 94.4391C64.0065 95.7781 64.9945 96.9481 66.3855 97.2341L78.742 99.8016C80.458 100.159 82.148 99.0476 82.5055 97.3316C82.538 97.1886 82.5575 97.0456 82.564 96.9091C82.6745 95.3491 81.6085 93.8931 80.0355 93.5681L79.704 93.4966C79.7235 93.6786 79.7235 93.8606 79.7105 94.0426C79.6975 94.1856 79.6845 94.3221 79.652 94.4651C79.2945 96.1811 77.598 97.2926 75.8885 96.9351L63.87 94.4391Z" fill="#371A45"/>
</g>
<path d="M79.392 100.79C80.1785 100.79 80.9585 100.562 81.6345 100.114C82.551 99.5091 83.1815 98.5926 83.4025 97.5201C83.6235 96.4541 83.4155 95.3556 82.811 94.4391C82.2065 93.5226 81.29 92.8921 80.2175 92.6711L67.861 90.0971C65.651 89.6356 63.4735 91.0656 63.012 93.2756C62.5505 95.4921 63.9805 97.6631 66.1905 98.1246L78.547 100.699C78.833 100.757 79.1125 100.79 79.392 100.79ZM67.0355 91.8521C67.185 91.8521 67.341 91.8651 67.497 91.8976L79.8535 94.4716C81.0755 94.7251 81.8685 95.9276 81.6085 97.1496C81.355 98.3716 80.1525 99.1646 78.924 98.9046L66.5675 96.3306C65.3455 96.0771 64.5525 94.8746 64.8125 93.6526C65.0335 92.5866 65.9825 91.8521 67.0355 91.8521Z" fill="#371A45"/>
<path d="M62.1085 140.03C61.426 141.642 62.1865 143.521 63.7985 144.203L75.4205 149.13C77.0325 149.813 78.911 149.052 79.5935 147.44C80.276 145.828 79.5155 143.95 77.9035 143.267L66.2815 138.34C64.6695 137.664 62.7975 138.418 62.1085 140.03Z" fill="#FFE1E1"/>
<g opacity="0.35">
<path d="M61.8745 140.973C61.7445 142.312 62.492 143.651 63.7985 144.203L75.4205 149.124C77.0325 149.806 78.911 149.046 79.5935 147.434C79.652 147.304 79.6975 147.167 79.7365 147.031C80.146 145.523 79.3855 143.885 77.9035 143.261L77.5915 143.131C77.5785 143.313 77.546 143.488 77.494 143.67C77.455 143.807 77.4095 143.943 77.351 144.073C76.6685 145.685 74.79 146.446 73.178 145.763L61.8745 140.973Z" fill="#371A45"/>
</g>
<path d="M76.6555 150.3C78.2545 150.3 79.7755 149.364 80.4385 147.798C81.3225 145.718 80.3475 143.306 78.261 142.422L66.639 137.502C64.559 136.618 62.1475 137.593 61.2635 139.679C60.3795 141.759 61.3545 144.171 63.441 145.055L75.063 149.975C75.583 150.196 76.1225 150.3 76.6555 150.3ZM65.053 139.01C65.352 139.01 65.651 139.068 65.9305 139.192L77.5525 144.112C78.105 144.346 78.5405 144.788 78.768 145.354C78.9955 145.919 78.9955 146.53 78.755 147.089C78.521 147.642 78.079 148.077 77.5135 148.305C76.948 148.532 76.337 148.532 75.778 148.292L64.156 143.371C63.0055 142.884 62.466 141.551 62.9535 140.401C63.1875 139.848 63.6295 139.413 64.195 139.185C64.468 139.068 64.7605 139.01 65.053 139.01Z" fill="#371A45"/>
<path d="M70.253 128.779C70.084 130.521 71.371 132.087 73.113 132.256L85.671 133.478C87.413 133.647 88.9795 132.36 89.1485 130.618C89.3175 128.876 88.0305 127.31 86.2885 127.141L73.7305 125.919C71.982 125.75 70.422 127.037 70.253 128.779Z" fill="#35DCFF"/>
<path d="M85.983 134.278C88.0045 134.278 89.74 132.737 89.935 130.683C90.039 129.63 89.7205 128.597 89.0445 127.778C88.3685 126.959 87.413 126.445 86.36 126.348L73.802 125.126C71.618 124.918 69.6745 126.517 69.46 128.701C69.2455 130.885 70.851 132.828 73.035 133.043L85.593 134.265C85.7295 134.271 85.853 134.278 85.983 134.278ZM73.4185 126.692C73.4965 126.692 73.5745 126.699 73.6525 126.705L86.2105 127.927C87.5235 128.057 88.4855 129.227 88.362 130.54C88.232 131.853 87.062 132.815 85.749 132.692L73.191 131.47C71.878 131.34 70.916 130.17 71.0395 128.857C71.1565 127.622 72.203 126.692 73.4185 126.692Z" fill="#390075"/>
<g opacity="0.6">
<path d="M88.1995 132.198C88.3685 130.456 87.0815 128.889 85.3395 128.72L72.7815 127.498C71.852 127.407 70.981 127.732 70.3375 128.317C70.7145 126.816 72.1445 125.763 73.7305 125.919L86.2885 127.141C88.0305 127.31 89.3175 128.876 89.1485 130.618C89.0705 131.437 88.6805 132.146 88.115 132.659C88.154 132.503 88.1865 132.354 88.1995 132.198Z" fill="white"/>
</g>
<g opacity="0.35">
<path d="M70.253 128.779C70.084 130.521 71.371 132.087 73.113 132.256L85.671 133.472C87.2375 133.621 88.661 132.601 89.051 131.125L76.636 129.916C74.894 129.747 73.607 128.181 73.7695 126.439C73.7825 126.263 73.815 126.094 73.8605 125.925L73.7175 125.912C71.982 125.75 70.422 127.037 70.253 128.779Z" fill="#371A45"/>
</g>
<path d="M85.983 134.408C86.9255 134.408 87.8355 134.083 88.583 133.472C89.428 132.776 89.9545 131.795 90.0585 130.703C90.1625 129.617 89.8375 128.551 89.142 127.706C88.4465 126.861 87.465 126.335 86.373 126.231L73.815 125.009C72.7295 124.905 71.6635 125.23 70.8185 125.925C69.9735 126.621 69.447 127.602 69.343 128.694C69.239 129.78 69.564 130.846 70.2595 131.691C70.955 132.536 71.9365 133.062 73.0285 133.166L85.5865 134.388C85.7165 134.401 85.853 134.408 85.983 134.408ZM73.4185 126.816C73.49 126.816 73.568 126.822 73.6395 126.829L86.1975 128.051C87.439 128.174 88.3555 129.279 88.232 130.527C88.1085 131.769 86.997 132.685 85.7555 132.562L73.1975 131.34C72.5995 131.281 72.0535 130.989 71.67 130.521C71.2865 130.053 71.1045 129.461 71.163 128.863C71.28 127.693 72.268 126.816 73.4185 126.816Z" fill="#371A45"/>
<path d="M100.991 135.649C101.973 137.099 103.962 137.482 105.411 136.501L115.863 129.422C117.313 128.441 117.696 126.452 116.715 125.002C115.733 123.553 113.744 123.169 112.295 124.151L101.843 131.229C100.393 132.211 100.01 134.2 100.991 135.649Z" fill="#35DCFF"/>
<path d="M103.637 137.84C104.404 137.84 105.177 137.619 105.86 137.157L116.305 130.085C117.183 129.494 117.774 128.59 117.976 127.544C118.177 126.497 117.963 125.438 117.365 124.567C116.136 122.753 113.66 122.272 111.846 123.501L101.394 130.579C100.517 131.171 99.9255 132.074 99.724 133.121C99.5225 134.167 99.737 135.227 100.335 136.098C101.102 137.229 102.356 137.84 103.637 137.84ZM114.069 124.404C114.225 124.404 114.375 124.417 114.531 124.45C115.161 124.573 115.701 124.931 116.058 125.451C116.416 125.977 116.546 126.614 116.422 127.245C116.299 127.875 115.948 128.415 115.421 128.772L104.969 135.851C103.877 136.592 102.389 136.306 101.648 135.214C100.907 134.122 101.193 132.633 102.285 131.892L112.737 124.814C113.133 124.541 113.595 124.404 114.069 124.404Z" fill="#390075"/>
<g opacity="0.6">
<path d="M116.995 126.835C116.013 125.386 114.024 125.002 112.575 125.984L102.123 133.062C101.349 133.582 100.888 134.388 100.764 135.253C100.095 133.855 100.524 132.133 101.843 131.236L112.295 124.157C113.745 123.176 115.734 123.559 116.715 125.009C117.177 125.685 117.333 126.484 117.222 127.245C117.157 127.102 117.086 126.965 116.995 126.835Z" fill="white"/>
</g>
<g opacity="0.35">
<path d="M100.991 135.649C101.973 137.099 103.962 137.482 105.411 136.501L115.857 129.429C117.157 128.545 117.605 126.848 116.962 125.464L106.633 132.458C105.184 133.439 103.195 133.056 102.213 131.606C102.116 131.463 102.031 131.307 101.96 131.151L101.843 131.229C100.393 132.211 100.01 134.2 100.991 135.649Z" fill="#371A45"/>
</g>
<path d="M103.637 137.963C104.43 137.963 105.229 137.736 105.931 137.261L116.384 130.183C117.287 129.572 117.898 128.642 118.106 127.563C118.314 126.484 118.093 125.392 117.482 124.489C116.871 123.585 115.942 122.974 114.863 122.766C113.784 122.558 112.691 122.779 111.788 123.39L101.336 130.469C100.433 131.08 99.8215 132.009 99.6135 133.088C99.4055 134.167 99.6265 135.259 100.237 136.163C101.024 137.333 102.318 137.963 103.637 137.963ZM114.07 124.528C114.213 124.528 114.362 124.541 114.505 124.567C115.103 124.684 115.617 125.022 115.955 125.516C116.293 126.016 116.416 126.621 116.299 127.212C116.182 127.81 115.844 128.324 115.35 128.662L104.898 135.74C103.864 136.442 102.448 136.169 101.752 135.136C101.414 134.635 101.29 134.031 101.407 133.439C101.524 132.841 101.862 132.328 102.356 131.99L112.809 124.911C113.186 124.658 113.621 124.528 114.07 124.528Z" fill="#371A45"/>
<path d="M125.536 80.0546C124.97 81.7121 125.867 83.5321 127.525 84.0911L139.472 88.1536C141.129 88.7191 142.949 87.8221 143.508 86.1646C144.074 84.5071 143.177 82.6871 141.519 82.1281L129.572 78.0656C127.915 77.5066 126.095 78.3971 125.536 80.0546Z" fill="#35DCFF"/>
<path d="M140.492 89.1221C141.097 89.1221 141.695 88.9856 142.254 88.7061C143.209 88.2381 143.924 87.4256 144.262 86.4246C144.6 85.4236 144.529 84.3446 144.061 83.3891C143.593 82.4336 142.78 81.7186 141.779 81.3806L129.832 77.3181C128.831 76.9801 127.752 77.0516 126.797 77.5196C125.841 77.9876 125.126 78.8001 124.788 79.8011C124.08 81.8746 125.198 84.1366 127.271 84.8451L139.218 88.9076C139.634 89.0506 140.063 89.1221 140.492 89.1221ZM128.552 78.6896C128.812 78.6896 129.065 78.7286 129.319 78.8196L141.266 82.8821C141.87 83.0836 142.358 83.5191 142.637 84.0911C142.923 84.6696 142.962 85.3131 142.761 85.9176C142.559 86.5221 142.124 87.0096 141.552 87.2891C140.98 87.5686 140.33 87.6141 139.725 87.4126L127.778 83.3501C127.174 83.1486 126.693 82.7131 126.407 82.1411C126.121 81.5626 126.082 80.9191 126.283 80.3146C126.485 79.7101 126.92 79.2226 127.492 78.9431C127.83 78.7741 128.188 78.6896 128.552 78.6896Z" fill="#390075"/>
<g opacity="0.6">
<path d="M142.221 87.4905C142.787 85.833 141.89 84.013 140.232 83.454L128.285 79.3915C127.401 79.0925 126.478 79.2095 125.718 79.6255C126.426 78.2475 128.064 77.552 129.572 78.0655L141.519 82.128C143.177 82.6935 144.074 84.507 143.508 86.1645C143.242 86.938 142.702 87.549 142.033 87.9195C142.104 87.783 142.169 87.6465 142.221 87.4905Z" fill="white"/>
</g>
<g opacity="0.35">
<path d="M125.536 80.0545C124.97 81.712 125.867 83.532 127.525 84.0975L139.472 88.16C140.96 88.667 142.585 87.9975 143.3 86.6455L131.49 82.6285C129.832 82.063 128.935 80.243 129.501 78.592C129.559 78.423 129.624 78.267 129.709 78.1175L129.579 78.072C127.915 77.5065 126.095 78.397 125.536 80.0545Z" fill="#371A45"/>
</g>
<path d="M140.492 89.2456C141.11 89.2456 141.734 89.1026 142.306 88.8166C143.287 88.3291 144.028 87.4971 144.379 86.4636C144.73 85.4301 144.659 84.3186 144.171 83.3371C143.684 82.3556 142.852 81.6146 141.818 81.2636L129.871 77.2011C128.838 76.8501 127.726 76.9216 126.745 77.4091C125.763 77.8966 125.022 78.7286 124.671 79.7621C123.943 81.9006 125.094 84.2341 127.232 84.9621L139.179 89.0246C139.608 89.1741 140.05 89.2456 140.492 89.2456ZM128.552 78.8131C128.799 78.8131 129.039 78.8521 129.273 78.9366L141.22 82.9991C141.792 83.1941 142.254 83.5971 142.52 84.1431C142.787 84.6891 142.832 85.3001 142.637 85.8721C142.442 86.4441 142.039 86.9056 141.493 87.1721C140.947 87.4386 140.336 87.4841 139.764 87.2891L127.817 83.2266C126.634 82.8236 125.997 81.5366 126.4 80.3536C126.595 79.7816 126.998 79.3201 127.544 79.0536C127.869 78.8976 128.207 78.8131 128.552 78.8131Z" fill="#371A45"/>
<path d="M147.369 110.897C147.226 112.633 148.532 114.167 150.268 114.303L162.761 115.317C164.496 115.46 166.03 114.154 166.167 112.418C166.31 110.683 165.003 109.149 163.268 109.012L150.775 107.998C149.039 107.855 147.505 109.162 147.369 110.897Z" fill="#35DCFF"/>
<path d="M163.014 116.11C163.95 116.11 164.841 115.779 165.569 115.168C166.375 114.485 166.862 113.53 166.953 112.483C167.038 111.437 166.706 110.416 166.024 109.61C165.341 108.804 164.386 108.317 163.339 108.226L150.846 107.212C149.8 107.127 148.779 107.459 147.973 108.141C147.167 108.824 146.68 109.779 146.589 110.826C146.504 111.872 146.836 112.893 147.518 113.699C148.201 114.505 149.156 114.992 150.203 115.083L162.696 116.097C162.8 116.11 162.91 116.11 163.014 116.11ZM150.515 108.772C150.58 108.772 150.645 108.772 150.71 108.778L163.203 109.792C163.833 109.844 164.405 110.137 164.815 110.624C165.224 111.112 165.426 111.723 165.374 112.353C165.322 112.984 165.029 113.556 164.542 113.965C164.054 114.375 163.443 114.576 162.813 114.524L150.32 113.51C149.689 113.458 149.117 113.166 148.708 112.678C148.298 112.191 148.097 111.58 148.149 110.949C148.253 109.721 149.293 108.772 150.515 108.772Z" fill="#390075"/>
<g opacity="0.6">
<path d="M165.244 114.011C165.387 112.275 164.08 110.741 162.345 110.605L149.852 109.591C148.929 109.519 148.071 109.851 147.44 110.442C147.791 108.941 149.195 107.875 150.775 108.005L163.268 109.019C165.003 109.162 166.303 110.696 166.167 112.425C166.102 113.237 165.725 113.952 165.172 114.472C165.205 114.316 165.231 114.167 165.244 114.011Z" fill="white"/>
</g>
<g opacity="0.35">
<path d="M147.369 110.891C147.226 112.626 148.532 114.16 150.268 114.303L162.761 115.317C164.321 115.441 165.718 114.401 166.082 112.932L153.732 111.931C151.997 111.788 150.697 110.254 150.833 108.525C150.846 108.349 150.872 108.18 150.918 108.018L150.781 108.005C149.039 107.855 147.505 109.162 147.369 110.891Z" fill="#371A45"/>
</g>
<path d="M163.014 116.234C163.976 116.234 164.899 115.896 165.647 115.259C166.479 114.55 166.986 113.569 167.07 112.49C167.161 111.411 166.817 110.358 166.108 109.526C165.4 108.694 164.418 108.187 163.339 108.102L150.846 107.088C149.767 107.004 148.714 107.342 147.882 108.05C147.05 108.759 146.543 109.74 146.459 110.819C146.368 111.898 146.712 112.951 147.421 113.783C148.129 114.615 149.111 115.122 150.19 115.207L162.683 116.221C162.793 116.234 162.904 116.234 163.014 116.234ZM150.515 108.895C150.573 108.895 150.638 108.895 150.697 108.902L163.19 109.916C163.788 109.961 164.327 110.247 164.717 110.702C165.107 111.164 165.296 111.742 165.25 112.34C165.205 112.938 164.919 113.478 164.464 113.874C164.002 114.264 163.417 114.453 162.826 114.407L150.333 113.393C149.735 113.348 149.195 113.062 148.805 112.607C148.415 112.145 148.227 111.567 148.272 110.969C148.318 110.371 148.604 109.831 149.059 109.435C149.475 109.084 149.988 108.895 150.515 108.895Z" fill="#371A45"/>
<g opacity="0.3">
<path d="M60.0545 64.5521C60.3145 64.7731 60.568 65.0006 60.8215 65.2476C61.1465 65.1761 61.478 65.1046 61.803 65.0331C70.422 63.2196 79.899 62.2446 90.2015 62.2446C94.1795 62.2446 98.0405 62.3941 101.771 62.6801L105.886 59.9501C106.776 60.8146 107.667 61.9716 108.518 63.3561C108.902 63.4016 109.292 63.4536 109.675 63.5056C109.519 63.8371 109.35 64.1621 109.181 64.4871C108.408 65.9756 107.537 67.4121 106.575 68.7836C111.71 79.1056 114.524 97.2406 105.938 105.457C98.944 112.152 87.868 106.776 87.2245 98.9761C86.8475 94.4066 86.5875 89.6811 85.97 85.4691C85.879 84.8646 85.7815 84.2666 85.6775 83.6881C83.3765 84.3381 80.991 84.7866 78.521 85.0011C76.311 85.1896 74.1335 85.1961 71.995 85.0141C61.023 84.1106 51.2145 78.5141 44.7795 70.1031C41.7895 66.1966 39.5275 61.6791 38.2145 56.7391C44.2725 54.0416 53.236 58.6761 60.0545 64.5521Z" fill="#371A45"/>
</g>
<path d="M86.386 72.8721C87.8615 75.3291 88.7 78.6961 89.2525 82.4726C89.87 86.6846 90.13 91.4101 90.507 95.9796C91.1505 103.78 102.226 109.155 109.22 102.46C118.184 93.8866 114.726 74.5101 109.175 64.4806C108.954 64.0906 108.733 63.7136 108.512 63.3496C107.66 61.9651 106.77 60.8081 105.879 59.9436L101.765 62.6736L86.386 72.8721Z" fill="white"/>
<g opacity="0.35">
<path d="M84.982 62.3357L86.3925 72.8787C87.868 75.3357 88.7065 78.7027 89.259 82.4792C89.8765 86.6912 90.1365 91.4167 90.5135 95.9862C91.157 103.786 102.233 109.162 109.227 102.467C111.482 100.309 112.951 97.4617 113.796 94.2507C113.114 95.3882 112.295 96.4282 111.339 97.3447C104.345 104.04 93.2695 98.6642 92.626 90.8642C92.366 87.6922 92.158 84.4422 91.8525 81.3417C99.3405 77.7277 105.405 71.7607 109.181 64.4872C109.35 64.1622 109.513 63.8372 109.675 63.5057C109.292 63.4537 108.902 63.4017 108.518 63.3562C107.667 61.9717 106.776 60.8147 105.886 59.9502L101.771 62.6802C98.0405 62.3942 94.186 62.2447 90.2015 62.2447C89.4085 62.2447 88.6155 62.2512 87.8355 62.2642C86.8735 62.2772 85.9245 62.3032 84.982 62.3357Z" fill="#371A45"/>
</g>
<path d="M101.785 106.575C104.794 106.575 107.68 105.431 109.975 103.24C113.764 99.6132 115.779 93.8737 115.798 86.6327C115.837 75.1992 111.073 63.4797 106.64 59.1832L106.022 58.5852L84.9495 72.5472L85.476 73.4247C88.0565 77.7472 88.635 85.3587 89.194 92.7232C89.2785 93.8412 89.363 94.9657 89.454 96.0772C89.7985 100.27 92.8795 104.059 97.2995 105.736C98.7815 106.302 100.296 106.575 101.785 106.575ZM105.73 61.3412C109.682 65.8067 113.68 76.5967 113.647 86.6197C113.634 91.2542 112.724 97.6242 108.486 101.687C105.678 104.378 101.778 105.138 98.0535 103.721C94.4005 102.337 91.859 99.2622 91.586 95.8887C91.495 94.7837 91.4105 93.6657 91.326 92.5542C90.7865 85.4042 90.2275 78.0267 87.803 73.2167L105.73 61.3412Z" fill="#371A45"/>
<path d="M111.378 71.195L112.347 69.9405C112.055 69.713 105.164 64.474 98.112 68.6795L98.9245 70.038C105.041 66.398 111.125 70.9935 111.378 71.195Z" fill="#371A45"/>
<path d="M14.47 91.5401C14.704 91.2866 14.9445 91.0396 15.1785 90.7991C27.0475 78.5661 37.597 79.3656 37.597 79.3656C45.033 82.0371 47.048 93.4576 49.076 102.22C51.078 110.858 62.4075 114.167 69.2455 105.58C73.633 100.075 73.9125 92.4176 71.995 85.0141C69.967 77.1751 65.482 69.6286 60.815 65.2476C60.555 65.0006 60.3015 64.7731 60.048 64.5521C53.236 58.6761 44.266 54.0416 38.2145 56.7391C37.8635 56.8951 37.5255 57.0706 37.194 57.2786C17.629 69.5181 14.47 91.5401 14.47 91.5401Z" fill="white"/>
<g opacity="0.35">
<path d="M14.47 91.5402C26.6315 78.5272 37.597 79.3657 37.597 79.3657C45.033 82.0372 47.048 93.4577 49.076 102.22C51.078 110.858 62.4075 114.167 69.2455 105.58C71.4035 102.863 72.567 99.6327 72.9635 96.1682C72.4045 97.4032 71.579 98.4887 70.8315 99.6587C65.2415 108.427 52.3065 105.639 50.3045 97.0002C48.894 90.9097 47.503 82.4987 44.396 77.5197C42.5955 74.6272 38.9945 73.4312 35.7965 74.6142C30.7525 76.4862 21.2755 80.5292 15.7505 86.1907C14.769 89.4407 14.47 91.5402 14.47 91.5402Z" fill="#371A45"/>
</g>
<path d="M59.619 111.664C63.519 111.664 67.2955 109.746 70.084 106.243C74.465 100.744 75.3815 92.6385 72.6645 83.4085C70.4155 75.758 65.7355 68.0425 60.75 63.7395C53.4505 57.4475 43.2845 52.2085 36.6285 56.3685C26.2935 62.8295 20.5345 71.9945 17.5185 78.5465C14.2555 85.638 13.4365 91.15 13.404 91.384L12.9165 94.764L15.2435 92.268C26.144 80.6005 36.1085 80.399 37.376 80.425C43.5705 82.791 45.6895 92.138 47.555 100.399C47.711 101.095 47.867 101.784 48.023 102.453C49.063 106.938 52.482 110.357 56.954 111.365C57.851 111.566 58.735 111.664 59.619 111.664ZM60.048 64.552L59.346 65.3645C68.8035 73.5155 76.9545 94.1725 68.407 104.904C65.5145 108.537 61.413 110.169 57.435 109.272C53.7755 108.446 50.974 105.645 50.1225 101.966C49.9665 101.296 49.8105 100.614 49.6545 99.925C47.75 91.501 45.3775 81.0165 37.961 78.3515L37.8245 78.2995L37.6815 78.2865C37.246 78.254 27.6 77.656 16.3225 88.16C18.11 81.543 23.492 67.1065 37.766 58.182C43.4405 54.633 52.937 59.833 59.3525 65.358L60.048 64.552Z" fill="#371A45"/>
<path d="M43.356 83.4607C46.4175 71.1497 66.73 75.4592 66.938 75.5047L67.276 73.9577C67.055 73.9057 61.7835 72.7682 56.0115 73.2557C48.1595 73.9187 43.252 77.3182 41.8155 83.0772L43.356 83.4607Z" fill="#371A45"/>
<path d="M36.1475 54.5484C36.5895 54.5354 36.9405 54.1649 36.921 53.7229L36.18 30.6219C36.167 30.1799 35.7965 29.8289 35.3545 29.8484C30.707 29.9979 27.0605 33.8849 27.21 38.5324L27.4635 46.4104C27.613 51.0514 31.5 54.6979 36.1475 54.5484Z" fill="white"/>
<path d="M35.8745 54.75C35.9655 54.75 36.063 54.75 36.154 54.7435C36.7065 54.724 37.142 54.2625 37.1225 53.71L36.3815 30.609C36.362 30.0565 35.9005 29.6145 35.348 29.6405C30.5965 29.79 26.859 33.781 27.0085 38.526L27.262 46.404C27.418 51.0645 31.253 54.75 35.8745 54.75ZM35.387 30.037C35.712 30.037 35.9785 30.297 35.9915 30.622L36.7325 53.723C36.7455 54.0545 36.479 54.334 36.1475 54.347C36.0565 54.347 35.972 54.3535 35.881 54.3535C31.4675 54.3535 27.808 50.837 27.6715 46.3975L27.418 38.5195C27.275 33.989 30.8435 30.1865 35.374 30.0435C35.374 30.0435 35.3805 30.037 35.387 30.037Z" fill="#371A45"/>
<g opacity="0.35">
<path d="M27.3465 42.7122L27.4635 46.4042C27.613 51.0517 31.5 54.6982 36.1475 54.5487C36.5895 54.5357 36.9405 54.1652 36.921 53.7167L36.726 47.5742C36.609 47.8602 36.336 48.0617 36.011 48.0747L35.465 48.0877C31.799 48.2112 28.5945 45.9557 27.3465 42.7122Z" fill="#371A45"/>
</g>
<path d="M35.8745 55.6536C35.9785 55.6536 36.0825 55.6536 36.18 55.6471C37.233 55.6146 38.0585 54.7306 38.026 53.6776L37.285 30.5766C37.2525 29.5236 36.375 28.7046 35.3155 28.7306C30.07 28.8996 25.936 33.3066 26.105 38.5521L26.3585 46.4301C26.5275 51.5846 30.7655 55.6536 35.8745 55.6536ZM35.0945 30.9601L35.816 53.4436C31.916 53.4111 28.6985 50.2911 28.575 46.3651L28.3215 38.4871C28.1915 34.5611 31.2075 31.2461 35.0945 30.9601Z" fill="#371A45"/>
<path d="M111.612 27.4046C111.17 27.4176 110.819 27.7881 110.839 28.2301L111.58 51.3311C111.593 51.7731 111.963 52.1241 112.405 52.1046C117.053 51.9551 120.699 48.0681 120.55 43.4206L120.296 35.5426C120.147 30.9016 116.26 27.2551 111.612 27.4046Z" fill="white"/>
<path d="M112.373 52.3061C112.386 52.3061 112.392 52.3061 112.405 52.3061C117.157 52.1566 120.894 48.1656 120.745 43.4206L120.491 35.5426C120.42 33.2416 119.451 31.1096 117.774 29.5366C116.097 27.9636 113.907 27.1316 111.606 27.2096C111.339 27.2161 111.092 27.3331 110.91 27.5281C110.728 27.7231 110.631 27.9766 110.637 28.2431L111.378 51.3441C111.391 51.8836 111.84 52.3061 112.373 52.3061ZM111.885 27.5996C113.978 27.5996 115.967 28.3861 117.501 29.8226C119.1 31.3241 120.023 33.3586 120.095 35.5556L120.348 43.4336C120.491 47.9641 116.923 51.7666 112.392 51.9096C112.061 51.9226 111.781 51.6561 111.768 51.3246L111.027 28.2236C111.021 28.0611 111.079 27.9116 111.19 27.7881C111.3 27.6711 111.45 27.6061 111.612 27.5996C111.71 27.5996 111.794 27.5996 111.885 27.5996Z" fill="#371A45"/>
<g opacity="0.35">
<path d="M111.365 44.9221L111.573 51.3311C111.586 51.7731 111.957 52.1241 112.405 52.1046C114.843 52.0266 117.007 50.9151 118.496 49.2056C119.835 47.6651 120.621 45.6241 120.55 43.4206L120.446 40.0991C119.217 43.0566 116.344 45.1756 112.938 45.2861L112.093 45.3121C111.781 45.3316 111.515 45.1691 111.365 44.9221Z" fill="#371A45"/>
</g>
<path d="M112.373 53.2161C112.392 53.2161 112.412 53.2161 112.431 53.2161C117.677 53.0471 121.811 48.6401 121.642 43.3946L121.388 35.5166C121.304 32.975 120.238 30.6156 118.385 28.8736C116.533 27.1316 114.109 26.2215 111.567 26.2995C111.06 26.3125 110.586 26.5271 110.235 26.8976C109.884 27.2681 109.701 27.7556 109.721 28.2626L110.462 51.3636C110.501 52.3971 111.352 53.2161 112.373 53.2161ZM111.95 28.5031C113.79 28.5161 115.532 29.2116 116.884 30.4856C118.307 31.8246 119.126 33.6315 119.191 35.588L119.445 43.4661C119.568 47.3986 116.559 50.7135 112.672 50.993L111.95 28.5031Z" fill="#371A45"/>
<path d="M73.8735 80.3664C52.119 80.3664 34.4835 62.7309 34.4835 40.9764C34.4835 19.2219 52.119 1.58643 73.8735 1.58643C95.628 1.58643 113.263 19.2219 113.263 40.9764C113.263 62.7309 95.628 80.3664 73.8735 80.3664Z" fill="white"/>
<path d="M73.802 80.568C75.1735 80.568 76.558 80.4965 77.9425 80.3535C99.6525 78.111 115.493 58.624 113.25 36.9075C111.008 15.1975 91.5145 -0.642982 69.8045 1.59952C48.0945 3.84202 32.254 23.329 34.4965 45.0455C35.582 55.5625 40.6975 65.0265 48.907 71.6955C56.031 77.487 64.7475 80.568 73.802 80.568ZM73.906 1.78802C93.7245 1.78802 110.78 16.816 112.86 36.953C115.083 58.4485 99.399 77.7405 77.91 79.9635C67.497 81.0425 57.292 77.994 49.167 71.3965C41.042 64.7925 35.9785 55.426 34.8995 45.013C32.6765 23.5175 48.361 4.22552 69.85 2.00252C71.2085 1.85302 72.5605 1.78802 73.906 1.78802Z" fill="#371A45"/>
<g opacity="0.35">
<path d="M34.5095 39.5597C34.4445 41.3602 34.503 43.1802 34.6915 45.0197C36.9275 66.6582 56.2845 82.3817 77.9165 80.1522C99.555 77.9162 115.278 58.5592 113.049 36.9272C112.984 36.3032 112.906 35.6857 112.815 35.0747C112.145 54.4187 97.2995 70.7922 77.5005 72.8397C56.486 75.0107 37.6295 60.2362 34.5095 39.5597Z" fill="#371A45"/>
</g>
<path d="M73.7955 81.4716C75.1995 81.4716 76.6165 81.4001 78.0335 81.2506C100.244 78.9561 116.442 59.0206 114.148 36.8101C111.853 14.5996 91.9175 -1.59841 69.707 0.696091C47.4965 2.99059 31.2985 22.9261 33.593 45.1366C34.7045 55.8941 39.937 65.5791 48.335 72.3976C55.6215 78.3191 64.533 81.4716 73.7955 81.4716ZM73.906 2.69159C93.263 2.69159 109.923 17.3751 111.957 37.0441C114.128 58.0391 98.8075 76.8891 77.8125 79.0601C56.8175 81.2311 37.9675 65.9106 35.7965 44.9156C33.6255 23.9206 48.946 5.07059 69.941 2.89959C71.2735 2.75659 72.593 2.69159 73.906 2.69159Z" fill="#371A45"/>
<path d="M34.9255 46.0205C35.6015 53.697 38.7215 60.6065 43.5055 66.1315C47.0935 70.272 60.906 76.85 77.143 75.5695C92.197 74.38 105.171 65.1565 107.979 60.4505C111.723 54.178 113.588 46.833 112.912 39.15C111.125 18.831 92.925 11.9475 71.3905 13.8455C49.856 15.7435 33.138 25.7015 34.9255 46.0205Z" fill="#371A45"/>
<path d="M72.879 76.6811C74.296 76.6811 75.7455 76.6291 77.221 76.5121C92.795 75.2836 105.86 65.8651 108.798 60.9381C112.782 54.2626 114.531 46.6966 113.861 39.0721C112.984 29.1336 108.323 21.8211 100.01 17.3361C92.7495 13.4231 82.824 11.8891 71.3125 12.9031C59.801 13.9171 50.2915 17.1606 43.8305 22.2826C36.427 28.1521 33.112 36.1666 33.9895 46.1051C34.659 53.7361 37.7075 60.8731 42.797 66.7491C46.008 70.4736 57.7535 76.6811 72.879 76.6811ZM78.04 14.4956C86.3795 14.4956 93.575 16.0231 99.1 19.0066C106.815 23.1666 111.144 29.9721 111.963 39.2346C112.6 46.4626 110.943 53.6321 107.16 59.9631C104.475 64.4611 91.7745 73.4571 77.065 74.6206C60.763 75.9076 47.425 69.2126 44.2205 65.5076C39.3975 59.9371 36.505 53.1706 35.868 45.9361C33.658 20.8526 60.0285 15.8021 71.462 14.7946C73.724 14.5931 75.921 14.4956 78.04 14.4956Z" fill="#371A45"/>
<g opacity="0.5">
<path d="M42.4941 43.4765C41.4786 39.7648 42.8362 36.1591 45.5265 35.423C48.2168 34.6869 51.221 37.0991 52.2365 40.8108C53.2521 44.5226 51.8945 48.1282 49.2042 48.8643C46.5139 49.6004 43.5097 47.1882 42.4941 43.4765Z" fill="white"/>
</g>
<g opacity="0.5">
<path d="M52.2062 56.4423C51.5091 54.8195 52.0723 53.0193 53.4642 52.4213C54.8561 51.8234 56.5496 52.6542 57.2468 54.277C57.9439 55.8998 57.3807 57.7001 55.9887 58.298C54.5968 58.8959 52.9033 58.0651 52.2062 56.4423Z" fill="white"/>
</g>
<g opacity="0.35">
<path d="M40.8405 26.397C36.4725 31.363 34.2105 37.8565 34.9255 46.0205C35.6015 53.697 38.7215 60.6065 43.499 66.1315C47.087 70.272 60.906 76.85 77.1365 75.5695C82.8695 75.121 88.297 73.5025 92.9835 71.4095C72.996 72.56 56.1545 64.474 51.7085 59.339C45.6375 52.332 41.679 43.5635 40.821 33.82C40.6 31.207 40.613 28.737 40.8405 26.397Z" fill="#111A28"/>
</g>
<path d="M36.7065 29.01C36.986 29.01 37.272 28.8995 37.4865 28.685L37.6035 28.5745L37.662 28.4575C43.4405 18.636 55.7125 12.214 71.3385 10.836C87.049 9.45153 100.257 13.8 107.583 22.77L107.654 22.8545C108.083 23.2835 108.785 23.29 109.221 22.8545C109.637 22.4385 109.656 21.782 109.273 21.3465C101.479 11.8175 87.582 7.18953 71.15 8.63253C54.835 10.069 41.952 16.868 35.7965 27.281C35.504 27.71 35.5495 28.3015 35.933 28.6785C36.1475 28.8995 36.427 29.01 36.7065 29.01Z" fill="#371A45"/>
<g opacity="0.5">
<path d="M105.216 52.0071C105.216 52.0071 109.747 31.4086 98.2355 24.3756C86.724 17.3426 71.189 18.7401 71.644 19.7086C71.644 19.7086 89.2135 22.3606 97.1435 35.3671C103.26 45.3966 105.216 52.0071 105.216 52.0071Z" fill="white"/>
</g>
<path d="M95.564 150.43C96.2465 152.042 98.1185 152.809 99.737 152.127L111.365 147.219C112.977 146.537 113.745 144.665 113.062 143.046C112.38 141.434 110.507 140.667 108.889 141.35L97.2605 146.257C95.642 146.94 94.8815 148.818 95.564 150.43Z" fill="#FEF26B"/>
<path d="M95.564 150.43C96.2465 152.042 98.1185 152.809 99.737 152.127L111.365 147.219C112.977 146.537 113.745 144.665 113.062 143.046C112.38 141.434 110.507 140.667 108.889 141.35L97.2605 146.257C95.642 146.94 94.8815 148.818 95.564 150.43Z" fill="#FCDC18"/>
<g opacity="0.6">
<path d="M97.2605 146.257L108.889 141.35C110.403 140.713 112.152 141.35 112.925 142.767C112.1 142.318 111.086 142.227 110.156 142.617L98.528 147.525C96.916 148.207 96.149 150.079 96.8315 151.698C96.8705 151.795 96.916 151.886 96.968 151.977C96.357 151.646 95.8565 151.113 95.564 150.43C94.8815 148.818 95.642 146.94 97.2605 146.257Z" fill="white"/>
</g>
<g opacity="0.35">
<path d="M99.7305 152.127L111.359 147.219C112.971 146.537 113.731 144.658 113.055 143.046C112.756 142.338 112.223 141.792 111.586 141.46C110.774 141.044 109.792 140.973 108.889 141.35L108.154 141.662C108.304 141.857 108.427 142.071 108.525 142.305C109.207 143.917 108.447 145.796 106.828 146.478L95.9345 151.074C96.786 152.237 98.3525 152.705 99.7305 152.127Z" fill="#371A45"/>
</g>
<path d="M98.502 153.29C99.0415 153.29 99.581 153.18 100.088 152.965L111.716 148.058C113.796 147.18 114.778 144.769 113.9 142.689C113.478 141.681 112.685 140.901 111.664 140.485C110.65 140.069 109.532 140.076 108.525 140.505L96.8965 145.412C95.889 145.835 95.109 146.628 94.693 147.648C94.277 148.662 94.2835 149.78 94.7125 150.788C95.135 151.795 95.928 152.575 96.9485 152.991C97.4555 153.193 97.982 153.29 98.502 153.29ZM110.117 142.019C110.41 142.019 110.696 142.078 110.975 142.188C111.541 142.416 111.976 142.851 112.21 143.404C112.444 143.956 112.444 144.574 112.217 145.139C111.989 145.705 111.554 146.14 111.001 146.374L99.373 151.282C98.8205 151.516 98.203 151.516 97.6375 151.288C97.072 151.061 96.6365 150.625 96.4025 150.073C96.1685 149.52 96.1685 148.903 96.396 148.337C96.6235 147.772 97.059 147.336 97.6115 147.102L109.24 142.195C109.519 142.078 109.818 142.019 110.117 142.019Z" fill="#371A45"/>
<path d="M129.481 122.064C129.195 123.793 130.378 125.438 132.107 125.724L144.561 127.778C146.29 128.064 147.934 126.881 148.22 125.152C148.506 123.423 147.324 121.778 145.595 121.492L133.141 119.438C131.412 119.152 129.767 120.335 129.481 122.064Z" fill="#FEF26B"/>
<path d="M129.481 122.064C129.195 123.793 130.378 125.438 132.107 125.724L144.561 127.778C146.29 128.064 147.934 126.881 148.22 125.152C148.506 123.423 147.324 121.778 145.595 121.492L133.141 119.438C131.412 119.152 129.767 120.335 129.481 122.064Z" fill="#FCDC18"/>
<g opacity="0.6">
<path d="M133.14 119.438L145.594 121.492C147.219 121.759 148.357 123.234 148.253 124.84C147.798 124.021 146.985 123.403 145.991 123.241L133.537 121.187C131.808 120.901 130.163 122.084 129.877 123.813C129.858 123.917 129.851 124.021 129.845 124.125C129.507 123.52 129.364 122.799 129.481 122.071C129.767 120.335 131.411 119.152 133.14 119.438Z" fill="white"/>
</g>
<g opacity="0.35">
<path d="M132.107 125.724L144.561 127.778C146.29 128.064 147.934 126.881 148.22 125.152C148.344 124.391 148.188 123.644 147.824 123.026C147.362 122.24 146.569 121.655 145.601 121.492L144.808 121.362C144.827 121.603 144.821 121.856 144.775 122.11C144.489 123.839 142.845 125.022 141.116 124.736L129.455 122.805C129.552 124.242 130.631 125.477 132.107 125.724Z" fill="#371A45"/>
</g>
<path d="M145.074 128.733C147.044 128.733 148.786 127.303 149.117 125.301C149.293 124.222 149.039 123.137 148.402 122.246C147.765 121.356 146.816 120.764 145.737 120.589L133.283 118.535C131.054 118.164 128.941 119.685 128.571 121.915C128.201 124.144 129.722 126.257 131.951 126.627L144.405 128.681C144.632 128.72 144.853 128.733 145.074 128.733ZM132.62 120.316C132.744 120.316 132.867 120.329 132.991 120.348L145.445 122.402C146.036 122.5 146.563 122.825 146.914 123.319C147.265 123.813 147.408 124.411 147.31 125.009C147.109 126.244 145.939 127.076 144.704 126.874L132.25 124.82C131.015 124.619 130.177 123.449 130.385 122.214C130.567 121.102 131.535 120.316 132.62 120.316Z" fill="#371A45"/>
<path d="M22.8485 89.7592C22.1595 91.3712 22.9135 93.2497 24.5255 93.9387L36.1345 98.8917C37.7465 99.5807 39.625 98.8267 40.314 97.2147C41.003 95.6027 40.249 93.7242 38.637 93.0352L27.028 88.0822C25.416 87.3997 23.5375 88.1537 22.8485 89.7592Z" fill="#FEF26B"/>
<path d="M22.8485 89.7592C22.1595 91.3712 22.9135 93.2497 24.5255 93.9387L36.1345 98.8917C37.7465 99.5807 39.625 98.8267 40.314 97.2147C41.003 95.6027 40.249 93.7242 38.637 93.0352L27.028 88.0822C25.416 87.3997 23.5375 88.1537 22.8485 89.7592Z" fill="#FCDC18"/>
<g opacity="0.6">
<path d="M27.028 88.0822L38.637 93.0352C40.1515 93.6787 40.9055 95.3817 40.4245 96.9222C40.1775 96.0122 39.534 95.2257 38.611 94.8292L27.002 89.8762C25.39 89.1872 23.5115 89.9412 22.8225 91.5532C22.7835 91.6507 22.7445 91.7482 22.712 91.8457C22.53 91.1762 22.556 90.4482 22.8485 89.7592C23.5375 88.1537 25.416 87.3997 27.028 88.0822Z" fill="white"/>
</g>
<g opacity="0.35">
<path d="M24.5255 93.9386L36.1345 98.8981C37.7465 99.5871 39.625 98.8266 40.314 97.2211C40.6195 96.5126 40.639 95.7521 40.431 95.0631C40.171 94.1921 39.534 93.4316 38.637 93.0481L37.9025 92.7361C37.8635 92.9766 37.7985 93.2171 37.6945 93.4511C37.0055 95.0631 35.127 95.8171 33.515 95.1281L22.6405 90.4871C22.4 91.8976 23.154 93.3536 24.5255 93.9386Z" fill="#371A45"/>
</g>
<path d="M37.376 100.068C37.896 100.068 38.416 99.9707 38.91 99.7692C39.9305 99.3597 40.7235 98.5797 41.1525 97.5787C41.5815 96.5777 41.5945 95.4597 41.185 94.4392C40.7755 93.4187 39.9955 92.6257 38.9945 92.1967L27.3855 87.2437C25.3055 86.3532 22.894 87.3282 22.0035 89.4017C21.113 91.4817 22.088 93.8932 24.1615 94.7837L35.7705 99.7367C36.2905 99.9577 36.83 100.068 37.376 100.068ZM25.78 88.7452C26.079 88.7452 26.378 88.8037 26.664 88.9272L38.273 93.8802C38.8255 94.1142 39.2545 94.5562 39.482 95.1217C39.7095 95.6872 39.703 96.3047 39.469 96.8572C39.235 97.4097 38.793 97.8387 38.2275 98.0662C37.662 98.2937 37.0445 98.2872 36.492 98.0532L24.883 93.1002C23.7325 92.6062 23.1995 91.2737 23.687 90.1232C24.0575 89.2652 24.896 88.7452 25.78 88.7452Z" fill="#371A45"/>
<path d="M12.3965 115.213C13.521 116.552 15.5425 116.728 16.8815 115.603L26.547 107.485C27.886 106.36 28.0615 104.339 26.937 103C25.8125 101.661 23.791 101.485 22.452 102.61L12.7865 110.728C11.4475 111.853 11.272 113.868 12.3965 115.213Z" fill="#35DCFF"/>
<path d="M14.8405 117.137C15.744 117.137 16.6475 116.832 17.395 116.208L27.0605 108.089C28.7375 106.679 28.9585 104.17 27.548 102.486C26.1375 100.809 23.6285 100.588 21.945 101.999L12.2795 110.117C10.6025 111.528 10.3815 114.037 11.792 115.72C12.572 116.656 13.703 117.137 14.8405 117.137ZM24.4995 102.655C25.182 102.655 25.858 102.948 26.3325 103.507C27.1775 104.514 27.0475 106.029 26.04 106.874L16.3745 114.992C15.367 115.837 13.8525 115.707 13.0075 114.7C12.1625 113.692 12.2925 112.178 13.3 111.333L22.9655 103.214C23.4075 102.837 23.9535 102.655 24.4995 102.655Z" fill="#390075"/>
<g opacity="0.6">
<path d="M27.405 104.787C26.2805 103.448 24.259 103.273 22.92 104.397L13.2545 112.516C12.5395 113.114 12.1625 113.965 12.13 114.83C11.3175 113.51 11.571 111.749 12.793 110.728L22.4585 102.61C23.7975 101.485 25.819 101.661 26.9435 103C27.47 103.63 27.7105 104.404 27.678 105.171C27.5935 105.034 27.5025 104.911 27.405 104.787Z" fill="white"/>
</g>
<g opacity="0.35">
<path d="M12.3965 115.213C13.521 116.552 15.5425 116.728 16.8815 115.603L26.5405 107.485C27.743 106.471 28.0095 104.735 27.2295 103.422L17.6745 111.443C16.3355 112.568 14.314 112.392 13.1895 111.053C13.079 110.917 12.975 110.78 12.8905 110.631L12.78 110.722C11.4475 111.853 11.272 113.868 12.3965 115.213Z" fill="#371A45"/>
</g>
<path d="M14.8405 117.261C15.77 117.261 16.706 116.949 17.473 116.305L27.1385 108.187C28.8675 106.731 29.095 104.144 27.639 102.408C26.183 100.679 23.596 100.452 21.8605 101.908L12.195 110.026C10.466 111.482 10.2385 114.069 11.6945 115.805C12.507 116.767 13.6705 117.261 14.8405 117.261ZM24.4995 102.779C25.1495 102.779 25.7865 103.052 26.235 103.585C27.041 104.54 26.911 105.977 25.9555 106.776L16.29 114.895C15.3345 115.701 13.898 115.577 13.0985 114.615C12.2925 113.66 12.4225 112.223 13.378 111.424L23.0435 103.305C23.466 102.954 23.9795 102.779 24.4995 102.779Z" fill="#371A45"/>
</svg>
