<svg width="192" height="200" viewBox="0 0 192 200" fill="none" xmlns="http://www.w3.org/2000/svg">
<path d="M62.005 95.9449C62.005 120.105 69.155 138.25 80.32 149.35C88.66 157.645 99.235 162.01 110.75 162.01C133.875 162.01 153.24 144.21 158.24 112.615C159.06 107.425 159.495 101.865 159.495 95.9499C159.495 54.0149 137.67 29.8849 110.745 29.8849C83.82 29.8849 62.005 53.7399 62.005 95.9449Z" fill="#FFAD40"/>
<g opacity="0.6">
<path d="M62.0049 95.9449C62.0049 96.3999 62.0049 96.8499 62.0149 97.2999C62.4849 55.9599 84.1249 32.6199 110.755 32.6199C137.39 32.6199 159.04 56.2399 159.495 97.3499C159.5 96.8849 159.505 96.4149 159.505 95.9449C159.505 54.0099 137.68 29.8799 110.755 29.8799C83.8299 29.8799 62.0049 53.7399 62.0049 95.9449Z" fill="white"/>
</g>
<path d="M79.1899 147.395L114.02 120.745C114.02 120.745 116.44 138.03 132.075 134.415C143.035 131.88 147.645 119.905 149.425 112.96C150.695 107.38 151.525 101.42 151.855 95.1449C153.465 64.8099 145.825 44.1799 128.19 34.7999C122.855 31.9649 116.36 30.7799 109.24 29.8799C135.77 29.8799 157.275 53.6549 157.275 94.9749C157.275 100.815 156.845 106.3 156.035 111.42C155.955 111.925 155.87 112.425 155.785 112.92C155.75 113.13 155.71 113.34 155.67 113.55C155.615 113.86 155.555 114.165 155.5 114.47C155.455 114.7 155.41 114.925 155.365 115.155C155.31 115.44 155.25 115.72 155.19 116C155.14 116.23 155.09 116.46 155.04 116.69C154.98 116.965 154.915 117.24 154.85 117.515C154.8 117.74 154.745 117.965 154.69 118.19C154.62 118.47 154.555 118.75 154.48 119.025C154.425 119.235 154.375 119.45 154.32 119.66C154.235 119.98 154.15 120.3 154.065 120.615C154.02 120.78 153.98 120.945 153.93 121.105C153.8 121.565 153.665 122.025 153.53 122.475C153.475 122.66 153.415 122.845 153.36 123.03C153.275 123.31 153.185 123.59 153.095 123.87C153.03 124.075 152.96 124.28 152.895 124.485C152.81 124.74 152.725 124.995 152.64 125.245C152.57 125.455 152.495 125.66 152.425 125.865C152.34 126.11 152.25 126.355 152.16 126.6C152.085 126.805 152.01 127.005 151.935 127.205C151.84 127.455 151.745 127.7 151.65 127.95C151.575 128.14 151.5 128.335 151.425 128.52C151.315 128.8 151.2 129.07 151.085 129.345C151.02 129.5 150.96 129.655 150.895 129.805C150.72 130.215 150.545 130.62 150.365 131.025C150.29 131.19 150.215 131.35 150.14 131.51C150.025 131.76 149.91 132.015 149.79 132.26C149.705 132.44 149.615 132.62 149.53 132.8C149.42 133.025 149.31 133.25 149.2 133.475C149.11 133.66 149.015 133.84 148.925 134.02C148.815 134.24 148.7 134.455 148.585 134.67C148.49 134.85 148.395 135.025 148.3 135.205C148.18 135.425 148.065 135.64 147.945 135.855C147.85 136.025 147.76 136.195 147.665 136.36C147.53 136.595 147.395 136.83 147.255 137.065C147.175 137.205 147.09 137.345 147.01 137.485C146.795 137.84 146.58 138.195 146.36 138.545C146.27 138.685 146.18 138.82 146.095 138.96C145.955 139.18 145.81 139.4 145.665 139.62C145.56 139.775 145.455 139.93 145.35 140.085C145.22 140.28 145.085 140.475 144.95 140.665C144.84 140.825 144.73 140.98 144.615 141.135C144.48 141.32 144.35 141.505 144.215 141.69C144.1 141.845 143.99 142 143.875 142.15C143.735 142.335 143.595 142.515 143.455 142.7C143.345 142.845 143.23 142.99 143.12 143.135C142.965 143.33 142.81 143.525 142.65 143.72C142.55 143.845 142.45 143.97 142.35 144.09C142.1 144.395 141.845 144.69 141.59 144.985C141.49 145.1 141.39 145.21 141.29 145.325C141.125 145.515 140.955 145.7 140.79 145.885C140.67 146.015 140.55 146.145 140.425 146.275C140.275 146.44 140.12 146.6 139.97 146.76C139.845 146.895 139.715 147.025 139.585 147.155C139.435 147.31 139.28 147.46 139.13 147.615C139 147.745 138.87 147.875 138.74 148C138.585 148.15 138.425 148.3 138.27 148.45C138.14 148.57 138.015 148.695 137.885 148.815C137.715 148.975 137.54 149.13 137.365 149.285C137.245 149.39 137.13 149.495 137.01 149.6C136.73 149.845 136.445 150.09 136.16 150.325C136.05 150.415 135.935 150.505 135.825 150.595C135.635 150.75 135.45 150.9 135.255 151.05C135.12 151.155 134.985 151.26 134.85 151.365C134.68 151.495 134.51 151.625 134.34 151.755C134.195 151.86 134.055 151.965 133.91 152.07C133.745 152.19 133.575 152.31 133.405 152.43C133.26 152.535 133.115 152.635 132.97 152.735C132.8 152.855 132.625 152.97 132.45 153.085C132.305 153.18 132.16 153.275 132.015 153.37C131.83 153.49 131.64 153.61 131.455 153.725C131.32 153.81 131.19 153.895 131.055 153.975C130.745 154.165 130.435 154.35 130.12 154.53C130.005 154.6 129.885 154.66 129.765 154.73C129.555 154.85 129.345 154.965 129.135 155.08C128.99 155.16 128.84 155.235 128.695 155.315C128.51 155.41 128.325 155.51 128.14 155.605C127.985 155.685 127.83 155.76 127.67 155.835C127.49 155.925 127.305 156.01 127.125 156.1C126.965 156.175 126.81 156.25 126.65 156.32C126.465 156.405 126.28 156.485 126.095 156.57C125.935 156.64 125.78 156.71 125.62 156.775C125.42 156.86 125.225 156.94 125.025 157.02C124.88 157.08 124.73 157.14 124.585 157.2C124.29 157.315 123.99 157.43 123.69 157.54C123.535 157.595 123.38 157.65 123.22 157.705C122.99 157.785 122.755 157.87 122.52 157.945C122.365 157.995 122.205 158.045 122.045 158.095C121.845 158.16 121.65 158.22 121.45 158.28C121.285 158.33 121.12 158.38 120.95 158.425C120.755 158.48 120.56 158.535 120.365 158.59C120.195 158.635 120.025 158.68 119.86 158.725C119.665 158.775 119.465 158.825 119.27 158.87C119.105 158.91 118.935 158.95 118.77 158.99C118.56 159.04 118.35 159.085 118.14 159.13C117.985 159.165 117.825 159.2 117.67 159.23C117.38 159.29 117.09 159.34 116.8 159.395C116.625 159.425 116.445 159.455 116.27 159.485C116.01 159.53 115.75 159.57 115.49 159.61C115.33 159.635 115.17 159.655 115.005 159.675C114.79 159.705 114.575 159.73 114.36 159.76C114.19 159.78 114.015 159.8 113.845 159.815C113.64 159.835 113.43 159.86 113.22 159.875C113.045 159.89 112.87 159.905 112.695 159.92C112.485 159.935 112.275 159.95 112.065 159.965C111.895 159.975 111.72 159.985 111.55 159.995C111.325 160.005 111.1 160.015 110.88 160.025C110.72 160.03 110.56 160.04 110.4 160.04C110.1 160.05 109.8 160.05 109.5 160.055C109.42 160.055 109.34 160.06 109.265 160.06C108.93 160.06 108.6 160.055 108.265 160.05C108.195 160.05 108.125 160.045 108.055 160.045C107.795 160.04 107.535 160.03 107.28 160.015C107.19 160.01 107.105 160.005 107.015 160C106.76 159.985 106.51 159.97 106.26 159.955C106.18 159.95 106.105 159.945 106.025 159.94C105.975 159.935 105.925 159.935 105.88 159.93C105.885 159.93 105.89 159.93 105.895 159.93C95.8599 159.16 86.6799 154.945 79.2849 147.585L79.1899 147.395Z" fill="#F28033"/>
<path d="M110.75 162.825C124.505 162.825 136.975 156.565 145.865 145.205C155.32 133.12 160.315 116.09 160.315 95.9449C160.315 75.7999 155.32 58.7649 145.865 46.6849C136.975 35.3199 124.505 29.0649 110.75 29.0649C96.9749 29.0649 84.5049 35.2849 75.6349 46.5849C66.1799 58.6299 61.1849 75.6999 61.1849 95.9499C61.1849 116.2 66.1849 133.265 75.6349 145.315C84.5049 156.605 96.9749 162.825 110.75 162.825ZM110.75 30.6999C123.99 30.6999 136 36.7349 144.575 47.6949C153.8 59.4849 158.68 76.1749 158.68 95.9499C158.68 115.725 153.805 132.41 144.575 144.205C136 155.165 123.99 161.2 110.75 161.2C97.4849 161.2 85.4699 155.2 76.9249 144.305C67.6999 132.55 62.8199 115.83 62.8199 95.9499C62.8199 76.0699 67.6999 59.3499 76.9249 47.5899C85.4749 36.6999 97.4849 30.6999 110.75 30.6999Z" fill="#371A45"/>
<path d="M62.0899 95.8899C62.0899 123.87 71.6799 143.785 85.9899 154.03C86.2899 154.25 86.5949 154.46 86.9049 154.67C93.1899 160.75 90.2449 179.635 102.785 176.65C113.47 174.11 105.66 155.56 115.6 153.07C116.225 155.675 119.105 159.465 123.41 158.355C131.165 156.36 123.925 141.545 128.695 140.725C133.375 139.915 137.16 141.235 139.685 136.41C141.105 133.69 138.865 128.5 138.765 125.575C138.655 122.43 145.965 122.32 145.93 117.43C145.885 110.855 137.45 109.51 139.145 103.765C140.155 100.35 145.575 99.2299 146.965 93.5749C147.12 92.9499 147.2 92.3499 147.215 91.7849C147.39 86.1399 141.355 83.1199 139.145 79.0499C136.645 74.4449 140.31 66.0949 139.77 62.8399C138.83 57.1499 128.32 54.3099 127.04 51.2149C126.265 49.3399 128.92 45.1799 126.64 42.5349C125.065 40.7099 120.735 40.3699 119.11 40.5399C114.98 40.9649 113.15 39.1999 115.45 36.7699C117.045 35.0899 116.805 33.6449 116.245 32.3699C110.41 26.9849 97.4749 31.9849 93.3499 33.5099C75.0699 41.7049 62.0899 63.3449 62.0899 95.8899Z" fill="#FF7236"/>
<path d="M85.99 154.03C86.29 154.25 86.595 154.46 86.905 154.67C93.19 160.75 90.245 179.635 102.785 176.65C113.47 174.11 105.66 155.56 115.6 153.07C116.225 155.675 119.105 159.465 123.41 158.355C131.165 156.36 123.925 141.545 128.695 140.725C133.375 139.915 137.16 141.235 139.685 136.41C141.105 133.69 138.865 128.5 138.765 125.575C138.655 122.43 145.965 122.32 145.93 117.43C145.885 110.855 137.45 109.51 139.145 103.765C140.155 100.35 145.575 99.2299 146.965 93.5749C147.12 92.9499 147.2 92.3499 147.215 91.7849C146.385 93.5449 144.725 95.4499 141.615 97.2149C132.285 102.515 134.11 106.75 136.52 110.885C138.925 115.02 142.435 116.705 138.875 121.515C135.315 126.325 134.885 125.275 136.04 131.545C137.195 137.815 129.835 137.845 126.11 139.33C122.71 140.685 126.47 150.67 121.66 153.075C116.85 155.48 117.055 150.05 114.22 148.38C111.385 146.71 104.24 144.845 104.655 153.595C105.07 162.34 107.09 175.325 99.01 171.96C91.77 168.935 92.49 157.745 85.99 154.03Z" fill="#CC3D00"/>
<g opacity="0.5">
<path d="M77.1199 65.8099C77.1199 65.8099 78.9849 38.0549 99.6049 38.0649C106.285 38.0649 109.375 42.7999 108.175 46.4749C107.035 49.9599 104.255 51.1549 102.25 50.9399C95.1949 50.1999 86.9349 42.0349 77.1199 65.8099Z" fill="white"/>
</g>
<g opacity="0.5">
<path d="M109.21 65.0349C108.32 65.9099 115.865 73.3899 114.03 91.8349C112.345 108.815 105.33 113.4 106.255 114.155C107.18 114.915 116.64 104.095 117.655 90.2499C118.69 76.1599 110.1 64.1599 109.21 65.0349Z" fill="white"/>
</g>
<g opacity="0.5">
<path d="M74.5199 122.095C74.5199 122.095 76.3849 149.85 97.0049 149.84C103.685 149.84 106.775 145.105 105.575 141.43C104.435 137.945 101.655 136.75 99.6499 136.965C92.5949 137.705 84.3349 145.87 74.5199 122.095Z" fill="white"/>
</g>
<path d="M100.275 177.79C101.095 177.79 101.99 177.68 102.975 177.445C108.975 176.02 109.69 169.975 110.32 164.645C110.875 159.955 111.4 155.51 115.065 154.095C115.615 155.565 116.76 157.345 118.58 158.435C120.11 159.355 121.855 159.6 123.62 159.145C128.63 157.855 128.225 152.15 127.895 147.565C127.645 144.06 127.575 141.745 128.845 141.525C129.97 141.33 131.045 141.265 132.09 141.2C135.29 141 138.315 140.815 140.42 136.785C141.495 134.735 140.805 131.695 140.2 129.015C139.905 127.705 139.625 126.47 139.59 125.54C139.56 124.695 140.535 124.09 142.15 123.19C144.21 122.04 146.775 120.61 146.755 117.42C146.73 113.9 144.56 111.76 142.645 109.875C140.505 107.77 139.235 106.36 139.935 103.99C140.3 102.755 141.44 101.805 142.76 100.705C144.61 99.1649 146.91 97.2449 147.765 93.7649C149.01 88.6949 145.875 85.4499 143.105 82.5899C141.82 81.2599 140.605 80.0049 139.87 78.6549C138.44 76.0149 139.29 71.7149 139.975 68.2649C140.42 66.0049 140.81 64.0549 140.585 62.7049C139.96 58.9299 135.875 56.4849 132.275 54.3249C130.28 53.1299 128.215 51.8949 127.805 50.8999C127.6 50.3999 127.81 49.3649 128.015 48.3599C128.42 46.3799 128.92 43.9149 127.275 41.9999C125.39 39.8099 120.58 39.5649 119.04 39.7249C116.86 39.9499 115.59 39.4899 115.335 38.9699C115.16 38.6099 115.43 37.9949 116.06 37.3299C118.065 35.2099 117.565 33.2949 117.01 32.0399C116.965 31.9349 116.9 31.8449 116.815 31.7699C110.75 26.1749 98.145 30.8649 93.4 32.6299L93.085 32.7449C93.07 32.7499 93.05 32.7599 93.035 32.7649C83.555 37.0149 75.64 44.7699 70.15 55.1899C64.265 66.3649 61.28 80.0599 61.28 95.8949C61.28 109.81 63.61 122.145 68.2 132.56C72.535 142.39 78.655 150.045 86.39 155.31C88.535 157.425 89.57 161.385 90.575 165.21C92.13 171.145 93.875 177.79 100.275 177.79ZM115.6 152.255C115.535 152.255 115.465 152.265 115.4 152.28C109.975 153.64 109.32 159.14 108.69 164.455C108.065 169.72 107.475 174.695 102.59 175.855C101.76 176.055 101.005 176.145 100.315 176.145C95.125 176.145 93.73 170.83 92.145 164.79C91.075 160.715 89.97 156.505 87.465 154.08C87.43 154.045 87.395 154.015 87.355 153.99C71.815 143.45 62.9 122.27 62.9 95.8899C62.9 65.9449 74.4 42.9099 93.665 34.2649L93.955 34.1549C97.985 32.6549 110.175 28.1199 115.565 32.8499C116.015 33.9499 116.04 34.9549 114.855 36.2049C113.295 37.8499 113.555 39.0949 113.85 39.6899C114.51 41.0249 116.455 41.6299 119.19 41.3499C120.905 41.1749 124.76 41.6049 126.015 43.0649C127.14 44.3699 126.76 46.2299 126.395 48.0299C126.13 49.3299 125.88 50.5599 126.275 51.5199C126.895 53.0149 128.99 54.2699 131.415 55.7249C134.715 57.6999 138.45 59.9399 138.955 62.9649C139.13 64.0249 138.755 65.9249 138.355 67.9399C137.62 71.6549 136.705 76.2749 138.42 79.4299C139.26 80.9799 140.61 82.3749 141.915 83.7199C144.63 86.5249 147.195 89.1749 146.165 93.3699C145.435 96.3299 143.535 97.9149 141.7 99.4449C140.24 100.665 138.86 101.815 138.355 103.52C137.34 106.955 139.45 109.03 141.485 111.035C143.255 112.78 145.085 114.58 145.105 117.425C145.12 119.645 143.285 120.67 141.34 121.755C139.635 122.705 137.875 123.69 137.94 125.595C137.98 126.675 138.275 127.985 138.59 129.37C139.135 131.775 139.75 134.505 138.955 136.025C137.275 139.235 135.05 139.375 131.97 139.565C130.885 139.63 129.76 139.7 128.55 139.91C125.725 140.4 125.98 143.935 126.25 147.675C126.625 152.905 126.625 156.675 123.2 157.555C121.85 157.905 120.575 157.725 119.415 157.025C117.78 156.04 116.72 154.23 116.39 152.87C116.34 152.66 116.205 152.475 116.02 152.36C115.895 152.295 115.75 152.255 115.6 152.255Z" fill="#371A45"/>
<path d="M91.6999 123.685C83.1506 123.685 76.2199 111.341 76.2199 96.1149C76.2199 80.8884 83.1506 68.5449 91.6999 68.5449C100.249 68.5449 107.18 80.8884 107.18 96.1149C107.18 111.341 100.249 123.685 91.6999 123.685Z" fill="#EF26A8"/>
<path d="M77.11 136.085C77.71 133.225 78.115 130.425 78.345 127.51C78.395 126.64 77.665 125.83 76.75 125.695C75.835 125.565 74.905 126.135 74.705 126.985C74.105 129.845 73.7 132.645 73.47 135.56C73.42 136.43 74.15 137.24 75.065 137.375C75.985 137.51 76.91 136.935 77.11 136.085Z" fill="#FFF61E"/>
<path d="M75.33 138.21C76.53 138.21 77.64 137.4 77.905 136.27C77.905 136.265 77.91 136.255 77.91 136.25C78.52 133.36 78.93 130.52 79.16 127.575C79.23 126.275 78.2 125.08 76.865 124.89C75.53 124.695 74.2 125.555 73.91 126.8C73.295 129.71 72.89 132.55 72.655 135.495C72.585 136.795 73.615 137.99 74.95 138.18C75.08 138.205 75.205 138.21 75.33 138.21ZM76.315 135.91C76.21 136.335 75.685 136.64 75.185 136.57C74.685 136.5 74.265 136.05 74.29 135.61C74.515 132.755 74.915 129.985 75.51 127.16C75.605 126.75 76.135 126.44 76.635 126.51C77.135 126.58 77.555 127.03 77.53 127.47C77.305 130.32 76.905 133.09 76.315 135.91Z" fill="#371A45"/>
<path d="M86.165 132.89C89.04 132.36 91.785 131.675 94.565 130.78C95.39 130.495 95.86 129.51 95.635 128.615C95.41 127.72 94.53 127.075 93.67 127.215C90.795 127.745 88.05 128.43 85.27 129.325C84.445 129.61 83.975 130.595 84.2 131.49C84.425 132.385 85.305 133.025 86.165 132.89Z" fill="#39D5FF"/>
<path d="M85.94 133.725C86.06 133.725 86.18 133.715 86.295 133.695C86.3 133.695 86.31 133.695 86.315 133.69C89.22 133.155 92.005 132.46 94.82 131.555C96.05 131.13 96.765 129.72 96.435 128.415C96.105 127.105 94.81 126.205 93.545 126.405C90.62 126.945 87.84 127.64 85.025 128.54C83.795 128.965 83.08 130.375 83.41 131.68C83.705 132.875 84.795 133.725 85.94 133.725ZM86.03 132.085C85.595 132.15 85.115 131.78 84.99 131.29C84.865 130.8 85.12 130.24 85.535 130.095C88.265 129.22 90.98 128.54 93.815 128.02C94.23 127.955 94.72 128.325 94.84 128.815C94.965 129.305 94.71 129.865 94.295 130.01C91.575 130.88 88.865 131.56 86.03 132.085Z" fill="#371A45"/>
<path d="M92.7749 147.965C92.4749 145.06 92.0049 142.27 91.3349 139.425C91.1149 138.58 90.1749 138.03 89.2599 138.185C88.3499 138.34 87.6399 139.17 87.7099 140.035C88.0099 142.94 88.4799 145.73 89.1499 148.575C89.3699 149.42 90.3099 149.97 91.2249 149.815C92.1349 149.665 92.8449 148.835 92.7749 147.965Z" fill="#9CEF43"/>
<path d="M90.9099 149.945C91.0199 149.945 91.1299 149.935 91.2399 149.915C92.2149 149.75 92.9499 148.87 92.8749 147.955C92.5749 145.045 92.0999 142.25 91.4299 139.4C91.1949 138.51 90.2149 137.92 89.2399 138.085C88.2649 138.25 87.5299 139.13 87.6049 140.045C87.9049 142.955 88.3799 145.755 89.0499 148.6C89.2549 149.395 90.0499 149.945 90.9099 149.945ZM92.6749 147.975C92.7399 148.79 92.0799 149.57 91.2099 149.715C90.3349 149.865 89.4599 149.34 89.2499 148.55C88.5799 145.715 88.1099 142.925 87.8099 140.025C87.7449 139.215 88.4049 138.435 89.2749 138.285C90.1499 138.135 91.0249 138.66 91.2349 139.45C91.8999 142.285 92.3749 145.075 92.6749 147.975Z" fill="#371A45"/>
<path d="M90.9149 150.66C91.0599 150.66 91.2099 150.65 91.3549 150.625C92.6849 150.4 93.6849 149.18 93.5849 147.905C93.5849 147.9 93.5849 147.89 93.5849 147.885C93.2799 144.945 92.8049 142.115 92.1249 139.24C91.7949 137.98 90.4499 137.16 89.1199 137.38C87.7899 137.605 86.7899 138.825 86.8899 140.1C87.1949 143.06 87.6749 145.885 88.3499 148.765C88.6449 149.885 89.7399 150.66 90.9149 150.66ZM91.9599 148.04C91.9899 148.475 91.5849 148.93 91.0849 149.01C90.5849 149.095 90.0499 148.795 89.9399 148.37C89.2849 145.58 88.8149 142.82 88.5199 139.95C88.4849 139.53 88.8949 139.075 89.3949 138.99C89.8949 138.905 90.4299 139.205 90.5399 139.63C91.1999 142.42 91.6649 145.175 91.9599 148.04Z" fill="#CC3D00"/>
<path d="M102.905 152.995C104.69 150.685 106.275 148.335 107.75 145.815C108.17 145.055 107.87 144.005 107.1 143.49C106.335 142.975 105.25 143.085 104.7 143.76C102.915 146.07 101.33 148.42 99.855 150.94C99.435 151.7 99.735 152.75 100.505 153.265C101.27 153.785 102.355 153.67 102.905 152.995Z" fill="#FFF61E"/>
<path d="M101.57 154.405C102.325 154.405 103.065 154.095 103.54 153.51C103.545 153.505 103.55 153.5 103.55 153.495C105.355 151.155 106.96 148.78 108.45 146.225C109.08 145.09 108.675 143.56 107.555 142.805C106.435 142.05 104.87 142.245 104.06 143.24C102.24 145.595 100.64 147.97 99.145 150.525C98.515 151.66 98.92 153.185 100.04 153.945C100.505 154.255 101.045 154.405 101.57 154.405ZM102.265 152.485C101.985 152.82 101.38 152.87 100.96 152.585C100.54 152.3 100.355 151.715 100.57 151.33C102.02 148.855 103.585 146.535 105.345 144.255C105.61 143.93 106.22 143.88 106.64 144.16C107.06 144.445 107.245 145.03 107.03 145.415C105.59 147.89 104.025 150.205 102.265 152.485Z" fill="#371A45"/>
<path d="M115.41 140.255C115.2 137.34 114.815 134.535 114.235 131.675C114.04 130.825 113.115 130.245 112.2 130.37C111.285 130.495 110.55 131.3 110.59 132.17C110.8 135.085 111.185 137.89 111.765 140.75C111.96 141.6 112.885 142.18 113.8 142.055C114.715 141.93 115.45 141.125 115.41 140.255Z" fill="#FFF61E"/>
<path d="M113.55 142.89C113.67 142.89 113.79 142.88 113.91 142.865C115.25 142.68 116.285 141.49 116.225 140.215C116.225 140.21 116.225 140.2 116.225 140.195C116.015 137.245 115.625 134.405 115.035 131.51C114.745 130.245 113.425 129.375 112.09 129.56C110.75 129.745 109.715 130.93 109.775 132.21C109.99 135.18 110.375 138.02 110.965 140.915C111.23 142.07 112.345 142.89 113.55 142.89ZM114.595 140.3C114.61 140.735 114.19 141.175 113.69 141.245C113.185 141.315 112.66 141 112.565 140.57C111.995 137.76 111.615 134.99 111.41 132.11C111.39 131.69 111.81 131.245 112.315 131.175C112.82 131.105 113.345 131.42 113.44 131.85C114.005 134.66 114.385 137.43 114.595 140.3Z" fill="#371A45"/>
<path d="M131.585 99.8198C131.77 96.9048 131.77 94.0748 131.585 91.1598C131.51 90.2898 130.67 89.5948 129.745 89.5948C128.82 89.5948 127.985 90.2948 127.905 91.1598C127.72 94.0748 127.72 96.9048 127.905 99.8198C127.98 100.69 128.82 101.385 129.745 101.385C130.67 101.39 131.505 100.69 131.585 99.8198Z" fill="#FFF61E"/>
<path d="M129.745 102.205C131.095 102.205 132.285 101.165 132.4 99.8899C132.4 99.8849 132.4 99.8749 132.4 99.8699C132.59 96.9199 132.59 94.0549 132.4 91.1049C132.285 89.8099 131.095 88.7749 129.745 88.7749C128.395 88.7749 127.205 89.8099 127.09 91.0899C126.9 94.0599 126.9 96.9249 127.09 99.8749C127.205 101.17 128.395 102.205 129.745 102.205ZM130.77 99.7599C130.725 100.195 130.25 100.575 129.745 100.575C129.24 100.575 128.76 100.19 128.72 99.7549C128.535 96.8949 128.535 94.0949 128.72 91.2199C128.755 90.7999 129.235 90.4199 129.745 90.4199C130.255 90.4199 130.73 90.8049 130.77 91.2399C130.95 94.0899 130.95 96.8849 130.77 99.7599Z" fill="#371A45"/>
<path d="M112.095 116.3C114.39 114.49 116.49 112.595 118.535 110.505C119.13 109.87 119.09 108.78 118.47 108.09C117.85 107.4 116.77 107.25 116.075 107.77C113.78 109.58 111.68 111.475 109.635 113.565C109.04 114.2 109.08 115.29 109.7 115.98C110.32 116.67 111.4 116.825 112.095 116.3Z" fill="#39D5FF"/>
<path d="M111.125 117.425C111.65 117.425 112.165 117.27 112.59 116.955C112.595 116.95 112.6 116.945 112.605 116.945C114.925 115.115 117.055 113.195 119.12 111.08C120.005 110.13 119.98 108.55 119.08 107.545C118.175 106.54 116.61 106.35 115.585 107.12C113.25 108.965 111.12 110.88 109.055 112.995C108.17 113.945 108.195 115.525 109.095 116.53C109.625 117.115 110.38 117.425 111.125 117.425ZM111.6 115.65C111.25 115.91 110.65 115.81 110.31 115.435C109.97 115.06 109.935 114.445 110.235 114.125C112.24 112.075 114.32 110.205 116.585 108.415C116.92 108.165 117.525 108.26 117.865 108.64C118.205 109.015 118.24 109.63 117.94 109.95C115.935 111.995 113.86 113.865 111.6 115.65Z" fill="#371A45"/>
<path d="M118.82 88.885C117.525 86.265 116.11 83.815 114.495 81.38C113.995 80.665 112.92 80.48 112.12 80.94C111.32 81.4 110.945 82.425 111.31 83.215C112.605 85.835 114.02 88.285 115.635 90.72C116.135 91.435 117.21 91.62 118.01 91.16C118.81 90.7 119.185 89.675 118.82 88.885Z" fill="#9CEF43"/>
<path d="M117.065 92.2249C117.53 92.2249 117.995 92.11 118.415 91.865C119.585 91.19 120.095 89.6949 119.56 88.5349C119.555 88.5299 119.555 88.525 119.55 88.5199C118.24 85.87 116.81 83.3849 115.17 80.9249C114.425 79.8599 112.875 79.5549 111.705 80.2299C110.535 80.9049 110.02 82.3999 110.56 83.5599C111.88 86.2249 113.31 88.71 114.95 91.17C115.43 91.8549 116.24 92.2249 117.065 92.2249ZM118.08 89.2349C118.26 89.6349 118.035 90.1999 117.6 90.4499C117.16 90.7049 116.555 90.6099 116.305 90.2499C114.715 87.8649 113.32 85.4399 112.04 82.8549C111.865 82.4749 112.085 81.9049 112.525 81.6499C112.965 81.3949 113.57 81.4899 113.82 81.8499C115.405 84.2349 116.805 86.6549 118.08 89.2349Z" fill="#371A45"/>
<path d="M128 79.1398C129.18 76.4648 130.155 73.8098 130.985 71.0098C131.21 70.1698 130.665 69.2248 129.8 68.9048C128.93 68.5848 127.905 68.9548 127.535 69.7448C126.355 72.4198 125.38 75.0748 124.55 77.8748C124.325 78.7148 124.87 79.6598 125.735 79.9798C126.605 80.2998 127.63 79.9298 128 79.1398Z" fill="#39D5FF"/>
<path d="M126.375 80.9099C127.365 80.9099 128.32 80.3699 128.735 79.4899C128.74 79.4849 128.74 79.4799 128.745 79.4699C129.94 76.7649 130.925 74.0749 131.765 71.2399C132.105 69.9849 131.345 68.5999 130.075 68.1349C128.81 67.6699 127.335 68.2349 126.79 69.3949C125.59 72.1149 124.6 74.8099 123.76 77.6449C123.42 78.8999 124.18 80.2849 125.45 80.7499C125.755 80.8549 126.07 80.9099 126.375 80.9099ZM127.255 78.7999C127.065 79.1949 126.485 79.3849 126.015 79.2099C125.54 79.0349 125.22 78.5099 125.335 78.0849C126.15 75.3349 127.11 72.7099 128.275 70.0699C128.455 69.6899 129.035 69.4949 129.51 69.6699C129.985 69.8449 130.305 70.3699 130.19 70.7949C129.38 73.5399 128.42 76.1649 127.255 78.7999Z" fill="#371A45"/>
<path d="M116.475 46.8599C114.73 44.5149 112.895 42.3599 110.865 40.2599C110.245 39.6499 109.155 39.6599 108.45 40.2549C107.745 40.8549 107.56 41.9299 108.065 42.6399C109.81 44.9849 111.645 47.1399 113.675 49.2399C114.295 49.8499 115.385 49.8399 116.09 49.2449C116.79 48.6449 116.975 47.5699 116.475 46.8599Z" fill="#9CEF43"/>
<path d="M114.85 50.51C115.475 50.51 116.11 50.295 116.615 49.87C117.645 48.995 117.88 47.435 117.14 46.39C117.135 46.385 117.135 46.38 117.13 46.375C115.365 44.005 113.505 41.82 111.45 39.695C110.525 38.785 108.945 38.765 107.915 39.64C106.885 40.515 106.65 42.075 107.39 43.12C109.17 45.505 111.025 47.69 113.08 49.815C113.555 50.275 114.2 50.51 114.85 50.51ZM115.81 47.34C116.06 47.7 115.94 48.295 115.555 48.625C115.17 48.955 114.555 48.97 114.245 48.665C112.255 46.605 110.44 44.475 108.715 42.16C108.47 41.815 108.59 41.215 108.975 40.885C109.36 40.555 109.975 40.54 110.285 40.845C112.275 42.9 114.09 45.03 115.81 47.34Z" fill="#371A45"/>
<path d="M116.735 69.71C117.26 66.835 117.59 64.025 117.74 61.105C117.765 60.235 117.015 59.445 116.095 59.335C115.175 59.23 114.265 59.825 114.085 60.68C113.56 63.555 113.23 66.365 113.08 69.285C113.055 70.155 113.805 70.945 114.725 71.055C115.645 71.16 116.56 70.56 116.735 69.71Z" fill="#FFF61E"/>
<path d="M114.94 71.88C116.17 71.88 117.295 71.03 117.535 69.875C117.535 69.87 117.54 69.86 117.54 69.855C118.07 66.945 118.405 64.1 118.555 61.15C118.59 59.85 117.53 58.68 116.19 58.525C114.85 58.37 113.545 59.26 113.285 60.515C112.75 63.44 112.42 66.29 112.265 69.24C112.23 70.54 113.29 71.71 114.63 71.865C114.735 71.875 114.84 71.88 114.94 71.88ZM115.935 69.55C115.84 69.975 115.325 70.3 114.825 70.24C114.32 70.18 113.89 69.745 113.905 69.305C114.055 66.445 114.38 63.665 114.895 60.825C114.98 60.415 115.5 60.09 116.005 60.145C116.51 60.205 116.94 60.64 116.925 61.08C116.775 63.94 116.45 66.715 115.935 69.55Z" fill="#371A45"/>
<path d="M98.23 62.0651C98.275 59.1451 98.14 56.3151 97.81 53.4151C97.69 52.5501 96.82 51.8951 95.9 51.9401C94.975 51.9851 94.175 52.7251 94.14 53.5951C94.095 56.5151 94.23 59.3451 94.56 62.2451C94.68 63.1101 95.55 63.7651 96.47 63.7201C97.39 63.6751 98.195 62.9351 98.23 62.0651Z" fill="#39D5FF"/>
<path d="M96.3799 64.54C96.4199 64.54 96.4649 64.54 96.5049 64.535C97.8549 64.47 98.9949 63.375 99.0449 62.095C99.0449 62.09 99.0449 62.08 99.0449 62.075C99.0899 59.12 98.9549 56.255 98.6199 53.32C98.4449 52.035 97.1999 51.055 95.8549 51.12C94.5049 51.185 93.3649 52.28 93.3149 53.56C93.2699 56.535 93.4049 59.4 93.7399 62.335C93.9149 63.58 95.0799 64.54 96.3799 64.54ZM97.4099 62.04C97.3899 62.475 96.9299 62.88 96.4249 62.9C95.9149 62.925 95.4199 62.565 95.3599 62.13C95.0399 59.285 94.9049 56.485 94.9499 53.6C94.9649 53.18 95.4249 52.775 95.9349 52.75C96.4449 52.725 96.9399 53.085 96.9999 53.52C97.3199 56.37 97.4549 59.16 97.4099 62.04Z" fill="#CC3D00"/>
<path d="M81.22 60.555C81.265 57.635 81.13 54.805 80.8 51.905C80.68 51.04 79.81 50.385 78.89 50.43C77.965 50.475 77.165 51.215 77.13 52.085C77.085 55.005 77.22 57.835 77.55 60.735C77.67 61.6 78.54 62.255 79.46 62.21C80.385 62.165 81.185 61.425 81.22 60.555Z" fill="#FFF61E"/>
<path d="M79.3699 63.03C79.4149 63.03 79.4549 63.03 79.4999 63.025C80.8499 62.96 81.9849 61.865 82.0399 60.585C82.0399 60.58 82.0399 60.57 82.0399 60.565C82.0849 57.61 81.9499 54.745 81.6149 51.81C81.4399 50.525 80.1999 49.545 78.8499 49.61C77.4999 49.675 76.3649 50.77 76.3099 52.05C76.2649 55.025 76.3999 57.89 76.7349 60.825C76.9049 62.07 78.0749 63.03 79.3699 63.03ZM80.4049 60.53C80.3849 60.965 79.9249 61.37 79.4199 61.39C78.9099 61.415 78.4149 61.055 78.3549 60.62C78.0349 57.775 77.8999 54.975 77.9449 52.095C77.9599 51.675 78.4199 51.27 78.9299 51.245C79.4349 51.22 79.9349 51.58 79.9949 52.015C80.3099 54.855 80.4499 57.65 80.4049 60.53Z" fill="#CC3D00"/>
<path d="M96.61 35.1899C94.815 37.4949 93.225 39.8399 91.745 42.3549C91.32 43.1149 91.62 44.1649 92.385 44.6849C93.15 45.2049 94.235 45.0949 94.785 44.4199C96.58 42.1149 98.17 39.7699 99.65 37.2549C100.075 36.4949 99.775 35.4449 99.01 34.9249C98.245 34.4049 97.16 34.5149 96.61 35.1899Z" fill="#FFF61E"/>
<path d="M93.455 45.8249C94.21 45.8249 94.945 45.5199 95.42 44.9349C97.245 42.5849 98.855 40.2149 100.36 37.6699C100.995 36.5349 100.59 35.0099 99.475 34.2499C98.36 33.4899 96.79 33.6799 95.98 34.6699C95.975 34.6749 95.97 34.6799 95.97 34.6849C94.155 37.0199 92.545 39.3899 91.045 41.9349C90.41 43.0699 90.815 44.5949 91.93 45.3549C92.385 45.6749 92.925 45.8249 93.455 45.8249ZM97.93 35.4149C98.145 35.4149 98.365 35.4749 98.55 35.5999C98.97 35.8849 99.15 36.4699 98.935 36.8549C97.48 39.3249 95.905 41.6399 94.135 43.9149C93.87 44.2399 93.26 44.2899 92.84 44.0049C92.42 43.7199 92.24 43.1349 92.455 42.7499C93.91 40.2849 95.48 37.9699 97.245 35.6999C97.405 35.5149 97.66 35.4149 97.93 35.4149Z" fill="#371A45"/>
<path d="M124.99 129.265C126.09 126.555 126.98 123.87 127.725 121.045C127.925 120.195 127.35 119.27 126.475 118.98C125.595 118.69 124.58 119.09 124.235 119.885C123.135 122.595 122.245 125.28 121.5 128.105C121.3 128.955 121.875 129.88 122.75 130.17C123.63 130.465 124.645 130.065 124.99 129.265Z" fill="#9CEF43"/>
<path d="M123.34 131.085C124.36 131.085 125.345 130.51 125.74 129.59C125.745 129.585 125.745 129.58 125.745 129.57C126.855 126.83 127.76 124.11 128.51 121.25C128.81 119.985 128.01 118.625 126.725 118.2C125.445 117.775 123.985 118.385 123.48 119.555C122.36 122.31 121.455 125.035 120.705 127.89C120.405 129.155 121.205 130.515 122.49 130.94C122.775 131.04 123.06 131.085 123.34 131.085ZM124.24 128.95C124.06 129.35 123.49 129.56 123.01 129.4C122.53 129.24 122.195 128.725 122.295 128.295C123.025 125.525 123.905 122.87 124.99 120.195C125.155 119.81 125.735 119.595 126.215 119.755C126.695 119.915 127.03 120.43 126.93 120.855C126.205 123.625 125.32 126.28 124.24 128.95Z" fill="#371A45"/>
<path d="M114.22 149.145C114.22 149.145 115.41 150.485 115.6 153.07L114.22 149.145Z" fill="#FF7236"/>
<path d="M113.915 149.415C114.415 150.23 114.675 151.21 114.755 152.16C114.785 152.485 114.79 152.815 114.785 153.14C114.8 154.225 116.38 154.25 116.43 153.165C116.22 151.595 115.615 150.045 114.53 148.87C114.16 148.515 113.605 149.01 113.915 149.415Z" fill="#371A45"/>
<g opacity="0.2">
<path d="M95.365 115.95C86.6886 115.95 79.655 104.587 79.655 90.5699C79.655 76.553 86.6886 65.1899 95.365 65.1899C104.041 65.1899 111.075 76.553 111.075 90.5699C111.075 104.587 104.041 115.95 95.365 115.95Z" fill="#371A45"/>
</g>
<path d="M95.3649 116.77C99.8549 116.77 104.045 113.995 107.165 108.95C110.21 104.03 111.89 97.5049 111.89 90.5749C111.89 83.6449 110.215 77.1199 107.165 72.1999C104.045 67.1549 99.8499 64.3799 95.3649 64.3799C90.8749 64.3799 86.6849 67.1549 83.5599 72.1999C80.5149 77.1199 78.8349 83.6449 78.8349 90.5749C78.8349 97.5049 80.5099 104.03 83.5599 108.95C86.6849 113.99 90.8749 116.77 95.3649 116.77ZM95.3649 66.0099C103.575 66.0099 110.255 77.0299 110.255 90.5699C110.255 104.11 103.575 115.13 95.3649 115.13C87.1549 115.13 80.4749 104.11 80.4749 90.5699C80.4749 77.0299 87.1549 66.0099 95.3649 66.0099Z" fill="#371A45"/>
<path d="M70.8099 115.615C70.7749 122.1 75.1099 123.47 77.8749 123.175C80.4699 122.895 82.0999 118.965 84.3449 119.465C84.1499 120.285 83.1749 124.795 86.7999 125.125C89.3199 125.36 90.6699 120.185 91.2649 116.95C91.5349 115.5 91.6449 114.44 91.6449 114.44C87.7699 103.85 72.6549 109.62 70.9599 114.72C70.8649 115.025 70.8099 115.325 70.8099 115.615Z" fill="white"/>
<g opacity="0.2">
<path d="M70.9649 114.725C73.9899 115.565 78.4949 115.555 83.3849 115.45C87.2899 115.365 89.8249 116.22 91.2649 116.955C91.5349 115.505 91.6449 114.445 91.6449 114.445C87.7749 103.855 72.6599 109.625 70.9649 114.725Z" fill="#371A45"/>
</g>
<path d="M86.9699 125.955C91.0099 125.955 92.25 116.47 92.46 114.535C92.475 114.41 92.46 114.285 92.415 114.165C90.615 109.235 86.0749 106.9 80.2699 107.91C75.4249 108.755 70.01 112.125 69.99 115.615C69.975 118.565 70.7999 120.81 72.4449 122.3C74.4849 124.145 76.9799 124.1 77.96 123.995C79.4699 123.835 80.63 122.735 81.66 121.765C82.2699 121.19 82.8249 120.665 83.3449 120.41C83.1749 121.69 83.2 123.33 84.0599 124.525C84.66 125.36 85.56 125.84 86.73 125.95C86.805 125.95 86.8899 125.955 86.9699 125.955ZM90.815 114.545C90.345 118.6 88.835 124.315 86.9599 124.315C86.93 124.315 86.905 124.315 86.875 124.31C86.19 124.245 85.7 124 85.385 123.56C84.5649 122.42 84.99 120.28 85.14 119.65C85.19 119.435 85.155 119.215 85.04 119.03C84.925 118.845 84.74 118.715 84.525 118.665C82.925 118.31 81.71 119.455 80.535 120.565C79.655 121.395 78.75 122.255 77.785 122.36C77.195 122.425 75.135 122.52 73.54 121.08C72.255 119.92 71.61 118.085 71.625 115.62C71.635 113.56 75.62 110.38 80.55 109.52C82.91 109.11 88.59 108.785 90.815 114.545Z" fill="#371A45"/>
<path d="M45.755 84.87C45.785 85.03 45.8099 85.195 45.8449 85.355C46.8649 90.75 49.2299 95.935 52.8849 100.39C53.6549 101.325 54.4749 102.23 55.3549 103.095C55.7799 103.52 56.2299 103.93 56.6849 104.34C58.0649 105.56 59.52 106.655 61.0299 107.615C62.3299 108.445 63.6799 109.18 65.0549 109.82C66.7149 110.595 68.4249 111.22 70.1599 111.715C70.7949 111.89 71.4299 112.05 72.0699 112.195C83.7849 114.8 96.5149 111.265 105.075 101.85C109.46 97.03 112.175 91.3 113.255 85.35C115.285 74.195 111.565 62.27 102.365 54.125C99.6449 51.72 96.6449 49.815 93.4849 48.415C93.1149 48.245 92.7449 48.09 92.3649 47.945C91.3549 47.54 90.3399 47.185 89.3099 46.875C86.9249 46.17 84.4849 45.725 82.0349 45.54C79.5849 45.355 77.1199 45.43 74.6899 45.76C73.9149 45.865 73.1499 45.995 72.3849 46.15C71.2349 46.385 70.0999 46.68 68.9799 47.035C63.3849 48.79 58.1749 51.99 53.9749 56.61C46.7149 64.585 44.0399 75.045 45.755 84.87Z" fill="white"/>
<path d="M45.755 84.87C46.73 90.44 49.1199 95.8 52.8849 100.39C53.6549 101.325 54.475 102.23 55.355 103.095C55.785 103.515 56.2299 103.93 56.6849 104.34C57.0299 104.645 57.375 104.94 57.73 105.225C58.12 105.355 58.5149 105.475 58.9199 105.59C86.4799 113.21 100.31 87.625 100.31 87.625C100.31 87.625 101.585 58.57 74.0249 50.955C73.5049 50.81 72.99 50.685 72.48 50.58C65.72 49.17 58.6799 51.46 54.0249 56.565C54.0099 56.585 53.9899 56.6 53.9749 56.62C46.7149 64.585 44.035 75.045 45.755 84.87Z" fill="#371A45"/>
<g opacity="0.2">
<path d="M45.8449 85.35C46.8649 90.745 49.2299 95.93 52.8849 100.385C53.6549 101.32 54.4749 102.225 55.3549 103.09C55.7799 103.515 56.2299 103.925 56.6849 104.335C58.0649 105.555 59.5199 106.65 61.0299 107.61C62.3299 108.44 63.6799 109.175 65.0549 109.815C66.7149 110.59 68.4249 111.215 70.1599 111.71C70.7949 111.885 71.4299 112.045 72.0699 112.19C83.7849 114.795 96.5149 111.26 105.075 101.845C109.46 97.025 112.175 91.295 113.255 85.345H45.8449V85.35Z" fill="#371A45"/>
</g>
<path d="M79.625 113.105C89.255 113.105 98.58 109.115 105.135 101.905C111.225 95.2099 114.315 86.5649 113.825 77.5649C113.335 68.4899 109.285 60.1449 102.415 54.0649C99.735 51.6949 96.74 49.7699 93.515 48.3399C93.16 48.1799 92.795 48.0249 92.395 47.8649C91.39 47.4599 90.36 47.0999 89.335 46.7949C86.97 46.0949 84.515 45.6399 82.04 45.4549C79.59 45.2699 77.115 45.3399 74.68 45.6749C73.9 45.7799 73.12 45.9149 72.37 46.0699C71.2 46.3099 70.05 46.6099 68.955 46.9549C63.18 48.7649 57.98 52.0849 53.915 56.5549C46.885 64.2799 43.88 74.6049 45.675 84.8799C46.67 90.5749 49.14 95.9549 52.82 100.44C53.6 101.39 54.435 102.3 55.3 103.15C55.695 103.54 56.13 103.95 56.63 104.395C57.995 105.605 59.46 106.71 60.985 107.68C62.26 108.495 63.62 109.24 65.02 109.89C66.655 110.65 68.38 111.29 70.14 111.79C70.775 111.965 71.415 112.13 72.055 112.275C74.57 112.835 77.11 113.105 79.625 113.105ZM79.395 45.5249C80.275 45.5249 81.15 45.5599 82.025 45.6249C84.485 45.8099 86.93 46.2599 89.285 46.9549C90.31 47.2599 91.335 47.6149 92.335 48.0199C92.735 48.1799 93.1 48.3349 93.45 48.4899C96.66 49.9099 99.64 51.8249 102.31 54.1849C109.145 60.2349 113.175 68.5399 113.665 77.5699C114.15 86.5249 111.075 95.1299 105.015 101.79C96.785 110.84 84.17 114.795 72.09 112.11C71.455 111.965 70.815 111.805 70.185 111.63C68.435 111.135 66.72 110.495 65.09 109.74C63.7 109.095 62.35 108.355 61.075 107.54C59.555 106.575 58.1 105.475 56.74 104.27C56.245 103.825 55.81 103.42 55.415 103.03C54.555 102.185 53.725 101.275 52.95 100.33C49.285 95.8699 46.83 90.5149 45.84 84.8449C44.055 74.6199 47.04 64.3499 54.04 56.6599C58.085 52.2099 63.26 48.9099 69.01 47.1049C70.1 46.7599 71.24 46.4649 72.41 46.2249C73.16 46.0699 73.935 45.9399 74.71 45.8349C76.255 45.6299 77.825 45.5249 79.395 45.5249Z" fill="#371A45"/>
<path d="M79.6249 113.66C89.4099 113.66 98.8849 109.605 105.545 102.28C111.735 95.475 114.875 86.69 114.38 77.54C113.88 68.32 109.765 59.835 102.785 53.655C100.06 51.245 97.0199 49.29 93.7399 47.84C93.3849 47.68 93.0099 47.52 92.5949 47.355C91.5799 46.945 90.5299 46.58 89.4849 46.27C87.0799 45.555 84.5899 45.1 82.0749 44.91C79.5849 44.72 77.0699 44.795 74.5999 45.135C73.8049 45.245 73.0149 45.375 72.2499 45.535C71.0599 45.78 69.8949 46.085 68.7799 46.435C62.9149 48.275 57.6249 51.645 53.4949 56.19C46.3499 64.045 43.2949 74.54 45.1199 84.98C46.1299 90.77 48.6449 96.235 52.3849 100.795C53.1749 101.76 54.0249 102.685 54.9049 103.55C55.3049 103.945 55.7499 104.36 56.2549 104.815C57.6449 106.045 59.1349 107.165 60.6849 108.155C61.9799 108.985 63.3599 109.74 64.7799 110.4C66.4399 111.175 68.1899 111.825 69.9799 112.33C70.6249 112.51 71.2749 112.675 71.9249 112.82C74.4899 113.38 77.0649 113.66 79.6249 113.66ZM79.3949 46.075C80.2599 46.075 81.1249 46.11 81.9849 46.175C84.4099 46.355 86.8099 46.8 89.1299 47.485C90.1349 47.785 91.1449 48.135 92.1299 48.535C92.5249 48.69 92.8799 48.84 93.2249 48.995C96.3899 50.395 99.3199 52.28 101.95 54.6C108.675 60.555 112.64 68.72 113.12 77.605C113.595 86.415 110.575 94.875 104.615 101.425C96.5149 110.33 84.1049 114.22 72.2149 111.575C71.5899 111.435 70.9599 111.275 70.3399 111.1C68.6149 110.61 66.9299 109.985 65.3299 109.24C63.9599 108.605 62.6299 107.875 61.3799 107.075C59.8849 106.125 58.4499 105.04 57.1099 103.86C56.6199 103.425 56.1949 103.025 55.8049 102.64C54.9549 101.805 54.1399 100.915 53.3749 99.985C49.7749 95.595 47.3549 90.33 46.3799 84.755C44.6249 74.7 47.5599 64.6 54.4449 57.035C58.4249 52.66 63.5149 49.41 69.1699 47.635C70.2399 47.295 71.3649 47.005 72.5149 46.765C73.2499 46.615 74.0149 46.485 74.7799 46.38C76.3049 46.18 77.8499 46.075 79.3949 46.075Z" fill="#371A45"/>
<path d="M79.625 113.84C89.46 113.84 98.985 109.765 105.68 102.4C111.905 95.56 115.06 86.725 114.56 77.525C114.06 68.255 109.92 59.725 102.905 53.515C100.165 51.095 97.11 49.13 93.815 47.67C93.46 47.51 93.08 47.35 92.665 47.185C91.645 46.775 90.59 46.405 89.54 46.095C87.125 45.38 84.62 44.92 82.095 44.73C79.595 44.54 77.065 44.615 74.58 44.955C73.785 45.065 72.99 45.2 72.22 45.355C71.025 45.6 69.85 45.905 68.735 46.26C62.835 48.11 57.525 51.5 53.37 56.065C46.185 63.96 43.115 74.51 44.95 85.01C45.965 90.83 48.49 96.33 52.255 100.91C53.05 101.88 53.905 102.81 54.785 103.68C55.19 104.08 55.635 104.495 56.14 104.95C57.54 106.185 59.035 107.315 60.595 108.305C61.9 109.14 63.285 109.9 64.715 110.56C66.385 111.335 68.145 111.99 69.945 112.5C70.595 112.68 71.25 112.845 71.9 112.995C74.46 113.565 77.055 113.84 79.625 113.84ZM79.395 46.26C80.255 46.26 81.115 46.295 81.97 46.36C84.38 46.54 86.77 46.98 89.075 47.665C90.075 47.96 91.08 48.315 92.055 48.705C92.45 48.86 92.805 49.01 93.14 49.165C96.29 50.56 99.205 52.435 101.815 54.74C108.5 60.66 112.445 68.785 112.925 77.615C113.4 86.375 110.395 94.785 104.465 101.3C96.41 110.155 84.065 114.025 72.245 111.395C71.625 111.255 70.995 111.095 70.38 110.925C68.665 110.44 66.99 109.815 65.395 109.075C64.03 108.44 62.71 107.72 61.465 106.925C59.98 105.98 58.55 104.905 57.22 103.725C56.735 103.29 56.31 102.895 55.925 102.51C55.08 101.68 54.27 100.79 53.51 99.87C49.93 95.505 47.525 90.27 46.555 84.725C44.81 74.73 47.73 64.68 54.575 57.16C58.535 52.81 63.595 49.575 69.22 47.815C70.285 47.48 71.405 47.185 72.545 46.95C73.275 46.8 74.035 46.67 74.795 46.565C76.32 46.36 77.86 46.26 79.395 46.26Z" fill="#371A45"/>
<path d="M79.625 113.84C89.46 113.84 98.985 109.765 105.68 102.4C111.905 95.56 115.06 86.725 114.56 77.525C114.06 68.255 109.92 59.725 102.905 53.515C100.165 51.095 97.11 49.13 93.815 47.67C93.46 47.51 93.08 47.35 92.665 47.185C91.645 46.775 90.59 46.405 89.54 46.095C87.125 45.38 84.62 44.92 82.095 44.73C79.595 44.54 77.065 44.615 74.58 44.955C73.785 45.065 72.99 45.2 72.22 45.355C71.025 45.6 69.85 45.905 68.735 46.26C62.835 48.11 57.525 51.5 53.37 56.065C46.185 63.96 43.115 74.51 44.95 85.01C45.965 90.83 48.49 96.33 52.255 100.91C53.05 101.88 53.905 102.81 54.785 103.68C55.19 104.08 55.635 104.495 56.14 104.95C57.54 106.185 59.035 107.315 60.595 108.305C61.9 109.14 63.285 109.9 64.715 110.56C66.385 111.335 68.145 111.99 69.945 112.5C70.595 112.68 71.25 112.845 71.9 112.995C74.46 113.565 77.055 113.84 79.625 113.84ZM79.395 46.26C80.255 46.26 81.115 46.295 81.97 46.36C84.38 46.54 86.77 46.98 89.075 47.665C90.075 47.96 91.08 48.315 92.055 48.705C92.45 48.86 92.805 49.01 93.14 49.165C96.29 50.56 99.205 52.435 101.815 54.74C108.5 60.66 112.445 68.785 112.925 77.615C113.4 86.375 110.395 94.785 104.465 101.3C96.41 110.155 84.065 114.025 72.245 111.395C71.625 111.255 70.995 111.095 70.38 110.925C68.665 110.44 66.99 109.815 65.395 109.075C64.03 108.44 62.71 107.72 61.465 106.925C59.98 105.98 58.55 104.905 57.22 103.725C56.735 103.29 56.31 102.895 55.925 102.51C55.08 101.68 54.27 100.79 53.51 99.87C49.93 95.505 47.525 90.27 46.555 84.725C44.81 74.73 47.73 64.68 54.575 57.16C58.535 52.81 63.595 49.575 69.22 47.815C70.285 47.48 71.405 47.185 72.545 46.95C73.275 46.8 74.035 46.67 74.795 46.565C76.32 46.36 77.86 46.26 79.395 46.26Z" fill="#371A45"/>
<path d="M79.625 113.84C89.46 113.84 98.985 109.765 105.68 102.4C111.905 95.56 115.06 86.725 114.56 77.525C114.06 68.255 109.92 59.725 102.905 53.515C100.17 51.095 97.11 49.13 93.815 47.67C93.485 47.52 93.115 47.365 92.67 47.185C91.635 46.77 90.58 46.4 89.545 46.095C87.125 45.375 84.62 44.915 82.095 44.73C79.59 44.54 77.06 44.615 74.58 44.955C73.765 45.065 72.97 45.2 72.22 45.36C71.03 45.605 69.86 45.91 68.735 46.265C67.81 46.555 66.895 46.885 66.02 47.24C63.555 48.24 61.205 49.525 59.04 51.055C56.98 52.51 55.07 54.2 53.37 56.075C46.185 63.97 43.115 74.525 44.95 85.02C45.97 90.84 48.495 96.335 52.255 100.92C53.06 101.9 53.915 102.835 54.785 103.69C55.18 104.08 55.61 104.48 56.14 104.96C56.5 105.275 56.86 105.585 57.215 105.87C58.28 106.74 59.415 107.565 60.595 108.315C61.25 108.735 61.93 109.135 62.61 109.51C63.305 109.89 64.01 110.245 64.71 110.57C66.38 111.345 68.14 112 69.94 112.51C70.605 112.695 71.26 112.86 71.895 113.005C74.46 113.565 77.055 113.84 79.625 113.84ZM79.385 46.26C80.245 46.26 81.11 46.295 81.97 46.36C84.375 46.54 86.765 46.98 89.075 47.665C90.065 47.96 91.065 48.31 92.06 48.705C92.485 48.875 92.83 49.02 93.145 49.165C96.295 50.56 99.215 52.435 101.825 54.745C108.51 60.665 112.455 68.79 112.93 77.62C113.405 86.38 110.4 94.79 104.47 101.31C96.415 110.165 84.07 114.035 72.25 111.405C71.645 111.27 71.015 111.11 70.385 110.935C68.67 110.45 66.995 109.825 65.4 109.085C64.73 108.775 64.055 108.435 63.395 108.07C62.745 107.715 62.1 107.33 61.475 106.93C60.35 106.215 59.265 105.43 58.25 104.595C57.91 104.32 57.565 104.03 57.23 103.73C56.725 103.275 56.31 102.89 55.935 102.515C55.1 101.695 54.29 100.81 53.52 99.87C49.94 95.505 47.535 90.27 46.565 84.73C44.82 74.735 47.74 64.685 54.585 57.165C56.21 55.38 58.025 53.77 59.99 52.38C62.05 50.925 64.29 49.7 66.64 48.745C67.475 48.405 68.345 48.095 69.23 47.815C70.305 47.475 71.42 47.185 72.555 46.95C73.27 46.8 74.025 46.675 74.805 46.565C76.315 46.36 77.85 46.26 79.385 46.26Z" fill="#371A45"/>
<path d="M68.8749 107.495C78.2699 107.495 85.4649 103.64 90.2599 99.8549C97.1649 94.4099 100.61 88.1249 100.75 87.8599L100.805 87.7599L100.81 87.6449C100.825 87.3449 101.095 80.1849 97.9699 71.9649C95.0749 64.3599 88.5949 54.4549 74.1549 50.4649C69.1099 49.0699 64.1199 49.3349 59.3199 51.2449L59.2649 51.2649L59.2149 51.2999C57.1749 52.7449 55.2799 54.4149 53.5949 56.2749C46.4749 64.0999 43.4349 74.5549 45.2499 84.9599C46.2599 90.7249 48.7599 96.1749 52.4849 100.715C53.2849 101.685 54.1299 102.61 54.9949 103.46C55.3849 103.845 55.8149 104.245 56.3399 104.72C56.6949 105.035 57.0499 105.335 57.4049 105.62L57.4749 105.68L57.5599 105.71C57.9499 105.84 58.3499 105.96 58.7799 106.08C62.3849 107.07 65.7549 107.495 68.8749 107.495ZM99.8049 87.4799C99.3299 88.3199 95.8849 94.1399 89.6049 99.0849C80.5849 106.185 70.3049 108.21 59.0549 105.1C58.6749 104.995 58.3199 104.89 57.9749 104.775C57.6549 104.515 57.3349 104.24 57.0199 103.96C56.5099 103.5 56.0899 103.11 55.7099 102.735C54.8699 101.91 54.0499 101.015 53.2749 100.07C49.6599 95.6649 47.2299 90.3799 46.2549 84.7849C44.4899 74.6899 47.4449 64.5499 54.3499 56.9549C55.9749 55.1649 57.7949 53.5549 59.7549 52.1599C64.3299 50.3499 69.0849 50.1099 73.8899 51.4349C85.1449 54.5449 92.9249 61.5599 97.0149 72.2849C99.8649 79.7549 99.8299 86.5149 99.8049 87.4799Z" fill="#371A45"/>
<path d="M71.7149 110.57C81.3799 110.57 88.4199 106.85 92.9599 103.27C100.54 97.29 104.42 90.225 104.585 89.93L105.115 88.945L105.165 87.83C105.18 87.49 105.475 79.435 102.045 70.41C99.7499 64.375 92.5149 50.01 75.0249 47.025C74.6849 46.965 74.3299 46.915 73.9749 46.875C69.3649 46.35 64.5799 47.485 60.4949 50.07C60.0049 50.38 59.5149 50.705 59.0449 51.04C56.9849 52.495 55.0749 54.185 53.3749 56.06C46.1899 63.955 43.1199 74.51 44.9549 85.005C45.9749 90.825 48.4999 96.32 52.2599 100.905C53.0649 101.885 53.9199 102.82 54.7899 103.675C55.1849 104.065 55.6149 104.465 56.1449 104.945C56.5049 105.26 56.8649 105.57 57.2199 105.855C58.2849 106.725 59.4199 107.55 60.5999 108.3C61.2549 108.72 61.9349 109.12 62.6149 109.495L62.7199 109.55L62.8349 109.575C65.9999 110.27 68.9649 110.57 71.7149 110.57ZM103.495 88.5L103.145 89.15C102.99 89.435 99.2649 96.215 91.9449 101.985C86.4049 106.355 76.9449 110.935 63.2899 108.005C62.6749 107.665 62.0649 107.3 61.4699 106.925C60.3449 106.21 59.2599 105.425 58.2449 104.59C57.9049 104.315 57.5599 104.025 57.2249 103.725C56.7199 103.27 56.3049 102.885 55.9299 102.51C55.0949 101.69 54.2849 100.805 53.5149 99.865C49.9349 95.5 47.5299 90.265 46.5599 84.725C44.8149 74.73 47.7349 64.68 54.5799 57.16C56.2049 55.375 58.0199 53.765 59.9849 52.375C60.4349 52.055 60.8999 51.745 61.3699 51.45C65.1399 49.065 69.5499 48.015 73.7899 48.5C74.1149 48.535 74.4399 48.585 74.7499 48.635C91.4099 51.48 98.3149 65.215 100.515 70.99C103.83 79.7 103.545 87.43 103.53 87.755L103.495 88.5Z" fill="#371A45"/>
<path d="M50.4949 97.095C51.2149 98.23 52.0099 99.33 52.8799 100.39C53.6499 101.325 54.4699 102.23 55.3549 103.095C55.7849 103.515 56.2299 103.93 56.6849 104.34C57.0299 104.645 57.3749 104.94 57.7299 105.225C58.1199 105.355 58.5149 105.475 58.9199 105.59C86.4799 113.205 100.31 87.625 100.31 87.625C100.31 87.625 100.81 76.24 94.4199 65.855C94.4399 65.925 94.4549 65.99 94.4749 66.06C96.4349 73.7 94.1749 81.805 88.5649 87.345C81.3649 94.455 68.9149 102.205 51.2449 97.32C50.9899 97.245 50.7399 97.17 50.4949 97.095Z" fill="#220F2D"/>
<path d="M100.675 99.46C101.85 99.785 107.645 99.525 107.645 99.525C107.645 99.525 111.69 95.155 113.075 90.13C113.265 89.455 113.355 88.245 113.39 86.87C113.48 83.555 113.245 79.28 113.245 79.28C113.245 79.28 110.495 76.655 107.23 75.75C102.19 74.355 96.635 78.535 94.83 85.08C94.64 85.775 94.495 86.47 94.4 87.15C93.6 92.935 96.17 98.21 100.675 99.46Z" fill="white"/>
<g opacity="0.2">
<path d="M100.675 99.46C101.85 99.785 107.645 99.525 107.645 99.525C107.645 99.525 111.69 95.155 113.075 90.13C113.265 89.455 113.355 88.245 113.39 86.87H99.2299C99.2299 86.87 97.0249 89.455 94.3999 87.155C93.5999 92.935 96.1699 98.21 100.675 99.46Z" fill="#371A45"/>
</g>
<path d="M103.565 100.44C105.285 100.44 107.125 100.365 107.685 100.34L108.02 100.325L108.25 100.08C108.42 99.895 112.445 95.505 113.87 90.35C114.525 87.985 114.115 80.125 114.065 79.235L114.045 78.91L113.81 78.685C113.69 78.57 110.875 75.91 107.45 74.96C104.76 74.215 101.88 74.865 99.3299 76.785C96.8449 78.655 94.9649 81.525 94.0449 84.865C93.1199 88.205 93.2599 91.63 94.4299 94.51C95.6299 97.465 97.7749 99.505 100.46 100.245C100.995 100.395 102.245 100.44 103.565 100.44ZM107.265 98.72C104.915 98.815 101.58 98.86 100.895 98.67C98.7099 98.065 96.9499 96.37 95.9399 93.895C94.9049 91.345 94.7899 88.295 95.6149 85.3C96.4449 82.305 98.1099 79.745 100.31 78.09C102.445 76.485 104.825 75.93 107.015 76.535C109.515 77.225 111.74 79.035 112.45 79.655C112.58 82.225 112.765 88.2 112.295 89.905C111.155 94.02 108.105 97.745 107.265 98.72Z" fill="#371A45"/>
<path d="M104.462 99.4127C99.8525 98.1385 97.4574 92.2512 99.1126 86.2629C100.768 80.2746 105.846 76.453 110.456 77.7272C115.066 79.0013 117.461 84.8886 115.806 90.8769C114.15 96.8652 109.072 100.687 104.462 99.4127Z" fill="white"/>
<g opacity="0.2">
<path d="M104.455 99.415C108.875 100.635 113.725 97.175 115.575 91.61C112.725 94.115 109.2 95.23 105.865 94.305C102.53 93.385 100.08 90.62 98.92 87.005C97.65 92.73 100.035 98.195 104.455 99.415Z" fill="#371A45"/>
</g>
<path d="M106.275 100.48C108.13 100.48 110.005 99.8149 111.72 98.5249C114.005 96.8049 115.73 94.1699 116.58 91.0999C117.43 88.0299 117.3 84.8799 116.225 82.2299C115.115 79.5049 113.14 77.6299 110.66 76.9449C105.625 75.5549 100.085 79.6349 98.3099 86.0499C97.4599 89.1199 97.5899 92.2699 98.6649 94.9199C99.7749 97.6449 101.75 99.5199 104.23 100.205C104.905 100.385 105.59 100.48 106.275 100.48ZM108.63 78.2999C109.165 78.2999 109.7 78.3699 110.23 78.5149C112.21 79.0599 113.8 80.5999 114.715 82.8399C115.66 85.1549 115.76 87.9349 115.01 90.6549C114.255 93.3799 112.74 95.7049 110.745 97.2099C108.81 98.6649 106.655 99.1649 104.675 98.6199C102.695 98.0749 101.105 96.5349 100.19 94.2949C99.2449 91.9799 99.1449 89.1999 99.8949 86.4799C101.23 81.6399 104.94 78.2999 108.63 78.2999Z" fill="#371A45"/>
<path d="M106.275 100.48C108.13 100.48 110.005 99.8149 111.72 98.5249C114.005 96.8049 115.73 94.1699 116.58 91.0999C117.43 88.0299 117.3 84.8799 116.225 82.2299C115.115 79.5049 113.14 77.6299 110.66 76.9449C105.625 75.5549 100.085 79.6349 98.3099 86.0499C97.4599 89.1199 97.5899 92.2699 98.6649 94.9199C99.7749 97.6449 101.75 99.5199 104.23 100.205C104.905 100.385 105.59 100.48 106.275 100.48ZM108.63 78.2999C109.165 78.2999 109.7 78.3699 110.23 78.5149C112.21 79.0599 113.8 80.5999 114.715 82.8399C115.66 85.1549 115.76 87.9349 115.01 90.6549C114.255 93.3799 112.74 95.7049 110.745 97.2099C108.81 98.6649 106.655 99.1649 104.675 98.6199C102.695 98.0749 101.105 96.5349 100.19 94.2949C99.2449 91.9799 99.1449 89.1999 99.8949 86.4799C101.23 81.6399 104.94 78.2999 108.63 78.2999Z" fill="#371A45"/>
<g opacity="0.5">
<path d="M83.3549 60.04C83.3549 60.04 69.1699 58.15 59.8499 64.575C59.8399 64.58 59.8299 64.59 59.8199 64.595C57.8599 65.95 56.3049 67.8 55.3099 69.945C53.9899 72.78 53.5049 74.925 53.1499 76.83C52.0749 82.625 52.6699 85.535 52.6699 85.535C49.8949 81.87 48.6549 78.055 49.4999 73.22C49.5849 72.745 49.6899 72.255 49.8149 71.76C49.8449 71.645 49.8749 71.53 49.9049 71.42C49.9049 71.42 49.9049 71.415 49.9099 71.415C50.2349 70.425 50.7099 69.14 51.3649 67.735C53.3499 63.495 56.9899 58.15 63.1549 56.48C74.6849 53.355 83.9499 59.525 83.3549 60.04Z" fill="white"/>
</g>
<g opacity="0.5">
<path d="M83.4065 77.4293C83.1665 74.7754 84.8446 72.4547 87.1547 72.2458C89.4648 72.0369 91.532 74.019 91.772 76.6728C92.012 79.3267 90.3338 81.6474 88.0238 81.8563C85.7137 82.0652 83.6464 80.0831 83.4065 77.4293Z" fill="white"/>
</g>
<g opacity="0.5">
<path d="M86.5919 86.6005C86.3911 85.5171 86.9922 84.4973 87.9344 84.3227C88.8766 84.1481 89.8032 84.8848 90.0039 85.9683C90.2047 87.0517 89.6036 88.0715 88.6614 88.246C87.7192 88.4206 86.7926 87.6839 86.5919 86.6005Z" fill="white"/>
</g>
<path d="M88.715 123.385C89.365 123.81 90.435 123.53 90.435 123.53C90.435 123.53 91.13 129.34 96.805 129.67C102 129.975 106.35 126.03 107.11 123.305C107.95 120.295 105.965 116.845 104.85 113.795C104.66 113.28 104.495 112.775 104.375 112.29C104.72 111.23 106.305 108.785 106.305 108.785C106.305 108.785 96.185 108.94 90.11 116.545C89.72 117.04 89.38 117.505 89.1 117.95C87.3 120.8 87.65 122.685 88.715 123.385Z" fill="white"/>
<g opacity="0.2">
<path d="M89.0999 117.95C96.4049 113.045 102.28 113.315 104.85 113.795C104.66 113.28 104.495 112.775 104.375 112.29C104.72 111.23 106.305 108.785 106.305 108.785C106.305 108.785 96.1849 108.94 90.1099 116.545C89.7149 117.035 89.3799 117.505 89.0999 117.95Z" fill="#371A45"/>
</g>
<path d="M97.3849 130.505C102.71 130.505 107.055 126.535 107.895 123.525C108.63 120.875 107.44 118 106.39 115.46C105.93 114.355 105.5 113.305 105.23 112.335C105.59 111.465 106.6 109.835 106.99 109.23C107.155 108.975 107.165 108.655 107.02 108.39C106.875 108.125 106.595 107.975 106.29 107.97C105.86 107.975 95.7099 108.22 89.4649 116.035C87.1399 118.945 86.8749 120.945 87.0599 122.105C87.1949 122.95 87.6249 123.645 88.2649 124.07C88.7349 124.38 89.2999 124.45 89.7649 124.435C90.3299 126.775 92.2799 130.225 96.7499 130.485C96.9699 130.5 97.1799 130.505 97.3849 130.505ZM104.755 109.735C104.295 110.515 103.79 111.435 103.595 112.035C103.55 112.18 103.54 112.335 103.58 112.485C103.865 113.645 104.355 114.83 104.875 116.085C105.87 118.49 106.905 120.98 106.32 123.085C105.63 125.565 101.505 129.13 96.8549 128.855C91.9499 128.565 91.2749 123.64 91.2449 123.43C91.2149 123.195 91.0849 122.985 90.8899 122.855C90.6949 122.725 90.4499 122.68 90.2249 122.74C89.9249 122.815 89.3849 122.845 89.1649 122.7C88.9049 122.53 88.7399 122.235 88.6749 121.845C88.5849 121.295 88.6099 119.72 90.7449 117.05C95.1199 111.575 101.76 110.12 104.755 109.735Z" fill="#371A45"/>
<path d="M92.26 117.95C92.26 117.95 90.51 120.265 90.435 123.53L92.26 117.95Z" fill="#FF7236"/>
<path d="M91.935 117.705C90.945 118.955 90.27 120.385 89.885 121.925C89.75 122.44 89.675 122.975 89.62 123.51C89.57 123.96 89.895 124.365 90.35 124.415C90.85 124.475 91.29 124.05 91.255 123.55C91.19 122.16 91.45 120.755 91.97 119.46C92.15 119.015 92.365 118.565 92.6 118.175C92.855 117.745 92.25 117.32 91.935 117.705Z" fill="#371A45"/>
<path d="M45.1999 50.53C46.1899 48.91 46.6799 46.96 46.4699 44.925C45.9599 39.98 41.5449 36.385 36.5999 36.895C31.6549 37.405 28.0599 41.82 28.5699 46.765C29.0799 51.71 33.4949 55.305 38.4399 54.795C39.8149 54.655 41.0849 54.21 42.1899 53.535L46.3549 54.47L45.1999 50.53Z" fill="#FF0068"/>
<g opacity="0.5">
<path d="M36.7749 38.6151C41.3949 38.1401 45.5499 41.2501 46.4949 45.6901C46.4949 45.3751 46.4799 45.0551 46.4499 44.7301C45.9399 39.7851 41.5249 36.1901 36.5799 36.7001C31.6349 37.2101 28.0399 41.6251 28.5499 46.5701C28.5849 46.8951 28.6349 47.2101 28.6999 47.5251C28.7149 42.9751 32.1549 39.0901 36.7749 38.6151Z" fill="white"/>
</g>
<path d="M37.4999 55.535C37.8349 55.535 38.1699 55.52 38.5099 55.485C39.8599 55.345 41.1349 54.94 42.3049 54.27L46.1999 55.145C46.4399 55.2 46.6899 55.12 46.8549 54.945C47.0249 54.765 47.0849 54.51 47.0149 54.275L45.9449 50.625C46.9449 48.865 47.3649 46.88 47.1549 44.855C46.6099 39.54 41.8399 35.66 36.5249 36.205C33.9499 36.47 31.6349 37.72 29.9999 39.73C28.3649 41.735 27.6099 44.26 27.8749 46.835C28.1399 49.41 29.3899 51.73 31.3999 53.36C33.1449 54.78 35.2799 55.535 37.4999 55.535ZM42.1899 52.84C42.0649 52.84 41.9399 52.875 41.8299 52.94C40.7699 53.585 39.6049 53.975 38.3649 54.1C36.1599 54.325 33.9949 53.68 32.2749 52.28C30.5549 50.88 29.4799 48.895 29.2549 46.685C29.0299 44.48 29.6749 42.315 31.0749 40.595C32.4749 38.875 34.4599 37.8 36.6699 37.575C41.2249 37.105 45.3149 40.435 45.7799 44.99C45.9649 46.815 45.5599 48.6 44.6049 50.165C44.5049 50.33 44.4749 50.535 44.5299 50.72L45.3549 53.53L42.3349 52.855C42.2899 52.845 42.2399 52.84 42.1899 52.84Z" fill="#371A45"/>
<g opacity="0.2">
<path d="M45.2499 50.44C42.7849 52.525 39.3898 53.435 36.0198 52.6C32.2798 51.67 29.5249 48.82 28.5349 45.365C28.5099 45.825 28.5198 46.29 28.5698 46.76C29.0798 51.705 33.4949 55.3 38.4399 54.79C39.8149 54.65 41.0849 54.205 42.1899 53.53L46.3549 54.465L45.1999 50.525C45.2149 50.5 45.2299 50.47 45.2499 50.44Z" fill="#371A45"/>
</g>
<path d="M40.3948 43.315C39.6148 42.535 38.3548 42.675 37.5748 43.455L37.4548 43.575L37.3348 43.455C36.5548 42.675 35.2948 42.535 34.5148 43.315C33.7348 44.095 33.7348 45.355 34.5148 46.135L34.6348 46.255L37.0848 48.705C37.2898 48.91 37.6248 48.91 37.8298 48.705L40.2798 46.255L40.3998 46.135C41.1748 45.355 41.1748 44.095 40.3948 43.315Z" fill="white"/>
</svg>
