<svg width="232" height="203" viewBox="0 0 232 203" fill="none" xmlns="http://www.w3.org/2000/svg">
<path d="M132.092 145.176C157.105 134.516 168.739 105.601 158.08 80.5879C147.421 55.5766 118.504 43.9407 93.4915 54.6003C68.4803 65.2593 56.8449 94.1771 67.5039 119.188C78.1635 144.201 107.081 155.835 132.092 145.176ZM106.636 85.443C114.615 82.0425 123.838 85.7537 127.238 93.7315C130.638 101.709 126.928 110.934 118.948 114.335C110.971 117.735 101.746 114.022 98.3466 106.044C94.9467 98.0664 98.6579 88.8428 106.636 85.443Z" fill="#EB9F49"/>
<g opacity="0.35">
<path d="M132.092 145.176C157.105 134.516 168.74 105.601 158.081 80.5882C157.934 80.2451 157.784 79.9053 157.632 79.5668C167.545 104.338 155.887 132.611 131.218 143.125C106.549 153.638 78.081 142.465 67.0788 118.157C67.2171 118.502 67.3584 118.846 67.5046 119.189C78.1642 144.202 107.081 155.835 132.092 145.176Z" fill="white"/>
</g>
<g opacity="0.3">
<path d="M68.9071 122.199C60.4259 97.9429 72.1093 70.9297 96.0942 60.7081C120.081 50.4859 147.658 60.7674 159.28 83.6848C158.917 82.6474 158.518 81.6149 158.081 80.5885C147.422 55.5772 118.504 43.9407 93.4913 54.6004C68.48 65.2594 56.8456 94.1778 67.5046 119.189C67.942 120.215 68.4105 121.218 68.9071 122.199Z" fill="#6B184E"/>
</g>
<path d="M106.367 84.8125C114.681 81.2695 124.326 85.1501 127.869 93.4628C131.412 101.776 127.531 111.422 119.217 114.965C110.904 118.508 101.259 114.627 97.716 106.313C94.1733 98.0003 98.0541 88.3552 106.367 84.8125ZM118.68 113.704C126.298 110.458 129.854 101.619 126.608 94.0004C123.361 86.3831 114.523 82.8273 106.904 86.0739C99.2872 89.3202 95.7312 98.1583 98.9774 105.775C102.224 113.394 111.062 116.95 118.68 113.704Z" fill="#6B184E"/>
<path d="M132.092 145.176C157.105 134.516 168.739 105.601 158.08 80.5885C147.421 55.5772 118.505 43.9401 93.4919 54.5997C68.4806 65.2587 56.8448 94.1777 67.5038 119.189C78.1635 144.202 107.081 155.835 132.092 145.176Z" stroke="#6B184E" stroke-width="1.55801" stroke-miterlimit="10" stroke-linecap="round"/>
<path d="M82.2747 134.632C86.4357 138.018 90.9698 140.361 96.0219 141.976C101.912 143.859 103.429 145.361 110.621 145.795C116.848 146.174 123.728 143.465 129.887 140.933C135.115 138.783 139.518 138.501 146.621 131.239C150.947 126.815 152.862 120.792 154.669 114.949C156.584 108.749 157.674 105.818 157.722 96.5416C157.739 93.1696 156.792 86.4315 153.303 78.0568C148.076 65.4981 141.323 63.3385 132.46 58.9834C126.016 55.816 120.629 51.5124 110.36 53.1654C100.306 54.7836 94.4254 58.1568 89.7973 60.5346C79.0417 66.0591 77.6198 68.338 73.8602 74.7128C68.531 83.7544 70.2306 87.1766 67.9924 94.7248C65.803 102.107 66.6645 107.263 71.2893 117.011C74.4432 123.657 74.0293 127.92 82.2747 134.632ZM118.948 114.335C110.97 117.735 101.746 114.021 98.347 106.045C98.2051 105.712 98.0766 105.378 97.9604 105.041C95.2632 97.3075 98.9902 88.7007 106.635 85.4426C114.279 82.1851 123.063 85.4532 126.777 92.7467C126.941 93.0669 127.095 93.3964 127.238 93.7323C130.637 101.709 126.928 110.934 118.948 114.335Z" fill="#FF7236"/>
<g opacity="0.3">
<path d="M141.78 105.05L141.831 105.028C142.63 104.688 143.562 105.063 143.902 105.861L146.673 112.362C147.013 113.161 146.638 114.093 145.839 114.433L145.788 114.455C144.989 114.795 144.057 114.42 143.717 113.622L140.946 107.121C140.606 106.322 140.981 105.39 141.78 105.05Z" fill="#6B184E"/>
</g>
<path d="M141.239 106.992L141.29 106.97C142.089 106.629 143.021 107.004 143.361 107.803L146.131 114.304C146.472 115.102 146.097 116.034 145.298 116.375L145.247 116.397C144.448 116.737 143.516 116.362 143.176 115.563L140.405 109.063C140.065 108.264 140.44 107.332 141.239 106.992Z" fill="#4A83FF"/>
<g opacity="0.35">
<path d="M143.164 115.537L140.416 109.088C140.125 108.406 140.346 107.631 140.904 107.194C140.874 107.458 140.911 107.733 141.022 107.993L143.77 114.443C143.944 114.849 144.268 115.148 144.65 115.301C145.032 115.455 145.472 115.464 145.878 115.291C146.01 115.235 146.13 115.163 146.238 115.078C146.177 115.637 145.824 116.15 145.272 116.385C144.867 116.558 144.426 116.55 144.044 116.396C143.662 116.242 143.337 115.943 143.164 115.537Z" fill="white"/>
</g>
<g opacity="0.3">
<path d="M140.616 109.557L140.416 109.088C140.069 108.275 140.452 107.326 141.264 106.98C142.078 106.633 143.025 107.015 143.372 107.828L146.121 114.278C146.409 114.954 146.193 115.725 145.643 116.164L143.095 110.184C142.748 109.37 141.8 108.989 140.987 109.336C140.851 109.394 140.725 109.469 140.616 109.557Z" fill="#6B184E"/>
</g>
<path d="M141.002 106.435L141.053 106.413C142.161 105.941 143.446 106.458 143.918 107.566L146.688 114.066C147.16 115.174 146.643 116.459 145.536 116.931L145.484 116.953C144.377 117.425 143.091 116.908 142.619 115.8L139.849 109.3C139.377 108.192 139.894 106.907 141.002 106.435ZM145.061 115.818C145.555 115.607 145.786 115.034 145.575 114.541L142.805 108.04C142.594 107.546 142.021 107.315 141.527 107.526L141.476 107.548C140.982 107.758 140.752 108.331 140.962 108.825L143.733 115.326C143.943 115.82 144.516 116.05 145.01 115.84L145.061 115.818Z" fill="#6B184E"/>
<g opacity="0.3">
<path d="M135.685 110.709L135.715 110.756C136.174 111.493 135.947 112.472 135.211 112.931L129.214 116.669C128.477 117.129 127.499 116.902 127.039 116.165L127.01 116.117C126.55 115.381 126.777 114.402 127.514 113.943L133.511 110.204C134.247 109.745 135.226 109.972 135.685 110.709Z" fill="#6B184E"/>
</g>
<path d="M136.302 112.157L136.332 112.205C136.791 112.942 136.564 113.92 135.828 114.379L129.831 118.118C129.094 118.577 128.116 118.35 127.656 117.613L127.627 117.566C127.167 116.829 127.394 115.851 128.131 115.391L134.128 111.653C134.864 111.194 135.843 111.421 136.302 112.157Z" fill="#F7DE72"/>
<g opacity="0.35">
<path d="M127.478 116.244L127.489 116.27C127.521 116.344 127.559 116.418 127.603 116.488C128.071 117.238 129.066 117.469 129.816 117.001L135.765 113.292C136.098 113.085 136.328 112.773 136.441 112.426C136.73 113.134 136.475 113.975 135.804 114.394L129.855 118.103C129.104 118.57 128.109 118.339 127.641 117.589C127.597 117.519 127.559 117.444 127.527 117.371C127.372 117.006 127.362 116.605 127.478 116.244Z" fill="white"/>
</g>
<g opacity="0.3">
<path d="M127.527 117.37C127.223 116.655 127.476 115.8 128.155 115.375L134.103 111.667C134.853 111.2 135.85 111.431 136.317 112.181C136.619 112.665 136.63 113.25 136.399 113.73C135.906 113.071 134.974 112.887 134.263 113.33L128.315 117.038C128.047 117.205 127.846 117.44 127.719 117.704C127.691 117.667 127.666 117.628 127.641 117.589C127.597 117.519 127.559 117.444 127.527 117.37Z" fill="#6B184E"/>
</g>
<path d="M134.109 110.982C134.531 110.802 134.998 110.761 135.456 110.867C136.025 110.999 136.508 111.343 136.816 111.837L136.845 111.885C137.482 112.906 137.169 114.255 136.148 114.893L130.151 118.631C129.657 118.939 129.072 119.036 128.503 118.903C127.933 118.771 127.45 118.427 127.143 117.933L127.113 117.886C126.806 117.392 126.709 116.807 126.841 116.238C126.973 115.668 127.317 115.185 127.811 114.878L133.807 111.139C133.905 111.079 134.005 111.026 134.109 110.982ZM135.789 112.477C135.652 112.258 135.437 112.105 135.182 112.046C134.928 111.987 134.668 112.029 134.448 112.166L128.451 115.904C128.232 116.041 128.079 116.256 128.02 116.511C127.961 116.766 128.003 117.026 128.14 117.246L128.17 117.293C128.306 117.512 128.522 117.666 128.776 117.725C129.03 117.784 129.29 117.742 129.511 117.604L135.507 113.866C135.963 113.582 136.103 112.98 135.819 112.524L135.789 112.477L135.789 112.477Z" fill="#6B184E"/>
<g opacity="0.3">
<path d="M144.04 125.455L144.03 125.51C143.871 126.363 143.042 126.931 142.189 126.772L135.242 125.477C134.388 125.318 133.82 124.49 133.979 123.636L133.989 123.581C134.148 122.728 134.977 122.16 135.831 122.319L142.777 123.614C143.631 123.773 144.199 124.601 144.04 125.455Z" fill="#6B184E"/>
</g>
<path d="M144.657 126.902L144.647 126.957C144.488 127.811 143.659 128.379 142.806 128.22L135.859 126.925C135.005 126.766 134.437 125.937 134.596 125.084L134.606 125.029C134.765 124.175 135.594 123.607 136.448 123.766L143.394 125.061C144.248 125.22 144.816 126.049 144.657 126.902Z" fill="#ED2E7A"/>
<g opacity="0.35">
<path d="M134.576 125.388C134.799 125.614 135.089 125.776 135.421 125.838L142.313 127.123C143.181 127.285 144.025 126.707 144.187 125.839C144.208 125.727 144.216 125.616 144.213 125.506C144.571 125.868 144.752 126.395 144.652 126.93C144.49 127.798 143.647 128.376 142.779 128.214L135.887 126.93C135.13 126.789 134.594 126.129 134.576 125.388Z" fill="white"/>
</g>
<g opacity="0.3">
<path d="M134.602 125.055C134.704 124.509 135.076 124.077 135.555 123.873C135.836 123.753 136.153 123.712 136.475 123.771L143.367 125.056C144.203 125.213 144.771 126.002 144.665 126.838C144.547 126.785 144.424 126.745 144.292 126.721L137.4 125.437C137.078 125.377 136.761 125.418 136.48 125.538C136.001 125.742 135.629 126.174 135.527 126.721C135.521 126.751 135.517 126.781 135.514 126.812C134.86 126.512 134.464 125.793 134.602 125.055Z" fill="#6B184E"/>
</g>
<path d="M135.306 123.309C135.688 123.146 136.12 123.09 136.558 123.172L143.505 124.466C144.077 124.573 144.574 124.897 144.904 125.379C145.235 125.861 145.358 126.441 145.252 127.012L145.241 127.067C145.135 127.64 144.811 128.137 144.329 128.467C143.846 128.798 143.266 128.921 142.695 128.815L135.748 127.52C135.176 127.413 134.679 127.089 134.349 126.607C134.018 126.125 133.895 125.545 134.001 124.973L134.011 124.919C134.15 124.173 134.655 123.586 135.306 123.309ZM143.472 127.564C143.532 127.539 143.589 127.507 143.644 127.469C143.86 127.322 144.004 127.1 144.052 126.846L144.062 126.791C144.16 126.264 143.811 125.754 143.283 125.656L136.337 124.361C135.809 124.263 135.299 124.612 135.201 125.14L135.191 125.194C135.143 125.449 135.199 125.707 135.347 125.923C135.494 126.138 135.716 126.283 135.97 126.33L142.917 127.625C143.106 127.66 143.297 127.639 143.472 127.564Z" fill="#6B184E"/>
<g opacity="0.3">
<path d="M152.311 93.911L152.341 93.9581C152.808 94.6903 152.591 95.6711 151.859 96.1378L145.9 99.9361C145.168 100.403 144.187 100.186 143.72 99.4535L143.69 99.4063C143.223 98.6741 143.44 97.6933 144.173 97.2266L150.131 93.4283C150.864 92.9617 151.844 93.1789 152.311 93.911Z" fill="#6B184E"/>
</g>
<path d="M152.928 95.359L152.958 95.4061C153.425 96.1383 153.208 97.1191 152.475 97.5858L146.517 101.384C145.784 101.851 144.804 101.634 144.337 100.901L144.307 100.854C143.84 100.122 144.057 99.1413 144.789 98.6746L150.748 94.8763C151.48 94.4096 152.461 94.6268 152.928 95.359Z" fill="white"/>
<g opacity="0.35">
<path d="M144.198 100.644C144.075 100.355 144.043 100.042 144.095 99.7438C144.117 99.786 144.139 99.8261 144.165 99.8665C144.64 100.612 145.639 100.833 146.384 100.358L152.296 96.5893C152.691 96.337 152.94 95.9369 153.013 95.5056C153.393 96.2331 153.156 97.1514 152.452 97.6007L146.539 101.369C145.794 101.844 144.797 101.622 144.322 100.877C144.274 100.802 144.232 100.724 144.198 100.644Z" fill="white"/>
</g>
<g opacity="0.3">
<path d="M144.199 100.644C143.897 99.9363 144.144 99.0869 144.814 98.6595L150.726 94.8913C151.47 94.4169 152.469 94.6378 152.944 95.383C153.373 96.0556 153.234 96.9341 152.654 97.4481C152.647 97.4307 152.637 97.416 152.627 97.3999C152.152 96.6546 151.154 96.4332 150.409 96.9081L144.497 100.678C144.425 100.724 144.357 100.775 144.296 100.831C144.258 100.77 144.226 100.708 144.199 100.644Z" fill="#6B184E"/>
</g>
<path d="M150.743 94.1975C151.158 94.0206 151.617 93.9775 152.068 94.0774C152.639 94.2037 153.125 94.5432 153.438 95.0332L153.468 95.0803C154.115 96.0963 153.816 97.4489 152.801 98.0959L146.842 101.894C146.351 102.208 145.767 102.309 145.196 102.183C144.626 102.057 144.139 101.717 143.827 101.226L143.797 101.18C143.149 100.164 143.449 98.8115 144.464 98.1644L150.423 94.3661C150.526 94.3006 150.633 94.2443 150.743 94.1975ZM146.05 100.948C146.099 100.928 146.146 100.903 146.191 100.874L152.15 97.0755C152.603 96.7871 152.736 96.184 152.448 95.7312L152.418 95.684C152.279 95.4664 152.062 95.3153 151.807 95.2589C151.552 95.2024 151.291 95.2476 151.074 95.3865L145.115 99.1848C144.662 99.4732 144.529 100.076 144.817 100.529L144.847 100.576C144.986 100.794 145.203 100.945 145.458 101.001C145.66 101.046 145.865 101.027 146.05 100.948Z" fill="#6B184E"/>
<g opacity="0.3">
<path d="M139.377 94.1942L139.344 94.2394C138.833 94.9414 137.841 95.0977 137.139 94.5867L131.425 90.4281C130.723 89.9171 130.567 88.9247 131.078 88.2227L131.111 88.1775C131.622 87.4756 132.614 87.3193 133.316 87.8303L139.03 91.9889C139.732 92.4999 139.888 93.4923 139.377 94.1942Z" fill="#6B184E"/>
</g>
<path d="M139.415 95.8886L139.382 95.9338C138.871 96.6357 137.878 96.792 137.176 96.2811L131.463 92.1224C130.761 91.6114 130.605 90.619 131.116 89.9171L131.149 89.8719C131.66 89.1699 132.652 89.0136 133.354 89.5246L139.067 93.6832C139.769 94.1942 139.926 95.1866 139.415 95.8886Z" fill="#EF1664"/>
<g opacity="0.35">
<path d="M130.873 90.456C130.96 90.5656 131.063 90.6657 131.182 90.7519L136.85 94.8774C137.565 95.3975 138.575 95.239 139.095 94.5247C139.221 94.3512 139.307 94.1604 139.355 93.9638C139.793 94.5144 139.832 95.3155 139.398 95.911C138.878 96.6253 137.869 96.7853 137.154 96.2652L131.486 92.1396C130.945 91.7457 130.722 91.0708 130.873 90.456Z" fill="white"/>
</g>
<g opacity="0.3">
<path d="M131.133 89.895C131.309 89.6525 131.541 89.4749 131.798 89.3651C132.302 89.1504 132.905 89.1962 133.377 89.5408L139.044 93.667C139.661 94.1141 139.864 94.9254 139.575 95.5959L134.14 91.6397C133.668 91.2951 133.065 91.2492 132.561 91.4639C132.303 91.5737 132.071 91.7514 131.896 91.9938C131.823 92.093 131.764 92.1987 131.719 92.3087L131.486 92.1394C130.771 91.6194 130.613 90.6093 131.133 89.895Z" fill="#6B184E"/>
</g>
<path d="M131.563 88.7954C131.728 88.725 131.904 88.6745 132.086 88.6459C132.663 88.5549 133.24 88.6934 133.71 89.0356L139.424 93.1941C139.894 93.5365 140.203 94.0429 140.294 94.6204C140.385 95.1975 140.246 95.7745 139.904 96.2444L139.872 96.289C139.529 96.7602 139.023 97.0694 138.445 97.1601C137.868 97.2511 137.29 97.1126 136.821 96.7704L131.107 92.6118C130.637 92.2696 130.328 91.763 130.237 91.1856C130.146 90.6082 130.285 90.0312 130.627 89.5612L130.659 89.517C130.894 89.1947 131.205 88.948 131.563 88.7954ZM138.489 95.8997C138.645 95.833 138.786 95.7249 138.893 95.578L138.926 95.5328C139.078 95.3238 139.139 95.0668 139.098 94.8084C139.058 94.5504 138.92 94.3245 138.712 94.1725L132.998 90.014C132.789 89.8618 132.532 89.8006 132.274 89.8411C132.016 89.8818 131.79 90.0194 131.638 90.228L131.606 90.2722C131.453 90.4822 131.392 90.7392 131.433 90.9975C131.473 91.2555 131.611 91.4814 131.819 91.6334L137.533 95.792C137.82 96.001 138.184 96.0297 138.489 95.8997Z" fill="#6B184E"/>
<g opacity="0.3">
<path d="M124.359 83.1791L124.304 83.1665C123.459 82.9703 122.927 82.1177 123.123 81.272L124.72 74.3883C124.916 73.5425 125.769 73.011 126.615 73.2072L126.669 73.2199C127.515 73.4161 128.046 74.2686 127.85 75.1144L126.253 81.9981C126.057 82.8438 125.205 83.3753 124.359 83.1791Z" fill="#6B184E"/>
</g>
<path d="M125.555 84.38L125.501 84.3674C124.655 84.1712 124.123 83.3187 124.319 82.4729L125.916 75.5892C126.112 74.7435 126.965 74.212 127.811 74.4082L127.865 74.4208C128.711 74.617 129.243 75.4695 129.046 76.3153L127.45 83.199C127.253 84.0447 126.401 84.5762 125.555 84.38Z" fill="#4A83FF"/>
<g opacity="0.35">
<path d="M124.352 83.2636C124.486 83.3402 124.632 83.3977 124.787 83.434C125.649 83.6331 126.515 83.0928 126.716 82.2322L128.299 75.4028C128.365 75.1234 128.351 74.8419 128.272 74.5833C128.58 74.7599 128.816 75.0338 128.952 75.3523C129.081 75.6548 129.12 75.9991 129.04 76.3426L127.456 83.1727C127.256 84.0327 126.388 84.5735 125.528 84.3738C124.946 84.2403 124.511 83.8 124.352 83.2636Z" fill="white"/>
</g>
<g opacity="0.3">
<path d="M124.325 82.4457L125.91 75.6171C126.109 74.7557 126.977 74.2148 127.838 74.4139C128.356 74.5336 128.757 74.8964 128.952 75.3524C129.081 75.655 129.12 75.9993 129.04 76.3428L128.882 77.0262C128.732 76.929 128.563 76.8559 128.378 76.813C127.516 76.6125 126.649 77.1548 126.45 78.0148L125.025 84.1607C124.469 83.8039 124.169 83.1229 124.325 82.4457Z" fill="#6B184E"/>
</g>
<path d="M126.601 73.9369C127.012 73.7617 127.48 73.7103 127.948 73.8189L128.002 73.8314C129.175 74.1036 129.908 75.2792 129.636 76.4521L128.039 83.3359C127.908 83.9022 127.562 84.3846 127.066 84.6938C126.57 85.0029 125.985 85.1007 125.419 84.9696L125.364 84.9569C124.798 84.8254 124.315 84.4799 124.006 83.9839C123.697 83.4879 123.599 82.9028 123.73 82.3363L125.327 75.4525C125.491 74.7473 125.981 74.201 126.601 73.9369ZM126.292 83.7381C126.569 83.6204 126.787 83.3769 126.86 83.0624L128.457 76.1786C128.515 75.927 128.471 75.6664 128.333 75.4446C128.195 75.2228 127.98 75.0686 127.729 75.0103L127.674 74.9977C127.151 74.8763 126.627 75.2034 126.506 75.726L124.909 82.6098C124.851 82.8614 124.895 83.122 125.033 83.3438C125.171 83.5656 125.386 83.7198 125.637 83.7781L125.692 83.7908C125.9 83.8391 126.109 83.8162 126.292 83.7381Z" fill="#6B184E"/>
<g opacity="0.3">
<path d="M103.795 123.821L103.809 123.876C104.022 124.717 104.886 125.231 105.727 125.018L112.577 123.282C113.419 123.068 113.933 122.205 113.719 121.363L113.706 121.309C113.492 120.468 112.629 119.954 111.787 120.167L104.938 121.903C104.096 122.117 103.582 122.98 103.795 123.821Z" fill="#6B184E"/>
</g>
<path d="M104.413 125.269L104.426 125.323C104.64 126.165 105.503 126.679 106.345 126.466L113.194 124.729C114.036 124.516 114.55 123.653 114.337 122.811L114.323 122.757C114.11 121.915 113.246 121.401 112.405 121.615L105.555 123.351C104.713 123.564 104.199 124.427 104.413 125.269Z" fill="white"/>
<g opacity="0.5">
<path d="M104.42 125.296C104.413 125.268 104.407 125.242 104.4 125.214C104.778 125.508 105.284 125.631 105.782 125.506L112.578 123.784C113.406 123.572 113.923 122.743 113.76 121.913C113.97 122.077 114.141 122.293 114.249 122.548C114.281 122.623 114.308 122.702 114.329 122.784C114.547 123.64 114.023 124.519 113.167 124.737L106.373 126.459C105.515 126.675 104.636 126.154 104.42 125.296Z" fill="white"/>
</g>
<g opacity="0.3">
<path d="M104.42 125.297C104.202 124.44 104.726 123.562 105.582 123.344L112.378 121.621C113.153 121.426 113.945 121.834 114.249 122.548C114.281 122.623 114.308 122.702 114.329 122.784C114.35 122.869 114.366 122.953 114.372 123.04C114.112 122.968 113.831 122.959 113.553 123.029L106.757 124.752C105.986 124.949 105.486 125.679 105.552 126.448C105.014 126.301 104.565 125.874 104.42 125.297Z" fill="#6B184E"/>
</g>
<path d="M105.085 122.873C105.188 122.829 105.295 122.793 105.406 122.765L112.256 121.028C112.82 120.885 113.407 120.972 113.909 121.271C114.411 121.57 114.767 122.045 114.909 122.609L114.923 122.663C115.219 123.83 114.508 125.023 113.343 125.316L106.493 127.052C105.929 127.195 105.342 127.109 104.84 126.81C104.338 126.511 103.983 126.036 103.84 125.472L103.827 125.418C103.683 124.854 103.769 124.267 104.068 123.765C104.309 123.362 104.663 123.053 105.085 122.873ZM113.189 124.095C113.622 123.91 113.87 123.431 113.75 122.96L113.737 122.906C113.673 122.655 113.514 122.444 113.29 122.31C113.065 122.176 112.804 122.138 112.554 122.201L105.704 123.938C105.453 124.001 105.242 124.16 105.108 124.384C104.974 124.609 104.936 124.87 104.999 125.121L104.999 125.12L105.013 125.175C105.145 125.695 105.676 126.011 106.196 125.88L113.046 124.143C113.095 124.131 113.143 124.114 113.189 124.095Z" fill="#6B184E"/>
<g opacity="0.3">
<path d="M109.541 139.917L109.588 139.948C110.314 140.424 111.298 140.22 111.774 139.494L115.651 133.587C116.128 132.861 115.924 131.877 115.198 131.401L115.151 131.37C114.425 130.894 113.441 131.098 112.965 131.824L109.088 137.731C108.611 138.457 108.815 139.441 109.541 139.917Z" fill="#6B184E"/>
</g>
<path d="M110.158 141.365L110.205 141.396C110.931 141.872 111.915 141.668 112.391 140.942L116.268 135.034C116.745 134.309 116.54 133.325 115.815 132.848L115.768 132.818C115.042 132.341 114.058 132.545 113.582 133.271L109.705 139.179C109.228 139.905 109.432 140.889 110.158 141.365Z" fill="#F7DE72"/>
<g opacity="0.5">
<path d="M109.46 139.961C109.566 140.097 109.696 140.22 109.847 140.319C110.586 140.805 111.588 140.597 112.072 139.859L115.918 133.998C116.081 133.749 116.166 133.471 116.179 133.192C116.587 133.72 116.637 134.472 116.252 135.058L112.407 140.919C111.921 141.658 110.92 141.865 110.182 141.381C109.692 141.059 109.436 140.51 109.46 139.961Z" fill="white"/>
</g>
<g opacity="0.3">
<path d="M109.719 139.157L113.566 133.295C113.745 133.022 113.995 132.822 114.276 132.702C114.757 132.497 115.326 132.528 115.791 132.833C116.53 133.319 116.738 134.32 116.252 135.059L115.921 135.562C115.82 135.438 115.699 135.327 115.559 135.234C115.093 134.928 114.522 134.898 114.043 135.102C113.762 135.222 113.514 135.422 113.334 135.695L109.819 141.052C109.388 140.524 109.327 139.755 109.719 139.157Z" fill="#6B184E"/>
</g>
<path d="M114.039 132.132C114.173 132.076 114.313 132.032 114.458 132.001C115.031 131.883 115.614 131.993 116.1 132.312L116.147 132.343C117.153 133.003 117.435 134.36 116.774 135.366L112.897 141.274C112.578 141.76 112.087 142.093 111.514 142.212C110.942 142.331 110.359 142.221 109.873 141.901L109.826 141.87C109.34 141.551 109.007 141.06 108.888 140.489C108.769 139.916 108.88 139.333 109.199 138.847L113.076 132.939C113.314 132.577 113.648 132.299 114.039 132.132ZM111.457 140.969C111.631 140.894 111.779 140.771 111.885 140.61L115.762 134.702C116.057 134.253 115.931 133.649 115.483 133.354L115.435 133.323C114.987 133.029 114.383 133.155 114.088 133.603L110.21 139.511C110.069 139.727 110.02 139.987 110.073 140.243C110.126 140.498 110.274 140.717 110.49 140.859L110.491 140.86L110.537 140.89C110.753 141.032 111.013 141.081 111.268 141.027C111.334 141.014 111.397 140.994 111.457 140.969Z" fill="#6B184E"/>
<g opacity="0.3">
<path d="M125.663 135.049L125.715 135.029C126.527 134.721 126.939 133.805 126.631 132.993L124.127 126.385C123.819 125.574 122.903 125.161 122.091 125.469L122.039 125.489C121.227 125.796 120.814 126.712 121.122 127.524L123.627 134.132C123.935 134.944 124.851 135.356 125.663 135.049Z" fill="#6B184E"/>
</g>
<path d="M127.025 135.836L127.077 135.817C127.889 135.509 128.301 134.593 127.994 133.781L125.489 127.173C125.181 126.361 124.265 125.949 123.453 126.257L123.401 126.276C122.589 126.584 122.177 127.5 122.484 128.312L124.989 134.92C125.297 135.732 126.213 136.144 127.025 135.836Z" fill="#4A83FF"/>
<g opacity="0.5">
<path d="M124.98 134.894L122.494 128.339C122.252 127.698 122.449 126.993 122.937 126.563C122.931 126.768 122.964 126.978 123.041 127.181L125.525 133.738C125.84 134.563 126.771 134.982 127.597 134.67C127.783 134.599 127.947 134.498 128.087 134.375C128.065 135.004 127.673 135.59 127.05 135.826C126.224 136.141 125.292 135.72 124.98 134.894Z" fill="white"/>
</g>
<g opacity="0.3">
<path d="M122.791 129.121L122.494 128.339C122.189 127.534 122.58 126.626 123.366 126.291C123.386 126.282 123.407 126.274 123.428 126.267C124.254 125.954 125.185 126.373 125.498 127.199L127.984 133.755C128.206 134.341 128.059 134.982 127.659 135.416L125.47 129.643C125.158 128.817 124.224 128.397 123.399 128.711C123.378 128.719 123.357 128.727 123.337 128.736C123.124 128.827 122.94 128.96 122.791 129.121Z" fill="#6B184E"/>
</g>
<path d="M123.103 125.745C123.131 125.733 123.159 125.722 123.187 125.711L123.238 125.691C123.783 125.485 124.376 125.504 124.909 125.744C125.442 125.984 125.849 126.415 126.055 126.959L128.56 133.567C128.986 134.692 128.421 135.95 127.292 136.383L127.239 136.402C126.695 136.608 126.102 136.59 125.569 136.35C125.037 136.11 124.629 135.678 124.423 135.135L121.919 128.527C121.713 127.983 121.731 127.39 121.971 126.857C122.199 126.352 122.599 125.96 123.103 125.745ZM126.9 135.236C127.377 135.033 127.613 134.485 127.428 133.996L124.923 127.388C124.832 127.146 124.65 126.954 124.412 126.847C124.174 126.74 123.909 126.731 123.668 126.822L123.617 126.842C123.369 126.935 123.182 127.115 123.075 127.354C122.967 127.592 122.959 127.856 123.05 128.098L125.555 134.706C125.646 134.947 125.828 135.139 126.066 135.246C126.304 135.354 126.569 135.362 126.81 135.271L126.864 135.251C126.876 135.246 126.888 135.241 126.9 135.236Z" fill="#6B184E"/>
<g opacity="0.3">
<path d="M82.427 118.827L82.3733 118.843C81.5391 119.084 81.0535 119.963 81.2943 120.797L83.2536 127.587C83.4944 128.421 84.3738 128.906 85.2081 128.666L85.2618 128.65C86.096 128.409 86.5816 127.53 86.3408 126.696L84.3815 119.906C84.1407 119.072 83.2612 118.587 82.427 118.827Z" fill="#6B184E"/>
</g>
<path d="M84.162 119.615L84.1082 119.631C83.274 119.872 82.7885 120.751 83.0292 121.585L84.9886 128.375C85.2293 129.209 86.1088 129.694 86.943 129.454L86.9968 129.438C87.831 129.197 88.3165 128.318 88.0758 127.484L86.1164 120.694C85.8756 119.86 84.9962 119.375 84.162 119.615Z" fill="#F7DE72"/>
<g opacity="0.5">
<path d="M85.3446 128.992C85.5176 129.001 85.6942 128.982 85.8679 128.932C85.9303 128.914 85.993 128.892 86.0523 128.867C86.7863 128.554 87.1925 127.729 86.9668 126.943L85.0219 120.207C84.9503 119.959 84.8232 119.741 84.6585 119.563C85.3242 119.596 85.9285 120.047 86.1236 120.722L88.0672 127.457C88.2937 128.242 87.8895 129.068 87.1555 129.38C87.0961 129.406 87.0335 129.427 86.9696 129.446C86.3697 129.62 85.7456 129.424 85.3446 128.992Z" fill="white"/>
</g>
<g opacity="0.3">
<path d="M84.9813 128.348L83.0363 121.613C82.7926 120.764 83.2864 119.867 84.1353 119.624C84.9836 119.378 85.8786 119.873 86.1238 120.721L86.3259 121.42C86.1323 121.403 85.9324 121.42 85.7358 121.477C84.8875 121.722 84.3931 122.617 84.6374 123.467L86.3797 129.502C85.7397 129.441 85.168 128.999 84.9813 128.348Z" fill="#6B184E"/>
</g>
<path d="M83.6879 119.139C83.7689 119.105 83.853 119.075 83.9397 119.05L83.9942 119.034C84.5528 118.873 85.142 118.94 85.6536 119.222C86.1652 119.504 86.5359 119.968 86.6971 120.526L88.6564 127.316C88.8177 127.875 88.7511 128.464 88.4685 128.976C88.1862 129.487 87.7232 129.857 87.1637 130.019L87.1115 130.035C85.9533 130.369 84.7406 129.699 84.4067 128.542L82.4474 121.753C82.1386 120.683 82.6882 119.565 83.6879 119.139ZM86.94 128.817C87.1388 128.732 87.3025 128.584 87.4093 128.391C87.5356 128.162 87.5656 127.9 87.494 127.652L85.5346 120.862C85.4629 120.614 85.2976 120.408 85.0688 120.281C84.8401 120.155 84.5774 120.125 84.3293 120.197L84.2748 120.212C84.0255 120.284 83.8211 120.449 83.6946 120.678C83.5684 120.907 83.5384 121.169 83.61 121.417L85.5693 128.207C85.7183 128.722 86.259 129.021 86.7749 128.872L86.827 128.857C86.8657 128.846 86.9034 128.833 86.94 128.817Z" fill="#6B184E"/>
<g opacity="0.3">
<path d="M90.3701 115.25L90.4255 115.258C91.2857 115.376 92.0858 114.768 92.2034 113.908L93.1605 106.906C93.2782 106.046 92.6706 105.246 91.8103 105.129L91.7549 105.121C90.8946 105.003 90.0946 105.611 89.977 106.471L89.0198 113.473C88.9022 114.333 89.5099 115.133 90.3701 115.25Z" fill="#6B184E"/>
</g>
<path d="M91.5043 116.307L91.5597 116.314C92.42 116.432 93.22 115.824 93.3376 114.964L94.2948 107.963C94.4124 107.102 93.8048 106.302 92.9445 106.185L92.8891 106.177C92.0289 106.059 91.2288 106.667 91.1112 107.527L90.154 114.529C90.0365 115.389 90.6441 116.189 91.5043 116.307Z" fill="#4A83FF"/>
<g opacity="0.5">
<path d="M90.2952 115.396C90.4223 115.45 90.5568 115.488 90.7001 115.508C91.5756 115.627 92.3895 115.008 92.5091 114.133L93.4593 107.187C93.5025 106.871 93.45 106.563 93.3227 106.292C93.975 106.567 94.3906 107.257 94.291 107.99L93.3423 114.936C93.2227 115.811 92.4067 116.429 91.5313 116.31C90.9732 116.233 90.5192 115.874 90.2952 115.396Z" fill="white"/>
</g>
<g opacity="0.3">
<path d="M90.1579 114.501L91.108 107.555C91.1863 106.976 91.5707 106.509 92.0745 106.294C92.3322 106.184 92.6212 106.14 92.9176 106.181C93.7931 106.301 94.4105 107.115 94.2909 107.991L94.2471 108.306C94.0972 108.231 93.9333 108.179 93.7591 108.156C93.4633 108.116 93.1738 108.159 92.916 108.269C92.4123 108.484 92.0299 108.951 91.9502 109.531L91.0432 116.161C90.4394 115.864 90.0616 115.202 90.1579 114.501Z" fill="#6B184E"/>
</g>
<path d="M91.8229 105.731C92.1734 105.582 92.5669 105.523 92.9711 105.578L93.0269 105.585C93.6027 105.664 94.1147 105.964 94.4684 106.429C94.8218 106.895 94.9731 107.468 94.8943 108.045L93.9371 115.046C93.8584 115.622 93.5586 116.134 93.0932 116.488C92.6281 116.841 92.0545 116.992 91.478 116.914L91.4222 116.906C90.8463 116.827 90.3342 116.528 89.9807 116.062C89.6273 115.597 89.476 115.023 89.5548 114.447L90.5119 107.446C90.6198 106.657 91.1389 106.023 91.8229 105.731ZM92.1537 115.647C92.4588 115.517 92.6901 115.234 92.7382 114.882L93.6954 107.881C93.7681 107.349 93.3946 106.857 92.8626 106.784L92.8068 106.777C92.2752 106.704 91.7833 107.078 91.7106 107.61L90.7535 114.611C90.7184 114.867 90.7863 115.122 90.9444 115.331C91.1024 115.539 91.3303 115.672 91.5863 115.707L91.5865 115.707L91.642 115.715C91.822 115.74 91.9975 115.713 92.1537 115.647Z" fill="#6B184E"/>
<g opacity="0.3">
<path d="M79.1108 110.791L79.1513 110.753C79.7793 110.153 79.8026 109.149 79.2031 108.521L74.3235 103.409C73.7239 102.781 72.7196 102.758 72.0916 103.358L72.0511 103.396C71.4231 103.996 71.3998 105 71.9994 105.628L76.879 110.739C77.4785 111.367 78.4828 111.391 79.1108 110.791Z" fill="#6B184E"/>
</g>
<path d="M79.3206 112.804L79.3611 112.766C79.9891 112.166 80.0123 111.162 79.4128 110.534L74.5333 105.423C73.9337 104.795 72.9294 104.771 72.3014 105.371L72.2609 105.409C71.6329 106.009 71.6096 107.013 72.2091 107.641L77.0887 112.753C77.6883 113.381 78.6926 113.404 79.3206 112.804Z" fill="white"/>
<g opacity="0.5">
<path d="M71.914 107.186C71.7277 106.749 71.7436 106.245 71.9613 105.82C71.9678 105.839 71.9752 105.857 71.9832 105.876C72.0567 106.048 72.1611 106.209 72.297 106.351L77.1387 111.422C77.7478 112.061 78.7708 112.085 79.4102 111.474C79.5426 111.347 79.6502 111.202 79.7288 111.046C79.9539 111.634 79.8215 112.327 79.341 112.785C78.7017 113.396 77.6801 113.371 77.0696 112.733L72.2278 107.662C72.0919 107.519 71.9875 107.359 71.914 107.186Z" fill="white"/>
</g>
<g opacity="0.3">
<path d="M71.9141 107.186C71.6593 106.588 71.7837 105.865 72.2807 105.39C72.9207 104.78 73.9416 104.803 74.5528 105.443L79.3931 110.515C79.9168 111.061 79.9734 111.892 79.5761 112.501L75.0856 107.797C74.4745 107.157 73.4536 107.134 72.8136 107.744C72.7223 107.831 72.6438 107.927 72.5771 108.028L72.2278 107.662C72.092 107.519 71.9875 107.359 71.9141 107.186Z" fill="#6B184E"/>
</g>
<path d="M72.5329 104.505C72.8159 104.384 73.1245 104.324 73.4422 104.332C74.0264 104.345 74.5692 104.585 74.9709 105.005L79.8504 110.116C80.252 110.537 80.4657 111.09 80.4521 111.675C80.4387 112.259 80.1994 112.802 79.7788 113.203L79.7383 113.242C79.3178 113.644 78.7642 113.857 78.18 113.844C77.5956 113.83 77.0526 113.591 76.6512 113.17L71.7716 108.059C71.3701 107.639 71.1562 107.085 71.1699 106.501C71.1834 105.917 71.4226 105.374 71.8432 104.972L71.8832 104.934C72.0752 104.75 72.2951 104.606 72.5329 104.505ZM78.9025 112.367L78.9428 112.329C79.1302 112.15 79.2365 111.908 79.2424 111.647C79.2486 111.385 79.1537 111.139 78.9753 110.952L74.0957 105.841C73.9173 105.654 73.6751 105.548 73.414 105.541C73.1529 105.535 72.906 105.63 72.7191 105.809L72.6791 105.847C72.4919 106.026 72.3856 106.268 72.3794 106.529C72.3735 106.79 72.4684 107.037 72.6467 107.224L77.5264 112.335C77.7048 112.522 77.947 112.628 78.2081 112.634C78.4693 112.64 78.7157 112.545 78.9025 112.367Z" fill="#6B184E"/>
<g opacity="0.3">
<path d="M92.6193 96.7054L92.6479 96.6573C93.0921 95.9114 92.8453 94.9375 92.0993 94.4933L86.028 90.8775C85.282 90.4333 84.3082 90.6801 83.8639 91.4261L83.8353 91.4741C83.3911 92.2201 83.6379 93.1939 84.3839 93.6382L90.4552 97.254C91.2012 97.6982 92.175 97.4513 92.6193 96.7054Z" fill="#6B184E"/>
</g>
<path d="M92.8019 98.3382L92.8306 98.2901C93.2748 97.5442 93.028 96.5703 92.282 96.1261L86.2107 92.5103C85.4647 92.0661 84.4909 92.3129 84.0466 93.0589L84.018 93.107C83.5737 93.8529 83.8206 94.8267 84.5666 95.271L90.6379 98.8868C91.3838 99.331 92.3577 99.0842 92.8019 98.3382Z" fill="#EF1664"/>
<g opacity="0.5">
<path d="M83.9046 93.349C83.9093 93.3641 83.9154 93.3786 83.9216 93.3931C84.0506 93.6956 84.2719 93.9622 84.5741 94.1414L90.5969 97.7293C91.3555 98.1809 92.3466 97.9296 92.7997 97.1703C92.8515 97.0832 92.8943 96.9949 92.9273 96.9038C93.1039 97.3503 93.0813 97.8714 92.8168 98.3142C92.3637 99.0735 91.3726 99.3248 90.614 98.8732L84.5912 95.2853C84.2884 95.1046 84.0656 94.8387 83.9366 94.5361C83.7787 94.1655 83.7602 93.7407 83.9046 93.349Z" fill="white"/>
</g>
<g opacity="0.3">
<path d="M83.9373 94.5363C83.743 94.0802 83.7604 93.5391 84.0328 93.0826C84.4844 92.3239 85.4755 92.0726 86.2347 92.5256L92.2583 96.1115C92.9972 96.5528 93.2552 97.5034 92.8513 98.2536C92.8311 98.2383 92.8101 98.225 92.7876 98.2124L86.764 94.6265C86.0047 94.1735 85.0136 94.4248 84.562 95.1834C84.5502 95.2038 84.5384 95.2243 84.528 95.2441C84.2569 95.0655 84.057 94.8171 83.9373 94.5363Z" fill="#6B184E"/>
</g>
<path d="M84.5449 91.8596C85.1649 91.5954 85.8982 91.6201 86.52 91.9903L92.5914 95.6062C93.0911 95.9035 93.4454 96.3796 93.5889 96.9461C93.7326 97.5129 93.6479 98.0999 93.3501 98.5996L93.3215 98.6477C92.7054 99.6821 91.3628 100.022 90.3282 99.4065L84.257 95.7906C83.7573 95.4933 83.4031 95.0172 83.2595 94.4506C83.1158 93.8838 83.2005 93.2968 83.4984 92.7972L83.5262 92.7501C83.772 92.3373 84.1335 92.0349 84.5449 91.8596ZM92.2818 98.0289L92.3101 97.9813C92.4428 97.7585 92.4803 97.4968 92.4162 97.2434C92.3519 96.9901 92.1943 96.778 91.9724 96.6458L85.901 93.03C85.4399 92.7554 84.8411 92.9076 84.5661 93.3683L84.5383 93.4155C84.4056 93.6383 84.3681 93.8999 84.4322 94.1533C84.4965 94.4067 84.6541 94.6188 84.8761 94.751L90.9473 98.3669C91.4085 98.6414 92.0075 98.4901 92.2818 98.0289Z" fill="#6B184E"/>
<g opacity="0.3">
<path d="M78.549 83.9639L78.5054 83.9288C77.8288 83.3847 76.83 83.493 76.2859 84.1695L71.857 89.6758C71.3128 90.3524 71.4212 91.3512 72.0977 91.8953L72.1413 91.9304C72.8178 92.4745 73.8166 92.3662 74.3607 91.6897L78.7896 86.1833C79.3338 85.5068 79.2255 84.5081 78.549 83.9639Z" fill="#6B184E"/>
</g>
<path d="M79.166 85.4116L79.1224 85.3766C78.4459 84.8324 77.4471 84.9407 76.9029 85.6172L72.474 91.1236C71.9298 91.8001 72.0382 92.7989 72.7147 93.3431L72.7583 93.3781C73.4348 93.9223 74.4336 93.8139 74.9778 93.1374L79.4067 87.6311C79.9509 86.9545 79.8425 85.9558 79.166 85.4116Z" fill="#F7DE72"/>
<g opacity="0.5">
<path d="M72.1418 92.1955C72.1921 92.2493 72.2462 92.2998 72.306 92.3479C72.7825 92.7315 73.4173 92.7962 73.9472 92.5704C74.1803 92.4711 74.3943 92.3149 74.5644 92.1039L78.9587 86.6406C79.2152 86.3192 79.3292 85.9285 79.3081 85.5458C79.8464 86.1186 79.8965 87.0227 79.3885 87.6531L74.9956 93.1157C74.8256 93.3268 74.6122 93.4844 74.3777 93.5844C73.8479 93.8102 73.2145 93.7448 72.7359 93.3603C72.3682 93.0638 72.1651 92.6354 72.1418 92.1955Z" fill="white"/>
</g>
<g opacity="0.3">
<path d="M72.4919 91.1019L76.8847 85.6393C77.4393 84.9497 78.4549 84.8401 79.1445 85.3947C79.8268 85.9438 79.9413 86.947 79.4024 87.6334C79.319 87.5099 79.2145 87.3971 79.0921 87.2986C78.4045 86.7449 77.3875 86.8551 76.8344 87.5441L72.4394 93.0059C72.4349 93.0112 72.4295 93.0187 72.4255 93.0255C72.0302 92.455 72.0365 91.6672 72.4919 91.1019Z" fill="#6B184E"/>
</g>
<path d="M77.2713 84.6006C77.4681 84.5167 77.6786 84.4614 77.8978 84.4378C78.4789 84.3746 79.0485 84.5408 79.5016 84.9052L79.5452 84.9401C79.9983 85.3047 80.2826 85.8255 80.3455 86.4066C80.4087 86.9876 80.2425 87.5573 79.8781 88.0103L75.4493 93.5167C75.0848 93.97 74.5644 94.2544 73.9827 94.3171C73.4017 94.3802 72.8321 94.214 72.379 93.8496L72.3364 93.8154C71.8823 93.4501 71.598 92.9293 71.5351 92.3482C71.4719 91.7672 71.6381 91.1975 72.0025 90.7445L76.4313 85.2381C76.6585 84.9559 76.9462 84.7392 77.2713 84.6006ZM78.7871 85.8832L78.7442 85.8489C78.542 85.6861 78.288 85.6124 78.0282 85.6407C77.7682 85.6689 77.5361 85.7951 77.3743 85.9964L72.9455 91.5028C72.7835 91.7041 72.7098 91.958 72.7381 92.2178C72.7661 92.4777 72.8925 92.7099 73.0938 92.8717L73.1364 92.9059C73.3386 93.0686 73.5926 93.1423 73.8524 93.114C74.1123 93.086 74.3445 92.9597 74.5063 92.7583L78.9351 87.252C79.0971 87.0507 79.1708 86.7968 79.1425 86.537C79.1145 86.2773 78.9882 86.045 78.7871 85.8832Z" fill="#6B184E"/>
<g opacity="0.3">
<path d="M93.9414 123.866L93.89 123.888C93.0912 124.229 92.7162 125.161 93.0566 125.959L95.827 132.46C96.1674 133.259 97.0994 133.634 97.8981 133.293L97.9496 133.271C98.7483 132.931 99.1233 131.999 98.783 131.2L96.0125 124.7C95.6722 123.901 94.7401 123.526 93.9414 123.866Z" fill="#6B184E"/>
</g>
<path d="M95.7379 124.469L95.6865 124.491C94.8877 124.831 94.5128 125.763 94.8531 126.562L97.6235 133.063C97.9639 133.861 98.8959 134.236 99.6946 133.896L99.7461 133.874C100.545 133.534 100.92 132.602 100.579 131.803L97.809 125.302C97.4686 124.503 96.5367 124.128 95.7379 124.469Z" fill="#ED2E7A"/>
<g opacity="0.5">
<path d="M97.6125 133.037L94.864 126.588C94.5944 125.955 94.7655 125.241 95.2377 124.791C95.2082 125.055 95.2443 125.333 95.3553 125.593L98.1038 132.043C98.4506 132.856 99.3997 133.237 100.212 132.891C100.393 132.814 100.552 132.706 100.686 132.579C100.67 132.726 100.634 132.87 100.579 133.006C100.426 133.388 100.127 133.712 99.7205 133.885C98.9083 134.231 97.9586 133.849 97.6125 133.037Z" fill="white"/>
</g>
<g opacity="0.3">
<path d="M95.3038 127.62L94.8639 126.588C94.5172 125.774 94.8999 124.826 95.712 124.48C96.5256 124.133 97.4733 124.514 97.82 125.328L100.569 131.777C100.741 132.183 100.733 132.624 100.579 133.006C100.477 133.26 100.311 133.488 100.091 133.664L97.7827 128.247C97.436 127.433 96.4883 127.052 95.6747 127.398C95.5386 127.456 95.4149 127.531 95.3038 127.62Z" fill="#6B184E"/>
</g>
<path d="M95.4493 123.934L95.5007 123.912C96.6083 123.44 97.8937 123.957 98.3657 125.065L101.136 131.566C101.608 132.673 101.091 133.959 99.9833 134.431L99.9319 134.452C98.8243 134.924 97.539 134.408 97.067 133.3L94.2966 126.799C93.8246 125.692 94.3417 124.406 95.4493 123.934ZM99.5088 133.317C100.003 133.107 100.233 132.534 100.023 132.04L97.2525 125.539C97.042 125.046 96.469 124.815 95.9751 125.025L95.9237 125.047C95.4297 125.258 95.1992 125.831 95.4097 126.325L98.1801 132.826C98.3905 133.319 98.9635 133.55 99.4574 133.339L99.5088 133.317Z" fill="#6B184E"/>
<g opacity="0.45">
<path d="M99.3089 108.302C99.1473 107.923 99.0008 107.539 98.8711 107.154C101.58 112.359 106.888 115.482 112.491 115.592C114.645 115.636 116.839 115.234 118.948 114.335C121.058 113.436 122.869 112.131 124.329 110.547C128.129 106.428 129.554 100.438 127.675 94.8787C127.863 95.2384 128.038 95.6101 128.2 95.9894C130.621 101.671 129.436 107.986 125.671 112.375C126.536 114.904 124.571 118.043 121.151 119.5C117.73 120.958 114.107 120.203 112.881 117.828C107.106 117.502 101.73 113.984 99.3089 108.302Z" fill="white"/>
</g>
<g opacity="0.45">
<path d="M71.2893 117.011C71.3368 117.111 71.3829 117.211 71.4283 117.31C71.0887 116.448 70.7139 115.553 70.2658 114.61C69.9209 113.881 69.5957 113.178 69.2903 112.497C69.8552 113.895 70.5194 115.389 71.2893 117.011ZM82.2747 134.632C86.4358 138.018 90.9698 140.361 96.022 141.976C101.912 143.859 103.429 145.361 110.621 145.795C116.848 146.174 123.728 143.465 129.887 140.933C135.115 138.783 139.518 138.501 146.621 131.239C150.947 126.815 152.862 120.792 154.669 114.949C156.584 108.749 157.675 105.818 157.722 96.5416C157.739 93.1696 156.792 86.4315 153.303 78.0567C153.083 77.528 152.861 77.0188 152.636 76.5263C155.834 84.4964 156.715 90.8863 156.698 94.1384C156.651 103.416 155.56 106.348 153.645 112.546C151.839 118.391 149.924 124.414 145.598 128.837C138.494 136.1 134.092 136.382 128.863 138.531C122.705 141.063 115.825 143.773 109.598 143.394C102.406 142.959 100.888 141.457 94.9985 139.574C89.9463 137.959 85.4116 135.615 81.2506 132.229C77.0963 128.847 75.1406 126.089 73.8178 123.334C75.218 126.948 76.9213 130.275 82.2747 134.632Z" fill="white"/>
</g>
<g opacity="0.35">
<path d="M73.8178 123.334C73.0946 121.464 72.4531 119.517 71.4283 117.31C72.2741 119.459 72.8894 121.396 73.8178 123.334Z" fill="white"/>
</g>
<g opacity="0.3">
<path d="M72.6646 120.259C73.4633 122.346 74.0854 124.243 75.0498 126.156C74.3851 124.392 73.7475 122.543 72.7582 120.458C72.7263 120.391 72.6944 120.325 72.6646 120.259ZM69.4613 98.1717C71.6995 90.6235 70 87.2014 75.3291 78.1598C79.0887 71.785 80.5106 69.5061 91.2656 63.9801C95.8944 61.6038 101.775 58.2305 111.829 56.6124C122.098 54.9593 127.485 59.263 133.929 62.4303C142.303 66.5456 148.794 68.7006 153.894 79.5191C153.706 79.0381 153.509 78.5509 153.303 78.0568C148.076 65.4982 141.323 63.3386 132.46 58.9834C126.016 55.8161 120.629 51.5125 110.36 53.1655C100.306 54.7836 94.4254 58.1569 89.7972 60.5347C79.0417 66.0592 77.6197 68.3381 73.8601 74.7128C68.531 83.7544 70.2306 87.1766 67.9923 94.7248C65.9226 101.705 66.5799 106.695 70.568 115.459C67.9191 108.718 67.6776 104.182 69.4613 98.1717Z" fill="#6B184E"/>
</g>
<g opacity="0.3">
<path d="M72.665 120.258C72.2699 119.231 71.8326 118.157 71.2897 117.011C71.0378 116.48 70.7971 115.964 70.5684 115.459C71.1481 116.94 71.8467 118.527 72.665 120.258Z" fill="#6B184E"/>
</g>
<path d="M96.9189 56.2865C100.427 54.7913 104.693 53.3829 110.252 52.4881C119.048 51.0732 124.433 53.956 129.641 56.7437C130.655 57.287 131.705 57.8488 132.762 58.3683C133.613 58.7868 134.446 59.185 135.259 59.5741C142.999 63.2775 149.112 66.2026 153.937 77.7937C157.263 85.7789 158.427 92.7154 158.407 96.5445C158.362 105.369 157.344 108.645 155.658 114.073L155.323 115.151C153.593 120.75 151.631 127.096 147.112 131.718C141.369 137.59 137.262 139.02 133.29 140.405C132.269 140.761 131.214 141.129 130.147 141.567C124.689 143.811 117.214 146.884 110.579 146.481C105.331 146.162 102.969 145.26 99.9777 144.117C98.8036 143.668 97.4729 143.16 95.8138 142.629C90.4933 140.927 85.9231 138.485 81.8422 135.163C75.5716 130.059 74.1848 126.318 72.5793 121.986C72.0328 120.512 71.4677 118.987 70.67 117.306C65.9116 107.277 65.1324 101.955 67.3349 94.5302C68.1037 91.9376 68.4001 89.8361 68.6865 87.8038C69.2262 83.9759 69.7361 80.3604 73.2698 74.3648C77.0312 67.985 78.4385 65.598 89.4831 59.9245C89.856 59.7331 90.2368 59.5351 90.6274 59.3322C92.4839 58.3673 94.5249 57.3067 96.9189 56.2865ZM136.314 137.808C139.177 136.588 142.216 134.763 146.131 130.759C150.419 126.374 152.329 120.197 154.014 114.746L154.348 113.666C156.053 108.18 156.992 105.158 157.036 96.5375C157.055 92.8428 155.918 86.117 152.671 78.3208C148.048 67.2135 142.143 64.3879 134.667 60.811C133.85 60.4197 133.013 60.0195 132.157 59.5988C131.079 59.0688 130.019 58.5013 128.993 57.9526C123.756 55.1486 118.809 52.5004 110.47 53.8419C101.336 55.3121 95.7492 58.2156 91.2597 60.5488C90.8672 60.7527 90.4844 60.9516 90.1099 61.1441C79.418 66.6363 78.0656 68.9303 74.4509 75.0609C71.0556 80.8218 70.5869 84.1459 70.0442 87.9952C69.7506 90.0771 69.4471 92.2299 68.6492 94.9201C66.5358 102.045 67.2668 106.934 71.9086 116.718C72.7323 118.454 73.3081 120.008 73.8649 121.51C75.4007 125.653 76.7271 129.232 82.7077 134.1C86.6533 137.312 91.0769 139.675 96.2315 141.323C97.9266 141.866 99.2763 142.381 100.467 142.836C103.461 143.98 105.624 144.806 110.662 145.112C116.984 145.497 124.29 142.493 129.625 140.299C130.727 139.846 131.801 139.472 132.839 139.11C134 138.706 135.143 138.308 136.314 137.808ZM106.367 84.8125C114.681 81.2695 124.326 85.15 127.869 93.4627C131.412 101.776 127.531 111.422 119.217 114.965C110.904 118.508 101.259 114.627 97.7159 106.313C94.1732 98.0003 98.054 88.3551 106.367 84.8125ZM118.679 113.704C126.298 110.458 129.854 101.619 126.607 94.0003C123.361 86.3831 114.523 82.8273 106.904 86.0739C99.2871 89.3201 95.7311 98.1583 98.9773 105.775C102.224 113.394 111.062 116.95 118.679 113.704Z" fill="#6B184E"/>
<path d="M106.367 84.8125C114.681 81.2695 124.326 85.1501 127.869 93.4628C131.412 101.776 127.531 111.422 119.217 114.965C110.904 118.508 101.259 114.627 97.716 106.313C94.1733 98.0003 98.0541 88.3552 106.367 84.8125ZM118.68 113.704C126.298 110.458 129.854 101.619 126.608 94.0004C123.361 86.3831 114.523 82.8273 106.904 86.0739C99.2872 89.3202 95.7312 98.1583 98.9774 105.775C102.224 113.394 111.062 116.95 118.68 113.704Z" fill="#6B184E"/>
<path d="M107.649 87.8198C114.304 84.9838 122.025 88.0906 124.861 94.7452C127.697 101.4 124.591 109.121 117.936 111.957C111.281 114.793 103.56 111.686 100.724 105.032C97.888 98.3771 100.995 90.6558 107.649 87.8198ZM117.398 110.696C123.357 108.156 126.14 101.242 123.6 95.2828C121.06 89.3236 114.146 86.5415 108.187 89.0812C102.228 91.6208 99.4457 98.535 101.985 104.494C104.525 110.453 111.439 113.236 117.398 110.696Z" fill="#6B184E"/>
<path d="M118.949 114.335C126.927 110.935 130.638 101.709 127.239 93.732C123.839 85.754 114.614 82.0423 106.636 85.4423C98.6579 88.8423 94.9463 98.067 98.3462 106.045C101.746 114.022 110.971 117.735 118.949 114.335ZM107.918 88.4505C114.236 85.7582 121.538 88.6964 124.23 95.014C126.922 101.33 123.985 108.634 117.667 111.326C111.349 114.019 104.046 111.079 101.354 104.763C98.6622 98.4454 101.6 91.1429 107.918 88.4505Z" fill="#EB9F49"/>
<g opacity="0.3">
<path d="M118.949 114.335C126.927 110.935 130.638 101.709 127.239 93.732C123.839 85.754 114.614 82.0423 106.636 85.4423C98.6579 88.8423 94.9463 98.067 98.3462 106.045C101.746 114.022 110.971 117.735 118.949 114.335ZM107.918 88.4505C114.236 85.7582 121.538 88.6964 124.23 95.014C126.922 101.33 123.985 108.634 117.667 111.326C111.349 114.019 104.046 111.079 101.354 104.763C98.6622 98.4454 101.6 91.1429 107.918 88.4505Z" fill="#6B184E"/>
</g>
<g opacity="0.35">
<path d="M97.9605 105.041C95.2633 97.3074 98.9902 88.7005 106.635 85.4424C114.279 82.185 123.063 85.4531 126.777 92.7466C126.66 92.4067 126.529 92.0674 126.385 91.7315C122.985 83.7534 113.761 80.0418 105.783 83.4418C97.8046 86.8418 94.093 96.0664 97.493 104.045C97.638 104.385 97.7933 104.717 97.9605 105.041Z" fill="white"/>
</g>
<path d="M106.367 84.8118C114.681 81.2689 124.327 85.1501 127.869 93.4634C131.412 101.777 127.531 111.423 119.218 114.966C110.905 118.508 101.258 114.627 97.7156 106.314C94.1728 98.0007 98.0539 88.3546 106.367 84.8118ZM118.68 113.704C126.298 110.458 129.855 101.619 126.608 94.0009C123.361 86.383 114.523 82.8266 106.905 86.0732C99.2868 89.3197 95.7305 98.1584 98.977 105.776C102.224 113.394 111.062 116.951 118.68 113.704ZM107.649 87.8199C114.304 84.9839 122.025 88.0907 124.861 94.7453C127.697 101.4 124.59 109.121 117.936 111.957C111.281 114.793 103.56 111.687 100.724 105.032C97.888 98.3772 100.995 90.6559 107.649 87.8199ZM117.398 110.696C123.357 108.156 126.14 101.242 123.6 95.2829C121.06 89.3237 114.146 86.5416 108.187 89.0813C102.228 91.6209 99.4457 98.5351 101.985 104.494C104.525 110.453 111.439 113.236 117.398 110.696Z" fill="#6B184E"/>
<path d="M107.649 87.8198C114.304 84.9838 122.025 88.0906 124.861 94.7452C127.697 101.4 124.591 109.121 117.936 111.957C111.281 114.793 103.56 111.686 100.724 105.032C97.888 98.3771 100.995 90.6558 107.649 87.8198ZM117.398 110.696C123.357 108.156 126.14 101.242 123.6 95.2828C121.06 89.3236 114.146 86.5415 108.187 89.0812C102.228 91.6208 99.4457 98.535 101.985 104.494C104.525 110.453 111.439 113.236 117.398 110.696Z" fill="#6B184E"/>
<g opacity="0.3">
<path d="M149.112 80.9649L149.077 81.0093C148.549 81.698 147.553 81.8291 146.864 81.3005L141.258 76.9983C140.569 76.4697 140.438 75.4736 140.967 74.7848L141.001 74.7405C141.53 74.0517 142.526 73.9206 143.214 74.4493L148.82 78.7515C149.509 79.2801 149.64 80.2762 149.112 80.9649Z" fill="#6B184E"/>
</g>
<path d="M149.149 82.6593L149.115 82.7036C148.587 83.3924 147.59 83.5235 146.902 82.9948L141.296 78.6926C140.607 78.164 140.476 77.168 141.005 76.4792L141.039 76.4348C141.567 75.746 142.563 75.615 143.252 76.1436L148.858 80.4458C149.547 80.9745 149.678 81.9705 149.149 82.6593Z" fill="#EF1664"/>
<g opacity="0.35">
<path d="M140.807 76.835C140.912 77.0571 141.069 77.2586 141.277 77.4179L146.839 81.6863C147.539 82.2246 148.553 82.0917 149.091 81.3905C149.182 81.2712 149.253 81.1451 149.306 81.013C149.556 81.5415 149.51 82.1887 149.131 82.6818C148.594 83.383 147.58 83.5159 146.88 82.9776L141.318 78.7091C140.736 78.2627 140.545 77.4854 140.807 76.835Z" fill="white"/>
</g>
<g opacity="0.3">
<path d="M141.022 76.4577C141.196 76.2314 141.418 76.0651 141.664 75.9602C142.181 75.74 142.8 75.796 143.274 76.1618L148.835 80.4289C149.508 80.9444 149.658 81.8983 149.195 82.5935L144.063 78.655C143.587 78.2897 142.968 78.2337 142.45 78.4546C142.205 78.5589 141.982 78.7258 141.809 78.9515C141.787 78.9797 141.767 79.0089 141.747 79.0379L141.318 78.7093C140.617 78.1717 140.484 77.1575 141.022 76.4577Z" fill="#6B184E"/>
</g>
<path d="M141.4 75.3145C142.128 75.0043 142.998 75.0844 143.669 75.5994L149.275 79.9016C150.266 80.6618 150.453 82.0858 149.693 83.0762L149.659 83.1206C149.292 83.5993 148.758 83.9062 148.158 83.9852C147.557 84.0642 146.962 83.9056 146.484 83.5384L140.878 79.2361C140.4 78.8689 140.093 78.336 140.014 77.7351C139.935 77.1343 140.093 76.5399 140.461 76.0613L140.495 76.0171C140.74 75.6979 141.054 75.462 141.4 75.3145ZM148.605 82.2416C148.905 81.8509 148.831 81.289 148.44 80.9894L142.834 76.687C142.444 76.3873 141.882 76.4611 141.582 76.8518L141.548 76.8961C141.404 77.084 141.342 77.3184 141.373 77.5561C141.405 77.7939 141.525 78.0042 141.713 78.1484L147.319 82.4506C147.507 82.5948 147.741 82.657 147.979 82.6257C148.216 82.5946 148.427 82.4736 148.571 82.2858L148.605 82.2416Z" fill="#6B184E"/>
<g opacity="0.3">
<path d="M125.058 64.1433L125.063 64.0875C125.139 63.2227 125.909 62.5772 126.773 62.6532L133.813 63.2722C134.678 63.3482 135.323 64.1181 135.247 64.983L135.242 65.0387C135.166 65.9037 134.396 66.549 133.531 66.473L126.492 65.854C125.627 65.7781 124.982 65.0082 125.058 64.1433Z" fill="#6B184E"/>
</g>
<path d="M125.675 65.5907L125.68 65.535C125.756 64.6702 126.525 64.0247 127.39 64.1007L134.43 64.7197C135.295 64.7957 135.94 65.5656 135.864 66.4305L135.859 66.4862C135.783 67.3512 135.013 67.9966 134.148 67.9205L127.109 67.3015C126.244 67.2255 125.599 66.4557 125.675 65.5907Z" fill="#EF1664"/>
<g opacity="0.35">
<path d="M125.693 65.9591C125.946 66.1966 126.277 66.3535 126.648 66.3852L133.63 66.9999C133.9 67.0234 134.163 66.978 134.398 66.8781C134.926 66.6529 135.318 66.1507 135.373 65.5407C135.384 65.406 135.379 65.2746 135.359 65.1464C135.706 65.4722 135.906 65.9496 135.861 66.4581C135.808 67.069 135.415 67.5717 134.887 67.7969C134.652 67.8969 134.391 67.9416 134.121 67.9181L127.137 67.3041C126.393 67.2397 125.807 66.6683 125.693 65.9591Z" fill="white"/>
</g>
<g opacity="0.3">
<path d="M125.678 65.5636C125.754 64.6826 126.538 64.0253 127.418 64.1035L134.403 64.7176C135.213 64.788 135.834 65.459 135.866 66.2527C135.812 66.2417 135.757 66.2341 135.7 66.2292L128.717 65.6146C127.836 65.5384 127.053 66.1937 126.976 67.0752C126.969 67.1446 126.968 67.2136 126.971 67.2808C126.177 67.1267 125.605 66.3868 125.678 65.5636Z" fill="#6B184E"/>
</g>
<path d="M126.371 63.5886C126.708 63.4449 127.076 63.3854 127.451 63.4183L134.49 64.0371C135.734 64.1468 136.656 65.2474 136.547 66.4909L136.542 66.5482C136.489 67.1473 136.205 67.6925 135.74 68.082C135.275 68.4715 134.689 68.6567 134.088 68.6037L127.049 67.9849C125.805 67.8752 124.883 66.7746 124.992 65.5311L124.997 65.4738C125.05 64.8747 125.334 64.3296 125.799 63.9401C125.974 63.7933 126.167 63.6755 126.371 63.5886ZM134.632 67.171C134.713 67.1366 134.79 67.0897 134.859 67.0313C135.043 66.8772 135.155 66.6625 135.176 66.4266L135.181 66.3693C135.224 65.8804 134.86 65.4461 134.37 65.4029L127.331 64.7841C127.095 64.7632 126.863 64.8363 126.68 64.9907C126.496 65.1449 126.384 65.3596 126.363 65.5954L126.358 65.652C126.315 66.1422 126.679 66.5759 127.169 66.6191L134.209 67.2379C134.355 67.2509 134.5 67.2275 134.632 67.171Z" fill="#6B184E"/>
<path d="M118.805 83.9316C117.727 84.3912 117.515 86.3179 118.332 88.2351C119.149 90.1522 120.685 91.3338 121.764 90.8742C122.842 90.4146 123.054 88.4878 122.237 86.5707C121.42 84.6536 119.884 83.472 118.805 83.9316Z" fill="white"/>
<path d="M111.8 86.1987C110.724 86.6573 110.514 88.5831 111.331 90.5003C112.148 92.4174 113.683 93.5998 114.759 93.1413C115.835 92.6828 116.044 90.7569 115.227 88.8398C114.41 86.9226 112.876 85.7402 111.8 86.1987Z" fill="white"/>
<path d="M118.537 83.3011C119.985 82.6838 121.888 84.002 122.868 86.3021C123.848 88.6023 123.481 90.8876 122.033 91.5049C120.584 92.1222 118.682 90.8042 117.701 88.504C116.721 86.2038 117.088 83.9184 118.537 83.3011ZM121.495 90.2436C122.119 89.9777 122.299 88.4655 121.607 86.8397C120.914 85.2139 119.698 84.2966 119.074 84.5625C118.45 84.8285 118.27 86.3406 118.963 87.9664C119.656 89.5922 120.871 90.5096 121.495 90.2436Z" fill="#6B184E"/>
<path d="M111.531 85.5678C112.977 84.9515 114.878 86.2705 115.858 88.5707C116.838 90.8709 116.474 93.1553 115.027 93.7716C113.581 94.388 111.681 93.0689 110.7 90.7688C109.72 88.4686 110.085 86.1841 111.531 85.5678ZM114.49 92.5103C115.112 92.2452 115.29 90.7341 114.597 89.1083C113.904 87.4824 112.691 86.5641 112.069 86.8292C111.447 87.0942 111.269 88.6054 111.962 90.2312C112.655 91.857 113.868 92.7753 114.49 92.5103Z" fill="#6B184E"/>
<path d="M115.838 86.3061C114.749 86.7705 114.528 88.7011 115.345 90.6182C116.162 92.5354 117.707 93.713 118.797 93.2486C119.887 92.7842 120.108 90.8536 119.291 88.9364C118.474 87.0193 116.928 85.8417 115.838 86.3061Z" fill="white"/>
<path d="M115.57 85.6752C117.03 85.0529 118.941 86.3672 119.922 88.6674C120.902 90.9676 120.526 93.2567 119.066 93.879C117.606 94.5012 115.694 93.1869 114.714 90.8867C113.734 88.5866 114.11 86.2974 115.57 85.6752ZM118.528 92.6177C119.162 92.3475 119.353 90.8307 118.66 89.2049C117.967 87.5791 116.741 86.6664 116.107 86.9365C115.473 87.2066 115.282 88.7234 115.975 90.3492C116.668 91.975 117.895 92.8877 118.528 92.6177Z" fill="#6B184E"/>
<path d="M101.78 90.2467C101.063 91.1742 101.819 92.9593 103.468 94.2338C105.116 95.5083 107.034 95.7895 107.751 94.862C108.468 93.9345 107.713 92.1494 106.064 90.875C104.415 89.6005 102.497 89.3192 101.78 90.2467Z" fill="white"/>
<path d="M97.1211 96.2748C96.4058 97.2002 97.1626 98.9836 98.8115 100.258C100.46 101.533 102.377 101.816 103.092 100.89C103.807 99.9648 103.051 98.1814 101.402 96.9069C99.7529 95.6325 97.8364 95.3495 97.1211 96.2748Z" fill="white"/>
<path d="M102.03 89.2307C103.178 88.7414 104.933 89.136 106.486 90.3364C108.465 91.8655 109.26 94.0392 108.297 95.2852C107.792 95.9382 106.927 96.212 105.863 96.0559C104.939 95.9204 103.941 95.4672 103.052 94.78C101.073 93.2512 100.278 91.0777 101.241 89.8316C101.448 89.5644 101.716 89.3644 102.03 89.2307ZM106.956 94.6355C107.064 94.5893 107.151 94.5262 107.212 94.4467C107.627 93.9101 107.046 92.502 105.648 91.4214C104.25 90.3408 102.741 90.1323 102.326 90.6702C101.911 91.2068 102.492 92.6148 103.89 93.6952L103.89 93.6954C104.586 94.233 105.377 94.5989 106.062 94.6993C106.427 94.7529 106.736 94.7292 106.956 94.6355Z" fill="#6B184E"/>
<path d="M97.3678 95.2607C98.5147 94.772 100.269 95.1675 101.823 96.3687C102.712 97.0558 103.403 97.907 103.767 98.7658C104.187 99.7565 104.141 100.661 103.637 101.314C102.676 102.557 100.373 102.334 98.3949 100.805C96.4168 99.2758 95.6201 97.1039 96.5811 95.8599C96.7872 95.5934 97.0549 95.3941 97.3678 95.2607ZM102.292 100.667C102.402 100.62 102.49 100.556 102.552 100.475C102.737 100.236 102.72 99.808 102.505 99.3016C102.235 98.665 101.681 97.9914 100.985 97.4537C99.5863 96.3728 98.079 96.1641 97.6659 96.6984C97.2525 97.2333 97.8351 98.6392 99.2334 99.7199C100.419 100.636 101.684 100.926 102.292 100.667Z" fill="#6B184E"/>
<path d="M100.798 94.2695C100.073 95.2067 100.823 96.9997 102.472 98.2742C104.12 99.5486 106.044 99.822 106.769 98.8848C107.493 97.9475 106.744 96.1546 105.095 94.8801C103.446 93.6056 101.522 93.3322 100.798 94.2695Z" fill="white"/>
<path d="M101.069 93.2331C101.523 93.0394 102.077 92.9816 102.698 93.0698C103.626 93.2017 104.627 93.653 105.516 94.3409C106.406 95.0287 107.095 95.8833 107.457 96.7476C107.872 97.7413 107.821 98.6502 107.313 99.307C106.806 99.9641 105.939 100.242 104.873 100.091C103.945 99.9589 102.945 99.5075 102.055 98.8197L102.055 98.8199C101.165 98.1319 100.476 97.2772 100.114 96.413C99.6992 95.4192 99.75 94.5104 100.258 93.8535C100.469 93.5795 100.744 93.3716 101.069 93.2331ZM105.962 98.6652C106.075 98.6172 106.165 98.5514 106.229 98.4686C106.419 98.2224 106.405 97.7879 106.192 97.2763C105.925 96.6371 105.373 95.9626 104.678 95.4257C103.983 94.8885 103.192 94.5248 102.506 94.4273C101.956 94.3492 101.533 94.4457 101.343 94.692C101.152 94.9382 101.166 95.3727 101.38 95.8843C101.647 96.5235 102.199 97.198 102.893 97.7349L102.893 97.7351C103.588 98.2721 104.38 98.6358 105.066 98.7333C105.43 98.785 105.74 98.7599 105.962 98.6652Z" fill="#6B184E"/>
<path d="M71.8034 67.5121C65.1485 42.9702 97.1182 22.8999 119.797 32.3266C120.989 32.8207 122.153 33.396 123.284 34.0561C135.468 41.1663 124.057 60.4783 124.057 60.4783C124.057 60.4783 116.925 64.7512 118.424 74.096C118.524 74.7278 118.665 75.383 118.85 76.0607C119.724 79.2667 120.35 81.2168 120.699 82.6071C121.14 84.3548 121.146 85.2166 120.664 86.5772C119.656 89.4283 115.418 92.1827 112.118 89.7888C108.837 87.4107 103.786 80.4421 104.022 71.0902C104.05 69.9139 104.164 68.6992 104.375 67.4505C94.4425 70.4464 93.4471 74.7903 93.4471 74.7903C94.1141 77.4439 96.7079 82.6558 101.936 88.2092C107.482 94.1007 103.057 99.2072 98.7511 99.1962C85.2918 99.1626 73.8929 75.2172 71.8034 67.5121Z" fill="#ECC18E"/>
<g opacity="0.35">
<path d="M104.022 71.0903C104.761 75.6749 108.033 84.234 111.198 86.9233C113.572 88.9404 116.498 88.744 118.384 87.2042C119.758 86.086 120.434 83.7822 120.699 82.6073C121.14 84.355 121.146 85.2168 120.664 86.5774C119.656 89.4285 115.418 92.1829 112.118 89.789C108.837 87.4109 103.786 80.4423 104.022 71.0903Z" fill="white"/>
</g>
<g opacity="0.3">
<path d="M71.803 67.5117C65.1481 42.9698 97.1178 22.8995 119.796 32.3262C120.521 32.6267 121.233 32.9565 121.934 33.3171C122.085 33.3945 122.235 33.4721 122.385 33.5534C122.687 33.7153 122.986 33.8824 123.283 34.0557C123.571 34.2237 123.847 34.3986 124.108 34.5796C124.238 34.6697 124.367 34.762 124.491 34.8563C124.553 34.9023 124.615 34.9506 124.676 34.9973C124.858 35.1413 125.034 35.2863 125.202 35.4363C125.372 35.5856 125.533 35.7383 125.688 35.8943C125.792 35.999 125.892 36.1034 125.99 36.2107C126.244 36.4864 126.479 36.7718 126.694 37.0659C126.769 37.168 126.843 37.2723 126.914 37.3765C127.308 37.9517 127.633 38.5567 127.899 39.1826C127.948 39.2961 127.995 39.4118 128.039 39.5274C128.084 39.6422 128.127 39.76 128.167 39.8769C128.204 39.9805 128.238 40.0832 128.272 40.1881C128.283 40.2187 128.293 40.25 128.301 40.2836C128.332 40.3806 128.36 40.4784 128.389 40.5761C128.394 40.5925 128.399 40.609 128.403 40.6261C128.428 40.7213 128.454 40.8165 128.477 40.9109C128.485 40.9321 128.49 40.9539 128.495 40.978C128.522 41.0894 128.547 41.2016 128.572 41.3121C128.626 41.5557 128.671 41.8026 128.711 42.0501C130.048 50.339 124.057 60.4779 124.057 60.4779C124.057 60.4779 116.925 64.7508 118.424 74.0955C116.288 69.7799 114.864 64.5448 114.174 58.8344C113.498 53.2407 113.613 47.9206 114.599 43.286C115.379 39.6232 112.419 36.2253 108.681 36.4435C89.1272 37.5847 69.7956 54.3364 75.1113 73.9411C75.5904 75.708 76.559 78.3262 77.9281 81.3158C74.7856 75.8348 72.6071 70.4739 71.803 67.5117Z" fill="#6B184E"/>
</g>
<path d="M91.7758 32.5679C95.2673 31.0797 98.9557 30.059 102.658 29.5812C110.328 28.5909 117.58 29.9337 123.63 33.4641C126.463 35.1174 128.31 37.535 129.12 40.6494C131.37 49.3041 124.922 60.36 124.647 60.8263L124.558 60.9762L124.409 61.0657C124.097 61.2544 116.767 65.8207 119.511 75.8803C119.955 77.5095 120.339 78.8273 120.648 79.8859C121.727 83.5885 122.052 84.7061 121.31 86.805C120.631 88.7263 118.768 90.4554 116.673 91.1078C114.911 91.6561 113.15 91.3851 111.715 90.3443C107.75 87.4676 102.193 79.0721 103.537 68.4346C96.0868 70.9129 94.4407 74.1147 94.1624 74.8142C94.9096 77.5478 97.491 82.4876 102.434 87.7389C105.948 91.4719 105.385 94.539 104.736 96.0349C103.752 98.3065 101.289 99.8878 98.7493 99.8816C91.1665 99.863 84.6121 92.6598 80.4489 86.6203C75.3998 79.2957 72.1165 71.2872 71.1415 67.6915C68.1931 56.8186 72.5626 45.6321 82.8296 37.7671C85.5513 35.6824 88.5812 33.9293 91.7758 32.5679ZM123.546 59.9909C124.278 58.6937 129.772 48.5965 127.792 40.9917C127.077 38.2445 125.444 36.1104 122.939 34.6485C111.648 28.0599 95.4985 29.7904 83.6634 38.8555C73.8535 46.3701 69.6671 57.0157 72.4645 67.3326C74.2523 73.9251 85.3698 98.4778 98.7526 98.5107C100.761 98.5156 102.705 97.2732 103.478 95.4897C104.367 93.4404 103.641 91.0215 101.436 88.6786C96.1952 83.1112 93.4991 77.8078 92.7825 74.9576L92.7425 74.7978L92.7792 74.6374C92.8235 74.4443 93.9793 69.8707 104.178 66.7937L105.236 66.4745L105.052 67.5645C103.266 78.1094 108.685 86.4525 112.52 89.2344C113.9 90.2348 115.318 90.0935 116.265 89.7987C117.942 89.2769 119.484 87.8583 120.017 86.3481C120.612 84.6656 120.392 83.9084 119.331 80.2695C119.022 79.2058 118.636 77.8818 118.188 76.2414C116.612 70.4624 118.185 66.3284 119.783 63.878C121.265 61.6057 123.013 60.3429 123.546 59.9909Z" fill="#6B184E"/>
<g opacity="0.3">
<path d="M128.572 41.3125C128.626 41.5561 128.673 41.8024 128.712 42.0505C128.672 41.803 128.626 41.5561 128.572 41.3125Z" fill="#6B184E"/>
</g>
<path d="M136.814 86.2351C123.44 86.6317 116.72 73.58 116.236 57.2474C115.752 40.9148 121.686 27.4863 135.06 27.0897C147.877 26.7096 162.763 34.597 164.512 53.3184C165.736 55.5515 167.831 58.5659 170.85 60.2072C171.793 60.721 171.7 62.0971 170.689 62.4684C169.345 62.9612 167.574 63.4278 165.246 62.5861C166.539 65.0599 167.999 67.5124 168.761 68.3116C169.575 69.1673 168.972 70.5828 167.791 70.5774C166.649 70.5708 164.217 70.2305 162.175 69.8139C157.413 80.7182 146.649 85.9434 136.814 86.2351Z" fill="#ECC18E"/>
<g opacity="0.45">
<path d="M130.611 85.3353C131.882 85.5855 133.226 85.6945 134.645 85.6524C143.895 85.3781 154.487 80.0191 159.677 70.311C160.267 69.2074 161.498 68.6068 162.727 68.8423C164.114 69.108 165.416 69.3231 166.172 69.3274C167.353 69.3329 167.407 68.5847 166.592 67.7289C165.997 67.1041 164.974 65.4689 163.939 63.603C163.621 63.0311 164.083 62.3275 164.732 62.4109C166.27 62.6085 167.514 62.2544 168.52 61.8858C169.531 61.5145 169.769 60.924 168.337 60.1504C166.321 59.0619 164.873 57.1214 163.769 55.287C162.886 53.8203 162.329 52.1845 162.064 50.4932C160.089 37.9068 151.886 30.6617 142.793 27.8551C153.254 30.2543 163.109 38.3006 164.512 53.3184C165.736 55.5515 167.831 58.5659 170.85 60.2072C171.793 60.7211 171.7 62.0971 170.689 62.4684C169.344 62.9612 167.574 63.4278 165.246 62.5862C166.539 65.0599 167.999 67.5124 168.761 68.3116C169.575 69.1673 168.972 70.5828 167.791 70.5774C166.649 70.5708 164.217 70.2305 162.175 69.8139C157.413 80.7182 146.649 85.9434 136.813 86.2351C134.557 86.302 132.49 85.9864 130.611 85.3353Z" fill="white"/>
</g>
<path d="M138.449 80.3411C134.552 80.4567 130.322 79.4 126.976 75.9572C123.554 72.4394 121.052 66.4288 120.761 56.628L120.761 56.6266C120.474 46.9283 122.568 40.8068 125.718 37.0799C128.867 33.3545 133.074 32.0225 137.013 31.9056C137.814 31.8819 138.602 31.9246 139.37 32.0297C146.163 32.9499 151.491 38.6714 151.701 45.7479C151.816 49.6182 150.378 53.1776 147.951 55.8203C150.531 58.316 152.177 61.7825 152.292 65.6528C152.499 72.6422 147.646 78.6051 141.047 80.0251L141.046 80.0251C140.206 80.2075 139.338 80.3148 138.449 80.3411Z" fill="#FEFAFB"/>
<path d="M136.961 59.7613C135.747 59.7973 134.239 58.2235 134.18 56.2287C134.121 54.2339 135.532 52.5735 136.747 52.5375C137.961 52.5015 138.518 54.1036 138.577 56.0983C138.637 58.0931 138.175 59.7254 136.961 59.7613Z" fill="#6B184E"/>
<g opacity="0.5">
<path d="M137.571 57.702C137.287 57.7104 136.926 57.0621 136.902 56.2499C136.878 55.4377 137.199 54.7692 137.483 54.7608C137.767 54.7523 137.906 55.4072 137.93 56.2194C137.954 57.0316 137.854 57.6935 137.571 57.702Z" fill="#FEFAFB"/>
</g>
<path d="M132.11 50.186C132.283 50.1122 132.462 50.053 132.642 50.0075C133.009 49.9146 133.382 50.1371 133.475 50.5042C133.568 50.8712 133.345 51.2456 132.978 51.3367C131.945 51.5977 131.565 52.3138 131.855 53.4645C132.37 55.5107 134.85 55.5205 134.955 55.5198L134.994 56.8901C134.89 56.8957 132.415 57.0519 132.022 59.1257C131.802 60.291 132.221 60.983 133.27 61.1825C133.642 61.2534 133.886 61.6122 133.815 61.9842C133.744 62.3557 133.386 62.5999 133.014 62.5296C131.599 62.2602 130.242 61.1575 130.675 58.8702C130.913 57.6161 131.658 56.7942 132.502 56.2782C131.629 55.8131 130.837 55.037 130.525 53.7992C130.03 51.833 130.944 50.6831 132.11 50.186Z" fill="#6B184E"/>
<path d="M128.514 27.7906C130.505 26.9418 132.689 26.4744 135.039 26.4047C141.838 26.203 148.494 28.2145 153.781 32.0681C159.92 36.5422 163.79 43.2205 164.972 51.3811C165.027 51.7557 164.767 52.1039 164.392 52.1578C164.018 52.2121 163.67 51.9525 163.616 51.5777C161.171 34.7149 147.11 27.4184 135.08 27.775C128.965 27.9567 124.244 30.9029 121.047 36.5312C118.1 41.7193 116.673 48.8758 116.921 57.2272C117.169 65.5785 119.017 72.6376 122.266 77.6414C125.792 83.0705 130.679 85.7313 136.793 85.55C145.526 85.291 156.626 80.9247 161.588 69.4469C161.738 69.0991 162.142 68.9394 162.489 69.0896C162.837 69.2398 162.997 69.6434 162.847 69.9909C160.581 75.2317 156.758 79.5811 151.79 82.5686C147.317 85.2584 142.146 86.7629 136.834 86.9204C130.302 87.1143 124.866 84.1637 121.116 78.3881C117.73 73.1736 115.806 65.8703 115.551 57.2679C115.296 48.6654 116.784 41.2606 119.855 35.8541C122.033 32.0201 124.969 29.3013 128.514 27.7906Z" fill="#6B184E"/>
<path d="M137.383 51.1524C133.142 50.671 132.049 47.3005 130.132 42.913C128.93 40.1599 127.215 38.2908 125.719 37.08C128.868 33.3546 133.074 32.0226 137.014 31.9057C137.814 31.882 138.602 31.9247 139.37 32.0298C142.167 34.5654 144.9 38.621 144.36 44.5924C143.964 48.9628 140.427 51.4979 137.383 51.1524Z" fill="#707169"/>
<path d="M138.449 80.3409C134.552 80.4565 130.322 79.3998 126.976 75.957C128.371 74.6577 129.922 72.717 130.934 69.9644C132.587 65.471 133.479 62.0416 137.684 61.3097C140.702 60.7845 144.383 63.1056 145.037 67.4449C145.903 73.189 143.594 77.321 141.047 80.0249L141.046 80.025C140.206 80.2073 139.338 80.3146 138.449 80.3409Z" fill="#707169"/>
<path d="M164.025 50.8493C164.061 50.8338 164.099 50.8212 164.139 50.8119C164.508 50.7263 164.876 50.9559 164.962 51.3247C164.975 51.3801 166.337 56.9732 171.177 59.6059C171.855 59.975 172.242 60.6802 172.186 61.4464C172.13 62.2089 171.649 62.8429 170.925 63.1121C167.997 64.1866 165.565 63.9764 163.893 62.5047C163.609 62.2547 163.582 61.8213 163.832 61.5372C164.083 61.2539 164.515 61.2255 164.8 61.4759C166.405 62.8895 168.76 62.446 170.453 61.8249C170.759 61.7116 170.81 61.4526 170.818 61.3463C170.824 61.2617 170.821 60.9734 170.521 60.8105C165.129 57.8772 163.685 51.8883 163.626 51.6347C163.55 51.3057 163.724 50.9773 164.025 50.8493Z" fill="#6B184E"/>
<path d="M164.903 61.931C164.949 61.9113 164.998 61.8965 165.05 61.8871C165.422 61.8194 165.779 62.0667 165.847 62.4391C166.114 63.9087 167.293 65.7757 169.257 67.8387C169.828 68.4394 169.979 69.2844 169.651 70.0445C169.325 70.8001 168.611 71.2665 167.787 71.2625C165.209 71.2493 163.239 70.9398 161.933 70.3426C161.588 70.1851 161.437 69.7784 161.594 69.4341C161.751 69.0893 162.158 68.9385 162.502 69.0955C163.615 69.6044 165.445 69.8794 167.794 69.8915C168.192 69.8935 168.353 69.5932 168.392 69.5009C168.433 69.4072 168.543 69.078 168.264 68.784C166.084 66.4947 164.817 64.4423 164.498 62.6842C164.44 62.3633 164.615 62.0538 164.903 61.931Z" fill="#6B184E"/>
<path d="M137.204 39.2453C137.393 39.3842 137.529 39.4979 137.673 39.6344C137.818 39.7648 137.944 39.9085 138.073 40.0514C138.202 40.1943 138.313 40.3501 138.429 40.5041C138.541 40.6608 138.639 40.8263 138.744 40.9897C139.132 41.6583 139.406 42.4101 139.537 43.1961C139.618 43.5864 139.62 43.9914 139.629 44.3899C139.595 44.7902 139.576 45.1913 139.464 45.5762C139.297 46.3561 138.92 47.0676 138.447 47.6662C138.192 47.9887 137.723 48.0433 137.401 47.7881C137.207 47.6352 137.11 47.4057 137.119 47.177L137.124 47.0452C137.131 46.8801 137.15 46.7241 137.169 46.5712C137.188 46.4183 137.225 46.2733 137.222 46.1207C137.231 45.9714 137.244 45.8255 137.26 45.6821C137.283 45.5397 137.264 45.3929 137.275 45.2522C137.298 44.9699 137.266 44.689 137.268 44.4123C137.234 44.1349 137.227 43.8583 137.172 43.5824C137.087 43.0301 136.952 42.4743 136.766 41.914L136.62 41.4923C136.563 41.3549 136.518 41.2082 136.46 41.0687L136.377 40.8544C136.348 40.7845 136.316 40.7157 136.29 40.6426C136.236 40.5044 136.163 40.3506 136.128 40.2341L136.071 40.0413C135.956 39.6546 136.177 39.2481 136.563 39.1334C136.79 39.0661 137.026 39.1163 137.204 39.2453Z" fill="#6B184E"/>
<path d="M137.091 72.7032C137.119 72.585 137.182 72.4271 137.228 72.2859C137.25 72.2113 137.278 72.1408 137.303 72.0692L137.373 71.8504C137.422 71.7078 137.459 71.5586 137.507 71.4181L137.628 70.9884C137.781 70.4181 137.883 69.8553 137.935 69.299C137.974 69.0203 137.963 68.7438 137.981 68.4649C137.963 68.1887 137.979 67.9064 137.938 67.626C137.919 67.4863 137.929 67.3386 137.898 67.1977C137.874 67.0556 137.852 66.9107 137.834 66.7623C137.828 66.6097 137.782 66.4671 137.755 66.3156C137.726 66.1641 137.698 66.0095 137.682 65.8452L137.669 65.7182C137.627 65.309 137.925 64.9435 138.334 64.9019C138.579 64.8769 138.812 64.977 138.965 65.1468C139.473 65.7163 139.891 66.4043 140.104 67.1729C140.239 67.5505 140.281 67.9498 140.34 68.3473C140.354 68.7457 140.376 69.1501 140.318 69.5445C140.234 70.3369 140.006 71.1035 139.657 71.794C139.563 71.9633 139.474 72.1343 139.372 72.2973C139.265 72.4581 139.164 72.6201 139.043 72.7704C138.923 72.9207 138.805 73.0716 138.669 73.2102C138.533 73.3551 138.403 73.4767 138.223 73.6265C137.913 73.8844 137.453 73.8421 137.195 73.5321C137.044 73.3504 136.996 73.117 137.044 72.903L137.091 72.7032Z" fill="#6B184E"/>
</svg>
