<svg width="220" height="45" viewBox="0 0 220 45" fill="none" xmlns="http://www.w3.org/2000/svg">
<path d="M168.707 14.3651H166.085C165.61 14.3651 165.154 14.5539 164.818 14.89C164.482 15.2261 164.293 15.682 164.293 16.1573V21.9155C164.337 23.1555 164.116 24.3906 163.646 25.5386C163.274 26.3706 162.684 27.0858 161.936 27.6074C160.587 28.5477 158.817 28.592 157.229 28.5145C156.004 28.5452 154.796 28.2329 153.739 27.6129C152.997 27.0867 152.41 26.3701 152.041 25.5386C151.639 24.6432 151.435 23.6714 151.443 22.6899V22.607L151.499 21.8879H145.187V22.6899C145.181 24.6658 145.634 26.6161 146.509 28.3873C147.378 30.1634 148.717 31.6672 150.381 32.735C152.052 33.7322 153.942 34.3022 155.885 34.3944C157.945 34.5953 160.024 34.4871 162.053 34.0736C162.869 33.8864 163.66 33.6023 164.409 33.2273C164.575 33.1499 164.735 33.0614 164.907 32.9618C165.078 32.8622 165.156 32.8125 165.266 32.735C165.377 32.6576 165.643 32.4861 165.82 32.3533C167.788 30.8433 169.227 28.7479 169.929 26.3683C170.239 25.3754 170.425 24.348 170.483 23.3095C170.485 23.2744 170.485 23.2394 170.483 23.2044C170.483 23.0716 170.483 22.9333 170.483 22.795V16.1352C170.477 15.6666 170.288 15.2189 169.956 14.888C169.624 14.5571 169.176 14.3694 168.707 14.3651Z" fill="#824E4A"/>
<path d="M209.324 11.0463C207.328 11.0296 205.366 11.5614 203.651 12.5836C201.936 13.6058 200.535 15.0793 199.6 16.8432C199.39 17.2427 199.346 17.709 199.477 18.1408C199.609 18.5727 199.905 18.9352 200.303 19.1498L202.476 20.3169C202.859 20.5186 203.303 20.5685 203.72 20.4567C204.138 20.345 204.497 20.0797 204.728 19.714C205.19 18.9562 205.84 18.3311 206.616 17.8997C207.391 17.4682 208.265 17.2453 209.153 17.2525C211.919 17.2525 213.777 19.5757 213.777 23.0384V24.8361C213.776 25.3711 213.562 25.8838 213.184 26.2621C212.806 26.6405 212.293 26.8536 211.758 26.8551H200.695C200.221 26.8551 199.766 27.0432 199.43 27.3781C199.094 27.713 198.905 28.1674 198.903 28.6417V31.1309C198.905 31.6052 199.094 32.0597 199.43 32.3946C199.766 32.7295 200.221 32.9175 200.695 32.9175H212.101C214.196 32.9161 216.204 32.0834 217.685 30.6024C219.166 29.1214 219.998 27.1131 220 25.0187V22.9001C219.978 14.7523 214.457 11.0463 209.324 11.0463Z" fill="#824E4A"/>
<path d="M178.763 32.8567C180.549 33.9791 182.623 34.5559 184.732 34.5161C185.695 34.5205 186.655 34.409 187.591 34.1842C186.269 35.5993 184.443 36.436 182.508 36.513C181.949 36.5246 181.39 36.4594 180.849 36.3194L178.708 35.7662C178.326 35.6784 177.926 35.7238 177.574 35.8948C177.222 36.0659 176.939 36.3524 176.772 36.7066L175.566 39.2953C175.454 39.5233 175.395 39.7741 175.395 40.0282C175.395 40.2824 175.454 40.5331 175.566 40.7611C175.937 41.5134 176.672 41.6683 177.425 41.9006C178.986 42.4024 180.614 42.6653 182.254 42.6805C185.07 42.6805 187.817 41.8002 190.109 40.1628C192.401 38.5254 194.124 36.2127 195.037 33.5481L195.203 33.0337C195.203 33.0005 195.203 32.9618 195.241 32.8954C195.402 32.3516 195.524 31.7971 195.606 31.236C195.64 31.0037 195.667 30.7769 195.695 30.5446L195.728 30.1076C195.728 29.8476 195.756 29.5932 195.761 29.3332V29.2834C195.844 27.624 195.894 25.6824 195.905 23.4201V23.326C195.905 23.1822 195.905 23.0384 195.905 22.8891V22.4963V22.2198C195.91 22.1535 195.91 22.0869 195.905 22.0206C195.808 20.3148 195.367 18.6462 194.611 17.1143C193.694 15.285 192.286 13.747 190.544 12.6722C188.803 11.5974 186.797 11.0281 184.751 11.0281C182.705 11.0281 180.699 11.5974 178.958 12.6722C177.216 13.747 175.808 15.285 174.891 17.1143C174.025 18.8866 173.574 20.8333 173.574 22.8061C173.574 24.7789 174.025 26.7256 174.891 28.4979C175.763 30.2748 177.102 31.7814 178.763 32.8567ZM181.717 17.3244C182.614 16.7412 183.661 16.4308 184.732 16.4308C185.802 16.4308 186.849 16.7412 187.746 17.3244C188.597 17.925 189.267 18.7478 189.682 19.703C190.116 20.6848 190.34 21.7465 190.34 22.8199C190.34 23.8934 190.116 24.955 189.682 25.9369C189.264 26.88 188.594 27.6896 187.746 28.2767C186.859 28.8808 185.805 29.1922 184.732 29.1672C183.666 29.2028 182.617 28.9008 181.734 28.3043C180.895 27.7117 180.231 26.9032 179.814 25.9645C179.371 24.9828 179.146 23.9164 179.156 22.8393C179.149 21.7695 179.368 20.7102 179.798 19.7306C180.198 18.764 180.864 17.9301 181.717 17.3244Z" fill="#824E4A"/>
<path d="M159.608 10.5816C161.37 10.5816 162.799 9.15268 162.799 7.38999C162.799 5.6273 161.37 4.19835 159.608 4.19835C157.845 4.19835 156.416 5.6273 156.416 7.38999C156.416 9.15268 157.845 10.5816 159.608 10.5816Z" fill="#824E4A"/>
<path d="M127.31 10.5816C129.072 10.5816 130.501 9.15268 130.501 7.38999C130.501 5.6273 129.072 4.19835 127.31 4.19835C125.547 4.19835 124.118 5.6273 124.118 7.38999C124.118 9.15268 125.547 10.5816 127.31 10.5816Z" fill="#824E4A"/>
<path d="M122.431 7.38999C122.43 6.75898 122.242 6.14246 121.89 5.61832C121.539 5.09419 121.04 4.68597 120.457 4.44525C119.874 4.20453 119.232 4.14211 118.613 4.26588C117.994 4.38966 117.426 4.69407 116.98 5.14065C116.535 5.58723 116.231 6.15593 116.109 6.7749C115.986 7.39386 116.049 8.03531 116.291 8.61818C116.533 9.20105 116.942 9.6992 117.467 10.0497C117.991 10.4001 118.608 10.5872 119.239 10.5872C120.086 10.5857 120.898 10.2482 121.496 9.64877C122.095 9.04935 122.431 8.23697 122.431 7.38999Z" fill="#824E4A"/>
<path d="M47.3474 14.5255H44.72C44.2456 14.5255 43.7906 14.7136 43.4547 15.0485C43.1187 15.3834 42.9292 15.8378 42.9278 16.3122C42.9278 18.4473 43.1988 23.6081 42.2917 25.605C41.9227 26.4353 41.3335 27.1488 40.588 27.6682C39.804 28.1686 38.8934 28.4344 37.9633 28.4344C37.0333 28.4344 36.1226 28.1686 35.3387 27.6682C34.5965 27.1443 34.0097 26.4295 33.6405 25.5995C32.9491 24.0838 33.0874 22.347 32.8274 20.7263C32.7555 20.3059 32.6725 19.8855 32.5674 19.4706C32.3599 18.6405 32.0671 17.8342 31.6934 17.0645C30.7772 15.235 29.3699 13.6966 27.629 12.6215C25.8882 11.5464 23.8825 10.977 21.8364 10.977C19.7904 10.977 17.7847 11.5464 16.0438 12.6215C14.303 13.6966 12.8957 15.235 11.9794 17.0645C10.6158 19.8211 10.2899 22.9763 11.0612 25.9535C9.50687 28.2877 7.05091 28.9958 3.00744 28.3652C2.62587 28.3043 2.23495 28.3746 1.89843 28.5644C1.5619 28.7543 1.29964 29.0526 1.15441 29.4106L0.153218 31.8721C0.0408868 32.115 -0.0110127 32.3815 0.00194643 32.6489C0.0149056 32.9162 0.0923381 33.1765 0.22764 33.4074C0.362942 33.6383 0.552098 33.8331 0.778971 33.9751C1.00584 34.1171 1.2637 34.2022 1.53054 34.223C2.53498 34.3621 3.54775 34.4323 4.56177 34.4332C8.49462 34.4332 11.7969 33.3269 14.0039 31.2692C14.5702 31.837 15.195 32.3432 15.868 32.7793C17.6528 33.9032 19.7276 34.4801 21.8364 34.4387C23.61 34.4691 25.3648 34.0726 26.953 33.2826C27.1189 33.1996 27.2794 33.1111 27.4508 33.0116L27.5117 32.9729C27.6147 32.9178 27.7144 32.8568 27.8104 32.7903C28.5707 32.2905 29.2656 31.6977 29.8791 31.0258C30.5055 31.6993 31.2135 32.292 31.9866 32.7903C33.7727 33.9159 35.8498 34.4929 37.9606 34.4497C39.7291 34.4708 41.4772 34.0708 43.0605 33.2826C43.2191 33.2015 43.3795 33.113 43.5418 33.0171L43.9124 32.7903C46.1729 31.285 47.83 29.0305 48.592 26.4236C48.7713 25.8328 48.9099 25.2303 49.0068 24.6204L49.0511 24.2332C49.0511 24.1723 49.0511 24.117 49.0511 24.0617V23.9843C49.0769 23.7556 49.0935 23.5344 49.1009 23.3205V23.2929C49.1009 23.1767 49.1009 23.0605 49.1009 22.9388C49.1009 22.9112 49.1009 22.8835 49.1009 22.8559V16.3122C49.0995 15.8445 48.9154 15.3958 48.5878 15.062C48.2602 14.7282 47.815 14.5356 47.3474 14.5255ZM24.4251 27.5908C23.6615 28.1047 22.7566 28.3676 21.8364 28.3431C20.9252 28.3655 20.0297 28.1025 19.2754 27.5908C18.5465 27.0697 17.973 26.3604 17.6159 25.5386C17.2345 24.6548 17.0378 23.7023 17.0378 22.7397C17.0378 21.7771 17.2345 20.8246 17.6159 19.9408C17.9635 19.1104 18.5388 18.3951 19.2754 17.8776C20.0317 17.351 20.9373 17.0814 21.8586 17.1087C22.7805 17.089 23.6856 17.3578 24.4473 17.8776C25.1814 18.4001 25.7559 19.1163 26.1067 19.9463C26.5007 20.8151 26.7043 21.7581 26.7041 22.7121C26.7093 23.6861 26.5055 24.6499 26.1067 25.5386C25.7488 26.3662 25.1663 27.0771 24.4251 27.5908Z" fill="#824E4A"/>
<path d="M78.2405 14.5255H75.6186C75.1442 14.5255 74.6892 14.7136 74.3533 15.0485C74.0173 15.3834 73.8279 15.8378 73.8264 16.3122C73.8264 16.8653 73.8264 20.0404 73.8264 20.5935C73.8264 22.2529 73.9094 24.0451 73.2069 25.605C72.8409 26.4371 72.2511 27.1514 71.5032 27.6682C71.0064 28.0124 70.4398 28.2429 69.8438 28.3431H69.7885C68.8258 28.569 67.8401 28.6823 66.8513 28.6805C65.7514 28.7092 64.651 28.6519 63.5601 28.509C62.5649 28.4559 61.5973 28.1637 60.739 27.6572C59.9985 27.1314 59.4122 26.4171 59.0409 25.5884C58.1337 23.6192 58.3826 21.2849 58.3826 19.1885V1.78665C58.3812 1.31229 58.1917 0.857865 57.8558 0.522961C57.5198 0.188056 57.0648 -2.25936e-06 56.5905 0H53.963C53.4887 -2.25936e-06 53.0337 0.188056 52.6977 0.522961C52.3618 0.857865 52.1723 1.31229 52.1709 1.78665V22.7729C52.1639 24.7512 52.6185 26.7039 53.4984 28.4758C54.3684 30.2496 55.7075 31.7512 57.3704 32.818C59.9093 34.4774 63.1784 34.6987 66.1267 34.588C67.504 34.5383 68.8924 34.4608 70.2918 34.3004C71.5833 34.1975 72.8432 33.8482 74.0034 33.2716C75.1051 32.6644 76.0933 31.8709 76.924 30.9262C77.4499 30.3273 77.9167 29.679 78.3179 28.9902C79.4279 27.0799 80.0137 24.9104 80.0161 22.701V16.3122C80.0146 15.8407 79.8275 15.3888 79.4951 15.0543C79.1627 14.7199 78.712 14.5299 78.2405 14.5255Z" fill="#824E4A"/>
<path d="M71.5032 7.38999C71.5021 8.0228 71.6888 8.6417 72.0397 9.16832C72.3906 9.69493 72.8899 10.1056 73.4743 10.3483C74.0587 10.5909 74.702 10.6547 75.3227 10.5315C75.9434 10.4083 76.5136 10.1037 76.9611 9.65625C77.4085 9.20878 77.7132 8.6386 77.8363 8.01789C77.9595 7.39719 77.8958 6.75389 77.6531 6.16945C77.4104 5.58502 76.9998 5.08575 76.4731 4.73487C75.9465 4.38398 75.3276 4.19726 74.6948 4.19835C73.8488 4.19981 73.0378 4.53654 72.4396 5.13478C71.8414 5.73301 71.5046 6.54396 71.5032 7.38999Z" fill="#824E4A"/>
<path d="M63.8809 7.38999C63.8798 8.0228 64.0665 8.6417 64.4174 9.16832C64.7683 9.69493 65.2675 10.1056 65.852 10.3483C66.4364 10.5909 67.0797 10.6547 67.7004 10.5315C68.3211 10.4083 68.8913 10.1037 69.3388 9.65625C69.7862 9.20878 70.0908 8.6386 70.214 8.01789C70.3372 7.39719 70.2734 6.75389 70.0308 6.16945C69.7881 5.58502 69.3774 5.08575 68.8508 4.73487C68.3242 4.38398 67.7053 4.19726 67.0725 4.19835C66.2265 4.19981 65.4155 4.53654 64.8173 5.13478C64.2191 5.73301 63.8823 6.54396 63.8809 7.38999Z" fill="#824E4A"/>
<path d="M43.6358 44.3455C45.3985 44.3455 46.8275 42.9165 46.8275 41.1538C46.8275 39.3912 45.3985 37.9622 43.6358 37.9622C41.8732 37.9622 40.4442 39.3912 40.4442 41.1538C40.4442 42.9165 41.8732 44.3455 43.6358 44.3455Z" fill="#824E4A"/>
<path d="M36.0135 44.3455C37.7762 44.3455 39.2052 42.9165 39.2052 41.1538C39.2052 39.3912 37.7762 37.9622 36.0135 37.9622C34.2508 37.9622 32.8219 39.3912 32.8219 41.1538C32.8219 42.9165 34.2508 44.3455 36.0135 44.3455Z" fill="#824E4A"/>
<path d="M151.007 13.5575C150.003 13.3706 148.966 13.5684 148.102 14.1117C147.238 14.655 146.61 15.5039 146.344 16.4892C145.082 21.6619 142.119 26.2606 137.93 29.5469C133.741 32.8332 128.569 34.6163 123.245 34.6099C117.92 34.6035 112.753 32.808 108.572 29.5117C104.39 26.2154 101.438 21.6096 100.189 16.4339C99.9603 15.4687 99.3696 14.6281 98.539 14.0857C97.7084 13.5433 96.7013 13.3404 95.7254 13.5188L95.5429 13.5575C95.1716 13.6279 94.8179 13.7707 94.5019 13.9779C94.1859 14.185 93.9138 14.4523 93.7011 14.7647C93.4885 15.077 93.3394 15.4281 93.2625 15.7981C93.1856 16.168 93.1823 16.5495 93.2529 16.9207C94.6493 23.8533 98.4021 30.0889 103.874 34.5686C109.346 39.0483 116.2 41.496 123.272 41.496C130.344 41.496 137.198 39.0483 142.67 34.5686C148.142 30.0889 151.895 23.8533 153.291 16.9207C153.362 16.5498 153.36 16.1685 153.284 15.7986C153.207 15.4287 153.059 15.0774 152.847 14.765C152.634 14.4526 152.363 14.1851 152.047 13.9779C151.731 13.7707 151.378 13.6279 151.007 13.5575Z" fill="#F27B3D"/>
</svg>
