<svg width="511" height="460" viewBox="0 0 511 460" fill="none" xmlns="http://www.w3.org/2000/svg">
<path d="M342.549 219.783L338.669 219.731C337.965 219.721 337.287 219.991 336.783 220.482C336.279 220.973 335.99 221.644 335.981 222.347L335.866 230.868C335.907 232.704 335.556 234.528 334.837 236.217C334.271 237.441 333.382 238.488 332.266 239.245C330.25 240.609 327.63 240.639 325.282 240.493C323.469 240.514 321.686 240.028 320.135 239.089C319.047 238.296 318.193 237.224 317.663 235.986C317.086 234.653 316.804 233.211 316.835 231.758L316.837 231.635L316.933 230.572L307.593 230.447L307.577 231.634C307.529 234.557 308.16 237.453 309.421 240.091C310.671 242.737 312.623 244.989 315.064 246.602C317.516 248.111 320.302 248.993 323.176 249.168C326.221 249.506 329.3 249.388 332.31 248.816C333.522 248.555 334.698 248.151 335.814 247.611C336.061 247.499 336.3 247.372 336.556 247.228C336.811 247.084 336.927 247.012 337.092 246.899C337.257 246.787 337.654 246.538 337.918 246.345C340.862 244.15 343.033 241.078 344.119 237.57C344.597 236.107 344.893 234.59 344.999 233.055C345.002 233.003 345.003 232.951 345.001 232.899C345.003 232.703 345.006 232.498 345.009 232.293L345.141 222.438C345.142 221.744 344.871 221.078 344.386 220.581C343.902 220.085 343.242 219.799 342.549 219.783Z" fill="#824E4A"/>
<path d="M402.723 215.681C399.769 215.617 396.854 216.364 394.296 217.843C391.738 219.322 389.636 221.474 388.217 224.066C387.898 224.653 387.824 225.342 388.01 225.984C388.196 226.625 388.628 227.168 389.211 227.493L392.405 229.264C392.966 229.57 393.623 229.653 394.243 229.496C394.863 229.338 395.4 228.953 395.748 228.417C396.447 227.304 397.422 226.392 398.578 225.769C399.735 225.146 401.033 224.834 402.346 224.862C406.439 224.917 409.143 228.392 409.074 233.517L409.039 236.177C409.026 236.969 408.7 237.723 408.133 238.275C407.565 238.828 406.803 239.133 406.011 239.125L389.639 238.904C388.937 238.895 388.26 239.164 387.756 239.653C387.252 240.142 386.963 240.81 386.951 241.512L386.902 245.196C386.895 245.898 387.166 246.574 387.657 247.076C388.147 247.579 388.817 247.866 389.519 247.876L406.398 248.103C409.497 248.143 412.486 246.95 414.707 244.788C416.928 242.626 418.2 239.671 418.244 236.571L418.286 233.436C418.415 221.378 410.319 215.783 402.723 215.681Z" fill="#824E4A"/>
<path d="M357.063 247.348C359.683 249.045 362.741 249.94 365.863 249.923C367.288 249.949 368.711 249.803 370.101 249.489C368.117 251.556 365.397 252.758 362.532 252.834C361.704 252.84 360.879 252.732 360.08 252.514L356.924 251.653C356.361 251.515 355.768 251.574 355.243 251.821C354.718 252.067 354.294 252.485 354.04 253.006L352.204 256.813C352.033 257.148 351.942 257.518 351.937 257.894C351.932 258.27 352.013 258.642 352.175 258.982C352.708 260.103 353.794 260.346 354.903 260.705C357.203 261.479 359.607 261.901 362.033 261.956C366.202 262.012 370.283 260.764 373.708 258.386C377.132 256.009 379.728 252.621 381.132 248.696L381.388 247.938C381.389 247.889 381.389 247.831 381.448 247.734C381.697 246.932 381.888 246.114 382.021 245.286C382.075 244.942 382.12 244.607 382.166 244.264L382.224 243.618C382.229 243.233 382.275 242.857 382.288 242.473L382.289 242.399C382.445 239.945 382.557 237.073 382.618 233.725L382.62 233.586C382.623 233.373 382.626 233.16 382.629 232.939L382.637 232.358L382.642 231.949C382.651 231.851 382.652 231.752 382.646 231.654C382.536 229.128 381.917 226.65 380.828 224.367C379.507 221.642 377.454 219.338 374.899 217.713C372.343 216.087 369.386 215.205 366.358 215.164C363.33 215.123 360.35 215.926 357.752 217.482C355.154 219.038 353.04 221.286 351.646 223.974C350.329 226.58 349.623 229.452 349.584 232.371C349.545 235.291 350.173 238.181 351.42 240.821C352.675 243.468 354.626 245.724 357.063 247.348ZM361.743 224.421C363.082 223.576 364.638 223.138 366.222 223.159C367.806 223.18 369.349 223.661 370.666 224.542C371.913 225.447 372.888 226.678 373.483 228.1C374.106 229.562 374.417 231.137 374.395 232.726C374.374 234.314 374.021 235.881 373.359 237.325C372.722 238.713 371.715 239.898 370.448 240.749C369.123 241.626 367.557 242.066 365.969 242.007C364.392 242.039 362.845 241.571 361.549 240.671C360.32 239.777 359.354 238.567 358.755 237.17C358.119 235.708 357.808 234.125 357.843 232.532C357.854 230.948 358.199 229.385 358.855 227.944C359.467 226.522 360.468 225.301 361.743 224.421Z" fill="#824E4A"/>
<path d="M329.158 214.002C331.767 214.038 333.91 211.951 333.945 209.343C333.98 206.734 331.894 204.591 329.285 204.556C326.677 204.521 324.533 206.607 324.498 209.216C324.463 211.824 326.55 213.967 329.158 214.002Z" fill="#824E4A"/>
<path d="M281.362 213.359C283.97 213.394 286.113 211.307 286.148 208.699C286.183 206.09 284.097 203.947 281.488 203.912C278.88 203.877 276.737 205.963 276.702 208.572C276.667 211.18 278.753 213.323 281.362 213.359Z" fill="#824E4A"/>
<path d="M274.205 208.538C274.216 207.604 273.95 206.688 273.44 205.905C272.931 205.123 272.2 204.509 271.342 204.141C270.484 203.773 269.535 203.668 268.617 203.839C267.699 204.01 266.852 204.449 266.184 205.101C265.515 205.753 265.055 206.588 264.861 207.502C264.667 208.415 264.748 209.366 265.094 210.233C265.441 211.101 266.036 211.846 266.806 212.375C267.575 212.904 268.484 213.193 269.418 213.206C270.672 213.221 271.88 212.737 272.777 211.862C273.675 210.987 274.188 209.791 274.205 208.538Z" fill="#824E4A"/>
<path d="M162.949 217.601L159.061 217.549C158.359 217.539 157.682 217.808 157.178 218.297C156.674 218.786 156.385 219.455 156.373 220.157C156.331 223.317 156.63 230.959 155.247 233.896C154.685 235.118 153.799 236.162 152.685 236.916C151.515 237.64 150.162 238.016 148.786 237.997C147.409 237.979 146.067 237.567 144.917 236.811C143.829 236.021 142.975 234.951 142.445 233.716C141.452 231.459 141.691 228.891 141.338 226.488C141.24 225.864 141.126 225.241 140.979 224.624C140.688 223.392 140.271 222.193 139.733 221.046C138.414 218.321 136.361 216.016 133.807 214.39C131.252 212.765 128.295 211.882 125.267 211.841C122.239 211.8 119.26 212.603 116.662 214.159C114.064 215.716 111.951 217.964 110.559 220.653C108.486 224.705 107.941 229.368 109.023 233.789C106.677 237.213 103.028 238.212 97.0571 237.198C96.4936 237.1 95.9137 237.196 95.4119 237.471C94.9101 237.745 94.5161 238.181 94.294 238.708L92.7635 242.331C92.5924 242.688 92.5103 243.081 92.5242 243.477C92.5381 243.873 92.6475 244.26 92.8431 244.604C93.0388 244.949 93.3148 245.241 93.6478 245.455C93.9807 245.67 94.3606 245.801 94.7551 245.837C96.2387 246.063 97.7361 246.187 99.2367 246.209C105.057 246.287 109.966 244.716 113.273 241.715C114.099 242.566 115.014 243.328 116.001 243.987C118.62 245.685 121.679 246.58 124.801 246.561C127.425 246.642 130.03 246.09 132.396 244.952C132.643 244.833 132.882 244.705 133.138 244.561L133.229 244.505C133.382 244.426 133.531 244.337 133.674 244.241C134.809 243.516 135.85 242.653 136.771 241.671C137.684 242.68 138.72 243.571 139.855 244.324C142.475 246.026 145.538 246.921 148.662 246.899C151.279 246.966 153.874 246.408 156.233 245.274C156.469 245.157 156.708 245.029 156.95 244.89L157.503 244.562C160.878 242.379 163.375 239.076 164.555 235.233C164.832 234.363 165.049 233.474 165.205 232.573L165.278 232.001C165.279 231.911 165.28 231.829 165.281 231.747L165.283 231.633C165.325 231.295 165.354 230.968 165.369 230.651L165.37 230.61C165.372 230.439 165.375 230.267 165.377 230.087C165.378 230.046 165.378 230.005 165.379 229.964L165.509 220.28C165.516 219.588 165.252 218.92 164.774 218.42C164.296 217.919 163.641 217.625 162.949 217.601ZM128.768 236.479C127.627 237.224 126.283 237.595 124.922 237.541C123.573 237.556 122.253 237.149 121.147 236.376C120.079 235.591 119.244 234.529 118.732 233.306C118.185 231.991 117.913 230.577 117.932 229.153C117.951 227.728 118.261 226.323 118.843 225.022C119.374 223.8 120.239 222.753 121.34 222.002C122.47 221.238 123.815 220.857 125.178 220.916C126.543 220.905 127.877 221.321 128.994 222.105C130.07 222.893 130.906 223.964 131.408 225.2C131.974 226.493 132.257 227.893 132.237 229.304C132.226 230.746 131.905 232.168 131.297 233.475C130.751 234.693 129.875 235.734 128.768 236.479Z" fill="#824E4A"/>
<path d="M208.667 218.217L204.787 218.165C204.085 218.155 203.408 218.424 202.904 218.913C202.4 219.402 202.111 220.071 202.099 220.773C202.088 221.591 202.025 226.29 202.014 227.109C201.981 229.564 202.068 232.218 200.998 234.513C200.44 235.737 199.553 236.782 198.436 237.532C197.694 238.031 196.85 238.361 195.966 238.497L195.885 238.496C194.455 238.812 192.995 238.96 191.531 238.937C189.903 238.958 188.276 238.851 186.664 238.618C185.192 238.519 183.766 238.068 182.506 237.301C181.421 236.508 180.567 235.439 180.034 234.206C178.731 231.273 179.146 227.824 179.187 224.722L179.533 198.969C179.54 198.267 179.269 197.591 178.779 197.089C178.288 196.586 177.618 196.299 176.916 196.289L173.028 196.237C172.326 196.228 171.649 196.497 171.145 196.986C170.641 197.475 170.352 198.143 170.34 198.845L169.924 229.902C169.874 232.83 170.508 235.728 171.775 238.368C173.027 241.01 174.979 243.259 177.419 244.871C181.143 247.377 185.976 247.77 190.342 247.665C192.381 247.619 194.437 247.532 196.511 247.322C198.424 247.196 200.296 246.704 202.024 245.874C203.667 244.997 205.145 243.843 206.393 242.461C207.183 241.585 207.887 240.635 208.494 239.624C210.175 236.819 211.085 233.62 211.132 230.351L211.259 220.896C211.266 220.198 210.998 219.526 210.513 219.024C210.028 218.523 209.365 218.233 208.667 218.217Z" fill="#824E4A"/>
<path d="M198.838 207.523C198.824 208.459 199.088 209.379 199.597 210.165C200.106 210.952 200.837 211.569 201.697 211.94C202.557 212.311 203.507 212.418 204.428 212.248C205.349 212.078 206.199 211.639 206.87 210.985C207.541 210.332 208.004 209.494 208.198 208.578C208.393 207.662 208.311 206.709 207.964 205.839C207.616 204.97 207.018 204.222 206.246 203.693C205.474 203.163 204.562 202.874 203.625 202.863C202.373 202.849 201.166 203.331 200.269 204.204C199.372 205.078 198.857 206.271 198.838 207.523Z" fill="#824E4A"/>
<path d="M187.558 207.371C187.544 208.307 187.808 209.227 188.317 210.013C188.826 210.8 189.556 211.417 190.417 211.788C191.277 212.159 192.227 212.266 193.148 212.096C194.069 211.926 194.919 211.487 195.59 210.833C196.261 210.18 196.723 209.342 196.918 208.426C197.113 207.51 197.031 206.557 196.684 205.687C196.336 204.818 195.738 204.071 194.966 203.541C194.194 203.011 193.281 202.722 192.345 202.711C191.093 202.697 189.886 203.179 188.989 204.052C188.092 204.926 187.577 206.119 187.558 207.371Z" fill="#824E4A"/>
<path d="M156.864 261.657C159.473 261.692 161.616 259.606 161.651 256.997C161.686 254.388 159.6 252.245 156.991 252.21C154.382 252.175 152.239 254.261 152.204 256.87C152.169 259.478 154.256 261.621 156.864 261.657Z" fill="#824E4A"/>
<path d="M145.584 261.505C148.193 261.54 150.336 259.454 150.371 256.845C150.406 254.237 148.32 252.093 145.711 252.058C143.102 252.023 140.959 254.109 140.924 256.718C140.889 259.326 142.976 261.469 145.584 261.505Z" fill="#824E4A"/>
<path d="M316.37 218.235C314.889 217.938 313.35 218.21 312.061 218.997C310.771 219.784 309.825 221.028 309.412 222.48C307.442 230.11 302.966 236.857 296.701 241.636C290.437 246.416 282.747 248.952 274.868 248.836C266.989 248.721 259.377 245.96 253.255 240.999C247.133 236.038 242.856 229.163 241.11 221.479C240.791 220.046 239.933 218.79 238.715 217.971C237.496 217.151 236.01 216.831 234.562 217.076L234.291 217.129C233.741 217.226 233.214 217.43 232.743 217.731C232.271 218.031 231.863 218.421 231.542 218.879C231.221 219.337 230.993 219.854 230.872 220.4C230.751 220.945 230.739 221.51 230.836 222.061C232.765 232.348 238.194 241.65 246.203 248.389C254.212 255.127 264.306 258.886 274.772 259.027C285.237 259.168 295.429 255.683 303.616 249.162C311.802 242.642 317.48 233.489 319.684 223.257C319.797 222.71 319.801 222.146 319.696 221.597C319.59 221.048 319.377 220.525 319.07 220.059C318.762 219.592 318.365 219.191 317.902 218.878C317.438 218.565 316.918 218.346 316.37 218.235Z" fill="#F27B3D"/>
</svg>
