<svg width="149" height="148" viewBox="0 0 149 148" fill="none" xmlns="http://www.w3.org/2000/svg">
<g clip-path="url(#clip0_58_2307)">
<path d="M74.3584 145.104C101.347 145.104 123.227 128.96 123.227 109.045C123.227 89.1297 101.347 72.9854 74.3584 72.9854C47.3692 72.9854 25.4902 89.1297 25.4902 109.045C25.4902 128.96 47.3692 145.104 74.3584 145.104Z" fill="#FFAA2E"/>
<g opacity="0.3">
<path d="M74.3202 143.351C104.522 143.351 122.236 128.045 123.149 108.856C123.16 108.877 123.17 108.899 123.176 108.924C123.159 108.86 123.125 108.809 123.079 108.776C123.073 108.102 122.974 107.323 122.769 106.419C119.931 88.9829 102.753 75.59 74.3202 75.59C50.2428 75.59 34.2364 85.1927 28.1751 98.723C27.0422 101.774 26.1161 106.168 27.9006 110.125C31.0374 117.083 36.665 108.232 38.3689 113.573C39.8604 118.252 40.2027 130.825 48.8977 130.884C57.5908 130.944 57.8196 123.186 62.5268 129.852C67.2321 136.514 75.3231 137.613 82.9164 129.46C90.5078 121.305 101.575 133.38 104.77 124.345C108.128 114.848 111.036 111.571 117.087 112.455C117.106 112.457 117.125 112.46 117.144 112.463C119.415 112.787 120.701 115.248 119.634 117.279C112.99 129.928 97.2551 138.755 74.3202 138.755C46.6265 138.755 29.4306 125.886 26.0612 108.955C26.0015 108.651 25.6166 108.636 25.4917 108.857C26.4053 128.045 44.1192 143.351 74.3202 143.351Z" fill="#371A45"/>
</g>
<path d="M74.3209 145.918C59.3869 145.918 46.7554 142.211 37.7915 135.197C29.3498 128.592 24.7009 119.326 24.7009 109.106C24.7009 104.449 25.6392 99.996 27.4895 95.8719C27.6558 95.502 28.0851 95.3302 28.4601 95.4838C28.8353 95.6375 29.0213 96.0608 28.8803 96.4409C27.8142 99.316 26.8979 103.529 28.5873 107.273C30.0112 110.432 31.7996 109.907 34.0638 109.245C36.0063 108.675 38.4236 107.967 39.9055 110.801C40.7487 112.412 41.1575 114.578 41.5903 116.871C42.5267 121.832 43.4949 126.961 48.924 126.997C48.9565 126.998 48.989 126.998 49.0214 126.998C52.5019 126.998 54.5112 125.706 56.1286 124.666C57.2908 123.92 58.2958 123.274 59.4762 123.398C60.7041 123.526 61.8318 124.436 63.2474 126.44C65.4895 129.615 68.4651 131.481 71.6263 131.695C75.2055 131.936 78.9196 130.107 82.3663 126.405C86.5133 121.95 90.9697 123.125 94.5515 124.069C98.0472 124.99 100.573 125.656 102.441 121.974C103.204 120.469 103.862 119.093 104.442 117.879C107.164 112.186 108.668 109.049 113.484 109.356L113.599 109.364C115.993 109.517 118.706 109.69 120.357 108.233C121.351 107.356 121.892 105.96 122.012 103.966C122.036 103.572 122.35 103.261 122.742 103.243C123.132 103.228 123.475 103.513 123.534 103.892C123.804 105.588 123.941 107.343 123.941 109.106C123.941 119.326 119.292 128.592 110.851 135.197C101.887 142.211 89.2554 145.918 74.3209 145.918ZM26.4163 105.402C26.2751 106.619 26.2042 107.855 26.2042 109.106C26.2042 118.853 30.6483 127.699 38.718 134.013C47.4148 140.818 59.7261 144.415 74.3209 144.415C88.9163 144.415 101.228 140.818 109.924 134.013C117.993 127.699 122.438 118.853 122.438 109.106C122.438 108.758 122.432 108.411 122.421 108.064C122.123 108.562 121.767 108.994 121.352 109.36C119.233 111.231 116.056 111.028 113.503 110.864L113.388 110.857C109.576 110.613 108.473 112.932 105.799 118.528C105.215 119.749 104.553 121.134 103.782 122.654C101.365 127.419 97.7064 126.455 94.1681 125.523C90.6444 124.594 87.0005 123.633 83.4667 127.43C79.7009 131.475 75.5698 133.469 71.525 133.195C67.9035 132.95 64.5274 130.859 62.0192 127.307C59.7653 124.116 59.0539 124.574 56.9416 125.931C55.2362 127.027 52.8999 128.523 48.9137 128.501C42.2469 128.456 41.0638 122.187 40.1128 117.15C39.7015 114.97 39.3128 112.911 38.5733 111.497C37.7035 109.834 36.5741 110.076 34.4865 110.687C32.2461 111.344 29.1784 112.242 27.2166 107.891C26.8472 107.073 26.5871 106.238 26.4163 105.402Z" fill="#371A45"/>
<path d="M122.77 103.876C122.425 110.748 117.335 110.356 113.437 110.106C108.194 109.775 107.449 113.764 103.112 122.314C98.7764 130.862 90.5097 118.763 82.9188 126.917C75.3262 135.071 67.3394 133.536 62.6331 126.874C57.9285 120.209 57.6122 127.81 48.92 127.749C40.2246 127.691 41.8408 116.117 39.2409 111.149C36.641 106.18 31.0389 114.541 27.9025 107.582C26.1173 103.626 27.0447 99.2311 28.1757 96.1791C32.5094 86.5099 41.9203 78.8461 55.7277 75.2609C57.6669 74.7558 59.6938 74.3319 61.8052 73.9957C61.8383 73.9907 61.8714 73.9858 61.9045 73.9808C63.6185 73.7076 65.3904 73.4956 67.2153 73.3416C69.4989 73.1479 71.8685 73.0469 74.321 73.0469C80.0292 73.0469 85.2819 73.5867 90.0561 74.5919C90.5264 74.6879 90.99 74.7923 91.452 74.8999C92.3313 75.1053 93.1924 75.3271 94.037 75.5639C94.3003 75.6385 94.562 75.713 94.8219 75.7908C96.9018 76.4035 98.8741 77.1172 100.739 77.9138C101.886 78.4056 102.992 78.9322 104.056 79.4903C106.543 80.7935 108.8 82.2674 110.82 83.8918C111.854 84.7248 112.827 85.5975 113.736 86.5033C113.862 86.6292 113.987 86.755 114.107 86.8809C114.107 86.8825 114.109 86.8825 114.111 86.8842C114.111 86.8859 114.111 86.8858 114.111 86.8858C118.802 91.7129 121.736 97.527 122.77 103.876Z" fill="#FF7236"/>
<g opacity="0.5">
<path d="M28.0744 98.3714C32.408 88.7022 41.819 81.0383 55.6263 77.4531C57.5655 76.9481 59.5925 76.5241 61.7038 76.1879C61.7369 76.183 61.77 76.178 61.8032 76.173C63.5171 75.8998 65.289 75.6878 67.1138 75.5338C69.3974 75.3401 71.7671 75.2391 74.2195 75.2391C79.9277 75.2391 85.1805 75.7789 89.9546 76.7841C90.4249 76.8802 90.8885 76.9845 91.3505 77.0921C92.2299 77.2975 93.091 77.5194 93.9356 77.7562C94.1989 77.8307 94.4605 77.9052 94.7206 77.983C96.8005 78.5957 98.7727 79.3095 100.637 80.106C101.785 80.5978 102.891 81.1244 103.954 81.6825C106.441 82.9857 108.699 84.4596 110.719 86.0841C111.752 86.917 112.726 87.7897 113.635 88.6955C113.761 88.8214 113.885 88.9472 114.006 89.0731C114.006 89.0747 114.008 89.0747 114.009 89.0764C114.009 89.0781 114.009 89.0781 114.009 89.0781C118.539 93.7391 121.426 99.322 122.549 105.417C122.662 104.891 122.737 104.307 122.769 103.658C121.736 97.3086 118.802 91.4945 114.11 86.6673C114.11 86.6673 114.11 86.6673 114.11 86.6656C114.109 86.664 114.107 86.664 114.107 86.6623C113.986 86.5365 113.862 86.4106 113.736 86.2848C112.827 85.3789 111.853 84.5063 110.82 83.6733C108.8 82.0488 106.543 80.575 104.055 79.2717C102.992 78.7136 101.886 78.1871 100.738 77.6952C98.8738 76.8987 96.9015 76.185 94.8216 75.5723C94.5617 75.4944 94.3 75.4199 94.0366 75.3454C93.1921 75.1086 92.331 74.8867 91.4517 74.6814C90.9897 74.5738 90.526 74.4694 90.0557 74.3734C85.2816 73.3682 80.0289 72.8284 74.3207 72.8284C71.8682 72.8284 69.4986 72.9294 67.2149 73.1231C65.3901 73.2771 63.6181 73.4891 61.9042 73.7623C61.8712 73.7673 61.838 73.7722 61.8049 73.7772C59.6935 74.1134 57.6665 74.5373 55.7274 75.0424C41.92 78.6276 32.5091 86.2914 28.1754 95.9607C27.4494 97.9195 26.8088 100.432 26.914 103.026C27.1192 101.316 27.577 99.7136 28.0744 98.3714Z" fill="white"/>
</g>
<path d="M73.5839 105.128C62.1484 105.128 53.4929 100.026 54.601 99.4143C57.7961 97.6502 64.2734 93.6857 73.5839 93.6857C82.8943 93.6857 91.0454 97.9522 93.5071 100.047C94.0168 100.481 85.0193 105.128 73.5839 105.128Z" fill="#FC2299"/>
<g opacity="0.6">
<path d="M96.3767 100.037C94.5349 102.321 91.8738 104.358 87.7633 105.698C83.9104 106.956 79.2849 107.69 74.3121 107.69C73.9923 107.69 73.6726 107.686 73.3557 107.679C69.3842 107.605 65.6146 107.205 62.3959 106.161C53.5942 103.306 49.9719 96.7637 53.8089 99.4872C55.7887 100.892 59.6137 103.381 62.3106 104.325C65.6774 105.505 69.4062 105.522 73.0855 105.3C73.1563 105.297 73.5288 105.306 73.5997 105.3C78.2209 104.979 81.7257 104.937 84.8133 104.085C90.1043 102.623 93.3428 101.039 95.4515 99.4067C96.9836 98.2207 97.4764 98.6728 96.3767 100.037Z" fill="white"/>
</g>
<g opacity="0.3">
<path d="M122.769 103.876C122.423 110.749 117.333 110.355 113.435 110.107C108.193 109.774 107.447 113.764 103.111 122.314C98.7745 130.862 90.5073 118.762 82.9157 126.917C75.3242 135.071 67.3377 133.537 62.6325 126.874C57.9259 120.209 57.612 127.809 48.9179 127.749C40.2239 127.691 41.8386 116.118 39.2386 111.149C36.6401 106.18 31.0379 114.539 27.9012 107.582C27.295 106.242 27.0027 104.849 26.9231 103.476C27.0519 103.887 27.2052 104.295 27.3875 104.699C30.5243 111.656 37.1984 103.39 39.6176 108.449C41.5123 112.41 41.1567 124.55 48.4043 124.865C57.0904 125.243 57.9493 116.942 62.6558 123.607C67.3609 130.269 74.8106 132.187 82.4021 124.034C89.9937 115.878 98.2609 127.978 102.597 119.43C106.933 110.88 107.68 106.89 112.922 107.223C116.76 107.468 121.756 107.853 122.237 101.297C122.451 102.145 122.627 103.006 122.769 103.876Z" fill="#CC3D00"/>
</g>
<g opacity="0.3">
<path d="M104.124 111.165C104.124 111.165 99.5838 121.119 91.2639 118.554C82.9441 115.989 85.1974 107.635 81.9706 108.12C78.7419 108.605 75.8683 109.291 73.5248 109.291C71.1813 109.291 68.3077 108.605 65.079 108.12C61.8522 107.635 64.1055 115.989 55.7856 118.554C47.4658 121.119 42.9253 111.165 42.9253 111.165L45.8026 98.3494H101.247L104.124 111.165Z" fill="#371A45"/>
</g>
<path d="M72.258 133.219C72.0127 133.219 71.7681 133.211 71.5234 133.195C67.9019 132.95 64.5258 130.859 62.0176 127.307C59.7637 124.116 59.0523 124.574 56.94 125.931C55.2347 127.027 52.8983 128.523 48.9121 128.501C42.2453 128.456 41.0622 122.187 40.1112 117.15C39.6999 114.97 39.3112 112.911 38.5717 111.497C37.7019 109.834 36.5725 110.076 34.4849 110.687C32.2445 111.343 29.1768 112.242 27.215 107.891C25.3162 103.683 26.305 99.0572 27.4691 95.9182C27.4749 95.9026 27.4811 95.8872 27.4879 95.8722C30.6442 88.8281 36.4029 82.9505 44.1408 78.875C52.4297 74.5093 62.5832 72.2955 74.3194 72.2955C87.9793 72.2955 99.8202 75.4092 108.562 81.2999C116.861 86.8916 122.03 94.6563 123.51 103.755C123.519 103.808 123.522 103.861 123.519 103.913C123.396 106.354 122.673 108.181 121.371 109.342C119.252 111.232 116.064 111.028 113.502 110.864L113.387 110.857C109.581 110.614 108.472 112.932 105.797 118.527C105.213 119.749 104.551 121.133 103.78 122.654C101.363 127.419 97.7049 126.455 94.1666 125.523C90.6428 124.594 86.999 123.633 83.4652 127.43C79.927 131.23 76.0675 133.219 72.258 133.219ZM59.183 123.382C59.2791 123.382 59.3763 123.387 59.4745 123.398C60.7024 123.526 61.8301 124.436 63.2457 126.44C65.4878 129.615 68.4635 131.481 71.6247 131.695C75.2038 131.936 78.9179 130.107 82.3646 126.405C86.5116 121.95 90.9681 123.125 94.5498 124.069C98.0456 124.99 100.571 125.656 102.44 121.974C103.203 120.469 103.86 119.093 104.44 117.879C107.162 112.186 108.667 109.049 113.482 109.356L113.598 109.364C115.998 109.517 118.72 109.692 120.37 108.221C121.362 107.335 121.9 105.927 122.013 103.917C118.986 85.6188 100.277 73.7991 74.3192 73.7991C52.232 73.7991 35.2439 82.272 28.8699 96.4642C27.8075 99.3388 26.9007 103.539 28.5855 107.273C30.0094 110.432 31.7979 109.907 34.062 109.245C36.0045 108.675 38.4218 107.967 39.9037 110.8C40.747 112.412 41.1557 114.578 41.5885 116.871C42.5249 121.831 43.4932 126.961 48.9222 126.997C48.9547 126.998 48.9872 126.998 49.0196 126.998C52.5001 126.998 54.5094 125.706 56.1268 124.666C57.1924 123.982 58.1246 123.382 59.183 123.382Z" fill="#371A45"/>
<path d="M91.7048 101.503C90.0192 102.163 88.3776 102.716 86.7853 103.175C75.8081 106.345 67.1315 105.061 61.8607 103.474C59.5144 102.767 57.8435 102.001 56.9431 101.541C75.4238 94.3102 88.4929 99.861 91.7048 101.503Z" fill="#F7AC4B"/>
<path d="M86.7831 103.176C75.8059 106.346 67.1292 105.061 61.8584 103.474C72.8356 100.305 81.5123 101.589 86.7831 103.176Z" fill="#ED8A2F"/>
<path d="M73.4338 105.891C64.7798 105.891 58.8347 103.355 56.5977 102.21L55.1108 101.45L56.6662 100.841C75.266 93.5623 88.4476 98.9954 92.0443 100.834L93.5322 101.594L91.9762 102.203C84.9461 104.955 78.6899 105.891 73.4338 105.891ZM58.8854 101.616C63.6304 103.627 74.7136 106.791 89.7564 101.428C85.0101 99.4194 73.925 96.2571 58.8854 101.616Z" fill="#371A45"/>
<path d="M53.3281 98.6122C54.1878 99.0432 54.9798 99.5211 55.7756 99.9985L56.3698 100.359C56.4713 100.42 56.5686 100.482 56.6556 100.53L56.9481 100.691C57.3487 100.902 57.7648 101.102 58.1872 101.289C59.0313 101.665 59.9 101.998 60.7812 102.294C61.6622 102.592 62.5567 102.854 63.4615 103.076C67.0768 103.986 70.8257 104.355 74.5587 104.258C78.297 104.188 82.0168 103.587 85.6483 102.657C87.4587 102.169 89.2591 101.625 91.0141 100.949C91.456 100.784 91.9019 100.629 92.3082 100.452C92.7229 100.277 93.1365 100.095 93.5378 99.8862C94.3506 99.484 95.1268 99.0096 95.9206 98.509L95.9248 98.5064C96.103 98.394 96.3385 98.4474 96.4509 98.6255C96.538 98.7638 96.5249 98.9372 96.4317 99.0602C95.8274 99.8534 95.0603 100.514 94.2273 101.07C93.8066 101.343 93.3702 101.593 92.9162 101.808C92.6907 101.912 92.4544 102.018 92.2304 102.104L91.5557 102.365C89.7657 103.086 87.9228 103.674 86.0646 104.205C84.2035 104.73 82.3055 105.129 80.3919 105.429C78.478 105.731 76.5422 105.906 74.602 105.959C72.6615 106.01 70.7167 105.924 68.7854 105.712C67.8192 105.608 66.8582 105.46 65.9006 105.292C64.9456 105.11 63.9947 104.903 63.0555 104.648C62.1143 104.401 61.1834 104.114 60.265 103.787C59.3461 103.462 58.4396 103.099 57.55 102.687C57.1045 102.481 56.665 102.262 56.2272 102.022C56.1169 101.961 56.009 101.901 55.8961 101.834C55.7761 101.764 55.6737 101.697 55.5721 101.633C55.3674 101.5 55.1634 101.365 54.9655 101.22C54.1744 100.645 53.4339 99.9865 52.8413 99.1851C52.7145 99.0137 52.7507 98.772 52.9222 98.6453C53.0429 98.556 53.1985 98.5476 53.3242 98.6103L53.3281 98.6122Z" fill="#371A45"/>
<path d="M109.464 99.587C112.508 99.587 114.976 98.8399 114.976 97.9183C114.976 96.9966 112.508 96.2495 109.464 96.2495C106.419 96.2495 103.952 96.9966 103.952 97.9183C103.952 98.8399 106.419 99.587 109.464 99.587Z" fill="white"/>
<path d="M114.976 97.8885C114.976 99.1787 112.508 99.5557 109.464 99.5557C106.42 99.5557 103.952 99.5557 103.952 97.8885C103.952 97.3376 104.221 96.9697 104.689 96.7227C104.96 98.1081 107.314 98.1081 110.174 98.1081C112.163 98.1081 113.908 97.947 114.878 97.4749C114.944 97.6011 114.976 97.7384 114.976 97.8885Z" fill="#D8D8D8"/>
<path d="M109.465 100.136C106.213 100.136 103.405 100.136 103.405 97.9191C103.405 95.7024 106.213 95.7024 109.465 95.7024C112.066 95.7024 115.524 95.9323 115.524 97.9191C115.524 99.9059 112.066 100.136 109.465 100.136ZM109.465 96.7982C106.376 96.7982 104.501 96.8736 104.501 97.9191C104.501 98.9646 106.376 99.0399 109.465 99.0399C114.189 99.0399 114.429 98.1063 114.429 97.9191C114.429 97.7318 114.189 96.7982 109.465 96.7982Z" fill="#371A45"/>
<path d="M102.256 91.1668C104.953 89.7549 106.792 87.9484 106.365 87.132C105.938 86.3155 103.405 86.7982 100.708 88.21C98.0112 89.6219 96.1715 91.4284 96.5989 92.2448C97.0264 93.0613 99.5591 92.5786 102.256 91.1668Z" fill="#35DCFF"/>
<path d="M97.8103 93.6894C96.7625 93.6894 96.2186 93.1363 95.9376 92.5995C95.5708 91.899 95.4363 90.8148 96.8791 89.628C97.7262 88.9309 98.9487 88.2909 100.364 87.55C101.93 86.7303 103.171 86.219 104.156 85.9867C105.966 85.561 106.721 86.1879 107.036 86.7894C108.031 88.6903 105.193 90.4865 102.609 91.8389C101.194 92.5799 99.9716 93.2198 98.916 93.519C98.4961 93.638 98.1297 93.6894 97.8103 93.6894ZM105.258 87.3462C105.055 87.3462 104.796 87.3807 104.501 87.4502C103.651 87.6501 102.494 88.1319 101.062 88.8821C99.7758 89.5552 98.5612 90.1908 97.8343 90.7888C97.0321 91.4487 97.1809 91.7325 97.2697 91.9022C97.3585 92.0719 97.5079 92.3555 98.5061 92.0724C99.4119 91.8158 100.627 91.1799 101.912 90.5067C106.008 88.363 105.709 87.4977 105.704 87.4866C105.655 87.3933 105.496 87.3462 105.258 87.3462Z" fill="#390075"/>
<path d="M106.357 87.1101C106.955 88.2532 104.943 89.7322 102.246 91.1438C99.5497 92.5553 97.3625 93.7004 96.5892 92.2233C96.3337 91.7353 96.4015 91.2846 96.7019 90.8484C97.5845 91.9502 99.6696 90.8586 102.204 89.532C103.966 88.6093 105.437 87.6577 106.077 86.7896C106.194 86.8708 106.287 86.9772 106.357 87.1101Z" fill="#1EABF9"/>
<path d="M97.8009 93.4869C97.0238 93.4869 96.4596 93.1583 96.1171 92.504C95.6345 91.5825 95.9341 90.6675 97.0075 89.7844C97.8384 89.1008 99.0521 88.4655 100.458 87.7297C102.009 86.9179 103.233 86.4124 104.202 86.1842C105.553 85.8662 106.445 86.1011 106.855 86.883C107.776 88.6436 104.818 90.4508 102.514 91.6573C101.108 92.3931 99.8945 93.0286 98.8595 93.322C98.4714 93.4318 98.1183 93.4869 97.8009 93.4869ZM105.25 87.1427C104.977 87.1427 104.674 87.1987 104.453 87.251C103.587 87.4549 102.414 87.9425 100.966 88.7006C99.6706 89.3786 98.4468 90.0192 97.7037 90.6307C96.7737 91.3956 96.9781 91.7862 97.0879 91.9959C97.1975 92.2057 97.4021 92.5959 98.5607 92.2675C99.4868 92.0051 100.71 91.3647 102.006 90.6865C106.191 88.4955 105.971 87.5572 105.884 87.3911C105.785 87.203 105.533 87.1427 105.25 87.1427Z" fill="#371A45"/>
<path d="M106.679 108.121C106.979 107.249 104.887 105.741 102.008 104.753C99.1289 103.764 96.5523 103.67 96.253 104.541C95.9538 105.413 98.0452 106.921 100.924 107.909C103.804 108.898 106.38 108.992 106.679 108.121Z" fill="#FFFC35"/>
<path d="M105.13 109.403C103.82 109.403 102.142 108.905 100.748 108.426C97.672 107.371 95.0159 106.459 95.7357 104.362C96.4552 102.266 99.1113 103.177 102.187 104.233C104.647 105.078 107.844 106.418 107.199 108.298C106.919 109.112 106.132 109.403 105.13 109.403ZM97.7392 104.194C97.2264 104.194 96.8982 104.35 96.772 104.718C96.4328 105.707 98.182 106.387 101.103 107.39C105.573 108.924 106.101 108.119 106.162 107.942C106.223 107.765 106.299 106.804 101.831 105.27C99.9965 104.64 98.6049 104.194 97.7392 104.194Z" fill="#390075"/>
<path d="M106.681 108.121C106.262 109.342 103.805 108.897 100.926 107.908C98.0475 106.92 95.7124 106.119 96.2538 104.542C96.4327 104.021 96.8066 103.76 97.3299 103.678C97.1363 105.077 99.3623 105.841 102.068 106.77C103.949 107.416 105.651 107.83 106.722 107.698C106.743 107.839 106.73 107.979 106.681 108.121Z" fill="#FFC136"/>
<path d="M105.13 109.403C103.82 109.403 102.142 108.905 100.748 108.426C97.672 107.371 95.0159 106.459 95.7357 104.362C96.4552 102.266 99.1113 103.177 102.187 104.233C104.647 105.078 107.844 106.418 107.199 108.298C106.919 109.112 106.132 109.403 105.13 109.403ZM97.7392 104.194C97.2264 104.194 96.8982 104.35 96.772 104.718C96.4328 105.707 98.182 106.387 101.103 107.39C105.573 108.924 106.101 108.119 106.162 107.942C106.223 107.765 106.299 106.804 101.831 105.27C99.9965 104.64 98.6049 104.194 97.7392 104.194Z" fill="#371A45"/>
<path d="M94.0346 116.692C96.9436 115.794 99.0815 114.353 98.8098 113.472C98.5381 112.591 95.9597 112.605 93.0507 113.502C90.1417 114.4 88.0037 115.841 88.2754 116.722C88.5471 117.603 91.1256 117.589 94.0346 116.692Z" fill="#E500F6"/>
<path d="M89.8424 118.202C88.7226 118.202 88.0189 117.758 87.7473 116.877C87.4406 115.883 87.9016 115.038 89.1175 114.365C90.0588 113.844 91.368 113.44 92.884 112.972C94.5568 112.456 95.8529 112.182 96.8469 112.134C98.2353 112.068 99.0683 112.461 99.3281 113.304C99.5882 114.147 99.1203 114.943 97.9372 115.668C97.089 116.189 95.8636 116.693 94.1912 117.209C92.6751 117.676 91.3659 118.08 90.2948 118.18C90.1371 118.195 89.9863 118.202 89.8424 118.202ZM97.1405 113.223C97.0545 113.223 96.973 113.225 96.8998 113.229C96.0113 113.272 94.7689 113.538 93.2074 114.019C91.81 114.451 90.4903 114.858 89.6481 115.324C88.5946 115.907 88.7246 116.328 88.7943 116.554C88.864 116.78 88.9948 117.201 90.193 117.089C91.1512 117 92.4709 116.593 93.8681 116.162C95.4298 115.68 96.6059 115.199 97.3642 114.734C97.7595 114.492 98.4042 114.025 98.2811 113.627C98.2811 113.627 98.2811 113.627 98.2811 113.627C98.1775 113.291 97.5977 113.223 97.1405 113.223Z" fill="#390075"/>
<path d="M98.8055 113.466C99.1859 114.699 96.9379 115.787 94.0297 116.684C91.1214 117.582 88.7623 118.309 88.2708 116.716C88.1084 116.19 88.257 115.759 88.6319 115.385C89.2991 116.629 91.5481 115.935 94.2814 115.092C96.1824 114.505 97.8015 113.837 98.5892 113.1C98.6894 113.201 98.7613 113.323 98.8055 113.466Z" fill="#AF00E8"/>
<path d="M89.8424 118.202C88.7226 118.202 88.0189 117.758 87.7473 116.877C87.4406 115.883 87.9016 115.038 89.1175 114.365C90.0588 113.844 91.368 113.44 92.884 112.972C94.5568 112.456 95.8529 112.182 96.8469 112.134C98.2353 112.068 99.0683 112.461 99.3281 113.304C99.5882 114.147 99.1203 114.943 97.9372 115.668C97.089 116.189 95.8636 116.693 94.1912 117.209C92.6751 117.676 91.3659 118.08 90.2948 118.18C90.1371 118.195 89.9863 118.202 89.8424 118.202ZM97.1405 113.223C97.0545 113.223 96.973 113.225 96.8998 113.229C96.0113 113.272 94.7689 113.538 93.2074 114.019C91.81 114.451 90.4903 114.858 89.6481 115.324C88.5946 115.907 88.7246 116.328 88.7943 116.554C88.864 116.78 88.9948 117.201 90.193 117.089C91.1512 117 92.4709 116.593 93.8681 116.162C95.4298 115.68 96.6059 115.199 97.3642 114.734C97.7595 114.492 98.4042 114.025 98.2811 113.627C98.2811 113.627 98.2811 113.627 98.2811 113.627C98.1775 113.291 97.5977 113.223 97.1405 113.223Z" fill="#371A45"/>
<path d="M88.4717 110.384C88.6845 109.487 86.4558 108.19 83.4939 107.488C80.5319 106.785 77.9582 106.942 77.7454 107.839C77.5326 108.735 79.7613 110.032 82.7232 110.735C85.6852 111.438 88.2589 111.281 88.4717 110.384Z" fill="#FFFC35"/>
<path d="M86.4397 111.845C85.2388 111.845 83.814 111.561 82.5949 111.272C81.0502 110.905 79.7173 110.589 78.7439 110.132C77.4863 109.541 76.9704 108.728 77.2106 107.716C77.4508 106.704 78.2756 106.211 79.6662 106.247C80.7412 106.275 82.0744 106.592 83.6177 106.958C86.1497 107.559 89.4616 108.581 89.0029 110.514C88.765 111.516 87.7319 111.845 86.4397 111.845ZM79.5111 107.34C78.4258 107.34 78.3295 107.747 78.2768 107.969C78.222 108.199 78.1204 108.628 79.2098 109.14C80.0806 109.549 81.4243 109.868 82.8468 110.206C87.4443 111.296 87.8933 110.444 87.9366 110.261C87.9798 110.079 87.9625 109.115 83.3656 108.025C81.9423 107.687 80.5986 107.368 79.6366 107.342C79.5935 107.341 79.5516 107.34 79.5111 107.34Z" fill="#390075"/>
<path d="M88.4709 110.387C88.1729 111.643 85.6837 111.439 82.7225 110.737C79.7612 110.034 77.359 109.464 77.744 107.842C77.8712 107.306 78.2179 107.01 78.7308 106.878C78.6745 108.288 80.9645 108.832 83.7476 109.492C85.6833 109.951 87.4175 110.197 88.4702 109.962C88.5052 110.1 88.5055 110.241 88.4709 110.387Z" fill="#FFC136"/>
<path d="M86.4397 111.845C85.2388 111.845 83.814 111.561 82.5949 111.272C81.0502 110.905 79.7173 110.589 78.7439 110.132C77.4863 109.541 76.9704 108.728 77.2106 107.716C77.4508 106.704 78.2756 106.211 79.6662 106.247C80.7412 106.275 82.0744 106.592 83.6177 106.958C86.1497 107.559 89.4616 108.581 89.0029 110.514C88.765 111.516 87.7319 111.845 86.4397 111.845ZM79.5111 107.34C78.4258 107.34 78.3295 107.747 78.2768 107.969C78.222 108.199 78.1204 108.628 79.2098 109.14C80.0806 109.549 81.4243 109.868 82.8468 110.206C87.4443 111.296 87.8933 110.444 87.9366 110.261C87.9798 110.079 87.9625 109.115 83.3656 108.025C81.9423 107.687 80.5986 107.368 79.6366 107.342C79.5935 107.341 79.5516 107.34 79.5111 107.34Z" fill="#371A45"/>
<path d="M70.9139 118.97C73.7772 117.936 75.8447 116.395 75.5317 115.529C75.2187 114.662 72.6438 114.797 69.7805 115.831C66.9171 116.865 64.8497 118.405 65.1627 119.272C65.4756 120.139 68.0506 120.004 70.9139 118.97Z" fill="#35DCFF"/>
<path d="M66.6186 120.679C65.6064 120.679 64.9457 120.267 64.6506 119.449C63.8979 117.365 66.539 116.411 69.5972 115.306C71.2437 114.712 72.5255 114.377 73.516 114.282C74.8974 114.15 75.7503 114.503 76.0499 115.333C76.7246 117.202 73.5499 118.593 71.1031 119.476C69.6109 120.015 68.3222 120.48 67.257 120.631C67.0308 120.663 66.8178 120.679 66.6186 120.679ZM74.055 115.351C73.8987 115.351 73.747 115.36 73.6205 115.373C72.7351 115.457 71.5067 115.782 69.9698 116.337C67.0644 117.386 65.3262 118.094 65.6813 119.077C65.7618 119.3 65.9116 119.714 67.1038 119.546C68.0566 119.411 69.3558 118.942 70.7311 118.445C75.1748 116.841 75.0827 115.881 75.0191 115.705C74.9164 115.42 74.4691 115.351 74.055 115.351Z" fill="#390075"/>
<path d="M75.5352 115.52C75.9734 116.734 73.7794 117.927 70.9168 118.961C68.0541 119.994 65.7321 120.833 65.1658 119.265C64.9787 118.746 65.1068 118.309 65.4635 117.918C66.1888 119.129 68.4025 118.329 71.0929 117.358C72.9641 116.682 74.5498 115.938 75.3018 115.165C75.4067 115.261 75.4843 115.379 75.5352 115.52Z" fill="#1EABF9"/>
<path d="M66.6186 120.679C65.6064 120.679 64.9457 120.267 64.6506 119.449C63.8979 117.365 66.539 116.411 69.5972 115.306C71.2437 114.712 72.5255 114.377 73.516 114.282C74.8974 114.15 75.7503 114.503 76.0499 115.333C76.7246 117.202 73.5499 118.593 71.1031 119.476C69.6109 120.015 68.3222 120.48 67.257 120.631C67.0308 120.663 66.8178 120.679 66.6186 120.679ZM74.055 115.351C73.8987 115.351 73.747 115.36 73.6205 115.373C72.7351 115.457 71.5067 115.782 69.9698 116.337C67.0644 117.386 65.3262 118.094 65.6813 119.077C65.7618 119.3 65.9116 119.714 67.1038 119.546C68.0566 119.411 69.3558 118.942 70.7311 118.445C75.1748 116.841 75.0827 115.881 75.0191 115.705C74.9164 115.42 74.4691 115.351 74.055 115.351Z" fill="#371A45"/>
<path d="M67.2024 110.507C67.434 109.615 65.2332 108.272 62.2868 107.507C59.3403 106.742 56.764 106.845 56.5324 107.737C56.3008 108.629 58.5016 109.972 61.4481 110.737C64.3945 111.502 66.9708 111.399 67.2024 110.507Z" fill="#FFFC35"/>
<path d="M65.3278 111.92C65.3212 111.92 65.3148 111.92 65.3081 111.92C64.3131 111.917 63.0056 111.701 61.3116 111.262C58.1639 110.444 55.4461 109.739 56.0031 107.593C56.56 105.448 59.2775 106.153 62.4241 106.97C64.9436 107.624 68.2332 108.715 67.7341 110.638C67.5135 111.489 66.7038 111.92 65.3278 111.92ZM58.2176 107.263C57.5704 107.263 57.1753 107.439 57.0638 107.869C56.8012 108.881 58.5971 109.425 61.5862 110.201C63.1687 110.612 64.4218 110.821 65.3113 110.824C65.3167 110.824 65.3218 110.824 65.3272 110.824C65.7929 110.824 66.5698 110.763 66.6734 110.363C66.7205 110.182 66.7235 109.218 62.1503 108.031C60.4306 107.585 59.0934 107.263 58.2176 107.263Z" fill="#390075"/>
<path d="M67.2045 110.501C66.8803 111.75 64.396 111.495 61.4501 110.73C58.5042 109.965 56.1145 109.345 56.5334 107.731C56.6719 107.198 57.0247 106.91 57.5402 106.788C57.4543 108.197 59.7324 108.789 62.5011 109.507C64.4267 110.007 66.1553 110.29 67.2128 110.076C67.2448 110.215 67.2422 110.356 67.2045 110.501Z" fill="#FFC136"/>
<path d="M65.3278 111.92C65.3212 111.92 65.3148 111.92 65.3081 111.92C64.3131 111.917 63.0056 111.701 61.3116 111.262C58.1639 110.444 55.4461 109.739 56.0031 107.593C56.56 105.448 59.2775 106.153 62.4241 106.97C64.9436 107.624 68.2332 108.715 67.7341 110.638C67.5135 111.489 66.7038 111.92 65.3278 111.92ZM58.2176 107.263C57.5704 107.263 57.1753 107.439 57.0638 107.869C56.8012 108.881 58.5971 109.425 61.5862 110.201C63.1687 110.612 64.4218 110.821 65.3113 110.824C65.3167 110.824 65.3218 110.824 65.3272 110.824C65.7929 110.824 66.5698 110.763 66.6734 110.363C66.7205 110.182 66.7235 109.218 62.1503 108.031C60.4306 107.585 59.0934 107.263 58.2176 107.263Z" fill="#371A45"/>
<path d="M50.3971 116.803C53.4339 116.592 55.844 115.675 55.78 114.756C55.716 113.836 53.2023 113.262 50.1655 113.474C47.1286 113.685 44.7186 114.601 44.7826 115.521C44.8465 116.44 47.3602 117.014 50.3971 116.803Z" fill="white"/>
<path d="M55.7824 114.753C55.872 116.041 53.4352 116.588 50.3991 116.799C47.3629 117.011 44.9 117.182 44.7842 115.519C44.7459 114.969 44.9888 114.584 45.439 114.305C45.8054 115.668 48.1533 115.505 51.0069 115.306C52.9915 115.168 54.7202 114.886 55.6551 114.348C55.7296 114.469 55.772 114.604 55.7824 114.753Z" fill="#D8D8D8"/>
<path d="M47.733 117.476C45.768 117.476 44.3462 117.113 44.2377 115.555C44.0841 113.344 46.8848 113.149 50.128 112.923C51.8751 112.801 53.1997 112.83 54.1785 113.009C55.5437 113.26 56.2671 113.833 56.3284 114.714C56.3896 115.594 55.7526 116.262 54.4355 116.699C53.491 117.013 52.1831 117.224 50.437 117.346C49.4782 117.412 48.5575 117.476 47.733 117.476ZM52.0406 113.946C51.492 113.946 50.8795 113.969 50.2053 114.016C47.1237 114.231 45.2585 114.436 45.331 115.479C45.4038 116.522 47.2797 116.467 50.3609 116.252C51.9913 116.139 53.246 115.939 54.0901 115.659C54.5304 115.513 55.2642 115.206 55.2351 114.79C55.2063 114.373 54.4368 114.171 53.9807 114.087C53.4677 113.993 52.8185 113.946 52.0406 113.946Z" fill="#371A45"/>
<path d="M46.3765 106.227C49.3394 105.529 51.5699 104.236 51.3585 103.339C51.147 102.442 48.5738 102.281 45.6109 102.979C42.648 103.677 40.4175 104.97 40.6289 105.867C40.8403 106.765 43.4136 106.926 46.3765 106.227Z" fill="#E500F6"/>
<path d="M42.4102 107.476C41.1027 107.476 40.3234 106.98 40.0927 106.001C39.8541 104.989 40.3712 104.177 41.6298 103.588C42.6039 103.132 43.9373 102.818 45.481 102.454C47.1862 102.052 48.4978 101.867 49.493 101.886C50.8807 101.913 51.687 102.362 51.8892 103.221C52.3449 105.155 49.0313 106.172 46.4994 106.769C44.9552 107.133 43.6216 107.447 42.5461 107.474C42.5003 107.475 42.4549 107.476 42.4102 107.476ZM49.352 102.98C48.471 102.98 47.2547 103.162 45.7338 103.52C44.3097 103.856 42.9656 104.172 42.0943 104.58C41.004 105.09 41.1051 105.519 41.1594 105.75C41.2136 105.98 41.3118 106.409 42.5185 106.378C43.4805 106.354 44.8249 106.038 46.2482 105.702C50.8468 104.618 50.8656 103.655 50.8226 103.473C50.7269 103.066 49.935 102.991 49.4714 102.981C49.4324 102.981 49.3924 102.98 49.352 102.98Z" fill="#390075"/>
<path d="M51.356 103.348C51.6519 104.604 49.3354 105.537 46.373 106.235C43.4106 106.933 41.0075 107.499 40.6251 105.876C40.4988 105.34 40.6763 104.92 41.0757 104.573C41.6571 105.859 43.9479 105.319 46.7321 104.663C48.6685 104.207 50.3292 103.65 51.165 102.968C51.258 103.076 51.3216 103.202 51.356 103.348Z" fill="#AF00E8"/>
<path d="M42.4102 107.476C41.1027 107.476 40.3234 106.98 40.0927 106.001C39.8541 104.989 40.3712 104.177 41.6298 103.588C42.6039 103.132 43.9373 102.818 45.481 102.454C47.1862 102.052 48.4978 101.867 49.493 101.886C50.8807 101.913 51.687 102.362 51.8892 103.221C52.3449 105.155 49.0313 106.172 46.4994 106.769C44.9552 107.133 43.6216 107.447 42.5461 107.474C42.5003 107.475 42.4549 107.476 42.4102 107.476ZM49.352 102.98C48.471 102.98 47.2547 103.162 45.7338 103.52C44.3097 103.856 42.9656 104.172 42.0943 104.58C41.004 105.09 41.1051 105.519 41.1594 105.75C41.2136 105.98 41.3118 106.409 42.5185 106.378C43.4805 106.354 44.8249 106.038 46.2482 105.702C50.8468 104.618 50.8656 103.655 50.8226 103.473C50.7269 103.066 49.935 102.991 49.4714 102.981C49.4324 102.981 49.3924 102.98 49.352 102.98Z" fill="#371A45"/>
<path d="M49.135 92.3398C52.0278 91.3918 54.1403 89.9133 53.8533 89.0375C53.5663 88.1617 50.9885 88.2201 48.0957 89.1681C45.2028 90.1161 43.0903 91.5945 43.3773 92.4703C43.6643 93.3462 46.2421 93.2877 49.135 92.3398Z" fill="#35DCFF"/>
<path d="M44.9045 93.9244C43.8266 93.9244 43.1396 93.492 42.8586 92.6351C42.1684 90.5284 44.8369 89.6539 47.9268 88.6413C49.59 88.0962 50.8812 87.7995 51.8741 87.7341C53.2612 87.6435 54.1006 88.0219 54.3756 88.8605C54.9942 90.7484 51.7795 92.0439 49.3075 92.8542C47.7999 93.3482 46.4979 93.775 45.4286 93.8938C45.2448 93.9141 45.0699 93.9244 44.9045 93.9244ZM52.2634 88.8168C52.1493 88.8168 52.0408 88.8213 51.946 88.8275C51.0584 88.8859 49.8209 89.1736 48.2679 89.6828C45.333 90.6446 43.5745 91.3002 43.9001 92.2939C43.9739 92.5189 44.1119 92.9371 45.3077 92.8046C46.2642 92.6984 47.5769 92.2682 48.9663 91.8128C53.4555 90.3413 53.3926 89.3797 53.3342 89.2016C53.231 88.8864 52.7064 88.8168 52.2634 88.8168Z" fill="#390075"/>
<path d="M53.8561 89.0309C54.2579 90.257 52.0293 91.3842 49.1371 92.3321C46.2449 93.28 43.8989 94.0489 43.3796 92.4646C43.2081 91.9411 43.3491 91.5077 43.7174 91.127C44.4063 92.3592 46.6428 91.6262 49.361 90.7353C51.2514 90.1157 52.8587 89.4195 53.6334 88.6687C53.7353 88.7682 53.8093 88.8884 53.8561 89.0309Z" fill="#1EABF9"/>
<path d="M44.9045 93.9244C43.8266 93.9244 43.1396 93.492 42.8586 92.6351C42.1684 90.5284 44.8369 89.6539 47.9268 88.6413C49.59 88.0962 50.8812 87.7995 51.8741 87.7341C53.2612 87.6435 54.1006 88.0219 54.3756 88.8605C54.9942 90.7484 51.7795 92.0439 49.3075 92.8542C47.7999 93.3482 46.4979 93.775 45.4286 93.8938C45.2448 93.9141 45.0699 93.9244 44.9045 93.9244ZM52.2634 88.8168C52.1493 88.8168 52.0408 88.8213 51.946 88.8275C51.0584 88.8859 49.8209 89.1736 48.2679 89.6828C45.333 90.6446 43.5745 91.3002 43.9001 92.2939C43.9739 92.5189 44.1119 92.9371 45.3077 92.8046C46.2642 92.6984 47.5769 92.2682 48.9663 91.8128C53.4555 90.3413 53.3926 89.3797 53.3342 89.2016C53.231 88.8864 52.7064 88.8168 52.2634 88.8168Z" fill="#371A45"/>
<g opacity="0.5">
<path d="M60.924 121.549C60.8471 121.795 63.1949 123.302 65.9015 126.89C68.6793 130.573 74.8978 130.13 74.9441 128.079C74.9973 125.721 72.6476 126.726 70.8021 126.706C68.4619 126.68 67.3177 125.728 65.5068 124.24C63.0923 122.256 61.0008 121.303 60.924 121.549Z" fill="white"/>
</g>
<g opacity="0.5">
<path d="M42.5313 114.751C42.4548 114.996 42.2471 117.638 44.3681 122.261C46.5517 127.022 52.7812 125.19 52.9803 123.471C53.2047 121.532 51.2861 121.957 49.4497 121.92C47.4701 121.879 46.6781 121.641 45.5313 120.634C43.1942 118.582 42.6079 114.506 42.5313 114.751Z" fill="white"/>
</g>
<g opacity="0.5">
<path d="M31.4076 94.4156C31.1697 94.498 29.125 96.3916 28.6592 100.724C28.11 105.833 30.8165 107.957 32.5012 107.746C34.9516 107.439 34.5912 105.422 33.7502 104.801C32.9937 104.243 30.2863 103.58 30.056 100.176C29.7833 96.1442 31.6454 94.3333 31.4076 94.4156Z" fill="white"/>
</g>
<path d="M42.1521 98.3056C42.3866 97.4143 40.1902 96.0637 37.2462 95.289C34.3022 94.5142 31.7254 94.6087 31.4909 95.5C31.2563 96.3913 33.4528 97.7419 36.3968 98.5167C39.3408 99.2914 41.9175 99.1969 42.1521 98.3056Z" fill="#FFFC35"/>
<path d="M40.2601 99.7172C39.0237 99.7172 37.5257 99.3835 36.254 99.049C34.7192 98.6449 33.3943 98.2962 32.4321 97.8153C31.189 97.194 30.6931 96.3689 30.9579 95.363C31.2226 94.3571 32.0597 93.8813 33.4485 93.954C34.5229 94.009 35.8477 94.3577 37.3821 94.7616C39.8982 95.4237 43.1842 96.526 42.6786 98.4473V98.4476C42.4284 99.3976 41.4694 99.7172 40.2601 99.7172ZM33.1676 95.0424C32.1752 95.0424 32.074 95.4281 32.0177 95.6419C31.9573 95.8709 31.8452 96.297 32.922 96.8353C33.7828 97.2655 35.1183 97.617 36.5322 97.9889C41.101 99.1916 41.571 98.3498 41.6188 98.1687C41.6665 97.9877 41.6725 97.0239 37.1034 95.8215C35.6891 95.4493 34.3536 95.0976 33.3924 95.0484C33.313 95.0443 33.238 95.0424 33.1676 95.0424Z" fill="#390075"/>
<path d="M42.1478 98.3086C41.8194 99.5563 39.3359 99.2926 36.3926 98.518C33.4493 97.7434 31.0617 97.115 31.486 95.5027C31.6263 94.9699 31.98 94.6827 32.496 94.563C32.4054 95.9717 34.6814 96.5707 37.4477 97.2987C39.3716 97.8051 41.0993 98.0932 42.1575 97.8834C42.189 98.0223 42.186 98.1634 42.1478 98.3086Z" fill="#FFC136"/>
<path d="M40.2601 99.7172C39.0237 99.7172 37.5257 99.3835 36.254 99.049C34.7192 98.6449 33.3943 98.2962 32.4321 97.8153C31.189 97.194 30.6931 96.3689 30.9579 95.363C31.2226 94.3571 32.0597 93.8813 33.4485 93.954C34.5229 94.009 35.8477 94.3577 37.3821 94.7616C39.8982 95.4237 43.1842 96.526 42.6786 98.4473V98.4476C42.4284 99.3976 41.4694 99.7172 40.2601 99.7172ZM33.1676 95.0424C32.1752 95.0424 32.074 95.4281 32.0177 95.6419C31.9573 95.8709 31.8452 96.297 32.922 96.8353C33.7828 97.2655 35.1183 97.617 36.5322 97.9889C41.101 99.1916 41.571 98.3498 41.6188 98.1687C41.6665 97.9877 41.6725 97.0239 37.1034 95.8215C35.6891 95.4493 34.3536 95.0976 33.3924 95.0484C33.313 95.0443 33.238 95.0424 33.1676 95.0424Z" fill="#371A45"/>
<path d="M87.9283 102.82L61.1718 103.076C55.0393 103.134 49.9739 98.1648 49.9153 92.0323L49.6936 68.8184C49.6351 62.6859 54.6046 57.6205 60.7371 57.5619L87.4936 57.3064C93.6261 57.2479 98.6915 62.2174 98.7501 68.3499L98.9718 91.5638C99.0303 97.6964 94.0608 102.762 87.9283 102.82Z" fill="white"/>
<path d="M87.9283 102.82L61.1718 103.076C55.0393 103.134 49.9739 98.1648 49.9153 92.0323L49.6936 68.8184C49.6351 62.6859 54.6046 57.6205 60.7371 57.5619L87.4936 57.3064C93.6261 57.2479 98.6915 62.2174 98.7501 68.3499L98.9718 91.5638C99.0303 97.6964 94.0608 102.762 87.9283 102.82Z" fill="white"/>
<path d="M87.9283 102.82L61.1718 103.076C55.0393 103.134 49.9739 98.1648 49.9153 92.0323L49.6936 68.8184C49.6351 62.6859 54.6046 57.6205 60.7371 57.5619L87.4936 57.3064C93.6261 57.2479 98.6915 62.2174 98.7501 68.3499L98.9718 91.5638C99.0303 97.6964 94.0608 102.762 87.9283 102.82Z" fill="white"/>
<path d="M98.9718 91.5631C99.0301 97.6954 94.0611 102.762 87.9288 102.82L61.1726 103.076C55.0384 103.134 49.9736 98.1652 49.9154 92.0329L49.6936 68.8174C49.6673 66.0341 50.6765 63.4688 52.3604 61.4936C54.3882 59.1181 57.3876 57.594 60.7366 57.562L87.4928 57.3064C91.0185 57.2726 94.1908 58.9001 96.2637 61.456C97.7954 63.3448 98.7257 65.7428 98.7501 68.3494L98.9718 91.5631Z" fill="white"/>
<path d="M87.6017 57.3057C93.6863 57.3054 98.6929 62.2528 98.7511 68.3498L98.9726 91.5637C99.0313 97.6961 94.0618 102.761 87.9292 102.82L61.1727 103.076C61.1372 103.076 61.101 103.076 61.0655 103.076C54.9809 103.076 49.9744 98.1291 49.9164 92.0321L49.6946 68.8181C49.636 62.6857 54.6055 57.6203 60.738 57.5617L87.4945 57.3062C87.53 57.306 87.5662 57.3057 87.6017 57.3057ZM87.6024 55.7152V57.3058L87.6021 55.7152C87.5612 55.7152 87.5199 55.7154 87.4793 55.7157L60.7228 55.9712C53.6975 56.0384 48.0369 61.8084 48.1041 68.8334L48.3259 92.0474C48.392 99.0058 54.107 104.667 61.0655 104.667C61.1059 104.667 61.1472 104.667 61.1879 104.666L87.9444 104.411C91.3352 104.378 94.5184 103.019 96.9081 100.584C99.2975 98.148 100.596 94.9393 100.563 91.5486L100.342 68.3347C100.275 61.3762 94.5602 55.7152 87.6024 55.7152Z" fill="#371A45"/>
<path d="M56.5398 60.451C54.6866 73.0492 48.8892 95.9426 48.8892 95.9426L61.482 104.979C61.482 104.979 68.5283 107.254 74.3606 107.254H74.2183C80.0505 107.254 87.0968 104.979 87.0968 104.979L99.6897 95.9426C99.6897 95.9426 93.8922 73.0492 92.039 60.451" fill="white"/>
<g opacity="0.2">
<path d="M87.39 96.2304H60.6433C59.452 96.2304 58.4773 95.2557 58.4773 94.0644V85.4729C58.4773 84.2816 59.452 83.3069 60.6433 83.3069H87.39C88.5813 83.3069 89.556 84.2816 89.556 85.4729V94.0644C89.556 95.2557 88.5813 96.2304 87.39 96.2304Z" fill="#371A45"/>
</g>
<path d="M74.3628 108.06L74.2204 108.059C68.3601 108.024 61.5266 105.839 61.2364 105.746L61.1164 105.707L47.9749 96.2769L48.1097 95.7442C48.1677 95.5156 53.9182 72.7461 55.7443 60.3333C55.8091 59.8925 56.2197 59.5884 56.6593 59.6529C57.0999 59.7178 57.4045 60.1274 57.3396 60.5679C55.6586 71.9954 50.6878 92.0838 49.8067 95.6068L61.8492 104.248C62.7828 104.538 69.0752 106.43 74.2917 106.447C79.5136 106.43 85.8008 104.538 86.7338 104.248L98.7765 95.6068C97.8949 92.082 92.9243 71.9947 91.2436 60.5679C91.1788 60.1274 91.4835 59.7178 91.924 59.6529C92.3638 59.5892 92.7741 59.8927 92.8389 60.3333C94.6648 72.7471 100.416 95.5156 100.474 95.7442L100.608 96.2769L87.4667 105.707L87.3466 105.746C87.0564 105.839 80.2231 108.024 74.3628 108.059L74.3628 108.06Z" fill="#371A45"/>
<path d="M63.4378 87.5473C60.5207 88.7737 56.0063 88.5171 52.9285 88.1304C51.0826 87.8984 49.7868 86.1293 50.0588 84.2191C50.3069 82.4759 51.7844 81.2083 53.4792 81.2907C56.358 81.4308 60.676 81.4964 63.4106 80.8665" fill="white"/>
<g opacity="0.35">
<path d="M63.4386 87.5466C60.5216 88.773 56.0052 88.5179 52.9281 88.1298C51.0831 87.8992 49.7869 86.1295 50.0581 84.2178C50.1157 83.812 50.2396 83.4305 50.4211 83.0868C50.9122 84.0315 51.8219 84.7212 52.9281 84.8609C56.0009 85.2468 60.5088 85.504 63.4257 84.2821L63.4386 87.5466Z" fill="#371A45"/>
</g>
<path d="M57.6368 89.2019C55.9486 89.2019 54.2704 89.0572 52.833 88.8766C51.7633 88.7422 50.807 88.1872 50.1403 87.3144C49.4528 86.4142 49.1513 85.2475 49.3126 84.1134C49.617 81.9746 51.421 80.4361 53.514 80.5401C57.7541 80.7465 61.2076 80.6027 63.2399 80.1341C63.6322 80.0438 64.6065 80.0342 65.2021 81.88C65.8861 83.9991 65.7541 87.3886 63.7272 88.2406C62.0165 88.9598 59.8187 89.2019 57.6368 89.2019ZM53.3204 82.0388C52.0614 82.0388 50.9896 83.0017 50.801 84.3253C50.6946 85.0739 50.8842 85.8112 51.3352 86.4018C51.7554 86.9518 52.3538 87.3011 53.0205 87.3848C57.4209 87.9378 61.0161 87.7495 63.1447 86.8546C63.6038 86.6616 63.9267 85.9955 64.031 85.0269C64.1939 83.5143 63.7621 81.9958 63.4394 81.6302C60.6652 82.2366 56.4843 82.1905 53.4409 82.0418C53.4006 82.0399 53.3604 82.0388 53.3204 82.0388Z" fill="#371A45"/>
<path d="M85.7488 87.5473C88.6659 88.7737 93.1803 88.5171 96.258 88.1304C98.104 87.8984 99.3997 86.1293 99.1278 84.2191C98.8797 82.4759 97.4022 81.2083 95.7073 81.2907C92.8285 81.4308 88.5106 81.4964 85.776 80.8665" fill="white"/>
<g opacity="0.35">
<path d="M96.2588 88.13C93.1795 88.5181 88.6652 88.7731 85.7483 87.5467L85.7611 84.289C88.6781 85.5109 93.1838 85.2536 96.2588 84.8677C97.3649 84.728 98.2767 84.0339 98.7678 83.0891C98.9451 83.4307 99.071 83.8121 99.1287 84.2179C99.4 86.1296 98.1038 87.8993 96.2588 88.13Z" fill="#371A45"/>
</g>
<path d="M91.5493 89.2019C89.3673 89.2019 87.1697 88.96 85.4587 88.2407C83.4319 87.3887 83.2998 83.9991 83.9839 81.88C84.5798 80.0336 85.5549 80.0438 85.9459 80.1342C87.9781 80.6023 91.4323 80.7465 95.672 80.5402C97.7684 80.4388 99.5692 81.9746 99.8734 84.1134C100.035 85.2476 99.7332 86.4142 99.0457 87.3144C98.379 88.1874 97.4228 88.7422 96.3532 88.8766C94.916 89.0572 93.2374 89.2019 91.5493 89.2019ZM86.0413 86.8547C88.1696 87.7497 91.7653 87.9374 96.1657 87.3848C96.8322 87.3011 97.4306 86.952 97.8507 86.4018C98.3017 85.8113 98.4913 85.0739 98.385 84.3253C98.1904 82.9596 97.0473 81.9797 95.7451 82.0418C92.7015 82.1903 88.5204 82.2363 85.7466 81.6302C85.4239 81.9958 84.9922 83.5143 85.1551 85.0268C85.2593 85.9955 85.5823 86.6616 86.0413 86.8547Z" fill="#371A45"/>
<path d="M86.8768 78.659V89.366C86.8768 91.353 85.3116 92.9786 83.4003 92.9786H64.4144C62.5011 92.9786 60.938 91.353 60.938 89.366V78.659C60.938 76.6741 62.5011 75.0486 64.4144 75.0486H83.4003C84.9271 75.0486 86.2341 76.0865 86.6974 77.5169C86.8127 77.8761 86.8768 78.2598 86.8768 78.659Z" fill="white"/>
<g opacity="0.3">
<path d="M86.8768 78.6587V89.3657C86.8768 91.3527 85.3116 92.9783 83.4003 92.9783H64.4144C62.5011 92.9783 60.938 91.3527 60.938 89.3657V85.762C64.2137 87.6448 70.7032 90.4724 77.2162 88.1393C80.3979 86.9987 84.0459 83.0899 84.0459 83.0899C84.0459 83.0899 84.1864 87.1913 84.7723 87.1265C86.4015 86.9466 86.3894 78.6482 86.6974 77.5166C86.8127 77.8758 86.8768 78.2595 86.8768 78.6587Z" fill="#371A45"/>
</g>
<path d="M83.3318 93.7285H64.4781C62.1101 93.7285 60.1836 91.802 60.1836 89.434V78.5909C60.1836 76.2229 62.1101 74.2963 64.4781 74.2963H83.3318C85.7 74.2963 87.6265 76.2229 87.6265 78.5909V89.434C87.6265 91.802 85.7 93.7285 83.3318 93.7285ZM64.4781 75.7998C62.939 75.7998 61.6869 77.0518 61.6869 78.5909V89.434C61.6869 90.9731 62.939 92.2252 64.4781 92.2252H83.3318C84.8709 92.2252 86.1232 90.9731 86.1232 89.434V78.5909C86.1232 77.0519 84.8709 75.7998 83.3318 75.7998H64.4781Z" fill="#371A45"/>
<path d="M80.6312 87.1259C82.2871 87.1259 83.6294 85.7319 83.6294 84.0122C83.6294 82.2926 82.2871 80.8986 80.6312 80.8986C78.9754 80.8986 77.6331 82.2926 77.6331 84.0122C77.6331 85.7319 78.9754 87.1259 80.6312 87.1259Z" fill="#22A7F0"/>
<path d="M83.6298 84.0134C83.6298 84.2255 83.6102 84.4315 83.5709 84.6315C83.2939 83.2055 82.082 82.1326 80.6304 82.1326C79.1789 82.1326 77.9669 83.2055 77.692 84.6315C77.6527 84.4315 77.6331 84.2255 77.6331 84.0134C77.6331 82.2937 78.9746 80.8984 80.6305 80.8984C82.2863 80.8984 83.6298 82.2938 83.6298 84.0134Z" fill="white"/>
<g opacity="0.35">
<path d="M83.6293 84.0119C83.6293 85.7328 82.2861 87.1255 80.6312 87.1255C78.9762 87.1255 77.6331 85.7328 77.6331 84.0119C77.6331 83.7235 77.6715 83.4419 77.742 83.178C78.0943 84.4908 79.256 85.4555 80.6312 85.4555C82.0064 85.4555 83.168 84.4908 83.5204 83.178C83.5908 83.4419 83.6293 83.7235 83.6293 84.0119Z" fill="#371A45"/>
</g>
<path d="M80.6329 87.6904C78.6687 87.6904 77.0708 86.0406 77.0708 84.013C77.0708 81.9853 78.6687 80.3356 80.6329 80.3356C82.597 80.3356 84.1948 81.9853 84.1948 84.013C84.1948 86.0406 82.597 87.6904 80.6329 87.6904ZM80.6329 81.463C79.2905 81.463 78.1983 82.607 78.1983 84.013C78.1983 85.4189 79.2905 86.5629 80.6329 86.5629C81.9753 86.5629 83.0672 85.4189 83.0672 84.013C83.0672 82.607 81.9753 81.463 80.6329 81.463Z" fill="#371A45"/>
<path d="M72.1344 93.7285C71.7192 93.7285 71.3827 93.3921 71.3827 92.9769V87.4969C71.3827 86.3773 70.871 85.3087 70.0138 84.6386L69.5318 84.2616C68.3131 83.309 67.5857 81.7977 67.5857 80.2191V75.048C67.5857 74.6328 67.9222 74.2963 68.3373 74.2963C68.7526 74.2963 69.089 74.6328 69.089 75.048V80.2191C69.089 81.3386 69.6007 82.4071 70.4577 83.0772L70.9399 83.4541C72.1586 84.4072 72.8861 85.9184 72.8861 87.4969V92.9768C72.8861 93.3921 72.5496 93.7285 72.1344 93.7285Z" fill="#371A45"/>
<g opacity="0.2">
<path d="M66.2673 88.2367V88.3623H65.9062C66.0284 88.3234 66.1487 88.2809 66.2673 88.2367Z" fill="#390075"/>
</g>
<path d="M57.4719 82.89C57.4719 84.8972 58.2859 86.7129 59.5998 88.0288C60.9156 89.3426 62.7313 90.1566 64.7385 90.1566H71.7063L69.2222 75.6234H64.7385C60.726 75.6234 57.4719 78.8775 57.4719 82.89ZM59.603 82.89C59.603 80.4634 62.3137 78.4964 64.7385 78.4964H66.7993L68.3009 87.2837H64.7385C63.5261 87.2837 62.4287 86.7915 61.6319 85.9966C60.8371 85.2017 59.603 84.1043 59.603 82.89Z" fill="#00CC0A"/>
<g opacity="0.2">
<path d="M57.4722 82.8894C57.4722 84.8979 58.2861 86.7134 59.5992 88.0282C60.9157 89.3429 62.7312 90.1569 64.7379 90.1569H71.7063L71.4745 88.7997H64.7379C62.7312 88.7997 60.9157 87.9857 59.5992 86.6709C58.4366 85.5066 57.6651 83.9476 57.504 82.2117C57.4828 82.4347 57.4722 82.6612 57.4722 82.8894ZM68.0699 85.9259H68.3017L66.7994 77.1384H64.7379C62.3136 77.1384 61.2448 78.4235 59.8064 80.912C59.6903 81.1127 59.5677 81.9905 59.6031 82.2117C59.9286 80.1077 62.5436 78.4975 64.7379 78.4975H66.7994L68.0699 85.9259Z" fill="#371A45"/>
</g>
<path d="M72.4986 90.8221H64.7411C62.6239 90.8221 60.6318 89.9972 59.1316 88.4993C57.6332 86.9989 56.8083 85.0067 56.8083 82.8894C56.8083 78.5153 60.367 74.9565 64.7411 74.9565H69.7868L72.4986 90.8221ZM64.7411 76.2888C61.1016 76.2888 58.1405 79.2499 58.1405 82.8894C58.1405 84.6513 58.8271 86.3091 60.0736 87.5573C61.3216 88.8034 62.9795 89.49 64.7411 89.49H70.919L68.6627 76.2888H64.7411ZM69.093 87.949H64.7411C62.4091 87.949 58.9395 86.6017 58.9395 82.8894C58.9395 79.7222 61.8892 77.8295 64.7411 77.8295H67.3638L69.093 87.949ZM64.7411 79.1617C62.5745 79.1617 60.2715 80.4683 60.2715 82.8894C60.2715 86.5741 64.6963 86.6169 64.7411 86.6169H67.5138L66.2397 79.1617H64.7411Z" fill="#371A45"/>
<path d="M83.0857 79.0118C83.0857 82.778 82.2513 86.4934 80.6444 89.895C80.5636 90.066 80.4734 90.2314 80.3757 90.3912C79.6428 91.5601 78.4325 92.3701 77.0474 92.5506C76.1848 92.6633 75.3165 92.7197 74.4464 92.7197C73.5781 92.7197 72.7098 92.6633 71.8453 92.5506C70.2798 92.3476 68.9324 91.3402 68.2576 89.9119C68.1468 89.677 68.0377 89.4402 67.9344 89.2016C66.3201 85.5011 65.6003 81.453 65.8558 77.3899L65.8615 77.2978L66.1152 73.3136C66.1152 74.1818 69.8457 74.8866 74.4463 74.8866C79.0488 74.8866 82.7774 74.1818 82.7774 73.3136L83.0349 77.3899C83.0406 77.482 83.0462 77.5722 83.0499 77.6643C83.0744 78.1134 83.0857 78.5626 83.0857 79.0118Z" fill="#00CC0A"/>
<path d="M75.482 83.5889C75.2119 83.0483 74.8063 82.6166 74.3854 82.192C74.1643 81.9695 73.9696 81.7348 73.8062 81.4849C73.5836 81.1447 73.4192 80.7773 73.3286 80.3769C73.3055 80.2768 73.287 80.174 73.2744 80.0696C73.2561 79.9308 73.2467 79.7891 73.2463 79.6433C73.2457 79.4906 73.2897 79.4223 73.4418 79.3897C73.7219 79.3295 73.9913 79.3334 74.2495 79.3946C74.2499 79.3949 74.2499 79.3949 74.2499 79.3949C74.4394 79.4393 74.6229 79.5155 74.8001 79.6194C76.0996 80.3812 76.8836 82.1203 76.5932 83.5998C76.489 84.1323 76.2793 84.6148 75.8068 84.9711C75.8122 84.4681 75.6959 84.0167 75.482 83.5889Z" fill="#FCF7FB"/>
<path d="M72.6303 79.7828C72.644 80.4929 72.8353 81.1053 73.1554 81.6499C73.4082 82.0807 73.7418 82.4688 74.1304 82.8296C74.3312 83.0157 74.5021 83.2316 74.6563 83.4593C74.9932 83.9572 75.208 84.4937 75.1948 85.1088C75.1913 85.2727 75.1308 85.3442 74.9746 85.3779C74.4804 85.4849 74.0192 85.3914 73.5929 85.1425C72.7248 84.6346 72.1001 83.6815 71.8677 82.6615C71.7531 82.1604 71.7331 81.6428 71.8261 81.1538C71.8266 81.1494 71.8271 81.1451 71.8284 81.1407C71.8487 81.0342 71.8748 80.9292 71.9061 80.8261C72.0308 80.4175 72.2424 80.0557 72.6303 79.7828Z" fill="#FCF7FB"/>
<g opacity="0.7">
<path d="M83.0832 79.0104C83.0832 82.7779 82.2485 86.4941 80.6424 89.8948C80.3784 90.4536 80.0133 90.949 79.5711 91.3569C81.0503 88.071 81.8182 84.5057 81.8182 80.8941C81.8182 80.3525 81.8028 79.8143 81.7685 79.2743L81.6263 77.0392C81.58 76.2918 80.8738 75.7553 80.1436 75.9233C78.4381 76.3175 75.4932 76.4598 73.4038 76.1238C71.4241 75.805 69.5471 75.1125 67.9033 74.288C69.4306 74.6514 71.7926 74.8863 74.4442 74.8863C79.0465 74.8863 82.7764 74.1818 82.7764 73.3127L83.0335 77.3906C83.0678 77.9322 83.0832 78.4705 83.0832 79.0104Z" fill="white"/>
</g>
<g opacity="0.2">
<path d="M81.1344 89.0563C81.095 89.1427 81.0517 89.2254 81.0066 89.3081C81.0217 89.2855 81.0348 89.263 81.0461 89.2423C81.0423 89.2499 81.0386 89.2555 81.0367 89.263C80.3958 90.5879 79.1198 91.4957 77.6633 91.6949C76.7574 91.8189 75.8478 91.8809 74.9363 91.8809C74.0267 91.8809 73.1171 91.8189 72.2132 91.6949C70.7247 91.4919 69.4505 90.5409 68.8021 89.1878C68.6706 88.9153 68.5447 88.6391 68.4244 88.3628C68.3267 88.1391 68.2327 87.9155 68.1425 87.6899C68.0786 87.5339 68.0185 87.378 67.9583 87.2201C67.7159 86.583 67.4998 85.9346 67.3099 85.2806C67.278 85.1754 67.2498 85.0701 67.2197 84.9649C67.1915 84.8596 67.1615 84.7544 67.1352 84.6492C67.0468 84.3109 66.9641 83.9726 66.889 83.6305C66.8476 83.4388 66.8063 83.2452 66.7687 83.0517C66.7273 82.843 66.6897 82.6325 66.6541 82.4221C66.6541 82.4183 66.6522 82.4126 66.6522 82.407C66.6184 82.2078 66.5864 82.0086 66.5582 81.8094C66.5544 81.7793 66.5488 81.7492 66.545 81.7192C66.5169 81.5162 66.4906 81.3132 66.4661 81.1083C66.4286 80.7832 66.3966 80.4562 66.3722 80.1292C66.3628 80.0221 66.3552 79.9149 66.3478 79.8078V79.7852C66.3403 79.6838 66.3346 79.5804 66.3289 79.4771C66.3233 79.3474 66.3177 79.2196 66.312 79.0918C66.3045 78.9019 66.3008 78.7121 66.297 78.5204C66.2895 77.8646 66.3045 77.2087 66.3459 76.5509L66.3515 76.4588L66.6071 72.4746C66.6071 72.7245 66.9172 72.9613 67.4735 73.1737L67.3814 74.6246C67.3382 75.3105 67.3231 75.9965 67.3344 76.6806C71.0837 77.9623 71.8185 83.668 69.8696 86.8422C71.2547 88.7516 73.4893 89.9469 75.9211 89.9525H75.9719C77.0843 89.9525 78.1977 89.8594 79.2988 89.6746C79.7431 89.6 79.866 89.0259 79.498 88.766C79.4947 88.7637 79.4914 88.7614 79.4882 88.7591C75.7727 86.1111 76.3948 77.25 82.0534 76.9305C82.5515 76.9023 83.0476 76.8685 83.54 76.8252C83.5645 77.2744 83.5757 77.7236 83.5757 78.1728C83.5757 81.9392 82.7413 85.6546 81.1344 89.0563Z" fill="#371A45"/>
</g>
<path d="M66.1165 73.3124C66.1165 74.181 69.846 74.8847 74.4463 74.8847C79.0489 74.8847 82.7784 74.181 82.7784 73.3124C82.7784 72.4438 79.0489 71.7379 74.4463 71.7379C69.846 71.7379 66.1165 72.4438 66.1165 73.3124Z" fill="white"/>
<path d="M66.1165 73.3115C66.1165 73.5988 66.5225 73.867 67.2312 74.0987C68.6715 74.568 71.3624 74.884 74.4461 74.884C77.5297 74.884 80.2226 74.568 81.6648 74.0987C82.3734 73.867 82.7795 73.5988 82.7795 73.3115C82.7795 72.4439 79.0485 71.7372 74.446 71.7372C69.8455 71.7372 66.1165 72.4439 66.1165 73.3115Z" fill="white"/>
<path d="M67.3459 74.2636C68.7863 74.7329 71.4772 75.0489 74.5608 75.0489C77.6445 75.0489 80.3374 74.7329 81.7796 74.2636C80.3373 73.7925 77.6444 73.4764 74.5608 73.4764C71.4772 73.4764 68.7862 73.7925 67.3459 74.2636Z" fill="#93603E"/>
<path d="M74.4454 93.3854C73.514 93.3854 72.5725 93.3218 71.6474 93.196C69.9346 92.9631 68.4601 91.88 67.7034 90.2985C65.7782 86.2769 64.9097 81.7986 65.1913 77.3478L65.4507 73.2707L66.7815 73.313C66.7815 73.2153 66.7423 73.1483 66.7286 73.1326C67.0495 73.4996 69.7218 74.2192 74.4454 74.2192C79.1705 74.2192 81.8435 73.4996 82.1644 73.1326C82.1506 73.1483 82.1115 73.2153 82.1115 73.313L83.4423 73.271L83.6996 77.3481C83.7345 77.8851 83.7514 78.4293 83.7514 79.0107C83.7514 82.9224 82.8533 86.8516 81.1539 90.3734C80.4132 91.9084 78.9529 92.9636 77.2473 93.1958C76.3224 93.3216 75.3797 93.3854 74.4454 93.3854ZM66.7 74.6173L66.5208 77.4324C66.2535 81.6562 67.0779 85.9064 68.9049 89.7232C69.4678 90.8988 70.56 91.7036 71.8268 91.8758C73.5615 92.1117 75.3392 92.1106 77.0675 91.8756C78.329 91.704 79.4081 90.9258 79.9541 89.7942C81.5668 86.4519 82.4193 82.7232 82.4193 79.0106C82.4193 78.4584 82.403 77.9424 82.37 77.4332L82.1924 74.6175C81.7442 74.7934 81.1702 74.9457 80.4609 75.0795C78.848 75.384 76.7115 75.5515 74.4454 75.5515C72.1801 75.5515 70.0444 75.384 68.4319 75.0795C67.7224 74.9456 67.1482 74.7933 66.7 74.6173Z" fill="#371A45"/>
<path d="M74.4455 75.552C72.1802 75.552 70.0444 75.3844 68.4317 75.0799C66.3691 74.6907 65.4495 74.1459 65.4495 73.3134C65.4495 72.481 66.3691 71.9359 68.4315 71.5459C70.045 71.2408 72.1808 71.0728 74.4455 71.0728C76.711 71.0728 78.8474 71.2408 80.4611 71.5459C82.524 71.9358 83.4436 72.481 83.4436 73.3134C83.4436 74.1459 82.5237 74.6907 80.4609 75.0799C78.848 75.3844 76.7116 75.552 74.4455 75.552ZM67.0191 73.3132C67.8746 73.6951 70.4123 74.2196 74.4455 74.2196C78.4799 74.2196 81.0183 73.6951 81.874 73.3132C81.0183 72.9307 78.4797 72.4051 74.4455 72.4051C70.4125 72.4051 67.8746 72.9307 67.0191 73.3132Z" fill="#371A45"/>
<path d="M91.8751 69.623C93.6606 74.8839 88.4777 75.7788 83.368 76.0663C77.7089 76.3848 77.0869 85.2471 80.804 87.8937C85.8417 91.4806 100.431 91.8712 101.964 82.8889C103.338 74.8378 94.5919 62.2806 89.7609 59.7339L82.0688 58.5778" fill="white"/>
<g opacity="0.2">
<path d="M101.964 82.8902C100.432 91.8717 85.8428 91.4807 80.8042 87.895C79.25 86.788 78.4531 84.5929 78.4682 82.3903C78.7595 82.7812 79.0978 83.1195 79.4812 83.3939C84.5178 86.9816 99.1072 87.3725 100.641 78.3892C100.872 77.038 100.817 75.5608 100.543 74.0254C101.776 77.1244 102.415 80.2498 101.964 82.8902Z" fill="#371A45"/>
</g>
<path d="M92.2588 69.4943C92.4752 69.8824 92.649 70.3013 92.7662 70.7513C92.8843 71.2003 92.9457 71.6837 92.9092 72.1857C92.8893 72.4359 92.847 72.6897 92.7781 72.9403C92.7069 73.1902 92.6052 73.4342 92.4816 73.6659C92.2366 74.1333 91.8818 74.5286 91.5007 74.8517C90.7253 75.495 89.8453 75.8599 88.9842 76.1136C88.1186 76.3666 87.2527 76.5066 86.3962 76.617C85.5392 76.7285 84.6872 76.79 83.8409 76.8467C83.3885 76.8744 83.0665 76.8852 82.7214 76.9683C82.3824 77.0449 82.0573 77.1618 81.7568 77.3262C80.538 77.9696 79.7505 79.343 79.4456 80.812C79.1375 82.2856 79.2475 83.8942 79.8042 85.2665C80.0843 85.9483 80.4833 86.567 80.9967 87.0177C81.2413 87.232 81.5652 87.4414 81.8949 87.6309C82.2265 87.8196 82.5762 87.989 82.9363 88.1422C84.3812 88.7541 85.9681 89.1157 87.5627 89.3111C89.1611 89.5016 90.7859 89.5163 92.3771 89.3319C93.9651 89.1454 95.5301 88.7571 96.9316 88.0804C98.3319 87.4106 99.5461 86.4157 100.308 85.134C100.688 84.4942 100.957 83.7908 101.113 83.0518C101.267 82.3118 101.323 81.5317 101.297 80.7493C101.248 79.1799 100.907 77.5952 100.419 76.0556C99.9247 74.5147 99.2814 73.0103 98.5369 71.5552C97.7937 70.0991 96.9482 68.6905 96.0241 67.3382C95.0974 65.9883 94.0911 64.6907 92.9926 63.4931C92.4423 62.8966 91.8707 62.3218 91.269 61.7985C90.669 61.2773 90.0353 60.7949 89.3871 60.4483L89.3869 60.4481L89.643 60.5322L81.9511 59.3761C81.5107 59.3099 81.2074 58.8993 81.2737 58.459C81.3398 58.0186 81.7504 57.7153 82.1908 57.7815L89.8827 58.9377L90.0247 58.959L90.1389 59.0217L90.1391 59.0219C90.9663 59.4662 91.6664 60.0105 92.3284 60.5829C92.9883 61.1571 93.5968 61.7702 94.18 62.4021C95.3419 63.6691 96.389 65.0212 97.3545 66.4271C98.3167 67.8352 99.1958 69.2995 99.9728 70.8215C100.751 72.3426 101.428 73.9222 101.955 75.5657C102.475 77.2096 102.852 78.9246 102.909 80.7016C102.937 81.5891 102.877 82.4891 102.69 83.3861C102.502 84.2832 102.167 85.1617 101.693 85.9597C101.216 86.7562 100.605 87.4683 99.9085 88.0618C99.2126 88.6572 98.4401 89.1426 97.6347 89.5315C96.0199 90.3096 94.2913 90.7293 92.564 90.9336C90.8331 91.1337 89.0915 91.1169 87.3704 90.9122C85.6508 90.6997 83.9427 90.3174 82.3046 89.6259C81.8956 89.4518 81.4916 89.2568 81.0966 89.032C80.7033 88.8041 80.3175 88.5631 79.9311 88.2281C79.1856 87.5706 78.6667 86.7388 78.3124 85.8788C77.9579 85.0146 77.7648 84.1093 77.6932 83.2009C77.6234 82.2919 77.6794 81.3758 77.8681 80.4774C78.0603 79.5811 78.3854 78.6965 78.8979 77.8932C79.4038 77.0914 80.1174 76.3741 80.9913 75.907C81.4248 75.6705 81.8935 75.5016 82.3696 75.3946C82.8394 75.28 83.3581 75.2607 83.7387 75.2375C84.5607 75.1881 85.3757 75.1075 86.1755 74.9942C86.9746 74.8791 87.7582 74.714 88.495 74.4876C89.2286 74.2591 89.9218 73.9652 90.4563 73.5595C90.9961 73.1551 91.3356 72.6465 91.4918 71.9908C91.6533 71.3335 91.5978 70.5573 91.4952 69.7535L91.4942 69.7458C91.4655 69.5213 91.6244 69.3161 91.8489 69.2874C92.0196 69.2655 92.1795 69.353 92.2588 69.4943Z" fill="#371A45"/>
<path d="M99.6894 87.72C99.6132 87.72 99.5355 87.7039 99.4617 87.6701C99.1867 87.544 99.0658 87.2187 99.1916 86.9437C101.095 82.7875 99.7763 79.817 98.3349 78.0568C96.2624 75.5264 92.9469 74.2788 91.1456 74.7024C90.8511 74.772 90.556 74.5891 90.4869 74.2945C90.4175 73.9999 90.6001 73.705 90.8948 73.6356C93.0056 73.1393 96.775 74.4225 99.1826 77.3625C101.5 80.1915 101.857 83.7564 100.188 87.4C100.096 87.6012 99.8972 87.72 99.6894 87.72Z" fill="#371A45"/>
<path d="M56.5674 69.623C54.7819 74.8839 59.9648 75.7788 65.0744 76.0663C70.7335 76.3848 71.3555 85.2471 67.6385 87.8937C62.6007 91.4806 48.0113 91.8712 46.4786 82.8889C45.1048 74.8378 53.8505 62.2806 58.6816 59.7339L66.3736 58.5778" fill="white"/>
<g opacity="0.2">
<path d="M46.4792 82.8902C48.0109 91.8717 62.6002 91.4807 67.6387 87.895C69.193 86.788 69.9898 84.5929 69.9748 82.3903C69.6835 82.7812 69.3452 83.1195 68.9618 83.3939C63.9252 86.9816 49.3358 87.3725 47.8023 78.3892C47.5711 77.038 47.6256 75.5608 47.9 74.0254C46.6671 77.1244 46.0281 80.2498 46.4792 82.8902Z" fill="#371A45"/>
</g>
<path d="M48.8862 87.7202C48.6784 87.7202 48.4798 87.6014 48.3875 87.4002C46.719 83.7566 47.076 80.1917 49.393 77.3627C51.8004 74.4228 55.5686 73.1385 57.6808 73.6358C57.9755 73.7052 58.1581 74.0001 58.0888 74.2947C58.0194 74.5892 57.7243 74.7715 57.43 74.7026C55.6309 74.279 52.3133 75.5264 50.2408 78.057C48.7993 79.8172 47.4805 82.7877 49.384 86.9439C49.5099 87.2189 49.3889 87.5442 49.1139 87.6703C49.0401 87.7041 48.9624 87.7202 48.8862 87.7202Z" fill="#371A45"/>
<path d="M56.9484 69.7535C56.8457 70.5573 56.7902 71.3335 56.9517 71.9908C57.1078 72.6465 57.4475 73.1551 57.9872 73.5595C58.5216 73.9652 59.2149 74.2591 59.9485 74.4876C60.6854 74.714 61.4688 74.8791 62.268 74.9942C63.0678 75.1076 63.8827 75.1881 64.7048 75.2375C65.0855 75.2608 65.604 75.28 66.0739 75.3946C66.55 75.5016 67.0187 75.6705 67.4523 75.907C68.3262 76.3741 69.0397 77.0914 69.5457 77.8932C70.0582 78.6966 70.3831 79.5811 70.5755 80.4774C70.7641 81.3758 70.8201 82.2919 70.7503 83.2009C70.6788 84.1093 70.4857 85.0146 70.1311 85.8788C69.7768 86.7388 69.2579 87.5706 68.5124 88.2281C68.126 88.5631 67.7402 88.8041 67.347 89.032C66.952 89.2568 66.5479 89.4518 66.139 89.6259C64.5008 90.3174 62.7928 90.6997 61.0732 90.9122C59.3521 91.1169 57.6103 91.1337 55.8796 90.9336C54.1522 90.7293 52.4236 90.3097 50.8088 89.5315C50.0034 89.1426 49.231 88.6572 48.5351 88.0618C47.8388 87.4682 47.2274 86.7563 46.7507 85.9597C46.2761 85.1617 45.9417 84.2832 45.7536 83.3861C45.5665 82.4891 45.5061 81.5891 45.5345 80.7016C45.5913 78.9246 45.968 77.2095 46.4882 75.5657C47.0157 73.9222 47.6929 72.3426 48.4707 70.8215C49.2477 69.2994 50.1269 67.8352 51.089 66.4271C52.0545 65.0212 53.1017 63.6692 54.2636 62.4021C54.8467 61.7702 55.4553 61.1571 56.1151 60.5829C56.7771 60.0105 57.4772 59.4662 58.3043 59.0219L58.3046 59.0217L58.4187 58.959L58.5608 58.9377L66.2528 57.7815C66.6931 57.7153 67.1037 58.0187 67.1699 58.459C67.2361 58.8993 66.9328 59.3099 66.4925 59.3761L58.8006 60.5322L59.0566 60.4482L59.0564 60.4483C58.4082 60.7949 57.7744 61.2773 57.1746 61.7985C56.5728 62.3218 56.0013 62.8966 55.4509 63.4931C54.3523 64.6907 53.3461 65.9883 52.4194 67.3382C51.4952 68.6905 50.6498 70.0991 49.9065 71.5552C49.1621 73.0104 48.5189 74.5147 48.0244 76.0556C47.5362 77.5952 47.1952 79.1799 47.1462 80.7493C47.1203 81.5318 47.1766 82.3118 47.331 83.0518C47.4862 83.7908 47.7561 84.4942 48.1358 85.134C48.8975 86.4157 50.1117 87.4106 51.512 88.0804C52.9135 88.7571 54.4785 89.1454 56.0665 89.3319C57.6577 89.5163 59.2825 89.5016 60.8808 89.3111C62.4755 89.1157 64.0623 88.7541 65.5073 88.1422C65.8673 87.9891 66.2171 87.8196 66.5486 87.6309C66.8784 87.4414 67.2023 87.2321 67.4469 87.0177C67.9602 86.567 68.3593 85.9484 68.6394 85.2664C69.196 83.8943 69.3061 82.2856 68.998 80.812C68.6931 79.343 67.9056 77.9696 66.6868 77.3262C66.3863 77.1618 66.0612 77.0449 65.7222 76.9683C65.3772 76.8852 65.0552 76.8744 64.6027 76.8467C63.7564 76.79 62.9044 76.7285 62.0474 76.617C61.1908 76.5066 60.3249 76.3667 59.4594 76.1136C58.5983 75.8599 57.7182 75.4951 56.9429 74.8517C56.5617 74.5286 56.207 74.1333 55.962 73.6659C55.8383 73.4342 55.7366 73.1902 55.6655 72.9403C55.5966 72.6896 55.5542 72.4359 55.5344 72.1857C55.4979 71.6837 55.5592 71.2003 55.6774 70.7513C55.7945 70.3012 55.9683 69.8824 56.1846 69.4943C56.2949 69.2966 56.5445 69.2257 56.7422 69.3359C56.8924 69.4197 56.9695 69.5839 56.9494 69.7447L56.9484 69.7535Z" fill="#371A45"/>
<g opacity="0.3">
<path d="M96.2635 61.456C90.5465 67.1561 82.627 70.6404 73.9143 70.5351C65.4949 70.4336 57.8966 66.9944 52.3601 61.4936C54.3879 59.1181 57.3873 57.594 60.7363 57.562L87.4925 57.3064C91.0182 57.2726 94.1906 58.9001 96.2635 61.456Z" fill="#371A45"/>
</g>
<path d="M105.046 40.9825C104.699 41.0305 104.379 40.7882 104.331 40.4414L101.828 22.3516C101.78 22.0048 102.022 21.6847 102.369 21.6367C106.008 21.1333 109.366 23.6749 109.869 27.3137L110.723 33.4823C111.226 37.1211 108.684 40.4791 105.046 40.9825Z" fill="white"/>
<path d="M104.957 41.1328C104.575 41.1328 104.24 40.85 104.186 40.4605L101.683 22.3709C101.625 21.9454 101.923 21.5515 102.348 21.4926C104.146 21.2441 105.934 21.7102 107.381 22.8058C108.829 23.9014 109.763 25.4951 110.011 27.2933L110.865 33.4619C111.114 35.2601 110.647 37.0475 109.552 38.495C108.456 39.9424 106.862 40.8766 105.064 41.1254C105.028 41.1304 104.993 41.1328 104.957 41.1328ZM103.293 21.7171C102.993 21.7171 102.69 21.7377 102.388 21.7797C102.121 21.8166 101.933 22.064 101.97 22.3312L104.473 40.421C104.51 40.6882 104.76 40.8757 105.025 40.8384C106.746 40.6002 108.272 39.7059 109.321 38.3202C110.37 36.9345 110.816 35.2232 110.578 33.5017L109.725 27.3329C109.486 25.6114 108.592 24.0857 107.206 23.0367C106.064 22.1723 104.701 21.7171 103.293 21.7171Z" fill="#371A45"/>
<g opacity="0.2">
<path d="M110.322 30.589L110.723 33.482C111.225 37.1196 108.684 40.4781 105.045 40.983C104.698 41.0314 104.378 40.7872 104.33 40.4405L103.663 35.6318C103.79 35.8376 104.031 35.9586 104.286 35.9253L104.714 35.8648C107.59 35.4676 109.782 33.2858 110.322 30.589Z" fill="#371A45"/>
</g>
<path d="M104.957 41.7938C104.25 41.7938 103.631 41.2707 103.532 40.5508L101.029 22.4611C100.92 21.6744 101.471 20.9458 102.258 20.8371C104.232 20.5645 106.193 21.0757 107.781 22.278C109.369 23.4803 110.394 25.2291 110.667 27.2023L111.521 33.3709C111.794 35.344 111.282 37.3054 110.08 38.8937C108.877 40.482 107.129 41.507 105.156 41.7801C105.089 41.7893 105.023 41.7938 104.957 41.7938ZM104.936 40.1827C104.935 40.1827 104.935 40.1828 104.935 40.1828C104.935 40.1828 104.935 40.1827 104.936 40.1827ZM102.65 22.4131L105.105 40.1568C106.582 39.909 107.887 39.1195 108.794 37.9205C109.736 36.6756 110.137 35.1383 109.923 33.5918L109.07 27.4231C108.856 25.8766 108.053 24.5059 106.808 23.5637C105.609 22.6562 104.14 22.2504 102.65 22.4131Z" fill="#371A45"/>
<path d="M42.6597 29.898C43.0066 29.85 43.3267 30.0923 43.3747 30.4391L45.8775 48.5289C45.9255 48.8758 45.6832 49.1958 45.3364 49.2438C41.6976 49.7472 38.3397 47.2056 37.8362 43.5668L36.9828 37.3982C36.4793 33.7594 39.021 30.4015 42.6597 29.898Z" fill="white"/>
<path d="M44.4199 49.4517C41.0821 49.4517 38.1624 46.9839 37.6924 43.5863L36.8389 37.4178C36.3252 33.7057 38.9273 30.2679 42.6394 29.7542C42.8451 29.726 43.0504 29.7792 43.2162 29.9047C43.3821 30.0303 43.4891 30.2129 43.5176 30.419L46.0204 48.5087C46.0793 48.9341 45.7812 49.3281 45.3559 49.387C45.0414 49.4305 44.7287 49.4517 44.4199 49.4517ZM42.6792 30.0412C39.1253 30.5329 36.634 33.8242 37.1257 37.3781L37.9792 43.5466C38.4293 46.7992 41.225 49.1617 44.4202 49.162C44.7162 49.162 45.0149 49.1418 45.316 49.1001C45.5832 49.063 45.7704 48.8156 45.7336 48.5484L43.2307 30.4587C43.2128 30.3293 43.1456 30.2146 43.0413 30.1357C42.9373 30.057 42.8093 30.0233 42.6792 30.0412Z" fill="#371A45"/>
<g opacity="0.2">
<path d="M45.1851 43.5093L45.8788 48.5278C45.9272 48.8745 45.683 49.1946 45.3364 49.243C43.4265 49.5064 41.5921 48.9323 40.2085 47.799C38.959 46.7755 38.0769 45.2945 37.8376 43.5668L37.4778 40.9675C38.8262 43.1051 41.3474 44.3755 44.0153 44.0068L44.6754 43.9154C44.9163 43.8815 45.1028 43.72 45.1851 43.5093Z" fill="#371A45"/>
</g>
<path d="M44.4193 50.1134C40.7567 50.1134 37.5527 47.4054 37.0371 43.6771L36.1835 37.5086C35.62 33.4352 38.4753 29.6629 42.5487 29.0992C42.929 29.0471 43.3083 29.1452 43.6152 29.3776C43.9219 29.6098 44.1199 29.9475 44.1725 30.3286L46.6754 48.4182C46.7841 49.2049 46.2328 49.9334 45.4464 50.0424C45.1014 50.0901 44.7583 50.1134 44.4193 50.1134ZM42.5992 30.7227C39.4979 31.2441 37.3469 34.1521 37.7805 37.2876L38.6341 43.4562C39.0384 46.3782 41.5498 48.5005 44.4204 48.5008C44.6301 48.5008 44.8413 48.4895 45.0543 48.4664L42.5992 30.7227ZM42.7696 30.6965C42.7691 30.6965 42.7691 30.6966 42.7687 30.6966C42.7689 30.6967 42.7693 30.6965 42.7696 30.6965Z" fill="#371A45"/>
<path d="M73.8544 66.5601C91.0415 66.5601 104.974 52.6272 104.974 35.4401C104.974 18.253 91.0415 4.32007 73.8544 4.32007C56.6673 4.32007 42.7344 18.253 42.7344 35.4401C42.7344 52.6272 56.6673 66.5601 73.8544 66.5601Z" fill="white"/>
<path d="M73.8333 66.7052C57.5323 66.7052 43.7575 54.0147 42.6588 37.5168C41.5131 20.3155 54.5757 5.3892 71.7771 4.24371C88.9839 3.09761 103.905 16.1609 105.05 33.3621C106.196 50.5635 93.1333 65.4898 75.9318 66.6352C75.2283 66.6821 74.5282 66.7052 73.8333 66.7052ZM73.8755 4.4634C73.1859 4.4634 72.4943 4.4862 71.7964 4.53262C54.7544 5.66763 41.813 20.4555 42.9478 37.4975C44.0827 54.5395 58.8689 67.4811 75.9126 66.3462C92.9546 65.2114 105.896 50.4234 104.761 33.3813C103.673 17.0374 90.0241 4.4634 73.8755 4.4634Z" fill="#371A45"/>
<g opacity="0.2">
<path d="M104.322 29.0923C104.614 30.4831 104.809 31.9113 104.907 33.3711C106.046 50.5199 93.0709 65.3474 75.9224 66.4909C58.7736 67.6306 43.9461 54.6549 42.8026 37.5065C42.7694 37.0133 42.748 36.519 42.7393 36.0314C45.8392 51.0074 59.5838 61.7814 75.2746 60.7371C91.93 59.6266 104.647 45.6094 104.322 29.0923Z" fill="#371A45"/>
</g>
<path d="M73.8337 67.3667C57.1879 67.3667 43.1216 54.4077 41.9996 37.5608C40.83 19.9955 54.1686 4.75352 71.7341 3.58376C89.3011 2.41504 104.542 15.753 105.711 33.3181V33.3183C106.881 50.8835 93.5418 66.1255 75.9765 67.2952C75.2583 67.343 74.5434 67.3667 73.8337 67.3667ZM73.8759 5.12488C73.201 5.12488 72.5243 5.14714 71.8411 5.1926C55.163 6.30328 42.4979 20.7756 43.6087 37.4536C44.7195 54.1317 59.1848 66.7954 75.8695 65.6863C92.5477 64.5757 105.213 50.1035 104.102 33.4253C103.037 17.4302 89.6797 5.12488 73.8759 5.12488Z" fill="#371A45"/>
<path d="M104.86 34.1761C105.357 40.2456 103.847 46.0416 100.859 50.9794C98.6186 54.6813 88.7343 61.6478 75.9206 62.8117C64.0395 63.8909 52.7031 58.4363 49.8911 55.1476C46.1403 50.7609 43.7093 45.2872 43.2129 39.2177C41.8993 23.1561 55.1543 15.3691 72.1785 13.9769C89.2026 12.5846 103.547 18.1146 104.86 34.1761Z" fill="#371A45"/>
<path d="M72.7587 63.759C61.7275 63.759 51.9698 58.8196 49.2777 55.671C45.2782 50.9934 42.9029 45.3265 42.4087 39.2828C41.7643 31.4048 44.4268 25.0721 50.3215 20.4607C55.4638 16.4381 62.9988 13.918 72.1121 13.1727C81.2252 12.4275 89.07 13.6898 94.7972 16.8234C101.363 20.4158 105.019 26.2317 105.663 34.1098C106.157 40.1536 104.734 46.1311 101.548 51.3962C99.338 55.0478 89.5732 62.3804 75.9929 63.614C74.9065 63.7127 73.8265 63.759 72.7587 63.759ZM77.0919 14.5761C75.5243 14.5761 73.9072 14.6438 72.2435 14.7798C63.2173 15.518 42.398 19.3704 44.0156 39.1514C44.4822 44.8548 46.7254 50.2049 50.5033 54.623C53.1853 57.7599 64.2511 63.0616 75.847 62.0082C88.6948 60.8411 98.1701 53.8632 100.168 50.5613C103.178 45.5883 104.522 39.9448 104.056 34.2412C103.459 26.9379 100.083 21.5536 94.023 18.238C89.6036 15.8199 83.8143 14.5761 77.0919 14.5761Z" fill="#371A45"/>
<g opacity="0.5">
<path d="M98.6333 33.2056C98.9299 30.1786 97.3922 27.5505 95.1988 27.3357C93.0053 27.1208 90.9868 29.4004 90.6903 32.4274C90.3937 35.4544 91.9314 38.0824 94.1248 38.2973C96.3183 38.5122 98.3368 36.2325 98.6333 33.2056Z" fill="white"/>
</g>
<g opacity="0.5">
<path d="M92.7911 44.596C93.1179 43.2387 92.4386 41.9111 91.2739 41.6306C90.1092 41.3502 88.9 42.2231 88.5732 43.5803C88.2464 44.9376 88.9257 46.2652 90.0904 46.5457C91.2551 46.8261 92.4643 45.9532 92.7911 44.596Z" fill="white"/>
</g>
<g opacity="0.35">
<path d="M97.6414 19.6823C101.704 22.9698 104.333 27.7243 104.861 34.1751C105.358 40.2458 103.847 46.0415 100.861 50.9793C98.6202 54.6812 88.735 61.6474 75.9216 62.8126C71.3973 63.2248 66.9534 62.6878 63.0269 61.6824C78.747 59.9144 90.783 51.372 93.5611 46.7806C97.3541 40.5136 99.2694 33.1565 98.6385 25.455C98.4714 23.3965 98.1314 21.4744 97.6414 19.6823Z" fill="#111A28"/>
</g>
<path d="M44.4144 26.0978C44.2524 26.0978 44.089 26.0466 43.9501 25.9409C43.6334 25.6996 43.5569 25.2596 43.7622 24.9278C48.546 16.4988 58.7193 11.0578 71.679 9.99771C84.5559 8.94397 95.4711 12.5155 101.627 19.7945C101.855 20.0515 101.891 20.4408 101.689 20.7375C101.45 21.0874 100.976 21.1796 100.625 20.9407L100.539 20.8818L100.467 20.7986C94.6373 13.8935 84.1906 10.5134 71.804 11.5267C59.3488 12.5456 49.6104 17.7131 45.0856 25.7041L45.025 25.7956C44.8741 25.9937 44.6455 26.0978 44.4144 26.0978Z" fill="#371A45"/>
<g opacity="0.5">
<path d="M50.9168 48.2057C50.9168 48.2057 44.6464 32.7677 52.6693 25.7553C60.6922 18.7428 72.9799 17.7635 72.7571 18.575C72.7571 18.575 59.4253 22.9799 54.983 34.1676C51.5574 42.7947 50.9168 48.2057 50.9168 48.2057Z" fill="white"/>
</g>
<path d="M82.127 96.6801C82.127 96.6801 88.8198 83.0544 99.096 86.7697C105.095 88.9386 105.095 94.0925 105.095 94.0925C105.095 94.0925 111.113 92.7486 111.805 98.5404C112.784 106.729 102.833 116.508 96.0256 114.695C89.8135 113.039 91.2008 100.991 83.3605 105.825" fill="white"/>
<path d="M67.729 96.6807C67.729 96.6807 60.3909 83.179 50.7599 86.7703C44.9162 88.9494 44.7609 94.0932 44.7609 94.0932C44.7609 94.0932 38.7429 92.7492 38.0507 98.541C37.072 106.73 47.0233 116.509 53.8303 114.695C60.0425 113.04 58.6552 100.991 66.4955 105.825" fill="white"/>
<g opacity="0.3">
<path d="M96.026 114.695C91.0911 113.381 90.9524 105.503 87.1709 104.747L87.0982 104.803C87.0982 104.803 80.1085 107.234 74.2908 107.254C69.4185 107.237 63.7293 105.531 62.0043 104.976C58.8672 106.481 58.4511 113.466 53.8308 114.695C47.0238 116.51 37.0728 106.73 38.0503 98.5408C38.216 97.149 38.6895 96.1714 39.3153 95.4865C43.1729 94.3822 46.6686 96.3778 50.4332 100.246C51.8182 101.668 55.5422 107.359 55.5067 105.796C55.4662 103.985 53.8257 102.606 54.2333 100.547C54.3043 100.193 54.3838 99.8075 54.5157 99.4185C54.7406 98.7505 55.1161 98.0757 55.8416 97.5481C56.2593 97.2436 56.7921 96.9883 57.4787 96.8107C60.3793 96.0604 62.8824 97.5569 64.6587 99.2382C67.2239 101.666 70.581 103.096 74.113 103.108C74.1723 103.109 74.2315 103.109 74.2907 103.109C74.9303 103.109 75.5723 103.096 76.2096 103.074C79.5628 102.957 82.7401 101.578 85.1707 99.2644C86.9486 97.5725 89.4621 96.0567 92.378 96.8106C92.7162 96.8986 93.0172 97.0034 93.2844 97.1252C94.1588 97.5226 94.6831 98.0807 95.0196 98.6811C95.3646 99.3017 95.5084 99.9681 95.6234 100.547C96.031 102.606 94.3905 103.985 94.3482 105.796C94.3144 107.359 98.0384 101.668 99.4235 100.246C103.188 96.3777 106.684 94.3821 110.541 95.4865C111.167 96.1714 111.641 97.1489 111.806 98.5408C112.784 106.73 102.833 116.51 96.026 114.695Z" fill="#371A45"/>
</g>
<path d="M81.7652 96.5013C82.2475 95.2229 82.8964 94.0559 83.6437 92.9328C84.0127 92.3694 84.4246 91.8349 84.8454 91.3054C85.2807 90.7881 85.732 90.281 86.2155 89.8019C87.1842 88.8467 88.2518 87.9733 89.4319 87.2457C90.6128 86.5237 91.9119 85.9479 93.2947 85.6381C94.6734 85.3195 96.1249 85.2787 97.5204 85.5096C98.2195 85.6238 98.9009 85.7987 99.5669 86.0315C100.236 86.264 100.889 86.5617 101.505 86.933C102.738 87.6732 103.815 88.7142 104.573 89.9453C104.957 90.5574 105.266 91.2126 105.502 91.8911C105.62 92.2306 105.72 92.5761 105.801 92.9285C105.842 93.1044 105.876 93.2828 105.907 93.4637C105.922 93.5542 105.935 93.646 105.947 93.7391C105.959 93.8396 105.969 93.9144 105.978 94.0479L104.902 93.2293C105.093 93.1889 105.225 93.1697 105.383 93.1476C105.535 93.1273 105.686 93.1112 105.837 93.0989C106.138 93.0746 106.441 93.0644 106.745 93.0707C107.353 93.0831 107.969 93.1581 108.58 93.3222C109.19 93.4873 109.795 93.7468 110.34 94.1228C110.885 94.4969 111.362 94.9865 111.719 95.5382C112.08 96.0888 112.326 96.6911 112.487 97.2936C112.648 97.8981 112.726 98.5025 112.758 99.0963C112.823 100.291 112.685 101.477 112.405 102.611C111.839 104.884 110.746 106.952 109.385 108.783C108.015 110.611 106.361 112.223 104.447 113.503C103.489 114.14 102.463 114.692 101.363 115.104C100.264 115.513 99.0868 115.795 97.8618 115.803C97.2514 115.809 96.6316 115.751 96.0249 115.605C95.724 115.541 95.4105 115.435 95.1138 115.32C94.8163 115.198 94.5292 115.052 94.2551 114.888C93.1555 114.218 92.3512 113.251 91.7189 112.28C91.0831 111.3 90.593 110.287 90.1074 109.314C89.6226 108.346 89.1459 107.391 88.552 106.644C88.2552 106.275 87.9304 105.969 87.5827 105.778C87.2356 105.587 86.86 105.505 86.4408 105.519C86.0216 105.537 85.5699 105.654 85.1205 105.832C84.6703 106.008 84.2219 106.245 83.7832 106.511L83.7814 106.512C83.4006 106.743 82.9048 106.621 82.674 106.241C82.4449 105.863 82.5632 105.371 82.9369 105.138C83.4286 104.832 83.9455 104.547 84.51 104.317C85.0722 104.087 85.6871 103.906 86.3618 103.866C87.033 103.827 87.7665 103.97 88.3803 104.305C88.9977 104.636 89.4739 105.105 89.8646 105.581C90.6367 106.547 91.1342 107.569 91.6375 108.545C92.1333 109.523 92.6083 110.477 93.171 111.327C93.7303 112.176 94.3836 112.916 95.1653 113.381C95.5585 113.613 95.9692 113.779 96.4248 113.879C96.8819 113.985 97.3582 114.028 97.8399 114.02C98.8041 114.006 99.7878 113.782 100.733 113.428C101.68 113.072 102.592 112.584 103.452 112.01C105.173 110.859 106.695 109.376 107.942 107.707C109.184 106.037 110.163 104.157 110.652 102.18C110.894 101.193 111.007 100.184 110.953 99.1952C110.904 98.2009 110.679 97.2573 110.205 96.5239C109.739 95.7881 109.001 95.2903 108.109 95.0465C107.665 94.9243 107.189 94.8607 106.705 94.8483C106.463 94.8417 106.219 94.8486 105.976 94.8667C105.855 94.8758 105.734 94.8881 105.615 94.9032C105.502 94.9174 105.364 94.9396 105.287 94.9553L104.257 95.1675L104.211 94.1367C104.21 94.1066 104.201 94.0185 104.194 93.9563C104.185 93.887 104.175 93.8166 104.164 93.7454C104.141 93.603 104.115 93.4593 104.082 93.316C104.018 93.0291 103.937 92.7438 103.842 92.4638C103.651 91.9038 103.4 91.3641 103.09 90.8645C102.478 89.8586 101.623 89.021 100.614 88.4045C100.109 88.0962 99.5659 87.8436 98.9984 87.6425C98.4288 87.439 97.8371 87.2827 97.2434 87.1818C96.0542 86.9773 94.8363 87.0028 93.6582 87.2659C92.4781 87.5211 91.3435 88.0105 90.2857 88.6468C89.2289 89.2883 88.2475 90.0763 87.3445 90.9548C85.5395 92.7114 83.9525 94.7517 82.4878 96.8584L82.4761 96.8752C82.3486 97.0588 82.0962 97.1041 81.9127 96.9765C81.7574 96.8685 81.7013 96.6708 81.7652 96.5013Z" fill="#371A45"/>
<path d="M97.943 114.508C98.9351 114.107 99.8469 113.846 100.787 113.496C101.714 113.131 102.6 112.637 103.438 112.068C105.108 110.92 106.6 109.481 107.824 107.853C108.441 107.042 108.991 106.183 109.456 105.285C109.921 104.388 110.313 103.455 110.578 102.495C110.844 101.536 111.007 100.555 111.007 99.5783C111.004 98.5996 110.879 97.6328 110.494 96.8266L110.491 96.8215C110.3 96.4196 110.47 95.9383 110.872 95.7465C111.263 95.5598 111.73 95.7177 111.932 96.0967C112.223 96.6469 112.42 97.2305 112.544 97.8141C112.603 98.1061 112.652 98.4002 112.673 98.6884C112.702 98.978 112.73 99.268 112.729 99.5577C112.754 100.717 112.602 101.869 112.307 102.969C111.714 105.174 110.616 107.177 109.266 108.951C108.585 109.837 107.831 110.662 107.017 111.426C106.204 112.189 105.325 112.886 104.381 113.493C103.437 114.099 102.433 114.627 101.362 115.018C100.823 115.205 100.275 115.383 99.6959 115.436C99.125 115.508 98.5291 115.474 97.9634 115.314C97.7394 115.25 97.6092 115.017 97.6729 114.792C97.7096 114.663 97.803 114.565 97.9187 114.517L97.943 114.508Z" fill="#371A45"/>
<path d="M98.4487 114.882C98.0966 114.913 97.7394 114.879 97.405 114.764C95.8905 114.245 94.6329 112.749 96.1243 108.735C97.661 104.599 103.524 96.6692 108.937 96.1827C110.356 96.0551 111.631 97.1011 111.804 98.5157C111.805 98.524 111.806 98.5323 111.807 98.5406C112.674 105.798 104.954 114.307 98.4487 114.882Z" fill="#B7B7B7"/>
<g opacity="0.4">
<path d="M110.708 104.775C111.07 103.443 111.2 102.099 111.035 100.795C111.033 100.786 111.033 100.778 111.031 100.769C110.848 99.3551 109.494 98.3086 107.989 98.4369C104.344 98.7447 100.509 102.05 97.7732 105.48C100.287 101.395 104.746 96.5595 108.935 96.1834C110.356 96.0551 111.63 97.1015 111.802 98.5155C111.804 98.5241 111.804 98.5326 111.806 98.5412C112.05 100.588 111.611 102.735 110.708 104.775Z" fill="white"/>
</g>
<g opacity="0.2">
<path d="M109.768 106.591C107.163 110.979 102.563 114.516 98.4478 114.881C98.0973 114.913 97.74 114.877 97.4048 114.763C95.8899 114.245 94.6332 112.748 96.1242 108.734C96.3858 108.029 96.7722 107.217 97.2612 106.349C97.516 106.48 99.4766 109.701 103.286 109.752C106.307 109.792 107.711 108.25 109.768 106.591Z" fill="#371A45"/>
</g>
<path d="M98.2016 115.55C97.85 115.55 97.5116 115.495 97.1918 115.386C96.2398 115.059 95.5586 114.474 95.1669 113.647C94.5834 112.415 94.6982 110.685 95.5083 108.505C97.088 104.254 103.072 96.0494 108.878 95.5274C110.634 95.3725 112.242 96.6742 112.457 98.4359L112.461 98.4733C112.869 101.885 111.491 105.835 108.679 109.299C105.799 112.846 101.902 115.236 98.5071 115.537H98.5068C98.4041 115.546 98.3024 115.55 98.2016 115.55ZM109.169 96.8293C109.111 96.8293 109.054 96.8319 108.996 96.8372C103.808 97.3034 98.1793 105.092 96.7411 108.963C96.0686 110.773 95.9353 112.198 96.3554 113.085C96.5928 113.586 97.0061 113.932 97.6184 114.142C97.8544 114.222 98.1151 114.251 98.391 114.227C101.444 113.957 104.995 111.751 107.658 108.47C110.247 105.281 111.521 101.69 111.154 98.6181L111.804 98.5154L111.151 98.595C111.029 97.5891 110.158 96.8293 109.169 96.8293Z" fill="#371A45"/>
<path d="M94.2869 106.006C94.6391 104.652 95.148 103.337 95.7543 102.066C96.3627 100.796 97.0903 99.5729 97.9556 98.4371C98.8208 97.3037 99.827 96.2539 100.994 95.3792C102.154 94.4953 103.483 93.8088 104.899 93.3514C105.302 93.221 105.735 93.4425 105.866 93.8461C105.996 94.2497 105.775 94.6826 105.371 94.813C105.349 94.8201 105.327 94.8261 105.305 94.8311L105.296 94.8331C104.021 95.1207 102.78 95.617 101.645 96.3278C100.505 97.0283 99.4692 97.9228 98.5441 98.9289C97.6189 99.9368 96.8022 101.058 96.0921 102.248C95.3839 103.439 94.7607 104.691 94.2869 106.006Z" fill="#371A45"/>
<path d="M102.224 112.379C98.2481 112.379 95.5403 110.388 95.3926 110.277C95.1024 110.059 95.0439 109.646 95.262 109.356C95.4801 109.066 95.8919 109.008 96.1817 109.225C96.2238 109.256 100.476 112.354 105.924 110.41C106.266 110.287 106.642 110.466 106.764 110.808C106.886 111.15 106.708 111.526 106.366 111.648C104.885 112.177 103.49 112.379 102.224 112.379Z" fill="#371A45"/>
<path d="M104.621 107.401C100.877 107.401 97.707 106.223 97.5073 106.147C97.1678 106.018 96.9972 105.639 97.1259 105.299C97.2543 104.96 97.6336 104.789 97.9734 104.917C98.043 104.944 104.969 107.509 110.069 104.915C110.393 104.751 110.789 104.879 110.953 105.203C111.118 105.527 110.989 105.923 110.665 106.087C108.725 107.074 106.593 107.401 104.621 107.401Z" fill="#371A45"/>
<path d="M107.225 102.696C104.314 102.696 101.331 101.981 100.806 101.85C100.454 101.761 100.24 101.404 100.329 101.052C100.416 100.7 100.773 100.485 101.126 100.574C103.325 101.125 109.449 102.159 111.356 100.351C111.62 100.101 112.036 100.113 112.286 100.376C112.536 100.64 112.524 101.056 112.261 101.306C111.141 102.367 109.199 102.696 107.225 102.696Z" fill="#371A45"/>
<path d="M67.3688 96.861C65.9023 94.7777 64.3042 92.768 62.4931 91.042C60.6869 89.3212 58.5435 87.9317 56.183 87.4007C55.0092 87.1281 53.7949 87.0804 52.6024 87.2456C52.0098 87.3274 51.4063 87.4628 50.8432 87.6417C50.2922 87.8178 49.7689 88.0646 49.2853 88.3766C48.3144 88.9969 47.5175 89.8908 46.9074 90.9143C46.6013 91.4262 46.3418 91.972 46.1259 92.5359C46.0173 92.8176 45.9215 93.1047 45.8371 93.3935C45.7958 93.5379 45.756 93.6828 45.7215 93.8269C45.6873 93.9654 45.6526 94.1274 45.6341 94.2348L45.478 95.1435L44.5687 94.9562C44.4921 94.9405 44.3541 94.9183 44.2414 94.9042C44.1222 94.889 44.0013 94.8768 43.8799 94.8676C43.6371 94.8496 43.3928 94.8427 43.1509 94.8492C42.6669 94.8616 42.1911 94.9252 41.7469 95.0474C40.8548 95.2913 40.1173 95.789 39.6511 96.5249C39.177 97.2582 38.9524 98.2019 38.9035 99.1961C38.8484 100.185 38.9619 101.194 39.2043 102.181C39.6926 104.158 40.6721 106.038 41.9139 107.708C43.161 109.377 44.683 110.86 46.4038 112.011C47.2639 112.585 48.1759 113.073 49.1228 113.429C50.0681 113.783 51.0518 114.007 52.0161 114.02C52.4976 114.029 52.974 113.986 53.431 113.88C53.8867 113.78 54.2974 113.614 54.6905 113.382C55.4723 112.917 56.1255 112.177 56.6848 111.328C57.2475 110.478 57.7225 109.524 58.2183 108.546C58.7216 107.57 59.2191 106.548 59.9913 105.582C60.382 105.106 60.8582 104.637 61.4755 104.306C62.0894 103.971 62.8228 103.828 63.4941 103.867C64.1688 103.907 64.7836 104.088 65.3459 104.318C65.9103 104.548 66.4272 104.833 66.9189 105.139C67.2968 105.375 67.4122 105.872 67.1767 106.25C66.943 106.625 66.4516 106.741 66.0748 106.513L66.0726 106.512C65.634 106.246 65.1855 106.009 64.7353 105.833C64.2859 105.655 63.8342 105.538 63.415 105.52C62.9958 105.506 62.6202 105.588 62.2731 105.779C61.9254 105.97 61.6007 106.276 61.304 106.645C60.7099 107.392 60.2332 108.347 59.7484 109.315C59.2629 110.288 58.7728 111.301 58.137 112.281C57.5047 113.252 56.7005 114.219 55.6008 114.889C55.3266 115.053 55.0397 115.199 54.7421 115.321C54.4454 115.436 54.1318 115.542 53.831 115.606C53.2243 115.752 52.6045 115.81 51.9941 115.804C50.7691 115.796 49.5917 115.514 48.4933 115.105C47.3932 114.693 46.3666 114.141 45.4088 113.504C43.4948 112.224 41.8411 110.612 40.471 108.784C39.1098 106.953 38.0168 104.885 37.4508 102.612C37.1712 101.478 37.0323 100.292 37.0974 99.0973C37.1302 98.5035 37.2077 97.8991 37.3684 97.2946C37.5299 96.6921 37.7759 96.0898 38.137 95.5392C38.4942 94.9875 38.9707 94.4979 39.5159 94.1238C40.0611 93.7478 40.6663 93.4883 41.2756 93.3232C41.8863 93.1591 42.5028 93.0841 43.1107 93.0717C43.4149 93.0654 43.7173 93.0756 44.0192 93.0999C44.1702 93.1122 44.321 93.1283 44.4728 93.1486C44.6308 93.1707 44.7631 93.1899 44.9539 93.2303L43.8884 93.9518C43.9265 93.7384 43.9633 93.5825 44.0072 93.4049C44.0497 93.2326 44.0972 93.0637 44.1465 92.8954C44.2469 92.5597 44.3596 92.2292 44.4869 91.9039C44.7408 91.2532 45.046 90.6201 45.412 90.016C46.1395 88.8111 47.1229 87.7071 48.3567 86.9283C48.9696 86.5379 49.6363 86.2291 50.3271 86.0131C51.0067 85.8028 51.68 85.6582 52.3779 85.5656C53.7663 85.3822 55.1977 85.4493 56.5597 85.7759C57.9251 86.095 59.215 86.6569 60.3905 87.3685C61.5679 88.0807 62.6378 88.9375 63.6099 89.8772C64.0955 90.3485 64.5504 90.847 64.9871 91.3581C65.4114 91.8798 65.8259 92.4076 66.1973 92.9648C66.9499 94.0753 67.6042 95.2306 68.09 96.5006C68.1698 96.7094 68.0652 96.9434 67.8563 97.0233C67.6798 97.0908 67.485 97.0264 67.3809 96.8785L67.3688 96.861Z" fill="#371A45"/>
<path d="M61.3242 105.964C61.2787 105.964 61.2324 105.958 61.1864 105.946C60.8934 105.871 60.7175 105.571 60.7934 105.279C62.1666 99.98 61.3578 94.8066 58.5744 91.0844C56.741 88.6327 54.2408 87.1227 51.8862 87.0451C51.5836 87.035 51.3466 86.7818 51.3565 86.4794C51.3664 86.183 51.6097 85.9495 51.9038 85.9495C51.91 85.9495 51.9162 85.9495 51.9222 85.9497C54.6063 86.0385 57.4212 87.7126 59.4519 90.4282C62.4356 94.4181 63.3112 99.9313 61.8541 105.554C61.7902 105.8 61.5678 105.964 61.3242 105.964Z" fill="#371A45"/>
<path d="M88.6409 105.964C88.3973 105.964 88.175 105.8 88.111 105.553C86.6511 99.9202 87.2578 94.6089 89.8195 90.5974C91.535 87.9111 93.9676 86.1058 96.4938 85.6446C96.7913 85.5891 97.0768 85.7873 97.1312 86.085C97.1855 86.3827 96.9884 86.668 96.6907 86.7224C94.4631 87.1293 92.2952 88.7565 90.7431 91.1872C89.3556 93.36 87.3062 98.0802 89.1717 105.278C89.2476 105.571 89.0717 105.87 88.7787 105.946C88.7327 105.958 88.6865 105.964 88.6409 105.964Z" fill="#371A45"/>
<path d="M51.896 115.314C51.3303 115.474 50.7345 115.508 50.1637 115.436C49.5847 115.383 49.0362 115.205 48.4979 115.018C47.4261 114.627 46.4224 114.099 45.4788 113.493C44.5345 112.886 43.6557 112.189 42.8421 111.426C42.0284 110.662 41.2741 109.837 40.5938 108.951C39.2436 107.177 38.1451 105.174 37.5521 102.969C37.2576 101.869 37.1059 100.717 37.1308 99.5578C37.1291 99.2681 37.1572 98.9781 37.1861 98.6885C37.2071 98.4003 37.2561 98.1062 37.3152 97.8142C37.4395 97.2306 37.6363 96.6469 37.9277 96.0968C38.1361 95.7033 38.6242 95.5532 39.0177 95.7617C39.4007 95.9645 39.5531 96.4322 39.3688 96.8199L39.3655 96.8267C38.9807 97.6329 38.8551 98.5997 38.8521 99.5784C38.8526 100.555 39.0152 101.536 39.2818 102.495C39.546 103.455 39.9384 104.388 40.4032 105.285C40.8685 106.183 41.4186 107.043 42.0349 107.853C43.2594 109.481 44.7516 110.92 46.4219 112.068C47.259 112.637 48.1458 113.131 49.0727 113.496C50.0125 113.847 50.9243 114.107 51.9164 114.508L51.9387 114.517C52.1547 114.604 52.2591 114.85 52.1718 115.066C52.1215 115.191 52.016 115.279 51.896 115.314Z" fill="#371A45"/>
<path d="M51.4082 114.882C51.7604 114.913 52.1176 114.879 52.452 114.764C53.9665 114.245 55.2241 112.749 53.7327 108.735C52.196 104.599 46.3326 96.6692 40.9204 96.1827C39.501 96.0551 38.2262 97.1011 38.0534 98.5157C38.0523 98.524 38.0513 98.5323 38.0504 98.5406C37.1834 105.798 44.9028 114.307 51.4082 114.882Z" fill="#B7B7B7"/>
<g opacity="0.4">
<path d="M39.148 104.775C38.7855 103.443 38.6555 102.099 38.8214 100.795C38.8231 100.786 38.8231 100.778 38.8248 100.769C39.0078 99.3551 40.362 98.3086 41.8666 98.4369C45.5119 98.7447 49.347 102.05 52.0827 105.48C49.5693 101.395 45.1101 96.5595 40.9211 96.1834C39.5002 96.0551 38.2264 97.1015 38.0537 98.5155C38.052 98.5241 38.052 98.5326 38.0503 98.5412C37.8057 100.588 38.2452 102.735 39.148 104.775Z" fill="white"/>
</g>
<g opacity="0.2">
<path d="M40.0876 106.591C42.6934 110.979 47.2928 114.516 51.4083 114.881C51.7588 114.913 52.1162 114.877 52.4513 114.763C53.9662 114.245 55.2229 112.748 53.732 108.734C53.4704 108.029 53.0839 107.217 52.5949 106.349C52.3402 106.48 50.3795 109.701 46.57 109.752C43.5495 109.792 42.1447 108.25 40.0876 106.591Z" fill="#371A45"/>
</g>
<path d="M51.656 115.55C51.5552 115.55 51.4536 115.546 51.3508 115.537H51.3506C47.9559 115.236 44.0585 112.846 41.1791 109.299C38.367 105.835 36.9889 101.885 37.3979 98.4624L38.0537 98.5155L37.4011 98.4357C37.6162 96.6742 39.2218 95.3721 40.9797 95.5275C46.7856 96.0495 52.7698 104.254 54.3495 108.505C55.1594 110.686 55.2744 112.416 54.6907 113.648C54.299 114.474 53.6178 115.059 52.6656 115.386C52.3461 115.495 52.0077 115.55 51.656 115.55ZM51.4666 114.227C51.7427 114.251 52.0034 114.223 52.2391 114.142C52.8516 113.932 53.2649 113.586 53.5022 113.085C53.9224 112.198 53.789 110.773 53.1168 108.963C51.6785 105.092 46.0494 97.3035 40.862 96.8374C39.8053 96.7404 38.8366 97.531 38.7063 98.5954L38.0507 98.5404L38.7035 98.6183C38.3367 101.69 39.611 105.281 42.2001 108.47C44.863 111.751 48.4137 113.957 51.4666 114.227Z" fill="#371A45"/>
<path d="M55.5714 106.006C55.0975 104.691 54.4744 103.439 53.7662 102.248C53.0563 101.058 52.2394 99.9368 51.3142 98.9289C50.3891 97.9228 49.353 97.0283 48.213 96.3277C47.0788 95.617 45.8369 95.1207 44.5619 94.833L44.5545 94.8314C44.1407 94.738 43.881 94.3269 43.9743 93.9131C44.0676 93.4994 44.4788 93.2396 44.8925 93.333C44.915 93.338 44.9382 93.3444 44.9597 93.3513C46.3755 93.8088 47.7045 94.4953 48.8642 95.3791C50.0313 96.2539 51.0375 97.3037 51.9027 98.4371C52.7679 99.5729 53.4956 100.796 54.1041 102.066C54.7103 103.337 55.2193 104.652 55.5714 106.006Z" fill="#371A45"/>
<path d="M47.6317 112.379C46.3657 112.379 44.9716 112.177 43.4903 111.649C43.1482 111.527 42.9697 111.15 43.092 110.809C43.2139 110.467 43.5904 110.288 43.932 110.41C49.3814 112.355 53.6322 109.257 53.6744 109.225C53.9655 109.009 54.3772 109.068 54.5942 109.358C54.8115 109.649 54.7533 110.06 54.4635 110.277C54.3158 110.388 51.6075 112.379 47.6317 112.379Z" fill="#371A45"/>
<path d="M45.2369 107.401C43.2649 107.401 41.134 107.075 39.1932 106.087C38.8696 105.923 38.7408 105.527 38.9053 105.203C39.0701 104.879 39.4663 104.751 39.7895 104.915C44.8895 107.51 51.8153 104.944 51.8848 104.917C52.2235 104.789 52.604 104.96 52.7324 105.299C52.861 105.639 52.6904 106.018 52.351 106.147C52.1513 106.223 48.9809 107.401 45.2369 107.401Z" fill="#371A45"/>
<path d="M42.6309 102.696C40.6565 102.696 38.7152 102.367 37.5952 101.306C37.3315 101.056 37.3204 100.64 37.5702 100.376C37.8197 100.113 38.236 100.101 38.4997 100.351C40.4071 102.159 46.5315 101.125 48.73 100.574C49.0815 100.485 49.4393 100.7 49.5275 101.052C49.6159 101.404 49.4021 101.761 49.05 101.85C48.5252 101.981 45.5421 102.696 42.6309 102.696Z" fill="#371A45"/>
</g>
<defs>
<clipPath id="clip0_58_2307">
<rect width="148" height="148" fill="white" transform="translate(0.956299)"/>
</clipPath>
</defs>
</svg>
