<svg width="221" height="150" viewBox="0 0 221 150" fill="none" xmlns="http://www.w3.org/2000/svg">
<path d="M169.707 67.3651H167.085C166.61 67.3651 166.154 67.5539 165.818 67.89C165.482 68.2261 165.293 68.682 165.293 69.1573V74.9155C165.337 76.1555 165.116 77.3906 164.646 78.5386C164.274 79.3706 163.684 80.0858 162.936 80.6074C161.587 81.5477 159.817 81.592 158.229 81.5145C157.004 81.5452 155.796 81.2329 154.739 80.6129C153.997 80.0867 153.41 79.3701 153.041 78.5386C152.639 77.6432 152.435 76.6714 152.443 75.6899V75.607L152.499 74.8879H146.187V75.6899C146.181 77.6658 146.634 79.6161 147.509 81.3873C148.378 83.1634 149.717 84.6672 151.381 85.735C153.052 86.7322 154.942 87.3022 156.885 87.3944C158.945 87.5953 161.024 87.4871 163.053 87.0736C163.869 86.8864 164.66 86.6023 165.409 86.2273C165.575 86.1499 165.735 86.0614 165.907 85.9618C166.078 85.8622 166.156 85.8125 166.266 85.735C166.377 85.6576 166.643 85.4861 166.82 85.3533C168.788 83.8433 170.227 81.7479 170.929 79.3683C171.239 78.3754 171.425 77.348 171.483 76.3095C171.485 76.2744 171.485 76.2394 171.483 76.2044C171.483 76.0716 171.483 75.9333 171.483 75.795V69.1352C171.477 68.6666 171.288 68.2189 170.956 67.888C170.624 67.5571 170.176 67.3694 169.707 67.3651Z" fill="white"/>
<path d="M210.324 64.0463C208.328 64.0296 206.366 64.5614 204.651 65.5836C202.936 66.6058 201.535 68.0793 200.6 69.8432C200.39 70.2427 200.346 70.709 200.477 71.1408C200.609 71.5727 200.905 71.9352 201.303 72.1498L203.476 73.3169C203.859 73.5186 204.303 73.5685 204.72 73.4567C205.138 73.345 205.497 73.0797 205.728 72.714C206.19 71.9562 206.84 71.3311 207.616 70.8997C208.391 70.4682 209.265 70.2453 210.153 70.2525C212.919 70.2525 214.777 72.5757 214.777 76.0384V77.8361C214.776 78.3711 214.562 78.8838 214.184 79.2621C213.806 79.6405 213.293 79.8536 212.758 79.8551H201.695C201.221 79.8551 200.766 80.0432 200.43 80.3781C200.094 80.713 199.905 81.1674 199.903 81.6417V84.1309C199.905 84.6052 200.094 85.0597 200.43 85.3946C200.766 85.7295 201.221 85.9175 201.695 85.9175H213.101C215.196 85.9161 217.204 85.0834 218.685 83.6024C220.166 82.1214 220.998 80.1131 221 78.0187V75.9001C220.978 67.7523 215.457 64.0463 210.324 64.0463Z" fill="white"/>
<path d="M179.763 85.8567C181.549 86.9791 183.623 87.5559 185.732 87.5161C186.695 87.5205 187.655 87.409 188.591 87.1842C187.269 88.5993 185.443 89.436 183.508 89.513C182.949 89.5246 182.39 89.4594 181.849 89.3194L179.708 88.7662C179.326 88.6784 178.926 88.7238 178.574 88.8948C178.222 89.0659 177.939 89.3524 177.772 89.7066L176.566 92.2953C176.454 92.5233 176.395 92.7741 176.395 93.0282C176.395 93.2824 176.454 93.5331 176.566 93.7611C176.937 94.5134 177.672 94.6683 178.425 94.9006C179.986 95.4024 181.614 95.6653 183.254 95.6805C186.07 95.6805 188.817 94.8002 191.109 93.1628C193.401 91.5254 195.124 89.2127 196.037 86.5481L196.203 86.0337C196.203 86.0005 196.203 85.9618 196.241 85.8954C196.402 85.3516 196.524 84.7971 196.606 84.236C196.64 84.0037 196.667 83.7769 196.695 83.5446L196.728 83.1076C196.728 82.8476 196.756 82.5932 196.761 82.3332V82.2834C196.844 80.624 196.894 78.6824 196.905 76.4201V76.326C196.905 76.1822 196.905 76.0384 196.905 75.8891V75.4963V75.2198C196.91 75.1535 196.91 75.0869 196.905 75.0206C196.808 73.3148 196.367 71.6462 195.611 70.1143C194.694 68.285 193.286 66.747 191.544 65.6722C189.803 64.5974 187.797 64.0281 185.751 64.0281C183.705 64.0281 181.699 64.5974 179.958 65.6722C178.216 66.747 176.808 68.285 175.891 70.1143C175.025 71.8866 174.574 73.8333 174.574 75.8061C174.574 77.7789 175.025 79.7256 175.891 81.4979C176.763 83.2748 178.102 84.7814 179.763 85.8567ZM182.717 70.3244C183.614 69.7412 184.661 69.4308 185.732 69.4308C186.802 69.4308 187.849 69.7412 188.746 70.3244C189.597 70.925 190.267 71.7478 190.682 72.703C191.116 73.6848 191.34 74.7465 191.34 75.8199C191.34 76.8934 191.116 77.955 190.682 78.9369C190.264 79.88 189.594 80.6896 188.746 81.2767C187.859 81.8808 186.805 82.1922 185.732 82.1672C184.666 82.2028 183.617 81.9008 182.734 81.3043C181.895 80.7117 181.231 79.9032 180.814 78.9645C180.371 77.9828 180.146 76.9164 180.156 75.8393C180.149 74.7695 180.368 73.7102 180.798 72.7306C181.198 71.764 181.864 70.9301 182.717 70.3244Z" fill="white"/>
<path d="M160.608 63.5816C162.37 63.5816 163.799 62.1527 163.799 60.39C163.799 58.6273 162.37 57.1984 160.608 57.1984C158.845 57.1984 157.416 58.6273 157.416 60.39C157.416 62.1527 158.845 63.5816 160.608 63.5816Z" fill="white"/>
<path d="M128.31 63.5816C130.072 63.5816 131.501 62.1527 131.501 60.39C131.501 58.6273 130.072 57.1984 128.31 57.1984C126.547 57.1984 125.118 58.6273 125.118 60.39C125.118 62.1527 126.547 63.5816 128.31 63.5816Z" fill="white"/>
<path d="M123.431 60.39C123.43 59.759 123.242 59.1425 122.89 58.6183C122.539 58.0942 122.04 57.686 121.457 57.4452C120.874 57.2045 120.232 57.1421 119.613 57.2659C118.994 57.3897 118.426 57.6941 117.98 58.1407C117.535 58.5872 117.231 59.1559 117.109 59.7749C116.986 60.3939 117.049 61.0353 117.291 61.6182C117.533 62.2011 117.942 62.6992 118.467 63.0497C118.991 63.4001 119.608 63.5872 120.239 63.5872C121.086 63.5857 121.898 63.2482 122.496 62.6488C123.095 62.0493 123.431 61.237 123.431 60.39Z" fill="white"/>
<path d="M48.3474 67.5255H45.72C45.2456 67.5255 44.7906 67.7136 44.4547 68.0485C44.1187 68.3834 43.9292 68.8378 43.9278 69.3122C43.9278 71.4473 44.1988 76.6081 43.2917 78.605C42.9227 79.4353 42.3335 80.1488 41.588 80.6682C40.804 81.1686 39.8934 81.4344 38.9633 81.4344C38.0333 81.4344 37.1226 81.1686 36.3387 80.6682C35.5965 80.1443 35.0097 79.4295 34.6405 78.5995C33.9491 77.0838 34.0874 75.347 33.8274 73.7263C33.7555 73.3059 33.6725 72.8855 33.5674 72.4706C33.3599 71.6405 33.0671 70.8342 32.6934 70.0645C31.7772 68.235 30.3699 66.6966 28.629 65.6215C26.8882 64.5464 24.8825 63.977 22.8364 63.977C20.7904 63.977 18.7847 64.5464 17.0438 65.6215C15.303 66.6966 13.8957 68.235 12.9794 70.0645C11.6158 72.8211 11.2899 75.9763 12.0612 78.9535C10.5069 81.2877 8.05091 81.9958 4.00744 81.3652C3.62587 81.3043 3.23495 81.3746 2.89843 81.5644C2.5619 81.7543 2.29964 82.0526 2.15441 82.4106L1.15322 84.8721C1.04089 85.115 0.988987 85.3815 1.00195 85.6489C1.01491 85.9162 1.09234 86.1765 1.22764 86.4074C1.36294 86.6383 1.5521 86.8331 1.77897 86.9751C2.00584 87.1171 2.2637 87.2022 2.53054 87.223C3.53498 87.3621 4.54775 87.4323 5.56177 87.4332C9.49462 87.4332 12.7969 86.3269 15.0039 84.2692C15.5702 84.837 16.195 85.3432 16.868 85.7793C18.6528 86.9032 20.7276 87.4801 22.8364 87.4387C24.61 87.4691 26.3648 87.0726 27.953 86.2826C28.1189 86.1996 28.2794 86.1111 28.4508 86.0116L28.5117 85.9729C28.6147 85.9178 28.7144 85.8568 28.8104 85.7903C29.5707 85.2905 30.2656 84.6977 30.8791 84.0258C31.5055 84.6993 32.2135 85.292 32.9866 85.7903C34.7727 86.9159 36.8498 87.4929 38.9606 87.4497C40.7291 87.4708 42.4772 87.0708 44.0605 86.2826C44.2191 86.2015 44.3795 86.113 44.5418 86.0171L44.9124 85.7903C47.1729 84.285 48.83 82.0305 49.592 79.4236C49.7713 78.8328 49.9099 78.2303 50.0068 77.6204L50.0511 77.2332C50.0511 77.1723 50.0511 77.117 50.0511 77.0617V76.9843C50.0769 76.7556 50.0935 76.5344 50.1009 76.3205V76.2929C50.1009 76.1767 50.1009 76.0605 50.1009 75.9388C50.1009 75.9112 50.1009 75.8835 50.1009 75.8559V69.3122C50.0995 68.8445 49.9154 68.3958 49.5878 68.062C49.2602 67.7282 48.815 67.5356 48.3474 67.5255ZM25.4251 80.5908C24.6615 81.1047 23.7566 81.3676 22.8364 81.3431C21.9252 81.3655 21.0297 81.1025 20.2754 80.5908C19.5465 80.0697 18.973 79.3604 18.6159 78.5386C18.2345 77.6548 18.0378 76.7023 18.0378 75.7397C18.0378 74.7771 18.2345 73.8246 18.6159 72.9408C18.9635 72.1104 19.5388 71.3951 20.2754 70.8776C21.0317 70.351 21.9373 70.0814 22.8586 70.1087C23.7805 70.089 24.6856 70.3578 25.4473 70.8776C26.1814 71.4001 26.7559 72.1163 27.1067 72.9463C27.5007 73.8151 27.7043 74.7581 27.7041 75.7121C27.7093 76.6861 27.5055 77.6499 27.1067 78.5386C26.7488 79.3662 26.1663 80.0771 25.4251 80.5908Z" fill="white"/>
<path d="M79.2404 67.5255H76.6185C76.1441 67.5255 75.6891 67.7136 75.3532 68.0485C75.0172 68.3834 74.8277 68.8378 74.8263 69.3122C74.8263 69.8653 74.8263 73.0404 74.8263 73.5935C74.8263 75.2529 74.9093 77.0451 74.2068 78.605C73.8407 79.4371 73.251 80.1514 72.5031 80.6682C72.0063 81.0124 71.4397 81.2429 70.8437 81.3431H70.7883C69.8257 81.569 68.84 81.6823 67.8511 81.6805C66.7513 81.7092 65.6509 81.6519 64.5599 81.509C63.5648 81.4559 62.5971 81.1637 61.7389 80.6572C60.9984 80.1314 60.4121 79.4171 60.0408 78.5884C59.1336 76.6192 59.3825 74.2849 59.3825 72.1885V54.7866C59.3811 54.3123 59.1916 53.8579 58.8557 53.523C58.5197 53.1881 58.0647 53 57.5903 53H54.9629C54.4886 53 54.0335 53.1881 53.6976 53.523C53.3617 53.8579 53.1722 54.3123 53.1707 54.7866V75.7729C53.1638 77.7512 53.6184 79.7039 54.4983 81.4758C55.3683 83.2496 56.7074 84.7512 58.3703 85.818C60.9092 87.4774 64.1783 87.6987 67.1265 87.588C68.5039 87.5383 69.8922 87.4608 71.2917 87.3004C72.5832 87.1975 73.8431 86.8482 75.0033 86.2716C76.105 85.6644 77.0932 84.8709 77.9239 83.9262C78.4498 83.3273 78.9166 82.679 79.3178 81.9902C80.4278 80.0799 81.0136 77.9104 81.0159 75.701V69.3122C81.0145 68.8407 80.8273 68.3888 80.495 68.0543C80.1626 67.7199 79.7118 67.5299 79.2404 67.5255Z" fill="white"/>
<path d="M72.5032 60.39C72.5021 61.0228 72.6888 61.6417 73.0397 62.1683C73.3906 62.6949 73.8899 63.1056 74.4743 63.3483C75.0587 63.5909 75.702 63.6547 76.3227 63.5315C76.9434 63.4083 77.5136 63.1037 77.9611 62.6562C78.4085 62.2088 78.7132 61.6386 78.8363 61.0179C78.9595 60.3972 78.8958 59.7539 78.6531 59.1695C78.4104 58.585 77.9998 58.0858 77.4731 57.7349C76.9465 57.384 76.3276 57.1973 75.6948 57.1983C74.8488 57.1998 74.0378 57.5365 73.4396 58.1348C72.8414 58.733 72.5046 59.544 72.5032 60.39Z" fill="white"/>
<path d="M64.8809 60.39C64.8798 61.0228 65.0665 61.6417 65.4174 62.1683C65.7683 62.6949 66.2675 63.1056 66.852 63.3483C67.4364 63.5909 68.0797 63.6547 68.7004 63.5315C69.3211 63.4083 69.8913 63.1037 70.3388 62.6562C70.7862 62.2088 71.0908 61.6386 71.214 61.0179C71.3372 60.3972 71.2734 59.7539 71.0308 59.1695C70.7881 58.585 70.3774 58.0858 69.8508 57.7349C69.3242 57.384 68.7053 57.1973 68.0725 57.1983C67.2265 57.1998 66.4155 57.5365 65.8173 58.1348C65.2191 58.733 64.8823 59.544 64.8809 60.39Z" fill="white"/>
<path d="M44.636 97.3455C46.3987 97.3455 47.8276 95.9165 47.8276 94.1538C47.8276 92.3912 46.3987 90.9622 44.636 90.9622C42.8733 90.9622 41.4443 92.3912 41.4443 94.1538C41.4443 95.9165 42.8733 97.3455 44.636 97.3455Z" fill="white"/>
<path d="M37.0134 97.3455C38.7761 97.3455 40.2051 95.9165 40.2051 94.1538C40.2051 92.3912 38.7761 90.9622 37.0134 90.9622C35.2507 90.9622 33.8218 92.3912 33.8218 94.1538C33.8218 95.9165 35.2507 97.3455 37.0134 97.3455Z" fill="white"/>
<path d="M152.006 66.5575C151.003 66.3706 149.966 66.5684 149.102 67.1117C148.238 67.655 147.61 68.5039 147.343 69.4892C146.082 74.6619 143.119 79.2606 138.93 82.5469C134.741 85.8332 129.569 87.6163 124.245 87.6099C118.92 87.6035 113.753 85.808 109.571 82.5117C105.39 79.2154 102.438 74.6096 101.189 69.4339C100.96 68.4687 100.369 67.6281 99.5388 67.0857C98.7082 66.5433 97.7011 66.3404 96.7253 66.5188L96.5428 66.5575C96.1715 66.6279 95.8178 66.7707 95.5018 66.9779C95.1858 67.185 94.9137 67.4523 94.701 67.7647C94.4883 68.077 94.3393 68.4281 94.2624 68.7981C94.1855 69.168 94.1822 69.5495 94.2527 69.9207C95.6492 76.8533 99.402 83.0889 104.874 87.5686C110.346 92.0483 117.2 94.496 124.272 94.496C131.344 94.496 138.198 92.0483 143.67 87.5686C149.142 83.0889 152.894 76.8533 154.291 69.9207C154.362 69.5498 154.36 69.1685 154.284 68.7986C154.207 68.4287 154.059 68.0774 153.847 67.765C153.634 67.4526 153.363 67.1851 153.047 66.9779C152.731 66.7707 152.377 66.6279 152.006 66.5575Z" fill="white"/>
</svg>
