<svg width="25" height="25" viewBox="0 0 25 25" fill="none" xmlns="http://www.w3.org/2000/svg">
<path opacity="0.4" d="M14.6754 4.89075L6.1236 9.15324C2.28725 11.0654 2.29396 14.205 6.13851 16.1324L14.7086 20.4289C20.4755 23.32 22.8207 20.9649 19.9281 15.2099L19.0543 13.4784C18.8032 12.9679 18.8019 12.378 19.0508 11.8686L19.9172 10.1305C22.7853 4.38691 20.42 2.02251 14.6754 4.89075Z" fill="white"/>
<path d="M9.36299 13.3992L14.7636 13.41C15.1737 13.4108 15.513 13.0715 15.5121 12.6615C15.5112 12.2516 15.1705 11.9109 14.7604 11.9101L9.35978 11.8994C8.94974 11.8986 8.61042 12.2379 8.6113 12.6478C8.61217 13.0578 8.95294 13.3984 9.36299 13.3992Z" fill="white"/>
</svg>
